<?xml version="1.0" encoding="utf-8"?>
<!-- Generator: Adobe Illustrator 26.0.1, SVG Export Plug-In . SVG Version: 6.00 Build 0)  -->
<svg version="1.1" id="Layer_1" xmlns:svg="http://www.w3.org/2000/svg"
	 xmlns="http://www.w3.org/2000/svg" xmlns:xlink="http://www.w3.org/1999/xlink" x="0px" y="0px" viewBox="0 0 136.7 138.2"
	 style="enable-background:new 0 0 136.7 138.2;" xml:space="preserve">
<style type="text/css">
	.st0{fill-opacity:0;stroke:#000000;stroke-width:1.7008;stroke-linecap:round;stroke-linejoin:round;stroke-miterlimit:10;}
	.st1{fill-rule:evenodd;clip-rule:evenodd;}
	.st2{opacity:0;enable-background:new    ;}
	.st3{fill:none;}
	.st4{font-family:'ArialMT';}
	.st5{font-size:3.7795px;}
	.st6{fill:none;stroke:#000000;stroke-width:0.5669;stroke-linecap:round;stroke-linejoin:round;}
	.st7{fill-opacity:0;stroke:#000000;stroke-width:0.5669;stroke-linecap:round;stroke-linejoin:round;stroke-miterlimit:10;}
	.st8{font-size:3.0236px;}
	.st9{letter-spacing:1;}
</style>
<desc>Picture generated by PCBNEW</desc>
<g transform="translate(0 0) scale(1 1)">
</g>
<g>
	<path class="st0" d="M46.9,26.7v55.7"/>
	<path class="st0" d="M86.2,26.7V32"/>
	<path class="st0" d="M46.9,87v17.5"/>
	<path class="st0" d="M48.1,24.8c-0.8,0.3-1.3,1-1.3,1.8"/>
	<path class="st0" d="M86.2,36.6v67.9"/>
	<path class="st0" d="M86.2,26.7c0-0.8-0.5-1.5-1.2-1.8"/>
	<path class="st0" d="M85,106.3c0.7-0.3,1.2-1,1.2-1.8"/>
	<path class="st0" d="M46.9,104.5c0,0.8,0.4,1.5,1.1,1.8"/>
	<g>
		<path class="st1" d="M82.3,105.6L82.3,105.6L82.3,105.6L82.3,105.6L82.3,105.6L82.3,105.6L82.3,105.6l0,1.7l0,0l0,0l0,0l0,0h0l0,0
			l0,0H82l0,0l0,0l0,0l0,0l0,0l-0.1-0.3l-0.2-0.2l-0.3-0.2l-0.4-0.1l-0.3,0l-0.4,0.1l-0.4,0.2l-0.3,0.2l-0.2,0.4l0,0l0,0l0,0l0,0
			l0,0h-0.3l0,0l0,0l0,0l0,0l0,0h0l0,0v-1.7l0,0h0l0,0l0,0l0,0l0,0l0,0H82.3z"/>
		<path class="st1" d="M76.6,105.6L76.6,105.6L76.6,105.6L76.6,105.6L76.6,105.6L76.6,105.6L76.6,105.6l0,1.7l0,0l0,0l0,0h0l0,0l0,0
			l0,0h-0.3l0,0l0,0l0,0l0,0l0,0l-0.1-0.3l-0.2-0.2l-0.3-0.2l-0.4-0.1l-0.3,0l-0.4,0.1l-0.4,0.2L74,107l-0.2,0.4l0,0l0,0l0,0l0,0
			l0,0h-0.3l0,0l0,0l0,0l0,0h0l0,0l0,0v-1.7l0,0l0,0h0l0,0l0,0l0,0l0,0H76.6z"/>
		<path class="st1" d="M70.9,105.6L70.9,105.6L70.9,105.6L70.9,105.6L70.9,105.6L70.9,105.6L70.9,105.6l0,1.7l0,0l0,0l0,0h0l0,0l0,0
			l0,0h-0.3l0,0l0,0l0,0l0,0l0,0l-0.1-0.3l-0.2-0.2l-0.3-0.2l-0.4-0.1l-0.3,0l-0.4,0.1l-0.4,0.2l-0.3,0.2l-0.2,0.4l0,0l0,0l0,0l0,0
			l0,0h-0.3l0,0l0,0l0,0h0l0,0l0,0l0,0v-1.7l0,0l0,0l0,0h0l0,0l0,0l0,0H70.9z"/>
		<path class="st1" d="M65.3,105.6L65.3,105.6L65.3,105.6L65.3,105.6L65.3,105.6L65.3,105.6L65.3,105.6l0,1.7l0,0l0,0l0,0h0l0,0l0,0
			l0,0H65l0,0l0,0l0,0l0,0l0,0l-0.1-0.3l-0.2-0.2l-0.3-0.2l-0.4-0.1l-0.3,0l-0.4,0.1l-0.4,0.2l-0.3,0.2l-0.2,0.4l0,0l0,0l0,0l0,0
			l0,0h-0.3l0,0l0,0l0,0h0l0,0l0,0l0,0v-1.7l0,0l0,0l0,0h0l0,0l0,0l0,0H65.3z"/>
		<path class="st1" d="M59.6,105.6L59.6,105.6L59.6,105.6L59.6,105.6L59.6,105.6L59.6,105.6L59.6,105.6l0,1.7l0,0l0,0h0l0,0l0,0l0,0
			l0,0h-0.3l0,0l0,0l0,0l0,0l0,0l-0.1-0.3l-0.2-0.2l-0.3-0.2l-0.4-0.1l-0.3,0l-0.4,0.1l-0.4,0.2L57,107l-0.2,0.4l0,0l0,0l0,0l0,0
			l0,0h-0.3l0,0l0,0l0,0h0l0,0l0,0l0,0v-1.7l0,0l0,0l0,0h0l0,0l0,0l0,0H59.6z"/>
		<path class="st1" d="M53.9,105.6L53.9,105.6L53.9,105.6L53.9,105.6L53.9,105.6L53.9,105.6L53.9,105.6l0,1.7l0,0h0l0,0l0,0l0,0l0,0
			l0,0h-0.3l0,0l0,0l0,0l0,0l0,0l-0.1-0.3l-0.2-0.2l-0.3-0.2l-0.4-0.1l-0.3,0l-0.4,0.1l-0.4,0.2l-0.3,0.2l-0.2,0.4l0,0l0,0l0,0l0,0
			l0,0h-0.3l0,0l0,0h0l0,0l0,0l0,0l0,0v-1.7l0,0l0,0l0,0l0,0h0l0,0l0,0H53.9z"/>
	</g>
	<g>
		<path class="st1" d="M50.8,25.5L50.8,25.5L50.8,25.5L50.8,25.5L50.8,25.5L50.8,25.5L50.8,25.5l0-1.7l0,0l0,0l0,0l0,0h0l0,0l0,0
			h0.3l0,0l0,0l0,0l0,0l0,0l0.1,0.3l0.2,0.2l0.3,0.2l0.4,0.1l0.3,0l0.4-0.1l0.4-0.2l0.3-0.2l0.2-0.4l0,0l0,0l0,0l0,0l0,0h0.3l0,0
			l0,0l0,0l0,0l0,0h0l0,0v1.7l0,0h0l0,0l0,0l0,0l0,0l0,0H50.8z"/>
		<path class="st1" d="M56.5,25.5L56.5,25.5L56.5,25.5L56.5,25.5L56.5,25.5L56.5,25.5L56.5,25.5l0-1.7l0,0l0,0l0,0h0l0,0l0,0l0,0
			h0.3l0,0l0,0l0,0l0,0l0,0l0.1,0.3l0.2,0.2l0.3,0.2l0.4,0.1l0.3,0l0.4-0.1l0.4-0.2l0.3-0.2l0.2-0.4l0,0l0,0l0,0l0,0l0,0h0.3l0,0
			l0,0l0,0l0,0h0l0,0l0,0v1.7l0,0l0,0h0l0,0l0,0l0,0l0,0H56.5z"/>
		<path class="st1" d="M62.1,25.5L62.1,25.5L62.1,25.5L62.1,25.5L62.1,25.5L62.1,25.5L62.1,25.5l0-1.7l0,0l0,0l0,0h0l0,0l0,0l0,0
			h0.3l0,0l0,0l0,0l0,0l0,0l0.1,0.3l0.2,0.2l0.3,0.2l0.4,0.1l0.3,0l0.4-0.1l0.4-0.2l0.3-0.2l0.2-0.4l0,0l0,0l0,0l0,0l0,0h0.3l0,0
			l0,0l0,0h0l0,0l0,0l0,0v1.7l0,0l0,0l0,0h0l0,0l0,0l0,0H62.1z"/>
		<path class="st1" d="M67.8,25.5L67.8,25.5L67.8,25.5L67.8,25.5L67.8,25.5L67.8,25.5L67.8,25.5l0-1.7l0,0l0,0l0,0h0l0,0l0,0l0,0
			h0.3l0,0l0,0l0,0l0,0l0,0l0.1,0.3l0.2,0.2l0.3,0.2l0.4,0.1l0.3,0l0.4-0.1l0.4-0.2l0.3-0.2l0.2-0.4l0,0l0,0l0,0l0,0l0,0h0.3l0,0
			l0,0l0,0h0l0,0l0,0l0,0v1.7l0,0l0,0l0,0h0l0,0l0,0l0,0H67.8z"/>
		<path class="st1" d="M73.5,25.5L73.5,25.5L73.5,25.5L73.5,25.5L73.5,25.5L73.5,25.5L73.5,25.5l0-1.7l0,0l0,0h0l0,0l0,0l0,0l0,0
			h0.3l0,0l0,0l0,0l0,0l0,0l0.1,0.3l0.2,0.2l0.3,0.2l0.4,0.1l0.3,0l0.4-0.1l0.4-0.2l0.3-0.2l0.2-0.4l0,0l0,0l0,0l0,0l0,0h0.3l0,0
			l0,0l0,0h0l0,0l0,0l0,0v1.7l0,0l0,0l0,0h0l0,0l0,0l0,0H73.5z"/>
		<path class="st1" d="M79.2,25.5L79.2,25.5L79.2,25.5L79.2,25.5L79.2,25.5L79.2,25.5L79.2,25.5l0-1.7l0,0h0l0,0l0,0l0,0l0,0l0,0
			h0.3l0,0l0,0l0,0l0,0l0,0l0.1,0.3l0.2,0.2l0.3,0.2l0.4,0.1l0.3,0l0.4-0.1l0.4-0.2l0.3-0.2l0.2-0.4l0,0l0,0l0,0l0,0l0,0h0.3l0,0
			l0,0h0l0,0l0,0l0,0l0,0v1.7l0,0l0,0l0,0l0,0h0l0,0l0,0H79.2z"/>
	</g>
	<g>
		<circle cx="59.3" cy="45.4" r="1.8"/>
	</g>
	<g>
		<circle cx="66.5" cy="45.4" r="1.8"/>
	</g>
	<g>
		<circle cx="73.7" cy="45.4" r="1.8"/>
	</g>
	<g>
		<circle cx="59.3" cy="95.8" r="1.8"/>
	</g>
	<g>
		<circle cx="66.5" cy="95.8" r="1.8"/>
	</g>
	<g>
		<circle cx="73.7" cy="95.8" r="1.8"/>
	</g>
	<g>
		<path class="st1" d="M51.9,27.7v-2.2h0.9v2.2H51.9z"/>
	</g>
</g>
<g>
	<g transform="rotate(-90 51850.4 33582.7)">
		<g class="st2">
			<rect x="85372.6" y="-18216.5" class="st3" width="4.8" height="17"/>
			<text transform="matrix(1 0 0 1 85366.4609 -18207.1992)" class="st4 st5">GND_ISO</text>
		</g>
		<g class="st2">
			<rect x="85372.6" y="-18216.5" class="st3" width="4.8" height="17"/>
			<text transform="matrix(1 0 0 1 85366.4609 -18207.2012)" class="st6 st4 st5">GND_ISO</text>
		</g>
	</g>
	<path class="st7" d="M57.9,65.6l-0.1,0.3v0.4l0.1,0.4l0.3,0.3l0.3,0.1l0.5,0.1h0.4l0.5-0.1l0.3-0.1l0.3-0.3l0.1-0.4V66l-0.1-0.4
		l-0.1-0.1h-1V66"/>
	<path class="st7" d="M60.6,64.3h-2.8l2.8-1.6h-2.8"/>
	<path class="st7" d="M60.6,61.3h-2.8v-0.7l0.1-0.4l0.3-0.3l0.3-0.1l0.5-0.1h0.4l0.5,0.1l0.3,0.1l0.3,0.3l0.1,0.4V61.3"/>
	<path class="st7" d="M60.9,59.2V57"/>
	<path class="st7" d="M60.6,56.3h-2.8"/>
	<path class="st7" d="M60.5,55.1l0.1-0.4V54l-0.1-0.3l-0.1-0.1l-0.3-0.1h-0.3l-0.3,0.1l-0.1,0.1L59.3,54l-0.1,0.5L59,54.8L58.9,55
		l-0.3,0.1h-0.3L58.1,55l-0.1-0.1l-0.1-0.3v-0.7l0.1-0.4"/>
	<path class="st7" d="M57.8,51.7v-0.5l0.1-0.3l0.3-0.3l0.5-0.1h0.9l0.5,0.1l0.3,0.3l0.1,0.3v0.5L60.5,52l-0.3,0.3l-0.5,0.1h-0.9
		l-0.5-0.1L57.9,52L57.8,51.7"/>
	<g transform="rotate(-90 52874 33582.7)">
		<g class="st2">
			<rect x="86396.5" y="-19232.5" class="st3" width="4.9" height="16.4"/>
			<text transform="matrix(1 0 0 1 86390.6953 -19223.4668)" class="st4 st5">SDA_ISO</text>
		</g>
		<g class="st2">
			<rect x="86396.4" y="-19232.5" class="st3" width="4.9" height="16.4"/>
			<text transform="matrix(1 0 0 1 86390.6953 -19223.4688)" class="st6 st4 st5">SDA_ISO</text>
		</g>
	</g>
	<path class="st7" d="M67.9,66.6l0.1-0.4v-0.7l-0.1-0.3l-0.1-0.1L67.5,65h-0.3l-0.3,0.1l-0.1,0.1l-0.1,0.3L66.5,66l-0.1,0.3
		l-0.1,0.1L66,66.6h-0.3l-0.3-0.1l-0.1-0.1L65.2,66v-0.7l0.1-0.4"/>
	<path class="st7" d="M68,63.8h-2.8v-0.7l0.1-0.4l0.3-0.3l0.3-0.1l0.5-0.1h0.4l0.5,0.1l0.3,0.1l0.3,0.3l0.1,0.4V63.8"/>
	<path class="st7" d="M67.2,61.1v-1.4"/>
	<path class="st7" d="M68,61.3l-2.8-0.9l2.8-0.9"/>
	<path class="st7" d="M68.3,59.2V57"/>
	<path class="st7" d="M68,56.3h-2.8"/>
	<path class="st7" d="M67.9,55.1l0.1-0.4V54l-0.1-0.3l-0.1-0.1l-0.3-0.1h-0.3l-0.3,0.1l-0.1,0.1L66.6,54l-0.1,0.5l-0.1,0.3L66.2,55
		L66,55.1h-0.3L65.4,55l-0.1-0.1l-0.1-0.3v-0.7l0.1-0.4"/>
	<path class="st7" d="M65.2,51.7v-0.5l0.1-0.3l0.3-0.3l0.5-0.1H67l0.5,0.1l0.3,0.3l0.1,0.3v0.5L67.9,52l-0.3,0.3L67,52.4h-0.9
		l-0.5-0.1L65.3,52L65.2,51.7"/>
	<g transform="rotate(-90 53897.6 33582.7)">
		<g class="st2">
			<rect x="87420.2" y="-20248.5" class="st3" width="5" height="16"/>
			<text transform="matrix(1 0 0 1 87414.7109 -20239.7637)" class="st4 st5">SCL_ISO</text>
		</g>
		<g class="st2">
			<rect x="87420.2" y="-20248.5" class="st3" width="5" height="16"/>
			<text transform="matrix(1 0 0 1 87414.7109 -20239.7676)" class="st6 st4 st5">SCL_ISO</text>
		</g>
	</g>
	<path class="st7" d="M75.2,66.5l0.1-0.4v-0.7l-0.1-0.3L75.1,65l-0.3-0.1h-0.3L74.3,65l-0.1,0.1L74,65.4l-0.1,0.5l-0.1,0.3l-0.1,0.1
		l-0.3,0.1h-0.3l-0.3-0.1l-0.1-0.1l-0.1-0.3v-0.7l0.1-0.4"/>
	<path class="st7" d="M75.1,62l0.1,0.1l0.1,0.4v0.3l-0.1,0.4L75,63.5l-0.3,0.1l-0.5,0.1h-0.4l-0.5-0.1l-0.3-0.1l-0.3-0.3l-0.1-0.4
		v-0.3l0.1-0.4l0.1-0.1"/>
	<path class="st7" d="M75.4,59.4v1.3h-2.8"/>
	<path class="st7" d="M75.6,59.2V57"/>
	<path class="st7" d="M75.4,56.3h-2.8"/>
	<path class="st7" d="M75.2,55.1l0.1-0.4V54l-0.1-0.3l-0.1-0.1l-0.3-0.1h-0.3l-0.3,0.1l-0.1,0.1L74,54l-0.1,0.5l-0.1,0.3L73.6,55
		l-0.3,0.1h-0.3L72.8,55l-0.1-0.1l-0.1-0.3v-0.7l0.1-0.4"/>
	<path class="st7" d="M72.5,51.7v-0.5l0.1-0.3l0.3-0.3l0.5-0.1h0.9l0.5,0.1l0.3,0.3l0.1,0.3v0.5L75.2,52L75,52.3l-0.5,0.1h-0.9
		l-0.5-0.1L72.7,52L72.5,51.7"/>
	<g transform="rotate(-90 51929.1 38061.5)">
		<g class="st2">
			<rect x="89901.7" y="-13811.9" class="st3" width="5" height="9"/>
			<text transform="matrix(1 0 0 1 89899.7031 -13806.6904)" class="st4 st5">VISO</text>
		</g>
		<g class="st2">
			<rect x="89901.7" y="-13811.9" class="st3" width="5" height="9"/>
			<text transform="matrix(1 0 0 1 89899.7031 -13806.6924)" class="st6 st4 st5">VISO</text>
		</g>
	</g>
	<path class="st7" d="M58.4,91.4l2.8-0.9l-2.8-0.9"/>
	<path class="st7" d="M61.2,88.6h-2.8"/>
	<path class="st7" d="M61.1,87.4l0.1-0.4v-0.7L61.1,86l-0.1-0.1l-0.3-0.1h-0.3l-0.3,0.1L60,86l-0.1,0.3l-0.1,0.5l-0.1,0.3l-0.1,0.1
		l-0.3,0.1h-0.3l-0.3-0.1l-0.1-0.1l-0.1-0.3v-0.7l0.1-0.4"/>
	<path class="st7" d="M58.4,84v-0.5l0.1-0.3l0.3-0.3l0.5-0.1h1l0.5,0.1l0.3,0.3l0.1,0.3V84l-0.1,0.3l-0.3,0.3l-0.5,0.1h-1l-0.5-0.1
		l-0.3-0.3L58.4,84"/>
	<g transform="rotate(-90 53897.6 36692.9)">
		<g class="st2">
			<rect x="90506.9" y="-17139.4" class="st3" width="4.9" height="18.3"/>
			<text transform="matrix(1 0 0 1 90500.2109 -17129.5176)" class="st4 st5">PRB_GND</text>
		</g>
		<g class="st2">
			<rect x="90506.9" y="-17139.4" class="st3" width="4.9" height="18.3"/>
			<text transform="matrix(1 0 0 1 90500.2109 -17129.5195)" class="st6 st4 st5">PRB_GND</text>
		</g>
	</g>
	<path class="st7" d="M75.4,91h-2.8v-1.1l0.1-0.3l0.1-0.1l0.3-0.1h0.4l0.3,0.1l0.1,0.1l0.1,0.3V91"/>
	<path class="st7" d="M75.4,86.6L74,87.5"/>
	<path class="st7" d="M75.4,88.2h-2.8v-1.1l0.1-0.3l0.1-0.1l0.3-0.1h0.4l0.3,0.1l0.1,0.1l0.1,0.3v1.1"/>
	<path class="st7" d="M73.9,84.4L74,84l0.1-0.1l0.3-0.1h0.4l0.3,0.1l0.1,0.1l0.1,0.3v1.1h-2.8v-0.9l0.1-0.3l0.1-0.1l0.3-0.1h0.3
		l0.3,0.1l0.1,0.1L73.9,84.4v0.9"/>
	<path class="st7" d="M75.6,83.2V81"/>
	<path class="st7" d="M72.7,78.9l-0.1,0.3v0.4l0.1,0.4l0.3,0.3l0.3,0.1l0.5,0.1h0.4l0.5-0.1l0.3-0.1l0.3-0.3l0.1-0.4v-0.3l-0.1-0.4
		l-0.1-0.1h-0.9v0.5"/>
	<path class="st7" d="M75.4,77.5h-2.8l2.8-1.6h-2.8"/>
	<path class="st7" d="M75.4,74.5h-2.8v-0.7l0.1-0.4l0.3-0.3l0.3-0.1l0.5-0.1h0.4l0.5,0.1l0.3,0.1l0.3,0.3l0.1,0.4V74.5"/>
	<g transform="rotate(-90 52913.4 38192.7)">
		<g class="st2">
			<rect x="91016.7" y="-14657.4" class="st3" width="5.3" height="7.8"/>
			<text transform="matrix(1 0 0 1 91015.5078 -14652.8994)" class="st4 st5">PRB</text>
		</g>
		<g class="st2">
			<rect x="91016.7" y="-14657.4" class="st3" width="5.3" height="7.8"/>
			<text transform="matrix(1 0 0 1 91015.5078 -14652.9014)" class="st6 st4 st5">PRB</text>
		</g>
	</g>
	<path class="st7" d="M68.3,91h-2.8v-1.1l0.1-0.3l0.1-0.1l0.3-0.1h0.4l0.3,0.1l0.1,0.1l0.1,0.3V91"/>
	<path class="st7" d="M68.3,86.6l-1.3,0.9"/>
	<path class="st7" d="M68.3,88.2h-2.8v-1.1l0.1-0.3l0.1-0.1l0.3-0.1h0.4l0.3,0.1l0.1,0.1l0.1,0.3v1.1"/>
	<path class="st7" d="M66.8,84.4l0.1-0.4l0.1-0.1l0.3-0.1h0.4l0.3,0.1l0.1,0.1l0.1,0.3v1.1h-2.8v-0.9l0.1-0.3l0.1-0.1l0.3-0.1h0.3
		l0.3,0.1l0.1,0.1L66.8,84.4v0.9"/>
</g>
<g>
	<g class="st2">
		<rect x="73.6" y="108.3" class="st3" width="4.5" height="3.6"/>
		<text transform="matrix(1 0 0 1 73.6468 110.8487)"><tspan x="0" y="0" class="st4 st8 st9">1</tspan><tspan x="2.8" y="0" class="st4 st8">1</tspan></text>
	</g>
	<g class="st2">
		<rect x="73.6" y="108.3" class="st3" width="4.5" height="3.6"/>
		<text transform="matrix(1 0 0 1 73.6439 110.8468)"><tspan x="0" y="0" class="st6 st4 st8 st9">1</tspan><tspan x="2.8" y="0" class="st6 st4 st8">1</tspan></text>
	</g>
	<path class="st7" d="M74.8,110.7h-1.3"/>
	<path class="st7" d="M74.1,110.7v-2.3l-0.2,0.3l-0.2,0.2l-0.2,0.1"/>
	<path class="st7" d="M76.9,110.7h-1.3"/>
	<path class="st7" d="M76.3,110.7v-2.3l-0.2,0.3l-0.2,0.2l-0.2,0.1"/>
	<g class="st2">
		<rect x="62.8" y="108.3" class="st3" width="2.9" height="3.6"/>
		<text transform="matrix(1 0 0 1 62.7532 110.8487)" class="st4 st8">9</text>
	</g>
	<g class="st2">
		<rect x="62.7" y="108.3" class="st3" width="2.9" height="3.6"/>
		<text transform="matrix(1 0 0 1 62.7503 110.8468)" class="st6 st4 st8">9</text>
	</g>
	<path class="st7" d="M63.2,110.7h0.4l0.2-0.1l0.1-0.1l0.2-0.3l0.1-0.4v-0.9l-0.1-0.2l-0.1-0.1l-0.2-0.1h-0.4l-0.2,0.1l-0.1,0.1
		l-0.1,0.2v0.5l0.1,0.2l0.1,0.1l0.2,0.1h0.4l0.2-0.1l0.1-0.1l0.1-0.2"/>
	<g class="st2">
		<rect x="79.2" y="108.3" class="st3" width="5.1" height="3.6"/>
		<text transform="matrix(1 0 0 1 79.2044 110.8487)"><tspan x="0" y="0" class="st4 st8 st9">1</tspan><tspan x="3.4" y="0" class="st4 st8">2</tspan></text>
	</g>
	<g class="st2">
		<rect x="79.2" y="108.3" class="st3" width="5.1" height="3.6"/>
		<text transform="matrix(1 0 0 1 79.2015 110.8468)"><tspan x="0" y="0" class="st6 st4 st8 st9">1</tspan><tspan x="3.4" y="0" class="st6 st4 st8">2</tspan></text>
	</g>
	<path class="st7" d="M80.5,110.7h-1.3"/>
	<path class="st7" d="M79.8,110.7v-2.3l-0.2,0.3l-0.2,0.2l-0.2,0.1"/>
	<path class="st7" d="M81.3,108.7l0.1-0.1l0.2-0.1h0.5l0.2,0.1l0.1,0.1l0.1,0.2v0.2l-0.1,0.3l-1.3,1.3h1.4"/>
	<g class="st2">
		<rect x="57.1" y="108.3" class="st3" width="2.9" height="3.6"/>
		<text transform="matrix(1 0 0 1 57.0843 110.8487)" class="st4 st8">8</text>
	</g>
	<g class="st2">
		<rect x="57.1" y="108.3" class="st3" width="2.9" height="3.6"/>
		<text transform="matrix(1 0 0 1 57.0804 110.8468)" class="st6 st4 st8">8</text>
	</g>
	<path class="st7" d="M57.7,109.4l-0.2-0.1l-0.1-0.1l-0.1-0.2v-0.1l0.1-0.2l0.1-0.1l0.2-0.1h0.4l0.2,0.1l0.1,0.1l0.1,0.2v0.1
		l-0.1,0.2l-0.1,0.1l-0.2,0.1H57.7l-0.2,0.1l-0.1,0.1l-0.1,0.2v0.4l0.1,0.2l0.1,0.1l0.2,0.1h0.4l0.2-0.1l0.1-0.1l0.1-0.2v-0.4
		l-0.1-0.2l-0.1-0.1l-0.2-0.1"/>
	<g class="st2">
		<rect x="51.7" y="108.3" class="st3" width="2.9" height="3.6"/>
		<text transform="matrix(1 0 0 1 51.6985 110.8487)" class="st4 st8">7</text>
	</g>
	<g class="st2">
		<rect x="51.7" y="108.3" class="st3" width="2.9" height="3.6"/>
		<text transform="matrix(1 0 0 1 51.6946 110.8468)" class="st6 st4 st8">7</text>
	</g>
	<path class="st7" d="M51.8,108.5h1.5l-1,2.3"/>
	<g class="st2">
		<rect x="67.9" y="108.3" class="st3" width="5.1" height="3.6"/>
		<text transform="matrix(1 0 0 1 67.8655 110.8487)"><tspan x="0" y="0" class="st4 st8 st9">1</tspan><tspan x="3.4" y="0" class="st4 st8">0</tspan></text>
	</g>
	<g class="st2">
		<rect x="67.9" y="108.3" class="st3" width="5.1" height="3.6"/>
		<text transform="matrix(1 0 0 1 67.8626 110.8468)"><tspan x="0" y="0" class="st6 st4 st8 st9">1</tspan><tspan x="3.4" y="0" class="st6 st4 st8">0</tspan></text>
	</g>
	<path class="st7" d="M69.1,110.7h-1.3"/>
	<path class="st7" d="M68.5,110.7v-2.3l-0.2,0.3L68,109l-0.2,0.1"/>
	<path class="st7" d="M70.5,108.5h0.2l0.2,0.1l0.1,0.1l0.1,0.2l0.1,0.4v0.5l-0.1,0.4l-0.1,0.2l-0.1,0.1l-0.2,0.1h-0.2l-0.2-0.1
		l-0.1-0.1l-0.1-0.2l-0.1-0.4v-0.5l0.1-0.4l0.1-0.2l0.1-0.1L70.5,108.5"/>
	<g class="st2">
		<rect x="80" y="20.1" class="st3" width="2.9" height="3.6"/>
		<text transform="matrix(1 0 0 1 80.0452 22.691)" class="st4 st8">6</text>
	</g>
	<g class="st2">
		<rect x="80" y="20.1" class="st3" width="2.9" height="3.6"/>
		<text transform="matrix(1 0 0 1 80.0413 22.689)" class="st6 st4 st8">6</text>
	</g>
	<path class="st7" d="M81.3,20.3h-0.4l-0.2,0.1l-0.1,0.1l-0.2,0.3l-0.1,0.4v0.9l0.1,0.2l0.1,0.1l0.2,0.1h0.4l0.2-0.1l0.1-0.1
		l0.1-0.2v-0.5l-0.1-0.2l-0.1-0.1l-0.2-0.1h-0.4l-0.2,0.1l-0.1,0.1l-0.1,0.2"/>
	<g class="st2">
		<rect x="74.4" y="20.1" class="st3" width="2.9" height="3.6"/>
		<text transform="matrix(1 0 0 1 74.3753 22.691)" class="st4 st8">5</text>
	</g>
	<g class="st2">
		<rect x="74.4" y="20.1" class="st3" width="2.9" height="3.6"/>
		<text transform="matrix(1 0 0 1 74.3724 22.689)" class="st6 st4 st8">5</text>
	</g>
	<path class="st7" d="M75.8,20.3h-1.1l-0.1,1.1l0.1-0.1l0.2-0.1h0.5l0.2,0.1l0.1,0.1l0.1,0.2v0.5l-0.1,0.2l-0.1,0.1l-0.2,0.1h-0.5
		l-0.2-0.1l-0.1-0.1"/>
	<g class="st2">
		<rect x="68.7" y="20.1" class="st3" width="2.9" height="3.6"/>
		<text transform="matrix(1 0 0 1 68.7064 22.691)" class="st4 st8">4</text>
	</g>
	<g class="st2">
		<rect x="68.7" y="20.1" class="st3" width="2.9" height="3.6"/>
		<text transform="matrix(1 0 0 1 68.7025 22.689)" class="st6 st4 st8">4</text>
	</g>
	<path class="st7" d="M70,21.1v1.5"/>
	<path class="st7" d="M69.4,20.2l-0.5,1.6h1.4"/>
	<g class="st2">
		<rect x="62.8" y="20.1" class="st3" width="2.9" height="3.6"/>
		<text transform="matrix(1 0 0 1 62.7532 22.691)" class="st4 st8">3</text>
	</g>
	<g class="st2">
		<rect x="62.7" y="20.1" class="st3" width="2.9" height="3.6"/>
		<text transform="matrix(1 0 0 1 62.7503 22.689)" class="st6 st4 st8">3</text>
	</g>
	<path class="st7" d="M62.8,20.3h1.4l-0.8,0.9h0.3l0.2,0.1l0.1,0.1l0.1,0.2v0.5l-0.1,0.2L64,22.5l-0.2,0.1h-0.6l-0.2-0.1l-0.1-0.1"
		/>
	<g class="st2">
		<rect x="57.1" y="20.1" class="st3" width="2.9" height="3.6"/>
		<text transform="matrix(1 0 0 1 57.0843 22.691)" class="st4 st8">2</text>
	</g>
	<g class="st2">
		<rect x="57.1" y="20.1" class="st3" width="2.9" height="3.6"/>
		<text transform="matrix(1 0 0 1 57.0804 22.689)" class="st6 st4 st8">2</text>
	</g>
	<path class="st7" d="M57.3,20.5l0.1-0.1l0.2-0.1h0.5l0.2,0.1l0.1,0.1l0.1,0.2V21l-0.1,0.3l-1.3,1.3h1.4"/>
	<g class="st2">
		<rect x="51.7" y="20.1" class="st3" width="2.9" height="3.6"/>
		<text transform="matrix(1 0 0 1 51.6985 22.691)" class="st4 st8">1</text>
	</g>
	<g class="st2">
		<rect x="51.7" y="20.1" class="st3" width="2.9" height="3.6"/>
		<text transform="matrix(1 0 0 1 51.6946 22.689)" class="st6 st4 st8">1</text>
	</g>
	<path class="st7" d="M53.2,22.6h-1.3"/>
	<path class="st7" d="M52.5,22.6v-2.3l-0.2,0.3l-0.2,0.2L51.9,21"/>
	<g transform="rotate(-90 54055.1 42232.3)">
		<g class="st2">
			<rect x="96163.9" y="-11756.4" class="st3" width="4.9" height="18.3"/>
			<text transform="matrix(1 0 0 1 96157.2344 -11746.4814)" class="st4 st5">PRB_GND</text>
		</g>
		<g class="st2">
			<rect x="96163.9" y="-11756.4" class="st3" width="4.9" height="18.3"/>
			<text transform="matrix(1 0 0 1 96157.2344 -11746.4834)" class="st6 st4 st5">PRB_GND</text>
		</g>
	</g>
	<path class="st7" d="M76.5,130.9h-2.8v-1.1l0.1-0.3l0.1-0.1l0.3-0.1h0.4l0.3,0.1l0.1,0.1l0.1,0.3v1.1"/>
	<path class="st7" d="M76.5,126.4l-1.4,1"/>
	<path class="st7" d="M76.5,128.1h-2.8V127l0.1-0.3l0.1-0.1l0.3-0.1h0.4l0.3,0.1l0.1,0.1l0.1,0.3v1.1"/>
	<path class="st7" d="M75,124.3l0.1-0.4l0.1-0.1l0.3-0.1H76l0.3,0.1l0.1,0.1l0.1,0.3v1.1h-2.8v-0.9l0.1-0.3l0.1-0.1l0.3-0.1h0.3
		l0.3,0.1l0.1,0.1L75,124.3v0.9"/>
	<path class="st7" d="M76.8,123.1v-2.2"/>
	<path class="st7" d="M73.8,118.7l-0.1,0.3v0.4l0.1,0.4l0.3,0.3l0.3,0.1l0.5,0.1h0.4l0.5-0.1l0.3-0.1l0.3-0.3l0.1-0.4v-0.3l-0.1-0.4
		l-0.1-0.1h-0.9v0.5"/>
	<path class="st7" d="M76.5,117.4h-2.8l2.8-1.6h-2.8"/>
	<path class="st7" d="M76.5,114.4h-2.8v-0.7l0.1-0.4l0.3-0.3l0.3-0.1l0.5-0.1h0.4l0.5,0.1l0.3,0.1l0.3,0.3l0.1,0.4V114.4"/>
	<g transform="rotate(-90 53267.7 42232.3)">
		<g class="st2">
			<rect x="95381.6" y="-10969.5" class="st3" width="5.3" height="7.8"/>
			<text transform="matrix(1 0 0 1 95380.3281 -10965.0479)" class="st4 st5">PRB</text>
		</g>
		<g class="st2">
			<rect x="95381.6" y="-10969.5" class="st3" width="5.3" height="7.8"/>
			<text transform="matrix(1 0 0 1 95380.3281 -10965.0508)" class="st6 st4 st5">PRB</text>
		</g>
	</g>
	<path class="st7" d="M70.8,120.1H68V119l0.1-0.3l0.1-0.1l0.3-0.1h0.4l0.3,0.1l0.1,0.1l0.1,0.3v1.1"/>
	<path class="st7" d="M70.8,115.6l-1.3,0.9"/>
	<path class="st7" d="M70.8,117.3H68v-1.1l0.1-0.3l0.1-0.1l0.3-0.1h0.4l0.3,0.1l0.1,0.1l0.1,0.3v1.1"/>
	<path class="st7" d="M69.3,113.5l0.1-0.4l0.1-0.1l0.3-0.1h0.4l0.3,0.1l0.1,0.1l0.1,0.3v1.1H68v-0.9l0.1-0.3l0.1-0.1l0.3-0.1h0.3
		l0.3,0.1l0.1,0.1L69.3,113.5v0.9"/>
	<g transform="rotate(-90 51692.9 42232.3)">
		<g class="st2">
			<rect x="93802.4" y="-9410.6" class="st3" width="4.9" height="17"/>
			<text transform="matrix(1 0 0 1 93796.2969 -9401.2666)" class="st4 st5">GND_ISO</text>
		</g>
		<g class="st2">
			<rect x="93802.4" y="-9410.6" class="st3" width="4.9" height="17"/>
			<text transform="matrix(1 0 0 1 93796.2891 -9401.2686)" class="st6 st4 st5">GND_ISO</text>
		</g>
	</g>
	<path class="st7" d="M56.8,127.9l-0.1,0.3v0.4l0.1,0.4l0.3,0.3l0.3,0.1l0.5,0.1h0.4l0.5-0.1l0.3-0.1l0.3-0.3l0.1-0.4v-0.3l-0.1-0.4
		l-0.1-0.1h-0.9v0.5"/>
	<path class="st7" d="M59.5,126.6h-2.8l2.8-1.6h-2.8"/>
	<path class="st7" d="M59.5,123.6h-2.8v-0.7l0.1-0.4l0.3-0.3l0.3-0.1l0.5-0.1h0.4l0.5,0.1l0.3,0.1l0.3,0.3l0.1,0.4V123.6"/>
	<path class="st7" d="M59.8,121.4v-2.2"/>
	<path class="st7" d="M59.5,118.6h-2.8"/>
	<path class="st7" d="M59.4,117.4l0.1-0.4v-0.7l-0.1-0.3l-0.1-0.1l-0.3-0.1h-0.3l-0.3,0.1l-0.1,0.1l-0.1,0.3l-0.1,0.5l-0.1,0.3
		l-0.1,0.1l-0.3,0.1h-0.3l-0.3-0.1l-0.1-0.1l-0.1-0.3v-0.7l0.1-0.4"/>
	<path class="st7" d="M56.7,114v-0.5l0.1-0.3l0.3-0.3l0.5-0.1h0.9l0.5,0.1l0.3,0.3l0.1,0.3v0.5l-0.1,0.3l-0.3,0.3l-0.5,0.1h-0.9
		l-0.5-0.1l-0.3-0.3L56.7,114"/>
	<g transform="rotate(-90 52480.3 42232.3)">
		<g class="st2">
			<rect x="94588.5" y="-10193.5" class="st3" width="5.1" height="19.3"/>
			<text transform="matrix(1 0 0 1 94581.3828 -10183.1885)" class="st4 st5">PRB _GND</text>
		</g>
		<g class="st2">
			<rect x="94588.5" y="-10193.5" class="st3" width="5.1" height="19.3"/>
			<text transform="matrix(1 0 0 1 94581.3828 -10183.1914)" class="st6 st4 st5">PRB _GND</text>
		</g>
	</g>
	<path class="st7" d="M65.2,133h-2.8V132l0.1-0.3l0.1-0.1l0.3-0.1h0.4l0.3,0.1l0.1,0.1l0.1,0.3v1.1"/>
	<path class="st7" d="M65.2,128.6l-1.4,1"/>
	<path class="st7" d="M65.2,130.2h-2.8v-1.1l0.1-0.3l0.1-0.1l0.3-0.1h0.4l0.3,0.1l0.1,0.1l0.1,0.3v1.1"/>
	<path class="st7" d="M63.7,126.4l0.1-0.4l0.1-0.1l0.3-0.1h0.4l0.3,0.1L65,126l0.1,0.3v1.1h-2.8v-1l0.1-0.3l0.1-0.1l0.3-0.1h0.3
		l0.3,0.1l0.1,0.1L63.7,126.4v1"/>
	<path class="st7" d="M65.4,123.1v-2.2"/>
	<path class="st7" d="M62.5,118.7l-0.1,0.3v0.4l0.1,0.4l0.3,0.3l0.3,0.1l0.5,0.1h0.4l0.5-0.1l0.3-0.1l0.3-0.3l0.1-0.4v-0.3l-0.1-0.4
		l-0.1-0.1h-0.9v0.5"/>
	<path class="st7" d="M65.2,117.4h-2.8l2.8-1.6h-2.8"/>
	<path class="st7" d="M65.2,114.4h-2.8v-0.7l0.1-0.4l0.3-0.3l0.3-0.1l0.5-0.1h0.4l0.5,0.1l0.3,0.1l0.3,0.3l0.1,0.4V114.4"/>
	<g transform="rotate(-90 54842.5 42232.3)">
		<g class="st2">
			<rect x="96957.5" y="-12531.8" class="st3" width="5.4" height="5.5"/>
			<text transform="matrix(1 0 0 1 96957.4375 -12528.54)" class="st4 st5">NC</text>
		</g>
		<g class="st2">
			<rect x="96957.5" y="-12531.8" class="st3" width="5.4" height="5.5"/>
			<text transform="matrix(1 0 0 1 96957.4375 -12528.543)" class="st6 st4 st5">NC</text>
		</g>
	</g>
	<path class="st7" d="M82.2,117.4h-2.8l2.8-1.6h-2.8"/>
	<path class="st7" d="M81.9,112.8l0.1,0.1l0.1,0.4v0.3L82,114l-0.3,0.3l-0.3,0.1l-0.5,0.1h-0.4l-0.5-0.1l-0.3-0.1l-0.3-0.3l-0.1-0.4
		v-0.3l0.1-0.4l0.1-0.1"/>
	<g transform="rotate(-90 50905.5 42232.3)">
		<g class="st2">
			<rect x="93018.9" y="-8624.9" class="st3" width="5" height="9"/>
			<text transform="matrix(1 0 0 1 93016.8672 -8619.6582)" class="st4 st5">VISO</text>
		</g>
		<g class="st2">
			<rect x="93018.9" y="-8624.9" class="st3" width="5" height="9"/>
			<text transform="matrix(1 0 0 1 93016.8672 -8619.6602)" class="st6 st4 st5">VISO</text>
		</g>
	</g>
	<path class="st7" d="M51,121.4l2.8-0.9l-2.8-1"/>
	<path class="st7" d="M53.8,118.6H51"/>
	<path class="st7" d="M53.7,117.4l0.1-0.4v-0.7l-0.1-0.3l-0.1-0.1l-0.3-0.1H53l-0.3,0.1l-0.1,0.1l-0.1,0.3l-0.1,0.5l-0.1,0.3
		l-0.1,0.1l-0.3,0.1h-0.3l-0.3-0.1l-0.1-0.1l-0.1-0.3v-0.7l0.1-0.4"/>
	<path class="st7" d="M51,114v-0.5l0.1-0.3l0.3-0.3l0.5-0.1h0.9l0.5,0.1l0.3,0.3l0.1,0.3v0.5l-0.1,0.3l-0.3,0.3l-0.5,0.1h-0.9
		l-0.5-0.1l-0.3-0.3L51,114"/>
	<g transform="rotate(-90 54842.5 29318.9)">
		<g class="st2">
			<rect x="84143.4" y="-25446.1" class="st3" width="5.3" height="7.2"/>
			<text transform="matrix(1 0 0 1 84142.4766 -25441.9043)"><tspan x="0" y="0" class="st4 st5 st9">S</tspan><tspan x="4.5" y="0" class="st4 st5">C</tspan></text>
		</g>
		<g class="st2">
			<rect x="84143.4" y="-25446.1" class="st3" width="5.3" height="7.2"/>
			<text transform="matrix(1 0 0 1 84142.4766 -25441.9062)"><tspan x="0" y="0" class="st6 st4 st5 st9">S</tspan><tspan x="4.5" y="0" class="st6 st4 st5">C</tspan></text>
		</g>
	</g>
	<path class="st7" d="M82,18l0.1-0.4v-0.7L82,16.7l-0.1-0.1l-0.3-0.1h-0.3l-0.3,0.1l-0.1,0.1l-0.1,0.3l-0.1,0.5l-0.1,0.3l-0.1,0.1
		L80.1,18h-0.3l-0.3-0.1l-0.1-0.1l-0.1-0.3v-0.7l0.1-0.4"/>
	<path class="st7" d="M81.9,13.6l0.1,0.1l0.1,0.4v0.3L82,14.8L81.8,15l-0.3,0.1l-0.5,0.1h-0.4L80,15.2L79.7,15l-0.3-0.3l-0.1-0.4
		v-0.3l0.1-0.4l0.1-0.1"/>
	<path class="st7" d="M82.2,11v1.4h-2.8"/>
	<g transform="rotate(-90 54055.1 29318.9)">
		<g class="st2">
			<rect x="83356.5" y="-24664.6" class="st3" width="5" height="7.8"/>
			<text transform="matrix(1 0 0 1 83355.0781 -24659.9531)" class="st4 st5">SDA</text>
		</g>
		<g class="st2">
			<rect x="83356.5" y="-24664.6" class="st3" width="5" height="7.8"/>
			<text transform="matrix(1 0 0 1 83355.0781 -24659.9551)"><tspan x="0" y="0" class="st6 st4 st5">SD</tspan><tspan x="5.3" y="0" class="st6 st4 st5">A</tspan></text>
		</g>
	</g>
	<path class="st7" d="M76.4,18l0.1-0.4v-0.7l-0.1-0.3l-0.1-0.1L76,16.4h-0.3l-0.3,0.1l-0.1,0.1l-0.1,0.3L75,17.5l-0.1,0.3l-0.1,0.1
		L74.5,18h-0.3l-0.3-0.1l-0.1-0.1l-0.1-0.3v-0.7l0.1-0.4"/>
	<path class="st7" d="M76.5,15.2h-2.8v-0.7l0.1-0.4l0.3-0.3l0.3-0.1l0.5-0.1h0.4l0.5,0.1l0.3,0.1l0.3,0.3l0.1,0.4V15.2"/>
	<path class="st7" d="M75.7,12.5v-1.4"/>
	<path class="st7" d="M76.5,12.7l-2.8-0.9l2.8-0.9"/>
	<g transform="rotate(-90 53267.7 29318.9)">
		<g class="st2">
			<rect x="82572.7" y="-23886.4" class="st3" width="4.9" height="14.9"/>
			<text transform="matrix(1 0 0 1 82567.6797 -23878.1562)" class="st4 st5">ENABLE</text>
		</g>
		<g class="st2">
			<rect x="82572.7" y="-23886.4" class="st3" width="4.9" height="14.9"/>
			<text transform="matrix(1 0 0 1 82567.6797 -23878.1582)" class="st6 st4 st5">ENABLE</text>
		</g>
	</g>
	<path class="st7" d="M69.3,17.9v-0.9"/>
	<path class="st7" d="M70.8,16.5v1.3H68v-1.3"/>
	<path class="st7" d="M70.8,15.3H68l2.8-1.6H68"/>
	<path class="st7" d="M70,12.5v-1.4"/>
	<path class="st7" d="M70.8,12.7L68,11.8l2.8-0.9"/>
	<path class="st7" d="M69.3,9l0.1-0.4l0.1-0.1l0.3-0.1h0.4l0.3,0.1l0.1,0.1l0.1,0.3v1.1H68V9l0.1-0.3l0.1-0.1l0.3-0.1h0.3l0.3,0.1
		l0.1,0.1L69.3,9v0.9"/>
	<path class="st7" d="M70.8,5.7v1.4H68"/>
	<path class="st7" d="M69.3,4.8V3.8"/>
	<path class="st7" d="M70.8,3.4v1.4H68V3.4"/>
	<g transform="rotate(-90 52480.3 29318.9)">
		<g class="st2">
			<rect x="81782" y="-23101.4" class="st3" width="5" height="8.4"/>
			<text transform="matrix(1 0 0 1 81780.2812 -23096.4824)" class="st4 st5">GND</text>
		</g>
		<g class="st2">
			<rect x="81782" y="-23101.4" class="st3" width="5" height="8.4"/>
			<text transform="matrix(1 0 0 1 81780.2812 -23096.4844)" class="st6 st4 st5">GND</text>
		</g>
	</g>
	<path class="st7" d="M62.5,16.4l-0.1,0.3v0.4l0.1,0.4l0.3,0.3l0.3,0.1l0.5,0.1h0.4l0.5-0.1l0.3-0.1l0.3-0.3l0.1-0.4v-0.3L65,16.4
		l-0.1-0.1h-0.9v0.5"/>
	<path class="st7" d="M65.2,15h-2.8l2.8-1.6h-2.8"/>
	<path class="st7" d="M65.2,12.1h-2.8v-0.7l0.1-0.4l0.3-0.3l0.3-0.1l0.5-0.1h0.4l0.5,0.1l0.3,0.1L65,11l0.1,0.4V12.1"/>
	<g transform="rotate(-90 51692.9 29318.9)">
		<g class="st2">
			<rect x="80994.9" y="-22320" class="st3" width="5" height="9"/>
			<text transform="matrix(1 0 0 1 80992.875 -22314.7383)" class="st4 st5">VSIG</text>
		</g>
		<g class="st2">
			<rect x="80994.9" y="-22320" class="st3" width="5" height="9"/>
			<text transform="matrix(1 0 0 1 80992.875 -22314.7402)" class="st6 st4 st5">VSIG</text>
		</g>
	</g>
	<path class="st7" d="M56.7,18.3l2.8-1l-2.8-0.9"/>
	<path class="st7" d="M59.4,15.6l0.1-0.4v-0.7l-0.1-0.3l-0.1-0.1L59,14h-0.3l-0.3,0.1l-0.1,0.1l-0.1,0.3L58,15l-0.1,0.3l-0.1,0.1
		l-0.3,0.1h-0.3l-0.3-0.1l-0.1-0.1L56.7,15v-0.7l0.1-0.4"/>
	<path class="st7" d="M59.5,12.7h-2.8"/>
	<path class="st7" d="M56.8,9.9l-0.1,0.3v0.4l0.1,0.4l0.3,0.3l0.3,0.1l0.5,0.1h0.4l0.5-0.1l0.3-0.1l0.3-0.3l0.1-0.4v-0.3l-0.1-0.4
		l-0.1-0.1h-0.9v0.5"/>
	<g transform="rotate(-90 50905.5 29318.9)">
		<g class="st2">
			<rect x="80206" y="-21537" class="st3" width="5.3" height="6.3"/>
			<text transform="matrix(1 0 0 1 80205.4766 -21533.2539)" class="st4 st5">VIN</text>
		</g>
		<g class="st2">
			<rect x="80206" y="-21537" class="st3" width="5.3" height="6.3"/>
			<text transform="matrix(1 0 0 1 80205.4766 -21533.2559)" class="st6 st4 st5">VIN</text>
		</g>
	</g>
	<path class="st7" d="M51,18.3l2.8-1L51,16.4"/>
	<path class="st7" d="M53.8,15.4H51"/>
	<path class="st7" d="M53.8,14.1H51l2.8-1.6H51"/>
</g>
</svg>
