<?xml version="1.0" encoding="utf-8"?>
<!-- Generator: Adobe Illustrator 26.0.1, SVG Export Plug-In . SVG Version: 6.00 Build 0)  -->
<svg version="1.1" id="Layer_1" xmlns:svg="http://www.w3.org/2000/svg"
	 xmlns="http://www.w3.org/2000/svg" xmlns:xlink="http://www.w3.org/1999/xlink" x="0px" y="0px" viewBox="0 0 168.2 78.2"
	 style="enable-background:new 0 0 168.2 78.2;" xml:space="preserve">
<style type="text/css">
	.st0{fill-rule:evenodd;clip-rule:evenodd;}
	.st1{fill:none;stroke:#000000;stroke-miterlimit:10;}
	.st2{fill-opacity:0;stroke:#000000;stroke-width:0.4252;stroke-linecap:round;stroke-linejoin:round;stroke-miterlimit:10;}
	.st3{opacity:0;enable-background:new    ;}
	.st4{fill:none;}
	.st5{font-family:'ArialMT';}
	.st6{font-size:3.7795px;}
	.st7{fill:none;stroke:#000000;stroke-width:0.4252;stroke-linecap:round;stroke-linejoin:round;}
	.st8{letter-spacing:5;}
	.st9{letter-spacing:6;}
	.st10{fill-opacity:0;stroke:#000000;stroke-linecap:round;stroke-linejoin:round;stroke-miterlimit:10;}
</style>
<desc>Picture generated by PCBNEW</desc>
<g transform="translate(0 0) scale(1 1)">
</g>
<g>
	<g>
		<path class="st0" d="M118.5,21.4L118.5,21.4L118.5,21.4L118.5,21.4L118.5,21.4L118.5,21.4L118.5,21.4l1.7,0l0,0l0,0l0,0l0,0v0l0,0
			l0,0v0.3l0,0l0,0l0,0l0,0l0,0l-0.3,0.1l-0.2,0.2l-0.2,0.3l-0.1,0.4l0,0.3l0.1,0.4l0.2,0.4l0.2,0.3l0.4,0.2l0,0l0,0l0,0l0,0l0,0
			v0.3l0,0l0,0l0,0l0,0l0,0v0l0,0h-1.7l0,0v0l0,0l0,0l0,0l0,0l0,0V21.4z"/>
		<path class="st0" d="M118.5,27L118.5,27L118.5,27L118.5,27L118.5,27L118.5,27L118.5,27l1.7,0l0,0l0,0l0,0v0l0,0l0,0l0,0v0.3l0,0
			l0,0l0,0l0,0l0,0l-0.3,0.1l-0.2,0.2l-0.2,0.3l-0.1,0.4l0,0.3l0.1,0.4l0.2,0.4l0.2,0.3l0.4,0.2l0,0l0,0l0,0l0,0l0,0v0.3l0,0l0,0
			l0,0l0,0v0l0,0l0,0h-1.7l0,0l0,0v0l0,0l0,0l0,0l0,0V27z"/>
		<path class="st0" d="M118.5,32.7L118.5,32.7L118.5,32.7L118.5,32.7L118.5,32.7L118.5,32.7L118.5,32.7l1.7,0l0,0l0,0l0,0v0l0,0l0,0
			l0,0v0.3l0,0l0,0l0,0l0,0l0,0l-0.3,0.1l-0.2,0.2l-0.2,0.3l-0.1,0.4l0,0.3l0.1,0.4l0.2,0.4l0.2,0.3l0.4,0.2l0,0l0,0l0,0l0,0l0,0
			v0.3l0,0l0,0l0,0v0l0,0l0,0l0,0h-1.7l0,0l0,0l0,0v0l0,0l0,0l0,0V32.7z"/>
		<path class="st0" d="M118.5,38.4L118.5,38.4L118.5,38.4L118.5,38.4L118.5,38.4L118.5,38.4L118.5,38.4l1.7,0l0,0l0,0l0,0v0l0,0l0,0
			l0,0v0.3l0,0l0,0l0,0l0,0l0,0l-0.3,0.1l-0.2,0.2l-0.2,0.3l-0.1,0.4l0,0.3l0.1,0.4l0.2,0.4l0.2,0.3l0.4,0.2l0,0l0,0l0,0l0,0l0,0
			v0.3l0,0l0,0l0,0v0l0,0l0,0l0,0h-1.7l0,0l0,0l0,0v0l0,0l0,0l0,0V38.4z"/>
		<path class="st0" d="M118.5,44L118.5,44L118.5,44L118.5,44L118.5,44L118.5,44L118.5,44l1.7,0l0,0l0,0v0l0,0l0,0l0,0l0,0v0.3l0,0
			l0,0l0,0l0,0l0,0l-0.3,0.1l-0.2,0.2l-0.2,0.3l-0.1,0.4l0,0.3l0.1,0.4l0.2,0.4l0.2,0.3l0.4,0.2l0,0l0,0l0,0l0,0l0,0v0.3l0,0l0,0
			l0,0v0l0,0l0,0l0,0h-1.7l0,0l0,0l0,0v0l0,0l0,0l0,0V44z"/>
		<path class="st0" d="M118.5,49.7L118.5,49.7L118.5,49.7L118.5,49.7L118.5,49.7L118.5,49.7L118.5,49.7l1.7,0l0,0v0l0,0l0,0l0,0l0,0
			l0,0V50l0,0l0,0l0,0l0,0l0,0l-0.3,0.1l-0.2,0.2l-0.2,0.3l-0.1,0.4l0,0.3l0.1,0.4l0.2,0.4l0.2,0.3l0.4,0.2l0,0l0,0l0,0l0,0l0,0v0.3
			l0,0l0,0v0l0,0l0,0l0,0l0,0h-1.7l0,0l0,0l0,0l0,0v0l0,0l0,0V49.7z"/>
	</g>
	<g>
		<path class="st0" d="M38.4,52.8L38.4,52.8L38.4,52.8L38.4,52.8L38.4,52.8L38.4,52.8L38.4,52.8l-1.7,0l0,0l0,0l0,0l0,0v0l0,0l0,0
			v-0.3l0,0l0,0l0,0l0,0l0,0l0.3-0.1l0.2-0.2l0.2-0.3l0.1-0.4l0-0.3l-0.1-0.4l-0.2-0.4l-0.2-0.3L36.7,50l0,0l0,0l0,0l0,0l0,0v-0.3
			l0,0l0,0l0,0l0,0l0,0v0l0,0h1.7l0,0v0l0,0l0,0l0,0l0,0l0,0V52.8z"/>
		<path class="st0" d="M38.4,47.1L38.4,47.1L38.4,47.1L38.4,47.1L38.4,47.1L38.4,47.1L38.4,47.1l-1.7,0l0,0l0,0l0,0v0l0,0l0,0l0,0
			v-0.3l0,0l0,0l0,0l0,0l0,0l0.3-0.1l0.2-0.2l0.2-0.3l0.1-0.4l0-0.3l-0.1-0.4l-0.2-0.4l-0.2-0.3l-0.4-0.2l0,0l0,0l0,0l0,0l0,0V44
			l0,0l0,0l0,0l0,0v0l0,0l0,0h1.7l0,0l0,0v0l0,0l0,0l0,0l0,0V47.1z"/>
		<path class="st0" d="M38.4,41.5L38.4,41.5L38.4,41.5L38.4,41.5L38.4,41.5L38.4,41.5L38.4,41.5l-1.7,0l0,0l0,0l0,0v0l0,0l0,0l0,0
			v-0.3l0,0l0,0l0,0l0,0l0,0l0.3-0.1l0.2-0.2l0.2-0.3l0.1-0.4l0-0.3l-0.1-0.4l-0.2-0.4l-0.2-0.3l-0.4-0.2l0,0l0,0l0,0l0,0l0,0v-0.3
			l0,0l0,0l0,0v0l0,0l0,0l0,0h1.7l0,0l0,0l0,0v0l0,0l0,0l0,0V41.5z"/>
		<path class="st0" d="M38.4,35.8L38.4,35.8L38.4,35.8L38.4,35.8L38.4,35.8L38.4,35.8L38.4,35.8l-1.7,0l0,0l0,0l0,0v0l0,0l0,0l0,0
			v-0.3l0,0l0,0l0,0l0,0l0,0l0.3-0.1l0.2-0.2l0.2-0.3l0.1-0.4l0-0.3l-0.1-0.4l-0.2-0.4l-0.2-0.3l-0.4-0.2l0,0l0,0l0,0l0,0l0,0v-0.3
			l0,0l0,0l0,0v0l0,0l0,0l0,0h1.7l0,0l0,0l0,0v0l0,0l0,0l0,0V35.8z"/>
		<path class="st0" d="M38.4,30.1L38.4,30.1L38.4,30.1L38.4,30.1L38.4,30.1L38.4,30.1L38.4,30.1l-1.7,0l0,0l0,0v0l0,0l0,0l0,0l0,0
			v-0.3l0,0l0,0l0,0l0,0l0,0l0.3-0.1l0.2-0.2l0.2-0.3l0.1-0.4l0-0.3l-0.1-0.4l-0.2-0.4l-0.2-0.3l-0.4-0.2l0,0l0,0l0,0l0,0l0,0V27
			l0,0l0,0l0,0v0l0,0l0,0l0,0h1.7l0,0l0,0l0,0v0l0,0l0,0l0,0V30.1z"/>
		<path class="st0" d="M38.4,24.5L38.4,24.5L38.4,24.5L38.4,24.5L38.4,24.5L38.4,24.5L38.4,24.5l-1.7,0l0,0v0l0,0l0,0l0,0l0,0l0,0
			v-0.3l0,0l0,0l0,0l0,0l0,0l0.3-0.1l0.2-0.2l0.2-0.3l0.1-0.4l0-0.3l-0.1-0.4l-0.2-0.4l-0.2-0.3l-0.4-0.2l0,0l0,0l0,0l0,0l0,0v-0.3
			l0,0l0,0v0l0,0l0,0l0,0l0,0h1.7l0,0l0,0l0,0l0,0v0l0,0l0,0V24.5z"/>
	</g>
	<g>
		<circle class="st1" cx="58.3" cy="44.3" r="1.8"/>
	</g>
	<g>
		<circle class="st1" cx="58.3" cy="37.1" r="1.8"/>
	</g>
	<g>
		<circle class="st1" cx="58.3" cy="29.9" r="1.8"/>
	</g>
	<g>
		<circle class="st1" cx="108.7" cy="44.3" r="1.8"/>
	</g>
	<g>
		<circle class="st1" cx="108.7" cy="37.1" r="1.8"/>
	</g>
	<g>
		<circle class="st1" cx="108.7" cy="29.9" r="1.8"/>
	</g>
	<g>
		<path class="st0" d="M40.2,51.9h-1.8v-1.3h1.8V51.9z"/>
	</g>
</g>
<g>
	<path class="st2" d="M99.9,37v-6.8"/>
	<path class="st2" d="M108.7,37.1H98.2"/>
	<path class="st2" d="M108.7,29.9H98.2"/>
	<g transform="rotate(-90 50246.1 36505.9)">
		<g class="st3">
			<rect x="86692.8" y="-13659.5" class="st4" width="18.9" height="5.9"/>
			<text transform="matrix(0 1 -1 0 86701.9766 -13666.0166)" class="st5 st6">17.780 mm</text>
		</g>
		<g class="st3">
			<rect x="86692.8" y="-13659.5" class="st4" width="18.9" height="5.9"/>
			<text transform="matrix(0 1 -1 0 86701.9766 -13666.0186)" class="st7 st5 st6">17.780 mm</text>
		</g>
	</g>
	<path class="st2" d="M73.5,51h-1.6"/>
	<path class="st2" d="M72.7,51v-2.8l-0.3,0.4l-0.3,0.3l-0.3,0.1"/>
	<path class="st2" d="M74.5,48.1h1.9L75.1,51"/>
	<path class="st2" d="M77.4,50.7l0.1,0.1L77.4,51l-0.1-0.1L77.4,50.7V51"/>
	<path class="st2" d="M78.5,48.1h1.9L79.2,51"/>
	<path class="st2" d="M81.9,49.3l-0.3-0.1l-0.1-0.1l-0.1-0.3v-0.1l0.1-0.3l0.1-0.1l0.3-0.1h0.5l0.3,0.1l0.1,0.1l0.1,0.3v0.1
		l-0.1,0.3l-0.1,0.1l-0.3,0.1H81.9l-0.3,0.1l-0.1,0.1l-0.1,0.3v0.5l0.1,0.3l0.1,0.1l0.3,0.1h0.5l0.3-0.1l0.1-0.1l0.1-0.3v-0.5
		l-0.1-0.3l-0.1-0.1l-0.3-0.1"/>
	<path class="st2" d="M84.7,48.1H85l0.3,0.1l0.1,0.1l0.1,0.3l0.1,0.5v0.7l-0.1,0.5l-0.1,0.3l-0.1,0.1L85,51h-0.3l-0.3-0.1l-0.1-0.1
		l-0.1-0.3L84,49.9v-0.7l0.1-0.5l0.1-0.3l0.1-0.1L84.7,48.1"/>
	<path class="st2" d="M89,51v-1.9"/>
	<path class="st2" d="M89,49.3l0.1-0.1l0.3-0.1h0.4l0.3,0.1l0.1,0.3V51"/>
	<path class="st2" d="M90.3,49.5l0.1-0.3l0.3-0.1h0.4l0.3,0.1l0.1,0.3V51"/>
	<path class="st2" d="M92.8,51v-1.9"/>
	<path class="st2" d="M92.8,49.3l0.1-0.1l0.3-0.1h0.4l0.3,0.1l0.1,0.3V51"/>
	<path class="st2" d="M94,49.5l0.1-0.3l0.3-0.1h0.4l0.3,0.1l0.1,0.3V51"/>
	<path class="st2" d="M108.7,52.2H58.3"/>
	<path class="st2" d="M108.7,44.2v9.6"/>
	<path class="st2" d="M58.3,44.2v9.6"/>
	<path class="st2" d="M58.3,52.2l3.2-1.7"/>
	<path class="st2" d="M58.3,52.2l3.2,1.7"/>
	<path class="st2" d="M108.7,52.2l-3.2-1.7"/>
	<path class="st2" d="M108.7,52.2l-3.2,1.7"/>
	<g transform="rotate(-270 48523.6 31515.7)">
		<g class="st3">
			<rect x="17069.8" y="79988.7" class="st4" width="16.8" height="6"/>
			<text transform="matrix(0 -1 1 0 17078.4688 80000.1094)" class="st5 st6">7.700 mm</text>
		</g>
		<g class="st3">
			<rect x="17069.8" y="79988.7" class="st4" width="16.8" height="6"/>
			<text transform="matrix(0 -1 1 0 17078.4668 80000.1172)" class="st7 st5 st6">7.700 mm</text>
		</g>
	</g>
	<path class="st2" d="M37.1,68.7h1.9l-1.2,2.8"/>
	<path class="st2" d="M40,71.2l0.1,0.1L40,71.5l-0.1-0.1L40,71.2v0.3"/>
	<path class="st2" d="M41.1,68.7H43l-1.2,2.8"/>
	<path class="st2" d="M44.6,68.7h0.3l0.3,0.1l0.1,0.1l0.1,0.3l0.1,0.5v0.7L45.4,71l-0.1,0.3l-0.1,0.1l-0.3,0.1h-0.3l-0.3-0.1
		l-0.1-0.1L44.1,71l-0.1-0.5v-0.7l0.1-0.5l0.1-0.3l0.1-0.1L44.6,68.7"/>
	<path class="st2" d="M47.3,68.7h0.3l0.3,0.1L48,69l0.1,0.3l0.1,0.5v0.7L48.1,71L48,71.2l-0.1,0.1l-0.3,0.1h-0.3L47,71.4l-0.1-0.1
		L46.8,71l-0.1-0.5v-0.7l0.1-0.5l0.1-0.3l0.1-0.1L47.3,68.7"/>
	<path class="st2" d="M51.6,71.5v-1.9"/>
	<path class="st2" d="M51.6,69.9l0.1-0.1l0.3-0.1h0.4l0.3,0.1l0.1,0.3v1.5"/>
	<path class="st2" d="M52.8,70l0.1-0.3l0.3-0.1h0.4l0.3,0.1l0.1,0.3v1.5"/>
	<path class="st2" d="M55.4,71.5v-1.9"/>
	<path class="st2" d="M55.4,69.9l0.1-0.1l0.3-0.1h0.4l0.3,0.1l0.1,0.3v1.5"/>
	<path class="st2" d="M56.6,70l0.1-0.3l0.3-0.1h0.4l0.3,0.1l0.1,0.3v1.5"/>
	<path class="st2" d="M36.7,64.6h21.5"/>
	<path class="st2" d="M36.7,57.6v8.6"/>
	<path class="st2" d="M58.3,57.4V66"/>
	<path class="st2" d="M58.2,64.6L55,66.2"/>
	<path class="st2" d="M58.2,64.6L55,62.9"/>
	<path class="st2" d="M36.7,64.6l3.2,1.7"/>
	<path class="st2" d="M36.7,64.6l3.2-1.7"/>
	<g class="st3">
		<rect x="131.4" y="46.7" class="st4" width="22.4" height="4.5"/>
		<text transform="matrix(1 0 0 1 131.3978 49.9185)"><tspan x="0" y="0" class="st5 st6">2.000</tspan><tspan x="9.5" y="0" class="st5 st6 st8"> </tspan><tspan x="16.1" y="0" class="st5 st6">mm</tspan></text>
	</g>
	<g class="st3">
		<rect x="131.4" y="46.7" class="st4" width="22.4" height="4.5"/>
		<text transform="matrix(1 0 0 1 131.3959 49.9176)"><tspan x="0" y="0" class="st7 st5 st6">2.000</tspan><tspan x="9.5" y="0" class="st7 st5 st6 st8"> </tspan><tspan x="16.1" y="0" class="st7 st5 st6">mm</tspan></text>
	</g>
	<path class="st2" d="M129.4,47.2l0.1-0.1l0.3-0.1h0.7l0.3,0.1l0.1,0.1l0.1,0.3v0.3l-0.1,0.4l-1.6,1.6h1.7"/>
	<path class="st2" d="M132.2,49.5l0.1,0.1l-0.1,0.1l-0.1-0.1L132.2,49.5v0.3"/>
	<path class="st2" d="M134.1,46.9h0.3l0.3,0.1l0.1,0.1l0.1,0.3l0.1,0.5v0.7l-0.1,0.5l-0.1,0.3l-0.1,0.1l-0.3,0.1h-0.3l-0.3-0.1
		l-0.1-0.1l-0.1-0.3l-0.1-0.5V48l0.1-0.5l0.1-0.3l0.1-0.1L134.1,46.9"/>
	<path class="st2" d="M136.8,46.9h0.3l0.3,0.1l0.1,0.1l0.1,0.3l0.1,0.5v0.7l-0.1,0.5l-0.1,0.3l-0.1,0.1l-0.3,0.1h-0.3l-0.3-0.1
		l-0.1-0.1l-0.1-0.3l-0.1-0.5V48l0.1-0.5l0.1-0.3l0.1-0.1L136.8,46.9"/>
	<path class="st2" d="M139.5,46.9h0.3l0.3,0.1l0.1,0.1l0.1,0.3l0.1,0.5v0.7l-0.1,0.5l-0.1,0.3l-0.1,0.1l-0.3,0.1h-0.3l-0.3-0.1
		l-0.1-0.1l-0.1-0.3l-0.1-0.5V48l0.1-0.5l0.1-0.3l0.1-0.1L139.5,46.9"/>
	<path class="st2" d="M143.8,49.8v-1.9"/>
	<path class="st2" d="M143.8,48.2L144,48l0.3-0.1h0.4l0.3,0.1l0.1,0.3v1.5"/>
	<path class="st2" d="M145.1,48.3l0.1-0.3l0.3-0.1h0.4l0.3,0.1l0.1,0.3v1.5"/>
	<path class="st2" d="M147.6,49.8v-1.9"/>
	<path class="st2" d="M147.6,48.2l0.1-0.1l0.3-0.1h0.4l0.3,0.1l0.1,0.3v1.5"/>
	<path class="st2" d="M148.8,48.3L149,48l0.3-0.1h0.4l0.3,0.1l0.1,0.3v1.5"/>
	<path class="st2" d="M126.2,51.3v-5.7"/>
	<path class="st2" d="M120.8,51.3h7.1"/>
	<path class="st2" d="M120.8,45.6h7.1"/>
	<g transform="rotate(90 56771.7 35800)">
		<g class="st3">
			<rect x="20971.2" y="92490.3" class="st4" width="18.9" height="5.9"/>
			<text transform="matrix(0 -1 1 0 20980.8965 92502.7266)" class="st5 st6">29.500 mm</text>
		</g>
		<g class="st3">
			<rect x="20971.2" y="92490.3" class="st4" width="18.9" height="5.9"/>
			<text transform="matrix(0 -1 1 0 20980.8945 92502.7266)" class="st7 st5 st6">29.500 mm</text>
		</g>
	</g>
	<path class="st2" d="M66.7,7.6l0.1-0.1l0.3-0.1h0.7L68,7.4l0.1,0.1l0.1,0.3v0.3l-0.1,0.4l-1.6,1.6h1.7"/>
	<path class="st2" d="M69.7,10.1h0.5l0.3-0.1l0.1-0.1l0.3-0.4L71,8.9V7.8l-0.1-0.3l-0.1-0.1l-0.3-0.1h-0.5l-0.3,0.1l-0.1,0.1
		l-0.1,0.3v0.7l0.1,0.3l0.1,0.1l0.3,0.1h0.5l0.3-0.1l0.1-0.1L71,8.5"/>
	<path class="st2" d="M72.2,9.9l0.1,0.1l-0.1,0.1L72.1,10L72.2,9.9v0.3"/>
	<path class="st2" d="M74.9,7.3h-1.3l-0.1,1.4l0.1-0.1l0.3-0.1h0.7l0.3,0.1l0.1,0.1l0.1,0.3v0.7l-0.1,0.3L74.8,10l-0.3,0.1h-0.7
		L73.6,10l-0.1-0.1"/>
	<path class="st2" d="M76.8,7.3h0.3l0.3,0.1l0.1,0.1l0.1,0.3l0.1,0.5v0.7l-0.1,0.5l-0.1,0.3L77.4,10l-0.3,0.1h-0.3L76.5,10l-0.1-0.1
		l-0.1-0.3l-0.1-0.5V8.4l0.1-0.5l0.1-0.3l0.1-0.1L76.8,7.3"/>
	<path class="st2" d="M79.5,7.3h0.3L80,7.4l0.1,0.1l0.1,0.3l0.1,0.5v0.7l-0.1,0.5l-0.1,0.3L80,10l-0.3,0.1h-0.3L79.2,10l-0.1-0.1
		L79,9.6l-0.1-0.5V8.4L79,7.8l0.1-0.3l0.1-0.1L79.5,7.3"/>
	<path class="st2" d="M83.8,10.1V8.2"/>
	<path class="st2" d="M83.8,8.5L84,8.4l0.3-0.1h0.4l0.3,0.1L85,8.7v1.5"/>
	<path class="st2" d="M85,8.7l0.1-0.3l0.3-0.1h0.4l0.3,0.1l0.1,0.3v1.5"/>
	<path class="st2" d="M87.6,10.1V8.2"/>
	<path class="st2" d="M87.6,8.5l0.1-0.1L88,8.2h0.4l0.3,0.1l0.1,0.3v1.5"/>
	<path class="st2" d="M88.8,8.7L89,8.4l0.3-0.1h0.4l0.3,0.1L90,8.7v1.5"/>
	<path class="st2" d="M120.2,12.5H36.7"/>
	<path class="st2" d="M120.2,19.4v-8.5"/>
	<path class="st2" d="M36.7,19.4v-8.5"/>
	<path class="st2" d="M36.7,12.5l3.2-1.7"/>
	<path class="st2" d="M36.7,12.5l3.2,1.7"/>
	<path class="st2" d="M120.2,12.5l-3.2-1.7"/>
	<path class="st2" d="M120.2,12.5l-3.2,1.7"/>
	<g class="st3">
		<rect x="25.5" y="21.4" class="st4" width="4.5" height="25.1"/>
		<text transform="matrix(-1.836970e-16 -1 1 -1.836970e-16 28.737 46.5051)"><tspan x="0" y="0" class="st5 st6">14.500</tspan><tspan x="11.6" y="0" class="st5 st6 st9"> </tspan><tspan x="18.8" y="0" class="st5 st6">mm</tspan></text>
	</g>
	<g class="st3">
		<rect x="25.5" y="21.4" class="st4" width="4.5" height="25.1"/>
		<text transform="matrix(-1.836970e-16 -1 1 -1.836970e-16 28.735 46.5071)"><tspan x="0" y="0" class="st7 st5 st6">14.500</tspan><tspan x="11.6" y="0" class="st7 st5 st6 st9"> </tspan><tspan x="18.8" y="0" class="st7 st5 st6">mm</tspan></text>
	</g>
	<path class="st2" d="M28.6,47.2v1.6"/>
	<path class="st2" d="M28.6,48h-2.8l0.4,0.3l0.3,0.3l0.1,0.3"/>
	<path class="st2" d="M26.7,44.8h1.9"/>
	<path class="st2" d="M25.6,45.4l2,0.7v-1.7"/>
	<path class="st2" d="M28.3,43.3l0.1-0.1l0.1,0.1l-0.1,0.1L28.3,43.3h0.3"/>
	<path class="st2" d="M25.8,40.6v1.3l1.3,0.1L27,41.9l-0.1-0.3V41l0.1-0.3l0.1-0.1l0.3-0.1h0.7l0.3,0.1l0.1,0.1l0.1,0.3v0.7
		l-0.1,0.3l-0.1,0.1"/>
	<path class="st2" d="M25.8,38.7v-0.3l0.1-0.3L26,38l0.3-0.1l0.5-0.1h0.7l0.5,0.1l0.3,0.1l0.1,0.1l0.1,0.3v0.3l-0.1,0.3l-0.1,0.1
		l-0.3,0.1l-0.5,0.1h-0.7l-0.5-0.1L26,39.1l-0.1-0.1L25.8,38.7"/>
	<path class="st2" d="M25.8,36v-0.3l0.1-0.3l0.1-0.1l0.3-0.1l0.5-0.1h0.7l0.5,0.1l0.3,0.1l0.1,0.1l0.1,0.3V36l-0.1,0.3l-0.1,0.1
		l-0.3,0.1l-0.5,0.1h-0.7l-0.5-0.1L26,36.4l-0.1-0.1L25.8,36"/>
	<path class="st2" d="M28.6,31.7h-1.9"/>
	<path class="st2" d="M27,31.7l-0.1-0.1l-0.1-0.3v-0.4l0.1-0.3l0.3-0.1h1.5"/>
	<path class="st2" d="M27.1,30.4l-0.3-0.1L26.7,30v-0.4l0.1-0.3l0.3-0.1h1.5"/>
	<path class="st2" d="M28.6,27.9h-1.9"/>
	<path class="st2" d="M27,27.9l-0.1-0.1l-0.1-0.3v-0.4l0.1-0.3l0.3-0.1h1.5"/>
	<path class="st2" d="M27.1,26.7l-0.3-0.1l-0.1-0.3v-0.4l0.1-0.3l0.3-0.1h1.5"/>
	<path class="st2" d="M31,57.6V16.5"/>
	<path class="st2" d="M36.7,57.6h-7.3"/>
	<path class="st2" d="M36.7,16.5h-7.3"/>
	<path class="st2" d="M31,16.5l1.7,3.2"/>
	<path class="st2" d="M31,16.5l-1.7,3.2"/>
	<path class="st2" d="M31,57.6l1.7-3.2"/>
	<path class="st2" d="M31,57.6l-1.7-3.2"/>
	<path class="st2" d="M54.7,47.9V26.3"/>
	<path class="st2" d="M61.8,47.9V26.3"/>
	<path class="st2" d="M54.7,47.9h7.1"/>
	<path class="st2" d="M54.7,26.3h7.1"/>
	<path class="st2" d="M105.1,26.3h7.1"/>
	<path class="st2" d="M105.1,47.9h7.1"/>
	<path class="st2" d="M112.2,47.9V26.3"/>
	<path class="st2" d="M105.1,47.9V26.3"/>
</g>
<g>
	<path class="st10" d="M120.2,21.6c-0.7,0.3-1,1.2-0.7,1.9c0.1,0.3,0.4,0.6,0.7,0.7"/>
	<path class="st10" d="M120.2,27.3c-0.7,0.3-1,1.2-0.7,1.9c0.1,0.3,0.4,0.6,0.7,0.7"/>
	<path class="st10" d="M120.2,32.9c-0.7,0.3-1,1.2-0.7,1.9c0.1,0.3,0.4,0.6,0.7,0.7"/>
	<path class="st10" d="M120.2,38.6c-0.7,0.3-1,1.2-0.7,1.9c0.1,0.3,0.4,0.6,0.7,0.7"/>
	<path class="st10" d="M120.2,44.3c-0.7,0.3-1,1.2-0.7,1.9c0.1,0.3,0.4,0.6,0.7,0.7"/>
	<path class="st10" d="M120.2,50c-0.7,0.3-1,1.2-0.7,1.9c0.1,0.3,0.4,0.6,0.7,0.7"/>
	<path class="st10" d="M36.7,50v-3.1"/>
	<path class="st10" d="M36.7,24.2c0.7-0.3,1-1.2,0.7-1.9c-0.1-0.3-0.4-0.6-0.7-0.7"/>
	<path class="st10" d="M36.7,29.9c0.7-0.3,1-1.2,0.7-1.9c-0.1-0.3-0.4-0.6-0.7-0.7"/>
	<path class="st10" d="M36.7,35.5c0.7-0.3,1-1.2,0.7-1.9c-0.1-0.3-0.4-0.6-0.7-0.7"/>
	<path class="st10" d="M36.7,41.2c0.7-0.3,1-1.2,0.7-1.9c-0.1-0.3-0.4-0.6-0.7-0.7"/>
	<path class="st10" d="M36.7,46.9c0.7-0.3,1-1.2,0.7-1.9c-0.1-0.3-0.4-0.6-0.7-0.7"/>
	<path class="st10" d="M36.7,54.8v-2.2"/>
	<path class="st10" d="M36.7,52.6c0.7-0.3,1-1.2,0.7-1.9c-0.1-0.3-0.4-0.6-0.7-0.7"/>
	<path class="st10" d="M117.4,57.6H39.5"/>
	<path class="st10" d="M120.2,54.8v-2.2"/>
	<path class="st10" d="M120.2,38.6l0-3.1"/>
	<path class="st10" d="M120.2,46.9V50"/>
	<path class="st10" d="M120.2,21.6l0-2.2"/>
	<path class="st10" d="M120.2,24.2v3.1"/>
	<path class="st10" d="M120.2,44.3l0-3.1"/>
	<path class="st10" d="M120.2,29.9l0,3.1"/>
	<path class="st10" d="M36.7,27.3v-3.1"/>
	<path class="st10" d="M36.7,33v-3.1"/>
	<path class="st10" d="M36.7,38.6v-3.1"/>
	<path class="st10" d="M36.7,44.3v-3.1"/>
	<path class="st10" d="M120.2,19.4c0-1.6-1.3-2.8-2.8-2.8"/>
	<path class="st10" d="M117.4,57.6c1.6,0,2.8-1.3,2.8-2.8"/>
	<path class="st10" d="M36.7,54.8c0,1.6,1.3,2.8,2.8,2.8"/>
	<path class="st10" d="M39.5,16.6h77.9"/>
	<path class="st10" d="M36.7,21.6l0-2.2"/>
	<path class="st10" d="M39.5,16.6c-1.6,0-2.8,1.3-2.8,2.8"/>
</g>
<g class="st3">
	<rect x="78.5" y="31.7" class="st4" width="22.4" height="4.5"/>
	<text transform="matrix(1 0 0 1 78.4861 34.8999)"><tspan x="0" y="0" class="st5 st6">2.540</tspan><tspan x="9.5" y="0" class="st5 st6 st8"> </tspan><tspan x="16.1" y="0" class="st5 st6">mm</tspan></text>
</g>
<g class="st3">
	<rect x="78.5" y="31.7" class="st4" width="22.4" height="4.5"/>
	<text transform="matrix(1 0 0 1 78.4842 34.8985)"><tspan x="0" y="0" class="st7 st5 st6">2.540</tspan><tspan x="9.5" y="0" class="st7 st5 st6 st8"> </tspan><tspan x="16.1" y="0" class="st7 st5 st6">mm</tspan></text>
</g>
<path class="st2" d="M76.5,32.2l0.1-0.1l0.3-0.1h0.7l0.3,0.1l0.1,0.1l0.1,0.3v0.3L78,33.1l-1.6,1.6h1.8"/>
<path class="st2" d="M79.3,34.5l0.1,0.1l-0.1,0.1l-0.1-0.1L79.3,34.5v0.3"/>
<path class="st2" d="M82,31.9h-1.4l-0.1,1.3l0.1-0.1l0.3-0.1h0.7l0.3,0.1l0.1,0.1l0.1,0.3v0.7L82,34.5l-0.1,0.1l-0.3,0.1h-0.7
	l-0.3-0.1l-0.1-0.1"/>
<path class="st2" d="M84.6,32.9v1.9"/>
<path class="st2" d="M83.9,31.8l-0.7,2H85"/>
<path class="st2" d="M86.6,31.9h0.3l0.3,0.1l0.1,0.1l0.1,0.3l0.1,0.5v0.7l-0.1,0.5l-0.1,0.3l-0.1,0.1l-0.3,0.1h-0.3l-0.3-0.1
	l-0.1-0.1l-0.1-0.3l-0.1-0.5V33l0.1-0.5l0.1-0.3l0.1-0.1L86.6,31.9"/>
<path class="st2" d="M90.9,34.8v-1.9"/>
<path class="st2" d="M90.9,33.1l0.1-0.1l0.3-0.1h0.4L92,33l0.1,0.3v1.5"/>
<path class="st2" d="M92.1,33.3l0.1-0.3l0.3-0.1H93l0.3,0.1l0.1,0.3v1.5"/>
<path class="st2" d="M94.7,34.8v-1.9"/>
<path class="st2" d="M94.7,33.1l0.1-0.1l0.3-0.1h0.4l0.3,0.1l0.1,0.3v1.5"/>
<path class="st2" d="M95.9,33.3l0.1-0.3l0.3-0.1h0.4L97,33l0.1,0.3v1.5"/>
</svg>
