<?xml version="1.0" encoding="utf-8"?>
<!-- Generator: Adobe Illustrator 26.0.1, SVG Export Plug-In . SVG Version: 6.00 Build 0)  -->
<svg version="1.1" id="Layer_1" xmlns:svg="http://www.w3.org/2000/svg"
	 xmlns="http://www.w3.org/2000/svg" xmlns:xlink="http://www.w3.org/1999/xlink" x="0px" y="0px" viewBox="0 0 342 208"
	 style="enable-background:new 0 0 342 208;" xml:space="preserve">
<style type="text/css">
	.st0{fill-opacity:0;stroke:#000000;stroke-width:0.432;stroke-linecap:round;stroke-linejoin:round;stroke-miterlimit:10;}
	.st1{opacity:0;enable-background:new    ;}
	.st2{fill:none;}
	.st3{font-family:'ArialMT';}
	.st4{font-size:4.752px;}
	.st5{fill:none;stroke:#000000;stroke-width:0.432;stroke-linecap:round;stroke-linejoin:round;}
	.st6{letter-spacing:1;}
	.st7{letter-spacing:6;}
	.st8{fill-opacity:0;stroke:#000000;stroke-width:0.576;stroke-linecap:round;stroke-linejoin:round;stroke-miterlimit:10;}
	.st9{font-size:8.639999e-02px;}
	.st10{fill-opacity:0;}
	.st11{fill-opacity:0;stroke:#000000;stroke-width:0.72;stroke-linecap:round;stroke-linejoin:round;stroke-miterlimit:10;}
	.st12{fill-opacity:0;stroke:#000000;stroke-width:0.864;stroke-linecap:round;stroke-linejoin:round;stroke-miterlimit:10;}
	.st13{fill:none;stroke:#000000;stroke-width:0.432;stroke-linecap:round;stroke-linejoin:round;stroke-miterlimit:10;}
	
		.st14{fill-rule:evenodd;clip-rule:evenodd;stroke:#000000;stroke-width:0.432;stroke-linecap:round;stroke-linejoin:round;stroke-miterlimit:10;}
	.st15{fill:none;stroke:#000000;stroke-width:0.72;stroke-linecap:round;stroke-linejoin:round;stroke-miterlimit:10;}
	.st16{letter-spacing:10;}
	.st17{stroke:#000000;stroke-width:0.72;stroke-linecap:round;stroke-linejoin:round;stroke-miterlimit:10;}
</style>
<desc>Picture generated by Eeschema-SVG</desc>
<g transform="translate(0 0) scale(1 1)">
</g>
<g>
	<g>
		<rect x="162" y="21.5" class="st0" width="93.6" height="86.4"/>
		<path class="st0" d="M162,100.7h-14.4"/>
		<g class="st1">
			<rect x="164.9" y="98.4" class="st2" width="9" height="5.6"/>
			<text transform="matrix(1 0 0 1 164.8799 102.5103)"><tspan x="0" y="0" class="st3 st4">VI</tspan><tspan x="5.6" y="0" class="st3 st4">N</tspan></text>
		</g>
		<g class="st1">
			<rect x="164.9" y="98.4" class="st2" width="9" height="5.6"/>
			<text transform="matrix(1 0 0 1 164.8784 102.5088)"><tspan x="0" y="0" class="st5 st3 st4">VI</tspan><tspan x="5.6" y="0" class="st5 st3 st4">N</tspan></text>
		</g>
		<path class="st0" d="M165.4,98.7l1.2,3.6l1.2-3.6"/>
		<path class="st0" d="M169,102.3v-3.6"/>
		<path class="st0" d="M170.7,102.3v-3.6l2.1,3.6v-3.6"/>
		<g class="st1">
			<rect x="153.5" y="95.9" class="st2" width="3.9" height="5.6"/>
			<text transform="matrix(1 0 0 1 153.4785 99.9902)" class="st3 st4">1</text>
		</g>
		<g class="st1">
			<rect x="153.5" y="95.9" class="st2" width="3.9" height="5.6"/>
			<text transform="matrix(1 0 0 1 153.4761 99.9888)" class="st5 st3 st4">1</text>
		</g>
		<path class="st0" d="M155.8,99.8h-2.1"/>
		<path class="st0" d="M154.8,99.8v-3.6l-0.4,0.5l-0.4,0.4l-0.4,0.1"/>
		<path class="st0" d="M255.6,57.5H270"/>
		<g class="st1">
			<rect x="242.9" y="55.2" class="st2" width="11.2" height="5.6"/>
			<text transform="matrix(1 0 0 1 242.9492 59.3105)"><tspan x="0" y="0" class="st3 st4">PR</tspan><tspan x="8.1" y="0" class="st3 st4">B</tspan></text>
		</g>
		<g class="st1">
			<rect x="242.9" y="55.2" class="st2" width="11.2" height="5.6"/>
			<text transform="matrix(1 0 0 1 242.9473 59.3086)"><tspan x="0" y="0" class="st5 st3 st4">PR</tspan><tspan x="8.1" y="0" class="st5 st3 st4">B</tspan></text>
		</g>
		<path class="st0" d="M242.5,59.1v-3.6h1.4l0.4,0.2l0.2,0.1l0.1,0.4v0.5l-0.1,0.4l-0.2,0.1l-0.4,0.1h-1.4"/>
		<path class="st0" d="M248.2,59.1l-1.2-1.7"/>
		<path class="st0" d="M246.1,59.1v-3.6h1.4l0.4,0.2l0.2,0.1l0.1,0.4v0.5l-0.1,0.4l-0.2,0.1l-0.4,0.1h-1.4"/>
		<path class="st0" d="M250.9,57.2l0.5,0.1l0.2,0.2l0.1,0.3v0.6l-0.1,0.3l-0.2,0.2l-0.4,0.1h-1.4v-3.6h1.2l0.4,0.2l0.1,0.1l0.2,0.4
			v0.3l-0.2,0.4l-0.1,0.2L250.9,57.2h-1.2"/>
		<g class="st1">
			<rect x="260.2" y="52.7" class="st2" width="7.3" height="5.6"/>
			<text transform="matrix(1 0 0 1 260.1572 56.7905)"><tspan x="0" y="0" class="st3 st4 st6">1</tspan><tspan x="4.6" y="0" class="st3 st4">0</tspan></text>
		</g>
		<g class="st1">
			<rect x="260.2" y="52.7" class="st2" width="7.3" height="5.6"/>
			<text transform="matrix(1 0 0 1 260.1553 56.7886)"><tspan x="0" y="0" class="st5 st3 st4 st6">1</tspan><tspan x="4.6" y="0" class="st5 st3 st4">0</tspan></text>
		</g>
		<path class="st0" d="M262.1,56.6H260"/>
		<path class="st0" d="M261.1,56.6V53l-0.4,0.5l-0.4,0.4L260,54"/>
		<path class="st0" d="M264.3,53h0.4l0.3,0.2l0.2,0.1l0.1,0.4l0.2,0.6v0.9l-0.2,0.7l-0.1,0.3l-0.2,0.2l-0.3,0.1h-0.4l-0.4-0.1
			l-0.1-0.2l-0.2-0.3l-0.1-0.7v-0.9l0.1-0.6l0.2-0.4l0.1-0.1L264.3,53"/>
		<path class="st0" d="M255.6,43.1H270"/>
		<g class="st1">
			<rect x="229.7" y="40.8" class="st2" width="24.9" height="5.6"/>
			<text transform="matrix(1 0 0 1 229.7461 44.9102)"><tspan x="0" y="0" class="st3 st4">PRB_GN</tspan><tspan x="21.5" y="0" class="st3 st4">D</tspan></text>
		</g>
		<g class="st1">
			<rect x="229.7" y="40.8" class="st2" width="24.9" height="5.6"/>
			<text transform="matrix(1 0 0 1 229.7451 44.9087)"><tspan x="0" y="0" class="st5 st3 st4">PRB_GN</tspan><tspan x="21.5" y="0" class="st5 st3 st4">D</tspan></text>
		</g>
		<path class="st0" d="M228.8,44.7v-3.6h1.4l0.4,0.2l0.1,0.1l0.2,0.4v0.5l-0.2,0.4l-0.1,0.1l-0.4,0.1h-1.4"/>
		<path class="st0" d="M234.5,44.7l-1.2-1.7"/>
		<path class="st0" d="M232.4,44.7v-3.6h1.4l0.4,0.2l0.1,0.1l0.2,0.4v0.5l-0.2,0.4l-0.1,0.1l-0.4,0.1h-1.4"/>
		<path class="st0" d="M237.2,42.8l0.5,0.1l0.1,0.2l0.2,0.3V44l-0.2,0.3l-0.1,0.2l-0.4,0.1H236v-3.6h1.2l0.3,0.2l0.2,0.1l0.1,0.4
			v0.3l-0.1,0.4l-0.2,0.2L237.2,42.8H236"/>
		<path class="st0" d="M238.8,45.1h2.7"/>
		<path class="st0" d="M244.2,41.3l-0.4-0.2h-0.5l-0.5,0.2l-0.4,0.3l-0.1,0.4l-0.1,0.7v0.5l0.1,0.6l0.1,0.4l0.4,0.4l0.5,0.1h0.4
			l0.5-0.1l0.2-0.2v-1.2h-0.7"/>
		<path class="st0" d="M246,44.7v-3.6l2.1,3.6v-3.6"/>
		<path class="st0" d="M249.7,44.7v-3.6h0.9l0.5,0.2l0.4,0.3l0.2,0.4l0.1,0.7v0.5l-0.1,0.6l-0.2,0.4l-0.4,0.4l-0.5,0.1H249.7"/>
		<g class="st1">
			<rect x="260.3" y="38.3" class="st2" width="7.3" height="5.6"/>
			<text transform="matrix(1 0 0 1 260.333 42.3901)"><tspan x="0" y="0" class="st3 st4 st6">1</tspan><tspan x="4.6" y="0" class="st3 st4">1</tspan></text>
		</g>
		<g class="st1">
			<rect x="260.3" y="38.3" class="st2" width="7.3" height="5.6"/>
			<text transform="matrix(1 0 0 1 260.3311 42.3887)"><tspan x="0" y="0" class="st5 st3 st4 st6">1</tspan><tspan x="4.6" y="0" class="st5 st3 st4">1</tspan></text>
		</g>
		<path class="st0" d="M262.1,42.2H260"/>
		<path class="st0" d="M261.1,42.2v-3.6l-0.4,0.5l-0.4,0.4l-0.4,0.1"/>
		<path class="st0" d="M265.5,42.2h-2.1"/>
		<path class="st0" d="M264.5,42.2v-3.6l-0.3,0.5l-0.4,0.4l-0.4,0.1"/>
		<path class="st0" d="M255.6,28.7H270"/>
		<path class="st0" d="M268.9,27.6l2.2,2.2"/>
		<path class="st0" d="M271.1,27.6l-2.2,2.2"/>
		<g class="st1">
			<rect x="243.2" y="26.4" class="st2" width="11.2" height="5.6"/>
			<text transform="matrix(1 0 0 1 243.2158 30.5103)"><tspan x="0" y="0" class="st3 st4">N.C</tspan><tspan x="9.9" y="0" class="st3 st4">.</tspan></text>
		</g>
		<g class="st1">
			<rect x="243.2" y="26.4" class="st2" width="11.2" height="5.6"/>
			<text transform="matrix(1 0 0 1 243.2139 30.5088)"><tspan x="0" y="0" class="st5 st3 st4">N.C</tspan><tspan x="9.9" y="0" class="st5 st3 st4">.</tspan></text>
		</g>
		<path class="st0" d="M242.5,30.3v-3.6l2.1,3.6v-3.6"/>
		<path class="st0" d="M246.3,29.9l0.1,0.2l-0.1,0.1l-0.2-0.1L246.3,29.9v0.4"/>
		<path class="st0" d="M250.1,29.9l-0.1,0.2l-0.5,0.1H249l-0.5-0.1l-0.4-0.4l-0.1-0.4l-0.2-0.6v-0.5l0.2-0.7l0.1-0.4l0.4-0.3
			l0.5-0.2h0.4l0.5,0.2l0.1,0.1"/>
		<path class="st0" d="M251.6,29.9l0.1,0.2l-0.1,0.1l-0.2-0.1L251.6,29.9v0.4"/>
		<g class="st1">
			<rect x="260.2" y="23.9" class="st2" width="7.3" height="5.6"/>
			<text transform="matrix(1 0 0 1 260.1572 27.9902)"><tspan x="0" y="0" class="st3 st4 st6">1</tspan><tspan x="4.6" y="0" class="st3 st4">2</tspan></text>
		</g>
		<g class="st1">
			<rect x="260.2" y="23.9" class="st2" width="7.3" height="5.6"/>
			<text transform="matrix(1 0 0 1 260.1553 27.9888)"><tspan x="0" y="0" class="st5 st3 st4 st6">1</tspan><tspan x="4.6" y="0" class="st5 st3 st4">2</tspan></text>
		</g>
		<path class="st0" d="M262.1,27.8H260"/>
		<path class="st0" d="M261.1,27.8v-3.6l-0.4,0.5l-0.4,0.4l-0.4,0.1"/>
		<path class="st0" d="M263.4,24.5l0.1-0.1l0.4-0.2h0.9l0.4,0.2l0.1,0.1l0.2,0.4v0.3l-0.2,0.6l-2,2h2.2"/>
		<path class="st0" d="M162,86.3h-14.4"/>
		<g class="st1">
			<rect x="164.9" y="84" class="st2" width="12.2" height="5.6"/>
			<text transform="matrix(1 0 0 1 164.8799 88.1104)"><tspan x="0" y="0" class="st3 st4">VSI</tspan><tspan x="8.5" y="0" class="st3 st4">G</tspan></text>
		</g>
		<g class="st1">
			<rect x="164.9" y="84" class="st2" width="12.2" height="5.6"/>
			<text transform="matrix(1 0 0 1 164.8784 88.1089)"><tspan x="0" y="0" class="st5 st3 st4">VSI</tspan><tspan x="8.5" y="0" class="st5 st3 st4">G</tspan></text>
		</g>
		<path class="st0" d="M165.4,84.3l1.2,3.6l1.2-3.6"/>
		<path class="st0" d="M168.8,87.8l0.5,0.1h0.9l0.4-0.1l0.1-0.2l0.1-0.3v-0.4l-0.1-0.4l-0.1-0.1l-0.4-0.2l-0.7-0.1l-0.3-0.1
			l-0.2-0.2l-0.1-0.4V85l0.1-0.4l0.2-0.1l0.3-0.2h0.9l0.5,0.2"/>
		<path class="st0" d="M172.4,87.9v-3.6"/>
		<path class="st0" d="M176,84.5l-0.4-0.2h-0.5l-0.5,0.2l-0.4,0.3l-0.1,0.4l-0.2,0.7v0.5l0.2,0.6l0.1,0.4l0.4,0.4l0.5,0.1h0.4
			l0.5-0.1l0.1-0.2v-1.2h-0.6"/>
		<g class="st1">
			<rect x="153.5" y="81.5" class="st2" width="3.9" height="5.6"/>
			<text transform="matrix(1 0 0 1 153.4785 85.5903)" class="st3 st4">2</text>
		</g>
		<g class="st1">
			<rect x="153.5" y="81.5" class="st2" width="3.9" height="5.6"/>
			<text transform="matrix(1 0 0 1 153.4761 85.5889)" class="st5 st3 st4">2</text>
		</g>
		<path class="st0" d="M153.7,82.1l0.2-0.1l0.3-0.2h0.9l0.4,0.2l0.1,0.1l0.2,0.4v0.3l-0.2,0.6l-2,2h2.2"/>
		<path class="st0" d="M162,71.9h-14.4"/>
		<g class="st1">
			<rect x="164.9" y="69.6" class="st2" width="15" height="5.6"/>
			<text transform="matrix(1 0 0 1 164.8799 73.7104)"><tspan x="0" y="0" class="st3 st4">GND</tspan><tspan x="11.8" y="0" class="st3 st4">P</tspan></text>
		</g>
		<g class="st1">
			<rect x="164.9" y="69.6" class="st2" width="15" height="5.6"/>
			<text transform="matrix(1 0 0 1 164.8784 73.709)"><tspan x="0" y="0" class="st5 st3 st4">GND</tspan><tspan x="11.8" y="0" class="st5 st3 st4">P</tspan></text>
		</g>
		<path class="st0" d="M167.8,70.1l-0.4-0.2H167l-0.5,0.2l-0.4,0.3l-0.2,0.4l-0.1,0.7V72l0.1,0.6l0.2,0.4l0.4,0.4l0.5,0.1h0.3
			l0.6-0.1l0.1-0.2V72h-0.7"/>
		<path class="st0" d="M169.5,73.5v-3.6l2.1,3.6v-3.6"/>
		<path class="st0" d="M173.3,73.5v-3.6h0.9l0.5,0.2l0.4,0.3l0.1,0.4l0.1,0.7V72l-0.1,0.6L175,73l-0.4,0.4l-0.5,0.1H173.3"/>
		<path class="st0" d="M176.9,73.5v-3.6h1.4l0.4,0.2l0.1,0.1l0.1,0.4v0.5l-0.1,0.4l-0.1,0.1l-0.4,0.1h-1.4"/>
		<g class="st1">
			<rect x="153.5" y="67.1" class="st2" width="3.9" height="5.6"/>
			<text transform="matrix(1 0 0 1 153.4785 71.1904)" class="st3 st4">3</text>
		</g>
		<g class="st1">
			<rect x="153.5" y="67.1" class="st2" width="3.9" height="5.6"/>
			<text transform="matrix(1 0 0 1 153.4761 71.189)" class="st5 st3 st4">3</text>
		</g>
		<path class="st0" d="M153.6,67.4h2.2l-1.2,1.4h0.5l0.4,0.2l0.1,0.1l0.2,0.4v0.9l-0.2,0.3l-0.1,0.2l-0.4,0.1h-1l-0.4-0.1l-0.1-0.2"
			/>
		<path class="st0" d="M162,57.5h-14.4"/>
		<g class="st1">
			<rect x="164.9" y="55.2" class="st2" width="20.3" height="5.6"/>
			<text transform="matrix(1 0 0 1 164.8799 59.3105)"><tspan x="0" y="0" class="st3 st4">ENABL</tspan><tspan x="17.1" y="0" class="st3 st4">E</tspan></text>
		</g>
		<g class="st1">
			<rect x="164.9" y="55.2" class="st2" width="20.3" height="5.6"/>
			<text transform="matrix(1 0 0 1 164.8784 59.3086)"><tspan x="0" y="0" class="st5 st3 st4">ENABL</tspan><tspan x="17.1" y="0" class="st5 st3 st4">E</tspan></text>
		</g>
		<path class="st0" d="M165.9,57.2h1.2"/>
		<path class="st0" d="M167.6,59.1h-1.7v-3.6h1.7"/>
		<path class="st0" d="M169.2,59.1v-3.6l2,3.6v-3.6"/>
		<path class="st0" d="M172.8,58.1h1.7"/>
		<path class="st0" d="M172.4,59.1l1.2-3.6l1.2,3.6"/>
		<path class="st0" d="M177.3,57.2l0.5,0.1l0.1,0.2l0.1,0.3v0.6l-0.1,0.3l-0.1,0.2l-0.4,0.1H176v-3.6h1.2l0.3,0.2l0.2,0.1l0.1,0.4
			v0.3l-0.1,0.4l-0.2,0.2L177.3,57.2H176"/>
		<path class="st0" d="M181.4,59.1h-1.7v-3.6"/>
		<path class="st0" d="M182.5,57.2h1.2"/>
		<path class="st0" d="M184.2,59.1h-1.7v-3.6h1.7"/>
		<g class="st1">
			<rect x="153.5" y="52.7" class="st2" width="3.9" height="5.6"/>
			<text transform="matrix(1 0 0 1 153.4785 56.7905)" class="st3 st4">4</text>
		</g>
		<g class="st1">
			<rect x="153.5" y="52.7" class="st2" width="3.9" height="5.6"/>
			<text transform="matrix(1 0 0 1 153.4761 56.7886)" class="st5 st3 st4">4</text>
		</g>
		<path class="st0" d="M155.4,54.2v2.4"/>
		<path class="st0" d="M154.6,52.8l-0.9,2.5h2.2"/>
		<path class="st0" d="M162,43.1h-14.4"/>
		<g class="st1">
			<rect x="164.9" y="40.8" class="st2" width="10.5" height="5.6"/>
			<text transform="matrix(1 0 0 1 164.8799 44.9102)"><tspan x="0" y="0" class="st3 st4">SD</tspan><tspan x="7.3" y="0" class="st3 st4">A</tspan></text>
		</g>
		<g class="st1">
			<rect x="164.9" y="40.8" class="st2" width="10.5" height="5.6"/>
			<text transform="matrix(1 0 0 1 164.8784 44.9087)"><tspan x="0" y="0" class="st5 st3 st4">SD</tspan><tspan x="7.3" y="0" class="st5 st3 st4">A</tspan></text>
		</g>
		<path class="st0" d="M165.7,44.6l0.5,0.1h0.9l0.4-0.1l0.1-0.2l0.2-0.3v-0.4l-0.2-0.4l-0.1-0.1l-0.4-0.2l-0.6-0.1l-0.4-0.1
			l-0.2-0.2l-0.1-0.4v-0.3l0.1-0.4l0.2-0.1l0.4-0.2h0.8l0.6,0.2"/>
		<path class="st0" d="M169.3,44.7v-3.6h0.9l0.5,0.2l0.4,0.3l0.1,0.4l0.2,0.7v0.5l-0.2,0.6l-0.1,0.4l-0.4,0.4l-0.5,0.1H169.3"/>
		<path class="st0" d="M172.8,43.7h1.7"/>
		<path class="st0" d="M172.4,44.7l1.2-3.6l1.2,3.6"/>
		<g class="st1">
			<rect x="153.5" y="38.3" class="st2" width="3.9" height="5.6"/>
			<text transform="matrix(1 0 0 1 153.4785 42.3901)" class="st3 st4">5</text>
		</g>
		<g class="st1">
			<rect x="153.5" y="38.3" class="st2" width="3.9" height="5.6"/>
			<text transform="matrix(1 0 0 1 153.4761 42.3887)" class="st5 st3 st4">5</text>
		</g>
		<path class="st0" d="M155.6,38.6h-1.7l-0.2,1.7l0.2-0.1l0.3-0.2h0.9l0.4,0.2l0.1,0.1l0.2,0.4v0.9l-0.2,0.3l-0.1,0.2l-0.4,0.1h-0.9
			l-0.3-0.1l-0.2-0.2"/>
		<path class="st0" d="M162,28.7h-14.4"/>
		<g class="st1">
			<rect x="164.9" y="26.4" class="st2" width="10.4" height="5.6"/>
			<text transform="matrix(1 0 0 1 164.8799 30.5103)"><tspan x="0" y="0" class="st3 st4">SC</tspan><tspan x="7.7" y="0" class="st3 st4">L</tspan></text>
		</g>
		<g class="st1">
			<rect x="164.9" y="26.4" class="st2" width="10.4" height="5.6"/>
			<text transform="matrix(1 0 0 1 164.8784 30.5088)"><tspan x="0" y="0" class="st5 st3 st4">SC</tspan><tspan x="7.7" y="0" class="st5 st3 st4">L</tspan></text>
		</g>
		<path class="st0" d="M165.7,30.2l0.5,0.1h0.9l0.4-0.1l0.1-0.2l0.2-0.3v-0.4l-0.2-0.4l-0.1-0.1l-0.4-0.2l-0.6-0.1l-0.4-0.1
			l-0.2-0.2l-0.1-0.4v-0.3l0.1-0.4l0.2-0.1l0.4-0.2h0.8l0.6,0.2"/>
		<path class="st0" d="M171.4,29.9l-0.2,0.2l-0.5,0.1h-0.4l-0.5-0.1l-0.4-0.4l-0.1-0.4l-0.1-0.6v-0.5l0.1-0.7l0.1-0.4l0.4-0.3
			l0.5-0.2h0.4l0.5,0.2l0.2,0.1"/>
		<path class="st0" d="M174.7,30.3h-1.7v-3.6"/>
		<g class="st1">
			<rect x="153.5" y="23.9" class="st2" width="3.9" height="5.6"/>
			<text transform="matrix(1 0 0 1 153.4785 27.9902)" class="st3 st4">6</text>
		</g>
		<g class="st1">
			<rect x="153.5" y="23.9" class="st2" width="3.9" height="5.6"/>
			<text transform="matrix(1 0 0 1 153.4761 27.9888)" class="st5 st3 st4">6</text>
		</g>
		<path class="st0" d="M155.4,24.2h-0.6l-0.4,0.2l-0.2,0.1l-0.3,0.5l-0.2,0.7v1.4l0.2,0.3l0.1,0.2l0.4,0.1h0.6l0.4-0.1l0.1-0.2
			l0.2-0.3v-0.9l-0.2-0.4l-0.1-0.1l-0.4-0.2h-0.6l-0.4,0.2l-0.1,0.1l-0.2,0.4"/>
		<path class="st0" d="M255.6,100.7H270"/>
		<g class="st1">
			<rect x="238.7" y="98.4" class="st2" width="15.2" height="5.6"/>
			<text transform="matrix(1 0 0 1 238.7217 102.5103)"><tspan x="0" y="0" class="st3 st4">V_IS</tspan><tspan x="11.5" y="0" class="st3 st4">O</tspan></text>
		</g>
		<g class="st1">
			<rect x="238.7" y="98.4" class="st2" width="15.2" height="5.6"/>
			<text transform="matrix(1 0 0 1 238.7197 102.5088)"><tspan x="0" y="0" class="st5 st3 st4">V_IS</tspan><tspan x="11.5" y="0" class="st5 st3 st4">O</tspan></text>
		</g>
		<path class="st0" d="M238.1,98.7l1.2,3.6l1.2-3.6"/>
		<path class="st0" d="M240.8,102.7h2.7"/>
		<path class="st0" d="M244.4,102.3v-3.6"/>
		<path class="st0" d="M246,102.2l0.5,0.1h0.9l0.4-0.1l0.1-0.2l0.2-0.3v-0.4l-0.2-0.4l-0.1-0.1l-0.4-0.2l-0.6-0.1l-0.4-0.1l-0.2-0.2
			l-0.1-0.4v-0.3l0.1-0.4l0.2-0.1l0.4-0.2h0.8l0.6,0.2"/>
		<path class="st0" d="M250.3,98.7h0.6l0.4,0.2l0.4,0.3l0.1,0.7v1.2l-0.1,0.7l-0.4,0.4l-0.4,0.1h-0.6l-0.4-0.1l-0.4-0.4l-0.1-0.7
			v-1.2l0.1-0.7l0.4-0.3L250.3,98.7"/>
		<g class="st1">
			<rect x="261.5" y="95.9" class="st2" width="3.9" height="5.6"/>
			<text transform="matrix(1 0 0 1 261.4785 99.9902)" class="st3 st4">7</text>
		</g>
		<g class="st1">
			<rect x="261.5" y="95.9" class="st2" width="3.9" height="5.6"/>
			<text transform="matrix(1 0 0 1 261.4766 99.9888)" class="st5 st3 st4">7</text>
		</g>
		<path class="st0" d="M261.6,96.2h2.4l-1.5,3.6"/>
		<path class="st0" d="M255.6,86.3H270"/>
		<g class="st1">
			<rect x="231.3" y="84" class="st2" width="23" height="5.6"/>
			<text transform="matrix(1 0 0 1 231.3311 88.1104)"><tspan x="0" y="0" class="st3 st4">GND_IS</tspan><tspan x="19.3" y="0" class="st3 st4">O</tspan></text>
		</g>
		<g class="st1">
			<rect x="231.3" y="84" class="st2" width="23" height="5.6"/>
			<text transform="matrix(1 0 0 1 231.3301 88.1089)"><tspan x="0" y="0" class="st5 st3 st4">GND_IS</tspan><tspan x="19.3" y="0" class="st5 st3 st4">O</tspan></text>
		</g>
		<path class="st0" d="M232.6,84.5l-0.3-0.2h-0.6l-0.5,0.2l-0.3,0.3l-0.2,0.4l-0.1,0.7v0.5l0.1,0.6l0.2,0.4l0.3,0.4l0.5,0.1h0.4
			l0.5-0.1l0.2-0.2v-1.2h-0.7"/>
		<path class="st0" d="M234.3,87.9v-3.6l2.1,3.6v-3.6"/>
		<path class="st0" d="M238.1,87.9v-3.6h0.8l0.6,0.2l0.3,0.3l0.2,0.4l0.1,0.7v0.5L240,87l-0.2,0.4l-0.3,0.4l-0.6,0.1H238.1"/>
		<path class="st0" d="M240.8,88.3h2.7"/>
		<path class="st0" d="M244.4,87.9v-3.6"/>
		<path class="st0" d="M246,87.8l0.5,0.1h0.9l0.4-0.1l0.1-0.2l0.2-0.3v-0.4l-0.2-0.4l-0.1-0.1l-0.4-0.2l-0.6-0.1l-0.4-0.1l-0.2-0.2
			l-0.1-0.4V85l0.1-0.4l0.2-0.1l0.4-0.2h0.8l0.6,0.2"/>
		<path class="st0" d="M250.3,84.3h0.6l0.4,0.2l0.4,0.3l0.1,0.7v1.2l-0.1,0.7l-0.4,0.4l-0.4,0.1h-0.6l-0.4-0.1l-0.4-0.4l-0.1-0.7
			v-1.2l0.1-0.7l0.4-0.3L250.3,84.3"/>
		<g class="st1">
			<rect x="261.5" y="81.5" class="st2" width="3.9" height="5.6"/>
			<text transform="matrix(1 0 0 1 261.4785 85.5903)" class="st3 st4">8</text>
		</g>
		<g class="st1">
			<rect x="261.5" y="81.5" class="st2" width="3.9" height="5.6"/>
			<text transform="matrix(1 0 0 1 261.4766 85.5889)" class="st5 st3 st4">8</text>
		</g>
		<path class="st0" d="M262.4,83.4l-0.4-0.2l-0.1-0.1l-0.2-0.4v-0.1l0.2-0.4l0.1-0.1l0.4-0.2h0.6l0.4,0.2l0.1,0.1l0.2,0.4v0.1
			l-0.2,0.4l-0.1,0.1l-0.4,0.2H262.4l-0.4,0.1l-0.1,0.1l-0.2,0.4v0.7l0.2,0.3l0.1,0.2l0.4,0.1h0.6l0.4-0.1l0.1-0.2l0.2-0.3V84
			l-0.2-0.4l-0.1-0.1l-0.4-0.1"/>
		<path class="st0" d="M255.6,71.9H270"/>
		<g class="st1">
			<rect x="229.7" y="69.6" class="st2" width="24.9" height="5.6"/>
			<text transform="matrix(1 0 0 1 229.7461 73.7104)"><tspan x="0" y="0" class="st3 st4">PRB_GN</tspan><tspan x="21.5" y="0" class="st3 st4">D</tspan></text>
		</g>
		<g class="st1">
			<rect x="229.7" y="69.6" class="st2" width="24.9" height="5.6"/>
			<text transform="matrix(1 0 0 1 229.7451 73.709)"><tspan x="0" y="0" class="st5 st3 st4">PRB_GN</tspan><tspan x="21.5" y="0" class="st5 st3 st4">D</tspan></text>
		</g>
		<path class="st0" d="M228.8,73.5v-3.6h1.4l0.4,0.2l0.1,0.1l0.2,0.4v0.5l-0.2,0.4l-0.1,0.1l-0.4,0.1h-1.4"/>
		<path class="st0" d="M234.5,73.5l-1.2-1.7"/>
		<path class="st0" d="M232.4,73.5v-3.6h1.4l0.4,0.2l0.1,0.1l0.2,0.4v0.5l-0.2,0.4l-0.1,0.1l-0.4,0.1h-1.4"/>
		<path class="st0" d="M237.2,71.6l0.5,0.1l0.1,0.2l0.2,0.3v0.6l-0.2,0.3l-0.1,0.2l-0.4,0.1H236v-3.6h1.2l0.3,0.2l0.2,0.1l0.1,0.4
			v0.3l-0.1,0.4l-0.2,0.2L237.2,71.6H236"/>
		<path class="st0" d="M238.8,73.9h2.7"/>
		<path class="st0" d="M244.2,70.1l-0.4-0.2h-0.5l-0.5,0.2l-0.4,0.3l-0.1,0.4l-0.1,0.7V72l0.1,0.6l0.1,0.4l0.4,0.4l0.5,0.1h0.4
			l0.5-0.1l0.2-0.2V72h-0.7"/>
		<path class="st0" d="M246,73.5v-3.6l2.1,3.6v-3.6"/>
		<path class="st0" d="M249.7,73.5v-3.6h0.9l0.5,0.2l0.4,0.3l0.2,0.4l0.1,0.7V72l-0.1,0.6l-0.2,0.4l-0.4,0.4l-0.5,0.1H249.7"/>
		<g class="st1">
			<rect x="261.5" y="67.1" class="st2" width="3.9" height="5.6"/>
			<text transform="matrix(1 0 0 1 261.4785 71.1904)" class="st3 st4">9</text>
		</g>
		<g class="st1">
			<rect x="261.5" y="67.1" class="st2" width="3.9" height="5.6"/>
			<text transform="matrix(1 0 0 1 261.4766 71.189)" class="st5 st3 st4">9</text>
		</g>
		<path class="st0" d="M262.1,71h0.7l0.3-0.1l0.2-0.2l0.3-0.5l0.2-0.6v-1.4l-0.2-0.4l-0.1-0.1l-0.4-0.2h-0.6l-0.4,0.2l-0.1,0.1
			l-0.2,0.4V69l0.2,0.3l0.1,0.2l0.4,0.1h0.6l0.4-0.1l0.1-0.2l0.2-0.3"/>
		<g class="st1">
			<rect x="164.6" y="15.4" class="st2" width="33" height="5.6"/>
			<text transform="matrix(1 0 0 1 164.6177 19.4941)"><tspan x="0" y="0" class="st3 st4">Whitebox</tspan><tspan x="19.8" y="0" class="st3 st4 st7"> </tspan><tspan x="27.4" y="0" class="st3 st4">T0</tspan></text>
		</g>
		<g class="st1">
			<rect x="164.6" y="15.4" class="st2" width="33" height="5.6"/>
			<text transform="matrix(1 0 0 1 164.6157 19.4927)"><tspan x="0" y="0" class="st5 st3 st4">Whitebox</tspan><tspan x="19.8" y="0" class="st5 st3 st4 st7"> </tspan><tspan x="27.4" y="0" class="st5 st3 st4">T0</tspan></text>
		</g>
		<path class="st0" d="M162.1,15.7l0.9,3.6l0.7-2.6l0.6,2.6l0.9-3.6"/>
		<path class="st0" d="M166.5,19.3v-3.6"/>
		<path class="st0" d="M168.1,19.3v-1.9l-0.2-0.4l-0.3-0.1h-0.5l-0.4,0.1l-0.2,0.2"/>
		<path class="st0" d="M169.8,19.3v-2.4"/>
		<path class="st0" d="M169.8,15.7l-0.2,0.2l0.2,0.1l0.1-0.1L169.8,15.7V16"/>
		<path class="st0" d="M171,16.9h1.4"/>
		<path class="st0" d="M171.5,15.7v3.1l0.2,0.4l0.4,0.1h0.3"/>
		<path class="st0" d="M175,19.1l-0.4,0.1H174l-0.4-0.1l-0.1-0.4v-1.4l0.1-0.4l0.4-0.1h0.6L175,17l0.1,0.4v0.4l-1.7,0.3"/>
		<path class="st0" d="M176.7,19.3v-3.6"/>
		<path class="st0" d="M176.7,17l0.4-0.1h0.6l0.4,0.1l0.1,0.2l0.2,0.3v1.1l-0.2,0.3l-0.1,0.2l-0.4,0.1H177l-0.4-0.1"/>
		<path class="st0" d="M180.4,19.3l-0.4-0.1l-0.1-0.2l-0.1-0.3v-1.1l0.1-0.3l0.1-0.2l0.4-0.1h0.5l0.4,0.1l0.2,0.2l0.1,0.3v1.1
			l-0.1,0.3l-0.2,0.2l-0.4,0.1H180.4"/>
		<path class="st0" d="M182.9,19.3l1.9-2.4"/>
		<path class="st0" d="M182.9,16.9l1.9,2.4"/>
		<path class="st0" d="M188.4,15.7h2"/>
		<path class="st0" d="M189.4,19.3v-3.6"/>
		<path class="st0" d="M192.3,15.7h0.3l0.4,0.2l0.1,0.1l0.2,0.4l0.1,0.6v0.9l-0.1,0.7l-0.2,0.3l-0.1,0.2l-0.4,0.1h-0.3l-0.4-0.1
			l-0.2-0.2l-0.1-0.3l-0.1-0.7V17l0.1-0.6l0.1-0.4l0.2-0.1L192.3,15.7"/>
	</g>
</g>
<g>
	<g>
		<rect x="9" y="21.5" class="st8" width="72" height="57.6"/>
	</g>
	<g>
		<path class="st0" d="M81,57.5h7.2"/>
		<g class="st1">
			<rect x="69.5" y="55.2" class="st2" width="10.7" height="5.6"/>
			<text transform="matrix(1 0 0 1 69.5269 59.3105)"><tspan x="0" y="0" class="st3 st4">VC</tspan><tspan x="7.3" y="0" class="st3 st4">C</tspan></text>
		</g>
		<g class="st1">
			<rect x="69.5" y="55.2" class="st2" width="10.7" height="5.6"/>
			<text transform="matrix(1 0 0 1 69.5254 59.3086)"><tspan x="0" y="0" class="st5 st3 st4">VC</tspan><tspan x="7.3" y="0" class="st5 st3 st4">C</tspan></text>
		</g>
		<path class="st0" d="M69.3,55.5l1.2,3.6l1.2-3.6"/>
		<path class="st0" d="M75,58.7L74.9,59l-0.6,0.1H74L73.5,59l-0.4-0.4l-0.2-0.4l-0.1-0.6v-0.5l0.1-0.7l0.2-0.4l0.4-0.3l0.5-0.2h0.3
			l0.6,0.2l0.1,0.1"/>
		<path class="st0" d="M78.6,58.7L78.5,59l-0.6,0.1h-0.3L77.1,59l-0.4-0.4l-0.2-0.4l-0.1-0.6v-0.5l0.1-0.7l0.2-0.4l0.4-0.3l0.5-0.2
			h0.3l0.6,0.2l0.1,0.1"/>
		<g class="st1">
			<rect x="84.6" y="56.9" class="st2" width="0.4" height="0.1"/>
			<text transform="matrix(1 0 0 1 84.5762 57.0063)" class="st3 st9">1</text>
		</g>
		<g class="st1">
			<rect x="84.6" y="56.9" class="st2" width="0.5" height="0.1"/>
			<text transform="matrix(1 0 0 1 84.562 57.0049)" class="st5 st3 st9">1</text>
		</g>
	</g>
	<g>
		<path class="st10" d="M84.6,57L84.6,57"/>
		<path class="st10" d="M84.6,57L84.6,57"/>
	</g>
	<g>
		<path class="st0" d="M81,71.9h7.2"/>
		<g class="st1">
			<rect x="69" y="69.6" class="st2" width="10.9" height="5.6"/>
			<text transform="matrix(1 0 0 1 69 73.7104)"><tspan x="0" y="0" class="st3 st4">GN</tspan><tspan x="7.5" y="0" class="st3 st4">D</tspan></text>
		</g>
		<g class="st1">
			<rect x="69" y="69.6" class="st2" width="10.9" height="5.6"/>
			<text transform="matrix(1 0 0 1 68.9985 73.709)"><tspan x="0" y="0" class="st5 st3 st4">GN</tspan><tspan x="7.5" y="0" class="st5 st3 st4">D</tspan></text>
		</g>
		<path class="st0" d="M71.1,70.1l-0.4-0.2h-0.5l-0.5,0.2l-0.4,0.3l-0.1,0.4L69,71.5V72l0.1,0.6l0.1,0.4l0.4,0.4l0.5,0.1h0.4
			l0.5-0.1l0.2-0.2V72h-0.7"/>
		<path class="st0" d="M72.8,73.5v-3.6l2.1,3.6v-3.6"/>
		<path class="st0" d="M76.5,73.5v-3.6h0.9l0.5,0.2l0.4,0.3l0.2,0.4l0.1,0.7V72l-0.1,0.6L78.3,73l-0.4,0.4l-0.5,0.1H76.5"/>
		<g class="st1">
			<rect x="84.6" y="71.3" class="st2" width="0.4" height="0.1"/>
			<text transform="matrix(1 0 0 1 84.5762 71.4062)" class="st3 st9">2</text>
		</g>
		<g class="st1">
			<rect x="84.6" y="71.3" class="st2" width="0.5" height="0.1"/>
			<text transform="matrix(1 0 0 1 84.562 71.4048)" class="st5 st3 st9">2</text>
		</g>
	</g>
	<g>
		<path class="st10" d="M84.6,71.4L84.6,71.4"/>
	</g>
	<g>
		<path class="st0" d="M81,43.1h7.2"/>
		<g class="st1">
			<rect x="69.8" y="40.8" class="st2" width="10.1" height="5.6"/>
			<text transform="matrix(1 0 0 1 69.7891 44.9102)"><tspan x="0" y="0" class="st3 st4">SD</tspan><tspan x="6.9" y="0" class="st3 st4">A</tspan></text>
		</g>
		<g class="st1">
			<rect x="69.8" y="40.8" class="st2" width="10.1" height="5.6"/>
			<text transform="matrix(1 0 0 1 69.7876 44.9087)"><tspan x="0" y="0" class="st5 st3 st4">SD</tspan><tspan x="6.9" y="0" class="st5 st3 st4">A</tspan></text>
		</g>
		<path class="st0" d="M69.9,44.6l0.5,0.1h0.9l0.3-0.1l0.2-0.2l0.1-0.3v-0.4l-0.1-0.4l-0.2-0.1L71.3,43l-0.7-0.1l-0.4-0.1l-0.1-0.2
			l-0.1-0.4v-0.3l0.1-0.4l0.1-0.1l0.4-0.2h0.9l0.5,0.2"/>
		<path class="st0" d="M73.5,44.7v-3.6h0.8l0.6,0.2l0.3,0.3l0.2,0.4l0.1,0.7v0.5l-0.1,0.6l-0.2,0.4l-0.3,0.4l-0.6,0.1H73.5"/>
		<path class="st0" d="M76.9,43.7h1.7"/>
		<path class="st0" d="M76.5,44.7l1.2-3.6l1.2,3.6"/>
		<g class="st1">
			<rect x="84.6" y="42.5" class="st2" width="0.4" height="0.1"/>
			<text transform="matrix(1 0 0 1 84.5762 42.6064)" class="st3 st9">3</text>
		</g>
		<g class="st1">
			<rect x="84.6" y="42.5" class="st2" width="0.5" height="0.1"/>
			<text transform="matrix(1 0 0 1 84.562 42.6045)" class="st5 st3 st9">3</text>
		</g>
	</g>
	<g>
		<path class="st10" d="M84.6,42.6L84.6,42.6"/>
	</g>
	<g>
		<path class="st0" d="M81,28.7h7.2"/>
		<g class="st1">
			<rect x="70.3" y="26.4" class="st2" width="9.9" height="5.6"/>
			<text transform="matrix(1 0 0 1 70.3159 30.5103)"><tspan x="0" y="0" class="st3 st4">SC</tspan><tspan x="7.3" y="0" class="st3 st4">L</tspan></text>
		</g>
		<g class="st1">
			<rect x="70.3" y="26.4" class="st2" width="9.9" height="5.6"/>
			<text transform="matrix(1 0 0 1 70.314 30.5088)"><tspan x="0" y="0" class="st5 st3 st4">SC</tspan><tspan x="7.3" y="0" class="st5 st3 st4">L</tspan></text>
		</g>
		<path class="st0" d="M70.1,30.2l0.5,0.1h0.9l0.4-0.1l0.1-0.2l0.2-0.3v-0.4l-0.2-0.4l-0.1-0.1l-0.4-0.2l-0.7-0.1l-0.3-0.1l-0.2-0.2
			l-0.1-0.4v-0.3l0.1-0.4l0.2-0.1l0.3-0.2h0.9l0.6,0.2"/>
		<path class="st0" d="M75.7,29.9l-0.2,0.2L75,30.3h-0.4l-0.5-0.1l-0.4-0.4l-0.1-0.4l-0.1-0.6v-0.5l0.1-0.7l0.1-0.4l0.4-0.3l0.5-0.2
			H75l0.5,0.2l0.2,0.1"/>
		<path class="st0" d="M79,30.3h-1.7v-3.6"/>
		<g class="st1">
			<rect x="84.6" y="28.1" class="st2" width="0.4" height="0.1"/>
			<text transform="matrix(1 0 0 1 84.5762 28.2061)" class="st3 st9">4</text>
		</g>
		<g class="st1">
			<rect x="84.6" y="28.1" class="st2" width="0.5" height="0.1"/>
			<text transform="matrix(1 0 0 1 84.562 28.2046)" class="st5 st3 st9">4</text>
		</g>
	</g>
	<g>
		<path class="st10" d="M84.6,28.2L84.6,28.2"/>
		<path class="st10" d="M84.6,28.2L84.6,28.2"/>
	</g>
	<g>
		<g class="st1">
			<rect x="13.2" y="15.8" class="st2" width="40.6" height="5.6"/>
			<text transform="matrix(1 0 0 1 13.2202 19.8545)"><tspan x="0" y="0" class="st3 st4">Microcontrolle</tspan><tspan x="39" y="0" class="st3 st4">r</tspan></text>
		</g>
		<g class="st1">
			<rect x="13.2" y="15.8" class="st2" width="40.6" height="5.6"/>
			<text transform="matrix(1 0 0 1 13.2183 19.8525)"><tspan x="0" y="0" class="st5 st3 st4">Microcontrolle</tspan><tspan x="39" y="0" class="st5 st3 st4">r</tspan></text>
		</g>
		<path class="st0" d="M9.3,19.6V16l1.2,2.6l1.2-2.6v3.6"/>
		<path class="st0" d="M13.4,19.6v-2.4"/>
		<path class="st0" d="M13.4,16l-0.1,0.2l0.1,0.1l0.2-0.1L13.4,16v0.4"/>
		<path class="st0" d="M16.7,19.5l-0.4,0.1h-0.7l-0.3-0.1l-0.2-0.2L15,19v-1.1l0.1-0.3l0.2-0.2l0.3-0.1h0.7l0.4,0.1"/>
		<path class="st0" d="M18.2,19.6v-2.4"/>
		<path class="st0" d="M18.2,17.9l0.1-0.3l0.2-0.2l0.4-0.1h0.3"/>
		<path class="st0" d="M21,19.6l-0.4-0.1l-0.1-0.2L20.3,19v-1.1l0.1-0.3l0.1-0.2l0.4-0.1h0.5l0.4,0.1l0.1,0.2l0.2,0.3V19L22,19.3
			l-0.1,0.2l-0.4,0.1H21"/>
		<path class="st0" d="M25.3,19.5l-0.4,0.1h-0.7l-0.3-0.1l-0.2-0.2L23.5,19v-1.1l0.1-0.3l0.2-0.2l0.3-0.1h0.7l0.4,0.1"/>
		<path class="st0" d="M27.3,19.6L27,19.5l-0.2-0.2L26.6,19v-1.1l0.1-0.3l0.2-0.2l0.3-0.1h0.5l0.4,0.1l0.2,0.2l0.1,0.3V19l-0.1,0.3
			l-0.2,0.2l-0.4,0.1H27.3"/>
		<path class="st0" d="M30,17.3v2.4"/>
		<path class="st0" d="M30,17.6l0.2-0.2l0.4-0.1h0.5l0.3,0.1l0.2,0.4v1.9"/>
		<path class="st0" d="M32.8,17.3h1.4"/>
		<path class="st0" d="M33.3,16v3.1l0.1,0.4l0.4,0.1h0.4"/>
		<path class="st0" d="M35.4,19.6v-2.4"/>
		<path class="st0" d="M35.4,17.9l0.2-0.3l0.1-0.2l0.4-0.1h0.3"/>
		<path class="st0" d="M38.1,19.6l-0.3-0.1l-0.2-0.2L37.4,19v-1.1l0.1-0.3l0.2-0.2l0.3-0.1h0.5l0.4,0.1l0.2,0.2l0.1,0.3V19l-0.1,0.3
			L39,19.5l-0.4,0.1H38.1"/>
		<path class="st0" d="M41.4,19.6L41,19.5l-0.2-0.4V16"/>
		<path class="st0" d="M43.3,19.6l-0.4-0.1l-0.1-0.4V16"/>
		<path class="st0" d="M46,19.5l-0.4,0.1H45l-0.4-0.1l-0.2-0.4v-1.4l0.2-0.4l0.4-0.1h0.6l0.4,0.1l0.1,0.4v0.4l-1.7,0.3"/>
		<path class="st0" d="M47.7,19.6v-2.4"/>
		<path class="st0" d="M47.7,17.9l0.1-0.3l0.1-0.2l0.4-0.1h0.4"/>
	</g>
</g>
<g>
	<g>
		<rect x="75.6" y="119.4" class="st11" width="14.4" height="5.8"/>
	</g>
	<g>
		<path class="st0" d="M90,122.3h3.6"/>
		<path class="st0" d="M75.6,122.3H72"/>
		<g class="st1">
			<rect x="80.9" y="120.2" class="st2" width="4" height="5.6"/>
			<text transform="matrix(1 0 0 1 80.8682 124.2544)" class="st3 st4">R</text>
		</g>
		<g class="st1">
			<rect x="80.9" y="120.2" class="st2" width="4" height="5.6"/>
			<text transform="matrix(1 0 0 1 80.8662 124.2529)" class="st5 st3 st4">R</text>
		</g>
		<path class="st0" d="M83.7,124l-1.2-1.7"/>
		<path class="st0" d="M81.6,124v-3.6h1.4l0.4,0.2l0.2,0.1l0.1,0.4v0.5l-0.1,0.4l-0.2,0.1l-0.4,0.1h-1.4"/>
	</g>
</g>
<g>
	<g>
		<rect x="75.6" y="106.8" class="st11" width="14.4" height="5.8"/>
	</g>
	<g>
		<path class="st0" d="M90,109.7h3.6"/>
		<path class="st0" d="M75.6,109.7H72"/>
		<g class="st1">
			<rect x="80.9" y="107.6" class="st2" width="4" height="5.6"/>
			<text transform="matrix(1 0 0 1 80.8682 111.6543)" class="st3 st4">R</text>
		</g>
		<g class="st1">
			<rect x="80.9" y="107.6" class="st2" width="4" height="5.6"/>
			<text transform="matrix(1 0 0 1 80.8662 111.6528)" class="st5 st3 st4">R</text>
		</g>
		<path class="st0" d="M83.7,111.4l-1.2-1.7"/>
		<path class="st0" d="M81.6,111.4v-3.6h1.4l0.4,0.2l0.2,0.1l0.1,0.4v0.5l-0.1,0.4l-0.2,0.1l-0.4,0.1h-1.4"/>
	</g>
</g>
<g>
	<g>
		<circle class="st8" cx="306" cy="71.9" r="1.4"/>
	</g>
	<g>
		<circle class="st12" cx="306" cy="71.9" r="5"/>
	</g>
	<g>
		<path class="st0" d="M306,70.5v-9.4"/>
		<g transform="rotate(-90 57430 36900)">
			<g class="st1">
				<rect x="94263.8" y="-20224.7" class="st2" width="0.9" height="0"/>
			</g>
			<g class="st1">
				<rect x="94263.7" y="-20224.7" class="st2" width="0.9" height="0.1"/>
				<text transform="matrix(1 0 0 1 94264.1875 -20225.1094)" class="st5 st3 st9">1</text>
			</g>
		</g>
	</g>
	<g>
		<path class="st10" d="M305.5,65.8L305.5,65.8"/>
		<path class="st10" d="M305.5,65.8L305.5,65.8"/>
	</g>
	<g>
		<path class="st0" d="M301,71.9h-9.4"/>
		<g class="st1">
			<text transform="matrix(1 0 0 1 296.2559 71.4062)" class="st3 st9">2</text>
		</g>
		<g class="st1">
			<text transform="matrix(1 0 0 1 296.2559 71.4062)" class="st5 st3 st9">2</text>
		</g>
	</g>
	<g>
		<path class="st10" d="M296.3,71.4L296.3,71.4"/>
	</g>
	<g>
		<g class="st1">
			<rect x="315.7" y="69.8" class="st2" width="10.9" height="5.6"/>
			<text transform="matrix(1 0 0 1 315.6719 73.8545)"><tspan x="0" y="0" class="st3 st4">BN</tspan><tspan x="7.5" y="0" class="st3 st4">C</tspan></text>
		</g>
		<g class="st1">
			<rect x="315.7" y="69.8" class="st2" width="10.9" height="5.6"/>
			<text transform="matrix(1 0 0 1 315.6699 73.8525)"><tspan x="0" y="0" class="st5 st3 st4">BN</tspan><tspan x="7.5" y="0" class="st5 st3 st4">C</tspan></text>
		</g>
		<path class="st0" d="M317.2,71.8l0.5,0.1l0.1,0.2l0.2,0.3V73l-0.2,0.3l-0.1,0.2l-0.4,0.1H316V70h1.2l0.4,0.2l0.1,0.1l0.1,0.4V71
			l-0.1,0.4l-0.1,0.2L317.2,71.8H316"/>
		<path class="st0" d="M319.6,73.6V70l2.1,3.6V70"/>
		<path class="st0" d="M325.4,73.3l-0.1,0.2l-0.5,0.1h-0.4l-0.5-0.1l-0.4-0.4l-0.1-0.4l-0.2-0.6v-0.5l0.2-0.7l0.1-0.4l0.4-0.3
			l0.5-0.2h0.4l0.5,0.2l0.1,0.1"/>
	</g>
</g>
<g>
	<g>
		<path class="st13" d="M82.8,179.9v3.6h3.6l-3.6,3.6l-3.6-3.6h3.6"/>
		<g class="st1">
			<rect x="77.5" y="190.2" class="st2" width="11.4" height="5.6"/>
			<text transform="matrix(1 0 0 1 77.52 194.3105)"><tspan x="0" y="0" class="st3 st4">GN</tspan><tspan x="7.9" y="0" class="st3 st4">D</tspan></text>
		</g>
		<g class="st1">
			<rect x="77.5" y="190.2" class="st2" width="11.4" height="5.6"/>
			<text transform="matrix(1 0 0 1 77.5186 194.3086)"><tspan x="0" y="0" class="st5 st3 st4">GN</tspan><tspan x="7.9" y="0" class="st5 st3 st4">D</tspan></text>
		</g>
		<path class="st0" d="M80,190.7l-0.3-0.2h-0.5l-0.6,0.2l-0.3,0.3l-0.2,0.4l-0.1,0.7v0.5l0.1,0.6l0.2,0.4l0.3,0.4l0.6,0.1h0.3
			L80,194l0.2-0.2v-1.2h-0.7"/>
		<path class="st0" d="M81.7,194.1v-3.6l2.1,3.6v-3.6"/>
		<path class="st0" d="M85.5,194.1v-3.6h0.9l0.5,0.2l0.3,0.3l0.2,0.4l0.1,0.7v0.5l-0.1,0.6l-0.2,0.4l-0.3,0.4l-0.5,0.1H85.5"/>
	</g>
</g>
<g>
	<g>
		<path class="st14" d="M82.8,169.1v-3.6H85l-2.2-3.6l-2.2,3.6h2.2"/>
	</g>
	<g>
		<g class="st1">
			<rect x="75.8" y="154.5" class="st2" width="19.9" height="5.6"/>
			<text transform="matrix(1 0 0 1 75.7998 158.5981)"><tspan x="0" y="0" class="st3 st4 st6">3.3-5</tspan><tspan x="16.8" y="0" class="st3 st4">V</tspan></text>
		</g>
		<g class="st1">
			<rect x="75.8" y="154.5" class="st2" width="19.9" height="5.6"/>
			<text transform="matrix(1 0 0 1 75.7974 158.5967)"><tspan x="0" y="0" class="st5 st3 st4 st6">3.3-5</tspan><tspan x="16.8" y="0" class="st5 st3 st4">V</tspan></text>
		</g>
		<path class="st0" d="M73.5,154.8h2.2l-1.2,1.4H75l0.4,0.2l0.2,0.1l0.1,0.4v0.9l-0.1,0.3l-0.2,0.2l-0.4,0.1h-1l-0.4-0.1l-0.1-0.2"
			/>
		<path class="st0" d="M77.3,158l0.2,0.2l-0.2,0.1l-0.1-0.1L77.3,158v0.4"/>
		<path class="st0" d="M78.6,154.8h2.2l-1.2,1.4h0.5l0.4,0.2l0.1,0.1l0.1,0.4v0.9l-0.1,0.3l-0.1,0.2l-0.4,0.1h-1l-0.4-0.1l-0.2-0.2"
			/>
		<path class="st0" d="M82.4,157h2.7"/>
		<path class="st0" d="M88.6,154.8h-1.7l-0.2,1.7l0.2-0.1l0.3-0.2h0.9l0.4,0.2l0.1,0.1l0.2,0.4v0.9l-0.2,0.3l-0.1,0.2l-0.4,0.1h-0.9
			l-0.3-0.1l-0.2-0.2"/>
		<path class="st0" d="M89.8,154.8l1.2,3.6l1.2-3.6"/>
	</g>
</g>
<g>
	<path class="st0" d="M306,57.5h-36"/>
	<path class="st0" d="M291.6,71.9v14.4"/>
	<path class="st0" d="M93.6,122.3h19.8"/>
	<path class="st0" d="M270,71.9h21.6"/>
	<path class="st0" d="M291.6,86.3h39.6"/>
	<path class="st0" d="M331.2,86.3V43.1"/>
	<path class="st0" d="M136.8,100.7h10.8"/>
	<path class="st0" d="M136.8,86.3v14.4"/>
	<path class="st0" d="M147.6,86.3h-10.8"/>
	<path class="st0" d="M306,61.1v-3.6"/>
	<path class="st0" d="M270,43.1h61.2"/>
	<path class="st0" d="M113.4,109.7v12.6"/>
	<path class="st0" d="M93.6,109.7h19.8"/>
	<path class="st0" d="M126,71.9h21.6"/>
	<path class="st0" d="M82.8,179.9H126"/>
	<path class="st0" d="M126,71.9v108"/>
	<path class="st0" d="M136.8,100.7v68.4"/>
	<path class="st0" d="M61.2,109.7H72"/>
	<path class="st0" d="M72,122.3H61.2"/>
	<path class="st0" d="M82.8,169.1h30.6"/>
	<path class="st0" d="M113.4,122.3v46.8"/>
	<path class="st0" d="M113.4,169.1h23.4"/>
	<path class="st0" d="M88.2,71.9H126"/>
	<path class="st0" d="M88.2,28.7h59.4"/>
	<path class="st0" d="M88.2,43.1h59.4"/>
	<path class="st0" d="M113.4,57.5v52.2"/>
	<path class="st0" d="M88.2,57.5h25.2"/>
	<path class="st0" d="M113.4,57.5h34.2"/>
	<g class="st1">
		<rect x="49.2" y="107.4" class="st2" width="10.5" height="5.6"/>
		<text transform="matrix(1 0 0 1 49.1973 111.5103)"><tspan x="0" y="0" class="st3 st4">SD</tspan><tspan x="7.3" y="0" class="st3 st4">A</tspan></text>
	</g>
	<g class="st1">
		<rect x="49.2" y="107.4" class="st2" width="10.5" height="5.6"/>
		<text transform="matrix(1 0 0 1 49.1953 111.5088)"><tspan x="0" y="0" class="st5 st3 st4">SD</tspan><tspan x="7.3" y="0" class="st5 st3 st4">A</tspan></text>
	</g>
	<path class="st0" d="M49.3,111.2l0.5,0.1h0.9l0.3-0.1l0.2-0.2l0.1-0.3v-0.4l-0.1-0.4l-0.2-0.1l-0.3-0.2l-0.7-0.1l-0.4-0.1l-0.1-0.2
		l-0.1-0.4v-0.3l0.1-0.4l0.1-0.1l0.4-0.2h0.9l0.5,0.2"/>
	<path class="st0" d="M52.9,111.3v-3.6h0.8l0.6,0.2l0.3,0.3l0.2,0.4l0.1,0.7v0.5l-0.1,0.6l-0.2,0.4l-0.3,0.4l-0.6,0.1H52.9"/>
	<path class="st0" d="M56.3,110.3H58"/>
	<path class="st0" d="M55.9,111.3l1.2-3.6l1.2,3.6"/>
</g>
<g>
	<path class="st15" d="M61.2,109.7l-1.8-3.2H47.7v3.2v3.2h11.7L61.2,109.7z"/>
</g>
<g>
	<g class="st1">
		<rect x="49.7" y="120" class="st2" width="10.4" height="5.6"/>
		<text transform="matrix(1 0 0 1 49.7236 124.1104)"><tspan x="0" y="0" class="st3 st4">SC</tspan><tspan x="7.7" y="0" class="st3 st4">L</tspan></text>
	</g>
	<g class="st1">
		<rect x="49.7" y="120" class="st2" width="10.4" height="5.6"/>
		<text transform="matrix(1 0 0 1 49.7222 124.1089)"><tspan x="0" y="0" class="st5 st3 st4">SC</tspan><tspan x="7.7" y="0" class="st5 st3 st4">L</tspan></text>
	</g>
	<path class="st0" d="M49.5,123.8l0.5,0.1h0.9l0.4-0.1l0.1-0.2l0.2-0.3v-0.4l-0.2-0.4l-0.1-0.1l-0.4-0.2l-0.7-0.1l-0.3-0.1l-0.2-0.2
		l-0.1-0.4V121l0.1-0.4l0.2-0.1l0.3-0.2H51l0.6,0.2"/>
	<path class="st0" d="M55.2,123.5l-0.2,0.2l-0.5,0.1h-0.4l-0.5-0.1l-0.4-0.4l-0.1-0.4l-0.1-0.6v-0.5l0.1-0.7l0.1-0.4l0.4-0.3
		l0.5-0.2h0.4l0.5,0.2l0.2,0.1"/>
	<path class="st0" d="M58.4,123.9h-1.7v-3.6"/>
</g>
<g>
	<path class="st15" d="M61.2,122.3l-1.8-3.2H47.8v3.2v3.2h11.6L61.2,122.3z"/>
</g>
<g>
	<g class="st1">
		<rect x="61.5" y="97.7" class="st2" width="36.9" height="5.6"/>
		<text transform="matrix(1 0 0 1 61.5278 101.7905)"><tspan x="0" y="0" class="st3 st4">I2C</tspan><tspan x="7.4" y="0" class="st3 st4 st16"> </tspan><tspan x="19" y="0" class="st3 st4">Pull-Ups</tspan></text>
	</g>
	<g class="st1">
		<rect x="61.5" y="97.7" class="st2" width="36.9" height="5.6"/>
		<text transform="matrix(1 0 0 1 61.5259 101.7886)"><tspan x="0" y="0" class="st5 st3 st4">I2C</tspan><tspan x="7.4" y="0" class="st5 st3 st4 st16"> </tspan><tspan x="19" y="0" class="st5 st3 st4">Pull-Ups</tspan></text>
	</g>
	<path class="st0" d="M52.3,101.6V98"/>
	<path class="st0" d="M53.9,98.3l0.1-0.1l0.4-0.2h0.9l0.4,0.2l0.1,0.1l0.1,0.4V99l-0.1,0.6l-2.1,2h2.2"/>
	<path class="st0" d="M59.5,101.2l-0.1,0.2l-0.5,0.1h-0.4l-0.5-0.1l-0.4-0.4l-0.1-0.4l-0.2-0.6v-0.5l0.2-0.7l0.1-0.4l0.4-0.3
		l0.5-0.2h0.4l0.5,0.2l0.1,0.1"/>
	<path class="st0" d="M63.8,101.6V98h1.4l0.4,0.2l0.1,0.1l0.1,0.4v0.5l-0.1,0.4l-0.1,0.1l-0.4,0.1h-1.4"/>
	<path class="st0" d="M68.9,99.2v2.4"/>
	<path class="st0" d="M67.4,99.2v1.9l0.1,0.4l0.4,0.1h0.5l0.4-0.1l0.1-0.2"/>
	<path class="st0" d="M71.1,101.6l-0.4-0.1l-0.1-0.4V98"/>
	<path class="st0" d="M73,101.6l-0.3-0.1l-0.2-0.4V98"/>
	<path class="st0" d="M74.4,100.2h2.8"/>
	<path class="st0" d="M78.8,98v3l0.2,0.3l0.1,0.2l0.4,0.1h0.6l0.4-0.1l0.2-0.2l0.1-0.3v-3"/>
	<path class="st0" d="M82.7,99.2v3.6"/>
	<path class="st0" d="M82.7,99.3l0.3-0.1h0.7l0.4,0.1l0.1,0.2l0.2,0.3v1.1l-0.2,0.3l-0.1,0.2l-0.4,0.1h-0.7l-0.3-0.1"/>
	<path class="st0" d="M85.8,101.4l0.3,0.1h0.7l0.4-0.1l0.1-0.4v-0.1l-0.1-0.4l-0.4-0.2h-0.5l-0.4-0.1l-0.1-0.4v-0.1l0.1-0.4l0.4-0.1
		h0.5l0.4,0.1"/>
</g>
<g>
	<circle class="st17" cx="113.4" cy="57.5" r="1.4"/>
</g>
<g>
	<circle class="st17" cx="126" cy="71.9" r="1.4"/>
</g>
<g>
	<circle class="st17" cx="113.4" cy="109.7" r="1.4"/>
</g>
<g>
	<circle class="st17" cx="136.8" cy="100.7" r="1.4"/>
</g>
<g>
	<circle class="st17" cx="291.6" cy="71.9" r="1.4"/>
</g>
<g>
	<circle class="st17" cx="113.4" cy="122.3" r="1.4"/>
</g>
<g>
	<circle class="st17" cx="113.4" cy="169.1" r="1.4"/>
</g>
<g>
	<path class="st0" d="M268.3,99l3.5,3.5"/>
	<path class="st0" d="M271.7,99l-3.5,3.5"/>
	<path class="st0" d="M268.3,84.6l3.5,3.5"/>
	<path class="st0" d="M271.7,84.6l-3.5,3.5"/>
</g>
</svg>
