<?xml version="1.0" encoding="utf-8"?>
<!-- Generator: Adobe Illustrator 26.0.1, SVG Export Plug-In . SVG Version: 6.00 Build 0)  -->
<svg version="1.1" id="Layer_1" xmlns:svg="http://www.w3.org/2000/svg"
	 xmlns="http://www.w3.org/2000/svg" xmlns:xlink="http://www.w3.org/1999/xlink" x="0px" y="0px" viewBox="0 0 154.2 60.7"
	 style="enable-background:new 0 0 154.2 60.7;" xml:space="preserve">
<style type="text/css">
	.st0{fill-rule:evenodd;clip-rule:evenodd;}
	.st1{opacity:0;enable-background:new    ;}
	.st2{fill:none;}
	.st3{font-family:'ArialMT';}
	.st4{font-size:3.7795px;}
	.st5{fill:none;stroke:#000000;stroke-width:0.4252;stroke-linecap:round;stroke-linejoin:round;}
	.st6{fill-opacity:0;stroke:#000000;stroke-width:0.4252;stroke-linecap:round;stroke-linejoin:round;stroke-miterlimit:10;}
	.st7{letter-spacing:5;}
</style>
<desc>Picture generated by PCBNEW</desc>
<g transform="translate(0 0) scale(1 1)">
</g>
<g>
	<g>
		<path class="st0" d="M116,46L116,46L116,46L116,46L116,46L116,46L116,46L116,46L116,46l0.1-0.1l0,0l0,0l0,0l0,0l0,0l0,0h6.8l0,0
			l0,0l0,0l0,0l0,0l0,0l0,0l0,0l0,0l0,0l0,0l0,0l0,0l0,0l0,0l0,0v3.4l0,0l0,0l0,0l0,0l0,0l0,0l0,0l0,0l0,0l0,0l0,0l0,0l0,0l0,0l0,0
			l0,0h-6.8l0,0l0,0l0,0l0,0l0,0l0,0l0,0l0,0l0,0l0,0l0,0l0,0l0,0l0,0l0,0l0,0L116,46L116,46z"/>
		<path class="st0" d="M116,40.3L116,40.3L116,40.3L116,40.3L116,40.3L116,40.3L116,40.3L116,40.3L116,40.3l0.1-0.1l0,0l0,0l0,0l0,0
			l0,0l0,0h6.8l0,0l0,0l0,0l0,0l0,0l0,0l0,0l0,0l0,0l0,0l0,0l0,0l0,0l0,0l0,0l0,0v3.4l0,0l0,0l0,0l0,0l0,0l0,0l0,0l0,0l0,0l0,0l0,0
			l0,0l0,0l0,0l0,0l0,0h-6.8l0,0l0,0l0,0l0,0l0,0l0,0l0,0l0,0l0,0l0,0l0,0l0,0l0,0l0,0l0,0l0,0L116,40.3L116,40.3z"/>
		<path class="st0" d="M116,34.6L116,34.6L116,34.6L116,34.6L116,34.6L116,34.6L116,34.6L116,34.6L116,34.6l0.1-0.1l0,0l0,0l0,0l0,0
			l0,0l0,0h6.8l0,0l0,0l0,0l0,0l0,0l0,0l0,0l0,0l0,0l0,0l0,0l0,0l0,0l0,0l0,0l0,0V38l0,0l0,0l0,0l0,0l0,0l0,0l0,0l0,0l0,0l0,0l0,0
			l0,0l0,0l0,0l0,0h0h-6.8h0l0,0l0,0l0,0l0,0l0,0l0,0l0,0l0,0l0,0l0,0l0,0l0,0l0,0l0,0l0,0L116,34.6L116,34.6z"/>
		<path class="st0" d="M116,29L116,29L116,29L116,29L116,29L116,29L116,29L116,29L116,29l0.1-0.1l0,0l0,0l0,0l0,0l0,0l0,0h6.8l0,0
			l0,0l0,0l0,0l0,0l0,0l0,0l0,0l0,0l0,0l0,0l0,0l0,0l0,0l0,0l0,0v3.4l0,0l0,0l0,0l0,0l0,0l0,0l0,0l0,0l0,0l0,0l0,0l0,0l0,0l0,0l0,0
			l0,0h-6.8l0,0l0,0l0,0l0,0l0,0l0,0l0,0l0,0l0,0l0,0l0,0l0,0l0,0l0,0l0,0l0,0L116,29L116,29z"/>
		<path class="st0" d="M116,23.3L116,23.3L116,23.3L116,23.3L116,23.3L116,23.3L116,23.3L116,23.3L116,23.3l0.1-0.1l0,0l0,0l0,0l0,0
			l0,0l0,0h6.8l0,0l0,0l0,0l0,0l0,0l0,0l0,0l0,0l0,0l0,0l0,0l0,0l0,0l0,0l0,0l0,0v3.4l0,0l0,0l0,0l0,0l0,0l0,0l0,0l0,0l0,0l0,0l0,0
			l0,0l0,0l0,0l0,0l0,0h-6.8l0,0l0,0l0,0l0,0l0,0l0,0l0,0l0,0l0,0l0,0l0,0l0,0l0,0l0,0l0,0l0,0L116,23.3L116,23.3z"/>
		<path class="st0" d="M116,17.6L116,17.6L116,17.6L116,17.6L116,17.6L116,17.6L116,17.6L116,17.6L116,17.6l0.1-0.1l0,0l0,0l0,0l0,0
			l0,0l0,0h6.8l0,0l0,0l0,0l0,0l0,0l0,0l0,0l0,0l0,0l0,0l0,0l0,0l0,0l0,0l0,0l0,0V21l0,0l0,0l0,0l0,0l0,0l0,0l0,0l0,0l0,0l0,0l0,0
			l0,0l0,0l0,0l0,0l0,0h-6.8l0,0l0,0l0,0l0,0l0,0l0,0l0,0l0,0l0,0l0,0l0,0l0,0l0,0l0,0l0,0l0,0L116,17.6L116,17.6z"/>
		<path class="st0" d="M30,17.6L30,17.6L30,17.6L30,17.6L30,17.6L30,17.6L30,17.6L30,17.6L30,17.6l0.1-0.1l0,0l0,0l0,0l0,0l0,0l0,0
			h6.8l0,0l0,0l0,0l0,0l0,0l0,0l0,0l0,0l0,0l0,0l0,0l0,0l0,0l0,0l0,0l0,0V21l0,0l0,0l0,0l0,0l0,0l0,0l0,0l0,0l0,0l0,0l0,0l0,0l0,0
			l0,0l0,0l0,0h-6.8l0,0l0,0l0,0l0,0l0,0l0,0l0,0l0,0l0,0l0,0l0,0l0,0l0,0l0,0l0,0l0,0L30,17.6L30,17.6z"/>
		<path class="st0" d="M30,23.3L30,23.3L30,23.3L30,23.3L30,23.3L30,23.3L30,23.3L30,23.3L30,23.3l0.1-0.1l0,0l0,0l0,0l0,0l0,0l0,0
			h6.8l0,0l0,0l0,0l0,0l0,0l0,0l0,0l0,0l0,0l0,0l0,0l0,0l0,0l0,0l0,0l0,0v3.4l0,0l0,0l0,0l0,0l0,0l0,0l0,0l0,0l0,0l0,0l0,0l0,0l0,0
			l0,0l0,0l0,0h-6.8l0,0l0,0l0,0l0,0l0,0l0,0l0,0l0,0l0,0l0,0l0,0l0,0l0,0l0,0l0,0l0,0L30,23.3L30,23.3z"/>
		<path class="st0" d="M30,29L30,29L30,29L30,29L30,29L30,29L30,29L30,29L30,29l0.1-0.1l0,0l0,0l0,0l0,0l0,0l0,0h6.8l0,0l0,0l0,0
			l0,0l0,0l0,0l0,0l0,0l0,0l0,0l0,0l0,0l0,0l0,0l0,0l0,0v3.4l0,0l0,0l0,0l0,0l0,0l0,0l0,0l0,0l0,0l0,0l0,0l0,0l0,0l0,0l0,0l0,0h-6.8
			l0,0l0,0l0,0l0,0l0,0l0,0l0,0l0,0l0,0l0,0l0,0l0,0l0,0l0,0l0,0l0,0L30,29L30,29z"/>
		<path class="st0" d="M30,34.6L30,34.6L30,34.6L30,34.6L30,34.6L30,34.6L30,34.6L30,34.6L30,34.6l0.1-0.1l0,0l0,0l0,0l0,0l0,0l0,0
			h6.8l0,0l0,0l0,0l0,0l0,0l0,0l0,0l0,0l0,0l0,0l0,0l0,0l0,0l0,0l0,0l0,0V38l0,0l0,0l0,0l0,0l0,0l0,0l0,0l0,0l0,0l0,0l0,0l0,0l0,0
			l0,0l0,0h0h-6.8h0l0,0l0,0l0,0l0,0l0,0l0,0l0,0l0,0l0,0l0,0l0,0l0,0l0,0l0,0l0,0L30,34.6L30,34.6z"/>
		<path class="st0" d="M30,40.3L30,40.3L30,40.3L30,40.3L30,40.3L30,40.3L30,40.3L30,40.3L30,40.3l0.1-0.1l0,0l0,0l0,0l0,0l0,0l0,0
			h6.8l0,0l0,0l0,0l0,0l0,0l0,0l0,0l0,0l0,0l0,0l0,0l0,0l0,0l0,0l0,0l0,0v3.4l0,0l0,0l0,0l0,0l0,0l0,0l0,0l0,0l0,0l0,0l0,0l0,0l0,0
			l0,0l0,0l0,0h-6.8l0,0l0,0l0,0l0,0l0,0l0,0l0,0l0,0l0,0l0,0l0,0l0,0l0,0l0,0l0,0l0,0L30,40.3L30,40.3z"/>
		<path class="st0" d="M30,46L30,46L30,46L30,46L30,46L30,46L30,46L30,46L30,46l0.1-0.1l0,0l0,0l0,0l0,0l0,0l0,0h6.8l0,0l0,0l0,0
			l0,0l0,0l0,0l0,0l0,0l0,0l0,0l0,0l0,0l0,0l0,0l0,0l0,0v3.4l0,0l0,0l0,0l0,0l0,0l0,0l0,0l0,0l0,0l0,0l0,0l0,0l0,0l0,0l0,0l0,0h-6.8
			l0,0l0,0l0,0l0,0l0,0l0,0l0,0l0,0l0,0l0,0l0,0l0,0l0,0l0,0l0,0l0,0L30,46L30,46z"/>
	</g>
</g>
<g>
	<g transform="rotate(-270 45236.2 29419.3)">
		<g class="st1">
			<rect x="15866.2" y="74613.6" class="st2" width="16.8" height="6"/>
			<text transform="matrix(0 -1 1 0 15874.8506 74624.9688)" class="st3 st4">2.500 mm</text>
		</g>
		<g class="st1">
			<rect x="15866.2" y="74613.6" class="st2" width="16.8" height="6"/>
			<text transform="matrix(0 -1 1 0 15874.8486 74624.9688)" class="st5 st3 st4">2.500 mm</text>
		</g>
	</g>
	<path class="st6" d="M28.5,56.3l0.1-0.1l0.3-0.1h0.7l0.3,0.1l0.1,0.1l0.1,0.3v0.3L30,57.3l-1.6,1.6h1.8"/>
	<path class="st6" d="M31.4,58.6l0.1,0.1l-0.1,0.1l-0.1-0.1L31.4,58.6v0.3"/>
	<path class="st6" d="M34.1,56.1h-1.4l-0.1,1.3l0.1-0.1l0.3-0.1h0.7l0.3,0.1l0.1,0.1l0.1,0.3v0.7l-0.1,0.3l-0.1,0.1l-0.3,0.1H33
		l-0.3-0.1l-0.1-0.1"/>
	<path class="st6" d="M36,56.1h0.3l0.3,0.1l0.1,0.1l0.1,0.3l0.1,0.5v0.7l-0.1,0.5l-0.1,0.3l-0.1,0.1l-0.3,0.1H36l-0.3-0.1l-0.1-0.1
		l-0.1-0.3l-0.1-0.5v-0.7l0.1-0.5l0.1-0.3l0.1-0.1L36,56.1"/>
	<path class="st6" d="M38.7,56.1h0.3l0.3,0.1l0.1,0.1l0.1,0.3l0.1,0.5v0.7l-0.1,0.5l-0.1,0.3l-0.1,0.1l-0.3,0.1h-0.3l-0.3-0.1
		l-0.1-0.1l-0.1-0.3L38,57.8v-0.7l0.1-0.5l0.1-0.3l0.1-0.1L38.7,56.1"/>
	<path class="st6" d="M43,58.9V57"/>
	<path class="st6" d="M43,57.3l0.1-0.1l0.3-0.1h0.4l0.3,0.1l0.1,0.3v1.5"/>
	<path class="st6" d="M44.2,57.4l0.1-0.3l0.3-0.1H45l0.3,0.1l0.1,0.3v1.5"/>
	<path class="st6" d="M46.8,58.9V57"/>
	<path class="st6" d="M46.8,57.3l0.1-0.1l0.3-0.1h0.4l0.3,0.1l0.1,0.3v1.5"/>
	<path class="st6" d="M48,57.4l0.1-0.3l0.3-0.1h0.4l0.3,0.1l0.1,0.3v1.5"/>
	<path class="st6" d="M30,48.2v5.6"/>
	<path class="st6" d="M37.1,48.2v5.6"/>
	<g class="st1">
		<rect x="4.6" y="45.7" class="st2" width="22.4" height="4.5"/>
		<text transform="matrix(1 0 0 1 4.5971 48.9279)"><tspan x="0" y="0" class="st3 st4">1.300</tspan><tspan x="9.5" y="0" class="st3 st4 st7"> </tspan><tspan x="16.1" y="0" class="st3 st4">mm</tspan></text>
	</g>
	<g class="st1">
		<rect x="4.6" y="45.7" class="st2" width="22.4" height="4.5"/>
		<text transform="matrix(1 0 0 1 4.5952 48.926)"><tspan x="0" y="0" class="st5 st3 st4">1.300</tspan><tspan x="9.5" y="0" class="st5 st3 st4 st7"> </tspan><tspan x="16.1" y="0" class="st5 st3 st4">mm</tspan></text>
	</g>
	<path class="st6" d="M3.4,48.8V46l-0.3,0.4l-0.3,0.3l-0.3,0.1"/>
	<path class="st6" d="M5.4,48.5l0.1,0.1l-0.1,0.1l-0.1-0.1L5.4,48.5v0.3"/>
	<path class="st6" d="M6.5,46h1.7L7.3,47h0.4L8,47.2l0.1,0.1l0.1,0.3v0.7l-0.1,0.3L8,48.7l-0.3,0.1H6.9l-0.3-0.1l-0.1-0.1"/>
	<path class="st6" d="M10,46h0.3l0.3,0.1l0.1,0.1l0.1,0.3L11,47v0.7l-0.1,0.5l-0.1,0.3l-0.1,0.1l-0.3,0.1H10l-0.3-0.1l-0.1-0.1
		l-0.1-0.3l-0.1-0.5V47l0.1-0.5l0.1-0.3l0.1-0.1L10,46"/>
	<path class="st6" d="M12.7,46H13l0.3,0.1l0.1,0.1l0.1,0.3l0.1,0.5v0.7l-0.1,0.5l-0.1,0.3l-0.1,0.1L13,48.8h-0.3l-0.3-0.1l-0.1-0.1
		l-0.1-0.3L12,47.7V47l0.1-0.5l0.1-0.3l0.1-0.1L12.7,46"/>
	<path class="st6" d="M17,48.8v-1.9"/>
	<path class="st6" d="M17,47.2l0.1-0.1l0.3-0.1h0.4l0.3,0.1l0.1,0.3v1.5"/>
	<path class="st6" d="M18.3,47.3l0.1-0.3l0.3-0.1h0.4l0.3,0.1l0.1,0.3v1.5"/>
	<path class="st6" d="M20.8,48.8v-1.9"/>
	<path class="st6" d="M20.8,47.2L21,47l0.3-0.1h0.4l0.3,0.1l0.1,0.3v1.5"/>
	<path class="st6" d="M22,47.3l0.1-0.3l0.3-0.1h0.4l0.3,0.1l0.1,0.3v1.5"/>
	<path class="st6" d="M31,49.5h-6.3"/>
	<path class="st6" d="M31,45.8h-6.3"/>
	<g class="st1">
		<rect x="132.1" y="43" class="st2" width="22.4" height="4.5"/>
		<text transform="matrix(1 0 0 1 132.0594 46.2099)"><tspan x="0" y="0" class="st3 st4">2.000</tspan><tspan x="9.5" y="0" class="st3 st4 st7"> </tspan><tspan x="16.1" y="0" class="st3 st4">mm</tspan></text>
	</g>
	<g class="st1">
		<rect x="132.1" y="43" class="st2" width="22.4" height="4.5"/>
		<text transform="matrix(1 0 0 1 132.0574 46.208)"><tspan x="0" y="0" class="st5 st3 st4">2.000</tspan><tspan x="9.5" y="0" class="st5 st3 st4 st7"> </tspan><tspan x="16.1" y="0" class="st5 st3 st4">mm</tspan></text>
	</g>
	<path class="st6" d="M130.1,43.5l0.1-0.1l0.3-0.1h0.7l0.3,0.1l0.1,0.1l0.1,0.3V44l-0.1,0.4l-1.6,1.6h1.8"/>
	<path class="st6" d="M132.9,45.8l0.1,0.1l-0.1,0.1l-0.1-0.1L132.9,45.8v0.3"/>
	<path class="st6" d="M134.8,43.2h0.3l0.3,0.1l0.1,0.1l0.1,0.3l0.1,0.5V45l-0.1,0.5l-0.1,0.3l-0.1,0.1l-0.3,0.1h-0.3l-0.3-0.1
		l-0.1-0.1l-0.1-0.3l-0.1-0.5v-0.7l0.1-0.5l0.1-0.3l0.1-0.1L134.8,43.2"/>
	<path class="st6" d="M137.5,43.2h0.3l0.3,0.1l0.1,0.1l0.1,0.3l0.1,0.5V45l-0.1,0.5l-0.1,0.3l-0.1,0.1l-0.3,0.1h-0.3l-0.3-0.1
		l-0.1-0.1l-0.1-0.3l-0.1-0.5v-0.7l0.1-0.5l0.1-0.3l0.1-0.1L137.5,43.2"/>
	<path class="st6" d="M140.2,43.2h0.3l0.3,0.1l0.1,0.1l0.1,0.3l0.1,0.5V45l-0.1,0.5l-0.1,0.3l-0.1,0.1l-0.3,0.1h-0.3l-0.3-0.1
		l-0.1-0.1l-0.1-0.3l-0.1-0.5v-0.7l0.1-0.5l0.1-0.3l0.1-0.1L140.2,43.2"/>
	<path class="st6" d="M144.5,46.1v-1.9"/>
	<path class="st6" d="M144.5,44.4l0.1-0.1l0.3-0.1h0.4l0.3,0.1l0.1,0.3v1.5"/>
	<path class="st6" d="M145.7,44.6l0.1-0.3l0.3-0.1h0.4l0.3,0.1l0.1,0.3v1.5"/>
	<path class="st6" d="M148.3,46.1v-1.9"/>
	<path class="st6" d="M148.3,44.4l0.1-0.1l0.3-0.1h0.4l0.3,0.1l0.1,0.3v1.5"/>
	<path class="st6" d="M149.5,44.6l0.1-0.3l0.3-0.1h0.4l0.3,0.1l0.1,0.3v1.5"/>
	<path class="st6" d="M119.6,47.7h9.4"/>
	<path class="st6" d="M119.6,42h9.4"/>
	<g transform="rotate(-270 52224.4 35403.5)">
		<g class="st1">
			<rect x="16817.1" y="87548.3" class="st2" width="18.9" height="5.9"/>
			<text transform="matrix(0 -1 1 0 16826.8281 87560.7266)" class="st3 st4">30.350 mm</text>
		</g>
		<g class="st1">
			<rect x="16817.1" y="87548.3" class="st2" width="18.9" height="5.9"/>
			<text transform="matrix(0 -1 1 0 16826.8262 87560.7344)" class="st5 st3 st4">30.350 mm</text>
		</g>
	</g>
	<path class="st6" d="M64.7,4h1.8l-0.9,1.1H66l0.3,0.1l0.1,0.1l0.1,0.3v0.7l-0.1,0.3l-0.1,0.1L66,6.9h-0.8l-0.3-0.1l-0.1-0.1"/>
	<path class="st6" d="M68.3,4h0.3l0.3,0.1l0.1,0.1l0.1,0.3l0.1,0.5v0.7l-0.1,0.5l-0.1,0.3l-0.1,0.1l-0.3,0.1h-0.3L68,6.7l-0.1-0.1
		l-0.1-0.3l-0.1-0.5V5.1l0.1-0.5l0.1-0.3L68,4.2L68.3,4"/>
	<path class="st6" d="M70.4,6.6l0.1,0.1l-0.1,0.1l-0.1-0.1L70.4,6.6v0.3"/>
	<path class="st6" d="M71.5,4h1.7l-0.9,1.1h0.4L73,5.2l0.1,0.1l0.1,0.3v0.7l-0.1,0.3L73,6.7l-0.3,0.1h-0.8l-0.3-0.1l-0.1-0.1"/>
	<path class="st6" d="M75.8,4h-1.4l-0.1,1.4l0.1-0.1l0.3-0.1h0.7l0.3,0.1l0.1,0.1l0.1,0.3v0.7l-0.1,0.3l-0.1,0.1l-0.3,0.1h-0.7
		l-0.3-0.1l-0.1-0.1"/>
	<path class="st6" d="M77.7,4H78l0.3,0.1l0.1,0.1l0.1,0.3l0.1,0.5v0.7l-0.1,0.5l-0.1,0.3l-0.1,0.1L78,6.9h-0.3l-0.3-0.1l-0.1-0.1
		l-0.1-0.3L77,5.8V5.1l0.1-0.5l0.1-0.3l0.1-0.1L77.7,4"/>
	<path class="st6" d="M82,6.9V5"/>
	<path class="st6" d="M82,5.2l0.1-0.1L82.4,5h0.4l0.3,0.1l0.1,0.3v1.5"/>
	<path class="st6" d="M83.2,5.4l0.1-0.3L83.6,5H84l0.3,0.1l0.1,0.3v1.5"/>
	<path class="st6" d="M85.8,6.9V5"/>
	<path class="st6" d="M85.8,5.2l0.1-0.1L86.2,5h0.4l0.3,0.1L87,5.4v1.5"/>
	<path class="st6" d="M87,5.4l0.1-0.3L87.4,5h0.4l0.3,0.1l0.1,0.3v1.5"/>
	<path class="st6" d="M33.6,9.3h86"/>
	<path class="st6" d="M33.6,19.4V7.6"/>
	<path class="st6" d="M119.6,19.4V7.6"/>
	<path class="st6" d="M119.6,9.3l-3.2,1.7"/>
	<path class="st6" d="M119.6,9.3l-3.2-1.7"/>
	<path class="st6" d="M33.6,9.3l3.2,1.7"/>
	<path class="st6" d="M33.6,9.3l3.2-1.7"/>
</g>
</svg>
