<?xml version="1.0" encoding="utf-8"?>
<!-- Generator: Adobe Illustrator 26.0.1, SVG Export Plug-In . SVG Version: 6.00 Build 0)  -->
<svg version="1.1" id="Layer_1" xmlns:svg="http://www.w3.org/2000/svg"
	 xmlns="http://www.w3.org/2000/svg" xmlns:xlink="http://www.w3.org/1999/xlink" x="0px" y="0px" viewBox="0 0 348 210"
	 style="enable-background:new 0 0 348 210;" xml:space="preserve">
<style type="text/css">
	.st0{fill-opacity:0;stroke:#000000;stroke-width:0.432;stroke-linecap:round;stroke-linejoin:round;stroke-miterlimit:10;}
	.st1{opacity:0;enable-background:new    ;}
	.st2{fill:none;}
	.st3{font-family:'ArialMT';}
	.st4{font-size:4.752px;}
	.st5{fill:none;stroke:#000000;stroke-width:0.432;stroke-linecap:round;stroke-linejoin:round;}
	.st6{letter-spacing:1;}
	.st7{letter-spacing:6;}
	.st8{fill-opacity:0;stroke:#000000;stroke-width:0.576;stroke-linecap:round;stroke-linejoin:round;stroke-miterlimit:10;}
	.st9{fill-opacity:0;stroke:#000000;stroke-width:0.864;stroke-linecap:round;stroke-linejoin:round;stroke-miterlimit:10;}
	.st10{font-size:8.639999e-02px;}
	.st11{fill-opacity:0;}
	.st12{fill-opacity:0;stroke:#000000;stroke-width:0.72;stroke-linecap:round;stroke-linejoin:round;stroke-miterlimit:10;}
	.st13{fill:none;stroke:#000000;stroke-width:0.576;stroke-linecap:round;stroke-linejoin:round;stroke-miterlimit:10;}
	.st14{fill:none;stroke:#000000;stroke-width:0.432;stroke-linecap:round;stroke-linejoin:round;stroke-miterlimit:10;}
	
		.st15{fill-rule:evenodd;clip-rule:evenodd;stroke:#000000;stroke-width:0.576;stroke-linecap:round;stroke-linejoin:round;stroke-miterlimit:10;}
	
		.st16{fill-rule:evenodd;clip-rule:evenodd;stroke:#000000;stroke-width:0.432;stroke-linecap:round;stroke-linejoin:round;stroke-miterlimit:10;}
	.st17{fill:none;stroke:#000000;stroke-width:0.72;stroke-linecap:round;stroke-linejoin:round;stroke-miterlimit:10;}
	.st18{letter-spacing:10;}
	.st19{letter-spacing:8;}
	.st20{stroke:#000000;stroke-width:0.72;stroke-linecap:round;stroke-linejoin:round;stroke-miterlimit:10;}
</style>
<desc>Picture generated by Eeschema-SVG</desc>
<g transform="translate(0 0) scale(1 1)">
</g>
<g>
	<g>
		<rect x="161" y="22.5" class="st0" width="93.6" height="86.4"/>
		<path class="st0" d="M161,101.7h-14.4"/>
		<g class="st1">
			<rect x="163.9" y="99.4" class="st2" width="9" height="5.6"/>
			<text transform="matrix(1 0 0 1 163.8799 103.5103)"><tspan x="0" y="0" class="st3 st4">VI</tspan><tspan x="5.6" y="0" class="st3 st4">N</tspan></text>
		</g>
		<g class="st1">
			<rect x="163.9" y="99.4" class="st2" width="9" height="5.6"/>
			<text transform="matrix(1 0 0 1 163.8784 103.5088)"><tspan x="0" y="0" class="st5 st3 st4">VI</tspan><tspan x="5.6" y="0" class="st5 st3 st4">N</tspan></text>
		</g>
		<path class="st0" d="M164.4,99.7l1.2,3.6l1.2-3.6"/>
		<path class="st0" d="M168,103.3v-3.6"/>
		<path class="st0" d="M169.7,103.3v-3.6l2.1,3.6v-3.6"/>
		<g class="st1">
			<rect x="152.5" y="96.9" class="st2" width="3.9" height="5.6"/>
			<text transform="matrix(1 0 0 1 152.4785 100.9902)" class="st3 st4">1</text>
		</g>
		<g class="st1">
			<rect x="152.5" y="96.9" class="st2" width="3.9" height="5.6"/>
			<text transform="matrix(1 0 0 1 152.4761 100.9888)" class="st5 st3 st4">1</text>
		</g>
		<path class="st0" d="M154.8,100.8h-2.1"/>
		<path class="st0" d="M153.8,100.8v-3.6l-0.4,0.5l-0.4,0.4l-0.4,0.1"/>
		<path class="st0" d="M254.6,58.5H269"/>
		<g class="st1">
			<rect x="241.9" y="56.2" class="st2" width="11.2" height="5.6"/>
			<text transform="matrix(1 0 0 1 241.9492 60.3105)"><tspan x="0" y="0" class="st3 st4">PR</tspan><tspan x="8.1" y="0" class="st3 st4">B</tspan></text>
		</g>
		<g class="st1">
			<rect x="241.9" y="56.2" class="st2" width="11.2" height="5.6"/>
			<text transform="matrix(1 0 0 1 241.9473 60.3086)"><tspan x="0" y="0" class="st5 st3 st4">PR</tspan><tspan x="8.1" y="0" class="st5 st3 st4">B</tspan></text>
		</g>
		<path class="st0" d="M241.5,60.1v-3.6h1.4l0.4,0.2l0.2,0.1l0.1,0.4v0.5l-0.1,0.4l-0.2,0.1l-0.4,0.1h-1.4"/>
		<path class="st0" d="M247.2,60.1l-1.2-1.7"/>
		<path class="st0" d="M245.1,60.1v-3.6h1.4l0.4,0.2l0.2,0.1l0.1,0.4v0.5l-0.1,0.4l-0.2,0.1l-0.4,0.1h-1.4"/>
		<path class="st0" d="M249.9,58.2l0.5,0.1l0.2,0.2l0.1,0.3v0.6l-0.1,0.3l-0.2,0.2l-0.4,0.1h-1.4v-3.6h1.2l0.4,0.2l0.1,0.1l0.2,0.4
			v0.3l-0.2,0.4l-0.1,0.2L249.9,58.2h-1.2"/>
		<g class="st1">
			<rect x="259.2" y="53.7" class="st2" width="7.3" height="5.6"/>
			<text transform="matrix(1 0 0 1 259.1572 57.7905)"><tspan x="0" y="0" class="st3 st4 st6">1</tspan><tspan x="4.6" y="0" class="st3 st4">0</tspan></text>
		</g>
		<g class="st1">
			<rect x="259.2" y="53.7" class="st2" width="7.3" height="5.6"/>
			<text transform="matrix(1 0 0 1 259.1553 57.7886)"><tspan x="0" y="0" class="st5 st3 st4 st6">1</tspan><tspan x="4.6" y="0" class="st5 st3 st4">0</tspan></text>
		</g>
		<path class="st0" d="M261.1,57.6H259"/>
		<path class="st0" d="M260.1,57.6V54l-0.4,0.5l-0.4,0.4L259,55"/>
		<path class="st0" d="M263.3,54h0.4l0.3,0.2l0.2,0.1l0.1,0.4l0.2,0.6v0.9l-0.2,0.7l-0.1,0.3l-0.2,0.2l-0.3,0.1h-0.4l-0.4-0.1
			l-0.1-0.2l-0.2-0.3l-0.1-0.7v-0.9l0.1-0.6l0.2-0.4l0.1-0.1L263.3,54"/>
		<path class="st0" d="M254.6,44.1H269"/>
		<g class="st1">
			<rect x="228.7" y="41.8" class="st2" width="24.9" height="5.6"/>
			<text transform="matrix(1 0 0 1 228.7461 45.9102)"><tspan x="0" y="0" class="st3 st4">PRB_GN</tspan><tspan x="21.5" y="0" class="st3 st4">D</tspan></text>
		</g>
		<g class="st1">
			<rect x="228.7" y="41.8" class="st2" width="24.9" height="5.6"/>
			<text transform="matrix(1 0 0 1 228.7451 45.9087)"><tspan x="0" y="0" class="st5 st3 st4">PRB_GN</tspan><tspan x="21.5" y="0" class="st5 st3 st4">D</tspan></text>
		</g>
		<path class="st0" d="M227.8,45.7v-3.6h1.4l0.4,0.2l0.1,0.1l0.2,0.4v0.5l-0.2,0.4l-0.1,0.1l-0.4,0.1h-1.4"/>
		<path class="st0" d="M233.5,45.7l-1.2-1.7"/>
		<path class="st0" d="M231.4,45.7v-3.6h1.4l0.4,0.2l0.1,0.1l0.2,0.4v0.5l-0.2,0.4l-0.1,0.1l-0.4,0.1h-1.4"/>
		<path class="st0" d="M236.2,43.8l0.5,0.1l0.1,0.2l0.2,0.3V45l-0.2,0.3l-0.1,0.2l-0.4,0.1H235v-3.6h1.2l0.3,0.2l0.2,0.1l0.1,0.4
			v0.3l-0.1,0.4l-0.2,0.2L236.2,43.8H235"/>
		<path class="st0" d="M237.8,46.1h2.7"/>
		<path class="st0" d="M243.2,42.3l-0.4-0.2h-0.5l-0.5,0.2l-0.4,0.3l-0.1,0.4l-0.1,0.7v0.5l0.1,0.6l0.1,0.4l0.4,0.4l0.5,0.1h0.4
			l0.5-0.1l0.2-0.2v-1.2h-0.7"/>
		<path class="st0" d="M245,45.7v-3.6l2.1,3.6v-3.6"/>
		<path class="st0" d="M248.7,45.7v-3.6h0.9l0.5,0.2l0.4,0.3l0.2,0.4l0.1,0.7v0.5l-0.1,0.6l-0.2,0.4l-0.4,0.4l-0.5,0.1H248.7"/>
		<g class="st1">
			<rect x="259.3" y="39.3" class="st2" width="7.3" height="5.6"/>
			<text transform="matrix(1 0 0 1 259.333 43.3901)"><tspan x="0" y="0" class="st3 st4 st6">1</tspan><tspan x="4.6" y="0" class="st3 st4">1</tspan></text>
		</g>
		<g class="st1">
			<rect x="259.3" y="39.3" class="st2" width="7.3" height="5.6"/>
			<text transform="matrix(1 0 0 1 259.3311 43.3887)"><tspan x="0" y="0" class="st5 st3 st4 st6">1</tspan><tspan x="4.6" y="0" class="st5 st3 st4">1</tspan></text>
		</g>
		<path class="st0" d="M261.1,43.2H259"/>
		<path class="st0" d="M260.1,43.2v-3.6l-0.4,0.5l-0.4,0.4l-0.4,0.1"/>
		<path class="st0" d="M264.5,43.2h-2.1"/>
		<path class="st0" d="M263.5,43.2v-3.6l-0.3,0.5l-0.4,0.4l-0.4,0.1"/>
		<path class="st0" d="M254.6,29.7H269"/>
		<path class="st0" d="M267.9,28.6l2.2,2.2"/>
		<path class="st0" d="M270.1,28.6l-2.2,2.2"/>
		<g class="st1">
			<rect x="242.2" y="27.4" class="st2" width="11.2" height="5.6"/>
			<text transform="matrix(1 0 0 1 242.2158 31.5103)"><tspan x="0" y="0" class="st3 st4">N.C</tspan><tspan x="9.9" y="0" class="st3 st4">.</tspan></text>
		</g>
		<g class="st1">
			<rect x="242.2" y="27.4" class="st2" width="11.2" height="5.6"/>
			<text transform="matrix(1 0 0 1 242.2139 31.5088)"><tspan x="0" y="0" class="st5 st3 st4">N.C</tspan><tspan x="9.9" y="0" class="st5 st3 st4">.</tspan></text>
		</g>
		<path class="st0" d="M241.5,31.3v-3.6l2.1,3.6v-3.6"/>
		<path class="st0" d="M245.3,30.9l0.1,0.2l-0.1,0.1l-0.2-0.1L245.3,30.9v0.4"/>
		<path class="st0" d="M249.1,30.9l-0.1,0.2l-0.5,0.1H248l-0.5-0.1l-0.4-0.4l-0.1-0.4l-0.2-0.6v-0.5l0.2-0.7l0.1-0.4l0.4-0.3
			l0.5-0.2h0.4l0.5,0.2l0.1,0.1"/>
		<path class="st0" d="M250.6,30.9l0.1,0.2l-0.1,0.1l-0.2-0.1L250.6,30.9v0.4"/>
		<g class="st1">
			<rect x="259.2" y="24.9" class="st2" width="7.3" height="5.6"/>
			<text transform="matrix(1 0 0 1 259.1572 28.9902)"><tspan x="0" y="0" class="st3 st4 st6">1</tspan><tspan x="4.6" y="0" class="st3 st4">2</tspan></text>
		</g>
		<g class="st1">
			<rect x="259.2" y="24.9" class="st2" width="7.3" height="5.6"/>
			<text transform="matrix(1 0 0 1 259.1553 28.9888)"><tspan x="0" y="0" class="st5 st3 st4 st6">1</tspan><tspan x="4.6" y="0" class="st5 st3 st4">2</tspan></text>
		</g>
		<path class="st0" d="M261.1,28.8H259"/>
		<path class="st0" d="M260.1,28.8v-3.6l-0.4,0.5l-0.4,0.4l-0.4,0.1"/>
		<path class="st0" d="M262.4,25.5l0.1-0.1l0.4-0.2h0.9l0.4,0.2l0.1,0.1l0.2,0.4v0.3l-0.2,0.6l-2,2h2.2"/>
		<path class="st0" d="M161,87.3h-14.4"/>
		<g class="st1">
			<rect x="163.9" y="85" class="st2" width="12.2" height="5.6"/>
			<text transform="matrix(1 0 0 1 163.8799 89.1104)"><tspan x="0" y="0" class="st3 st4">VSI</tspan><tspan x="8.5" y="0" class="st3 st4">G</tspan></text>
		</g>
		<g class="st1">
			<rect x="163.9" y="85" class="st2" width="12.2" height="5.6"/>
			<text transform="matrix(1 0 0 1 163.8784 89.1089)"><tspan x="0" y="0" class="st5 st3 st4">VSI</tspan><tspan x="8.5" y="0" class="st5 st3 st4">G</tspan></text>
		</g>
		<path class="st0" d="M164.4,85.3l1.2,3.6l1.2-3.6"/>
		<path class="st0" d="M167.8,88.8l0.5,0.1h0.9l0.4-0.1l0.1-0.2l0.1-0.3v-0.4l-0.1-0.4l-0.1-0.1l-0.4-0.2l-0.7-0.1l-0.3-0.1
			l-0.2-0.2l-0.1-0.4V86l0.1-0.4l0.2-0.1l0.3-0.2h0.9l0.5,0.2"/>
		<path class="st0" d="M171.4,88.9v-3.6"/>
		<path class="st0" d="M175,85.5l-0.4-0.2h-0.5l-0.5,0.2l-0.4,0.3l-0.1,0.4l-0.2,0.7v0.5l0.2,0.6l0.1,0.4l0.4,0.4l0.5,0.1h0.4
			l0.5-0.1l0.1-0.2v-1.2h-0.6"/>
		<g class="st1">
			<rect x="152.5" y="82.5" class="st2" width="3.9" height="5.6"/>
			<text transform="matrix(1 0 0 1 152.4785 86.5903)" class="st3 st4">2</text>
		</g>
		<g class="st1">
			<rect x="152.5" y="82.5" class="st2" width="3.9" height="5.6"/>
			<text transform="matrix(1 0 0 1 152.4761 86.5889)" class="st5 st3 st4">2</text>
		</g>
		<path class="st0" d="M152.7,83.1l0.2-0.1l0.3-0.2h0.9l0.4,0.2l0.1,0.1l0.2,0.4v0.3l-0.2,0.6l-2,2h2.2"/>
		<path class="st0" d="M161,72.9h-14.4"/>
		<g class="st1">
			<rect x="163.9" y="70.6" class="st2" width="15" height="5.6"/>
			<text transform="matrix(1 0 0 1 163.8799 74.7104)"><tspan x="0" y="0" class="st3 st4">GND</tspan><tspan x="11.8" y="0" class="st3 st4">P</tspan></text>
		</g>
		<g class="st1">
			<rect x="163.9" y="70.6" class="st2" width="15" height="5.6"/>
			<text transform="matrix(1 0 0 1 163.8784 74.709)"><tspan x="0" y="0" class="st5 st3 st4">GND</tspan><tspan x="11.8" y="0" class="st5 st3 st4">P</tspan></text>
		</g>
		<path class="st0" d="M166.8,71.1l-0.4-0.2H166l-0.5,0.2l-0.4,0.3l-0.2,0.4l-0.1,0.7V73l0.1,0.6l0.2,0.4l0.4,0.4l0.5,0.1h0.3
			l0.6-0.1l0.1-0.2V73h-0.7"/>
		<path class="st0" d="M168.5,74.5v-3.6l2.1,3.6v-3.6"/>
		<path class="st0" d="M172.3,74.5v-3.6h0.9l0.5,0.2l0.4,0.3l0.1,0.4l0.1,0.7V73l-0.1,0.6L174,74l-0.4,0.4l-0.5,0.1H172.3"/>
		<path class="st0" d="M175.9,74.5v-3.6h1.4l0.4,0.2l0.1,0.1l0.1,0.4v0.5l-0.1,0.4l-0.1,0.1l-0.4,0.1h-1.4"/>
		<g class="st1">
			<rect x="152.5" y="68.1" class="st2" width="3.9" height="5.6"/>
			<text transform="matrix(1 0 0 1 152.4785 72.1904)" class="st3 st4">3</text>
		</g>
		<g class="st1">
			<rect x="152.5" y="68.1" class="st2" width="3.9" height="5.6"/>
			<text transform="matrix(1 0 0 1 152.4761 72.189)" class="st5 st3 st4">3</text>
		</g>
		<path class="st0" d="M152.6,68.4h2.2l-1.2,1.4h0.5l0.4,0.2l0.1,0.1l0.2,0.4v0.9l-0.2,0.3l-0.1,0.2l-0.4,0.1h-1l-0.4-0.1l-0.1-0.2"
			/>
		<path class="st0" d="M161,58.5h-14.4"/>
		<g class="st1">
			<rect x="163.9" y="56.2" class="st2" width="20.3" height="5.6"/>
			<text transform="matrix(1 0 0 1 163.8799 60.3105)"><tspan x="0" y="0" class="st3 st4">ENABL</tspan><tspan x="17.1" y="0" class="st3 st4">E</tspan></text>
		</g>
		<g class="st1">
			<rect x="163.9" y="56.2" class="st2" width="20.3" height="5.6"/>
			<text transform="matrix(1 0 0 1 163.8784 60.3086)"><tspan x="0" y="0" class="st5 st3 st4">ENABL</tspan><tspan x="17.1" y="0" class="st5 st3 st4">E</tspan></text>
		</g>
		<path class="st0" d="M164.9,58.2h1.2"/>
		<path class="st0" d="M166.6,60.1h-1.7v-3.6h1.7"/>
		<path class="st0" d="M168.2,60.1v-3.6l2,3.6v-3.6"/>
		<path class="st0" d="M171.8,59.1h1.7"/>
		<path class="st0" d="M171.4,60.1l1.2-3.6l1.2,3.6"/>
		<path class="st0" d="M176.3,58.2l0.5,0.1l0.1,0.2l0.1,0.3v0.6l-0.1,0.3l-0.1,0.2l-0.4,0.1H175v-3.6h1.2l0.3,0.2l0.2,0.1l0.1,0.4
			v0.3l-0.1,0.4l-0.2,0.2L176.3,58.2H175"/>
		<path class="st0" d="M180.4,60.1h-1.7v-3.6"/>
		<path class="st0" d="M181.5,58.2h1.2"/>
		<path class="st0" d="M183.2,60.1h-1.7v-3.6h1.7"/>
		<g class="st1">
			<rect x="152.5" y="53.7" class="st2" width="3.9" height="5.6"/>
			<text transform="matrix(1 0 0 1 152.4785 57.7905)" class="st3 st4">4</text>
		</g>
		<g class="st1">
			<rect x="152.5" y="53.7" class="st2" width="3.9" height="5.6"/>
			<text transform="matrix(1 0 0 1 152.4761 57.7886)" class="st5 st3 st4">4</text>
		</g>
		<path class="st0" d="M154.4,55.2v2.4"/>
		<path class="st0" d="M153.6,53.8l-0.9,2.5h2.2"/>
		<path class="st0" d="M161,44.1h-14.4"/>
		<g class="st1">
			<rect x="163.9" y="41.8" class="st2" width="10.5" height="5.6"/>
			<text transform="matrix(1 0 0 1 163.8799 45.9102)"><tspan x="0" y="0" class="st3 st4">SD</tspan><tspan x="7.3" y="0" class="st3 st4">A</tspan></text>
		</g>
		<g class="st1">
			<rect x="163.9" y="41.8" class="st2" width="10.5" height="5.6"/>
			<text transform="matrix(1 0 0 1 163.8784 45.9087)"><tspan x="0" y="0" class="st5 st3 st4">SD</tspan><tspan x="7.3" y="0" class="st5 st3 st4">A</tspan></text>
		</g>
		<path class="st0" d="M164.7,45.6l0.5,0.1h0.9l0.4-0.1l0.1-0.2l0.2-0.3v-0.4l-0.2-0.4l-0.1-0.1l-0.4-0.2l-0.6-0.1l-0.4-0.1
			l-0.2-0.2l-0.1-0.4v-0.3l0.1-0.4l0.2-0.1l0.4-0.2h0.8l0.6,0.2"/>
		<path class="st0" d="M168.3,45.7v-3.6h0.9l0.5,0.2l0.4,0.3l0.1,0.4l0.2,0.7v0.5l-0.2,0.6l-0.1,0.4l-0.4,0.4l-0.5,0.1H168.3"/>
		<path class="st0" d="M171.8,44.7h1.7"/>
		<path class="st0" d="M171.4,45.7l1.2-3.6l1.2,3.6"/>
		<g class="st1">
			<rect x="152.5" y="39.3" class="st2" width="3.9" height="5.6"/>
			<text transform="matrix(1 0 0 1 152.4785 43.3901)" class="st3 st4">5</text>
		</g>
		<g class="st1">
			<rect x="152.5" y="39.3" class="st2" width="3.9" height="5.6"/>
			<text transform="matrix(1 0 0 1 152.4761 43.3887)" class="st5 st3 st4">5</text>
		</g>
		<path class="st0" d="M154.6,39.6h-1.7l-0.2,1.7l0.2-0.1l0.3-0.2h0.9l0.4,0.2l0.1,0.1l0.2,0.4v0.9l-0.2,0.3l-0.1,0.2l-0.4,0.1h-0.9
			l-0.3-0.1l-0.2-0.2"/>
		<path class="st0" d="M161,29.7h-14.4"/>
		<g class="st1">
			<rect x="163.9" y="27.4" class="st2" width="10.4" height="5.6"/>
			<text transform="matrix(1 0 0 1 163.8799 31.5103)"><tspan x="0" y="0" class="st3 st4">SC</tspan><tspan x="7.7" y="0" class="st3 st4">L</tspan></text>
		</g>
		<g class="st1">
			<rect x="163.9" y="27.4" class="st2" width="10.4" height="5.6"/>
			<text transform="matrix(1 0 0 1 163.8784 31.5088)"><tspan x="0" y="0" class="st5 st3 st4">SC</tspan><tspan x="7.7" y="0" class="st5 st3 st4">L</tspan></text>
		</g>
		<path class="st0" d="M164.7,31.2l0.5,0.1h0.9l0.4-0.1l0.1-0.2l0.2-0.3v-0.4l-0.2-0.4l-0.1-0.1l-0.4-0.2l-0.6-0.1l-0.4-0.1
			l-0.2-0.2l-0.1-0.4v-0.3l0.1-0.4l0.2-0.1l0.4-0.2h0.8l0.6,0.2"/>
		<path class="st0" d="M170.4,30.9l-0.2,0.2l-0.5,0.1h-0.4l-0.5-0.1l-0.4-0.4l-0.1-0.4l-0.1-0.6v-0.5l0.1-0.7l0.1-0.4l0.4-0.3
			l0.5-0.2h0.4l0.5,0.2l0.2,0.1"/>
		<path class="st0" d="M173.7,31.3h-1.7v-3.6"/>
		<g class="st1">
			<rect x="152.5" y="24.9" class="st2" width="3.9" height="5.6"/>
			<text transform="matrix(1 0 0 1 152.4785 28.9902)" class="st3 st4">6</text>
		</g>
		<g class="st1">
			<rect x="152.5" y="24.9" class="st2" width="3.9" height="5.6"/>
			<text transform="matrix(1 0 0 1 152.4761 28.9888)" class="st5 st3 st4">6</text>
		</g>
		<path class="st0" d="M154.4,25.2h-0.6l-0.4,0.2l-0.2,0.1l-0.3,0.5l-0.2,0.7v1.4l0.2,0.3l0.1,0.2l0.4,0.1h0.6l0.4-0.1l0.1-0.2
			l0.2-0.3v-0.9l-0.2-0.4l-0.1-0.1l-0.4-0.2h-0.6l-0.4,0.2l-0.1,0.1l-0.2,0.4"/>
		<path class="st0" d="M254.6,101.7H269"/>
		<g class="st1">
			<rect x="237.7" y="99.4" class="st2" width="15.2" height="5.6"/>
			<text transform="matrix(1 0 0 1 237.7217 103.5103)"><tspan x="0" y="0" class="st3 st4">V_IS</tspan><tspan x="11.5" y="0" class="st3 st4">O</tspan></text>
		</g>
		<g class="st1">
			<rect x="237.7" y="99.4" class="st2" width="15.2" height="5.6"/>
			<text transform="matrix(1 0 0 1 237.7197 103.5088)"><tspan x="0" y="0" class="st5 st3 st4">V_IS</tspan><tspan x="11.5" y="0" class="st5 st3 st4">O</tspan></text>
		</g>
		<path class="st0" d="M237.1,99.7l1.2,3.6l1.2-3.6"/>
		<path class="st0" d="M239.8,103.7h2.7"/>
		<path class="st0" d="M243.4,103.3v-3.6"/>
		<path class="st0" d="M245,103.2l0.5,0.1h0.9l0.4-0.1l0.1-0.2l0.2-0.3v-0.4l-0.2-0.4l-0.1-0.1l-0.4-0.2l-0.6-0.1l-0.4-0.1l-0.2-0.2
			l-0.1-0.4v-0.3l0.1-0.4l0.2-0.1l0.4-0.2h0.8l0.6,0.2"/>
		<path class="st0" d="M249.3,99.7h0.6l0.4,0.2l0.4,0.3l0.1,0.7v1.2l-0.1,0.7l-0.4,0.4l-0.4,0.1h-0.6l-0.4-0.1l-0.4-0.4l-0.1-0.7
			v-1.2l0.1-0.7l0.4-0.3L249.3,99.7"/>
		<g class="st1">
			<rect x="260.5" y="96.9" class="st2" width="3.9" height="5.6"/>
			<text transform="matrix(1 0 0 1 260.4785 100.9902)" class="st3 st4">7</text>
		</g>
		<g class="st1">
			<rect x="260.5" y="96.9" class="st2" width="3.9" height="5.6"/>
			<text transform="matrix(1 0 0 1 260.4766 100.9888)" class="st5 st3 st4">7</text>
		</g>
		<path class="st0" d="M260.6,97.2h2.4l-1.5,3.6"/>
		<path class="st0" d="M254.6,87.3H269"/>
		<g class="st1">
			<rect x="230.3" y="85" class="st2" width="23" height="5.6"/>
			<text transform="matrix(1 0 0 1 230.3311 89.1104)"><tspan x="0" y="0" class="st3 st4">GND_IS</tspan><tspan x="19.3" y="0" class="st3 st4">O</tspan></text>
		</g>
		<g class="st1">
			<rect x="230.3" y="85" class="st2" width="23" height="5.6"/>
			<text transform="matrix(1 0 0 1 230.3301 89.1089)"><tspan x="0" y="0" class="st5 st3 st4">GND_IS</tspan><tspan x="19.3" y="0" class="st5 st3 st4">O</tspan></text>
		</g>
		<path class="st0" d="M231.6,85.5l-0.3-0.2h-0.6l-0.5,0.2l-0.3,0.3l-0.2,0.4l-0.1,0.7v0.5l0.1,0.6l0.2,0.4l0.3,0.4l0.5,0.1h0.4
			l0.5-0.1l0.2-0.2v-1.2h-0.7"/>
		<path class="st0" d="M233.3,88.9v-3.6l2.1,3.6v-3.6"/>
		<path class="st0" d="M237.1,88.9v-3.6h0.8l0.6,0.2l0.3,0.3l0.2,0.4l0.1,0.7v0.5L239,88l-0.2,0.4l-0.3,0.4l-0.6,0.1H237.1"/>
		<path class="st0" d="M239.8,89.3h2.7"/>
		<path class="st0" d="M243.4,88.9v-3.6"/>
		<path class="st0" d="M245,88.8l0.5,0.1h0.9l0.4-0.1l0.1-0.2l0.2-0.3v-0.4l-0.2-0.4l-0.1-0.1l-0.4-0.2l-0.6-0.1l-0.4-0.1l-0.2-0.2
			l-0.1-0.4V86l0.1-0.4l0.2-0.1l0.4-0.2h0.8l0.6,0.2"/>
		<path class="st0" d="M249.3,85.3h0.6l0.4,0.2l0.4,0.3l0.1,0.7v1.2l-0.1,0.7l-0.4,0.4l-0.4,0.1h-0.6l-0.4-0.1l-0.4-0.4l-0.1-0.7
			v-1.2l0.1-0.7l0.4-0.3L249.3,85.3"/>
		<g class="st1">
			<rect x="260.5" y="82.5" class="st2" width="3.9" height="5.6"/>
			<text transform="matrix(1 0 0 1 260.4785 86.5903)" class="st3 st4">8</text>
		</g>
		<g class="st1">
			<rect x="260.5" y="82.5" class="st2" width="3.9" height="5.6"/>
			<text transform="matrix(1 0 0 1 260.4766 86.5889)" class="st5 st3 st4">8</text>
		</g>
		<path class="st0" d="M261.4,84.4l-0.4-0.2l-0.1-0.1l-0.2-0.4v-0.1l0.2-0.4l0.1-0.1l0.4-0.2h0.6l0.4,0.2l0.1,0.1l0.2,0.4v0.1
			l-0.2,0.4l-0.1,0.1l-0.4,0.2H261.4l-0.4,0.1l-0.1,0.1l-0.2,0.4v0.7l0.2,0.3l0.1,0.2l0.4,0.1h0.6l0.4-0.1l0.1-0.2l0.2-0.3V85
			l-0.2-0.4l-0.1-0.1l-0.4-0.1"/>
		<path class="st0" d="M254.6,72.9H269"/>
		<g class="st1">
			<rect x="228.7" y="70.6" class="st2" width="24.9" height="5.6"/>
			<text transform="matrix(1 0 0 1 228.7461 74.7104)"><tspan x="0" y="0" class="st3 st4">PRB_GN</tspan><tspan x="21.5" y="0" class="st3 st4">D</tspan></text>
		</g>
		<g class="st1">
			<rect x="228.7" y="70.6" class="st2" width="24.9" height="5.6"/>
			<text transform="matrix(1 0 0 1 228.7451 74.709)"><tspan x="0" y="0" class="st5 st3 st4">PRB_GN</tspan><tspan x="21.5" y="0" class="st5 st3 st4">D</tspan></text>
		</g>
		<path class="st0" d="M227.8,74.5v-3.6h1.4l0.4,0.2l0.1,0.1l0.2,0.4v0.5l-0.2,0.4l-0.1,0.1l-0.4,0.1h-1.4"/>
		<path class="st0" d="M233.5,74.5l-1.2-1.7"/>
		<path class="st0" d="M231.4,74.5v-3.6h1.4l0.4,0.2l0.1,0.1l0.2,0.4v0.5l-0.2,0.4l-0.1,0.1l-0.4,0.1h-1.4"/>
		<path class="st0" d="M236.2,72.6l0.5,0.1l0.1,0.2l0.2,0.3v0.6l-0.2,0.3l-0.1,0.2l-0.4,0.1H235v-3.6h1.2l0.3,0.2l0.2,0.1l0.1,0.4
			v0.3l-0.1,0.4l-0.2,0.2L236.2,72.6H235"/>
		<path class="st0" d="M237.8,74.9h2.7"/>
		<path class="st0" d="M243.2,71.1l-0.4-0.2h-0.5l-0.5,0.2l-0.4,0.3l-0.1,0.4l-0.1,0.7V73l0.1,0.6l0.1,0.4l0.4,0.4l0.5,0.1h0.4
			l0.5-0.1l0.2-0.2V73h-0.7"/>
		<path class="st0" d="M245,74.5v-3.6l2.1,3.6v-3.6"/>
		<path class="st0" d="M248.7,74.5v-3.6h0.9l0.5,0.2l0.4,0.3l0.2,0.4l0.1,0.7V73l-0.1,0.6l-0.2,0.4l-0.4,0.4l-0.5,0.1H248.7"/>
		<g class="st1">
			<rect x="260.5" y="68.1" class="st2" width="3.9" height="5.6"/>
			<text transform="matrix(1 0 0 1 260.4785 72.1904)" class="st3 st4">9</text>
		</g>
		<g class="st1">
			<rect x="260.5" y="68.1" class="st2" width="3.9" height="5.6"/>
			<text transform="matrix(1 0 0 1 260.4766 72.189)" class="st5 st3 st4">9</text>
		</g>
		<path class="st0" d="M261.1,72h0.7l0.3-0.1l0.2-0.2l0.3-0.5l0.2-0.6v-1.4l-0.2-0.4l-0.1-0.1l-0.4-0.2h-0.6l-0.4,0.2l-0.1,0.1
			l-0.2,0.4V70l0.2,0.3l0.1,0.2l0.4,0.1h0.6l0.4-0.1l0.1-0.2l0.2-0.3"/>
		<g class="st1">
			<rect x="163.6" y="16.4" class="st2" width="33" height="5.6"/>
			<text transform="matrix(1 0 0 1 163.6177 20.4941)"><tspan x="0" y="0" class="st3 st4">Whitebox</tspan><tspan x="19.8" y="0" class="st3 st4 st7"> </tspan><tspan x="27.4" y="0" class="st3 st4">T0</tspan></text>
		</g>
		<g class="st1">
			<rect x="163.6" y="16.4" class="st2" width="33" height="5.6"/>
			<text transform="matrix(1 0 0 1 163.6157 20.4927)"><tspan x="0" y="0" class="st5 st3 st4">Whitebox</tspan><tspan x="19.8" y="0" class="st5 st3 st4 st7"> </tspan><tspan x="27.4" y="0" class="st5 st3 st4">T0</tspan></text>
		</g>
		<path class="st0" d="M161.1,16.7l0.9,3.6l0.7-2.6l0.6,2.6l0.9-3.6"/>
		<path class="st0" d="M165.5,20.3v-3.6"/>
		<path class="st0" d="M167.1,20.3v-1.9l-0.2-0.4l-0.3-0.1h-0.5l-0.4,0.1l-0.2,0.2"/>
		<path class="st0" d="M168.8,20.3v-2.4"/>
		<path class="st0" d="M168.8,16.7l-0.2,0.2l0.2,0.1l0.1-0.1L168.8,16.7V17"/>
		<path class="st0" d="M170,17.9h1.4"/>
		<path class="st0" d="M170.5,16.7v3.1l0.2,0.4l0.4,0.1h0.3"/>
		<path class="st0" d="M174,20.1l-0.4,0.1H173l-0.4-0.1l-0.1-0.4v-1.4l0.1-0.4l0.4-0.1h0.6L174,18l0.1,0.4v0.4l-1.7,0.3"/>
		<path class="st0" d="M175.7,20.3v-3.6"/>
		<path class="st0" d="M175.7,18l0.4-0.1h0.6l0.4,0.1l0.1,0.2l0.2,0.3v1.1l-0.2,0.3l-0.1,0.2l-0.4,0.1H176l-0.4-0.1"/>
		<path class="st0" d="M179.4,20.3l-0.4-0.1l-0.1-0.2l-0.1-0.3v-1.1l0.1-0.3l0.1-0.2l0.4-0.1h0.5l0.4,0.1l0.2,0.2l0.1,0.3v1.1
			l-0.1,0.3l-0.2,0.2l-0.4,0.1H179.4"/>
		<path class="st0" d="M181.9,20.3l1.9-2.4"/>
		<path class="st0" d="M181.9,17.9l1.9,2.4"/>
		<path class="st0" d="M187.4,16.7h2"/>
		<path class="st0" d="M188.4,20.3v-3.6"/>
		<path class="st0" d="M191.3,16.7h0.3l0.4,0.2l0.1,0.1l0.2,0.4l0.1,0.6v0.9l-0.1,0.7l-0.2,0.3l-0.1,0.2l-0.4,0.1h-0.3l-0.4-0.1
			l-0.2-0.2l-0.1-0.3l-0.1-0.7V18l0.1-0.6l0.1-0.4l0.2-0.1L191.3,16.7"/>
	</g>
</g>
<g>
	<g>
		<circle class="st8" cx="305" cy="72.9" r="1.4"/>
	</g>
	<g>
		<circle class="st9" cx="305" cy="72.9" r="5"/>
	</g>
	<g>
		<path class="st0" d="M305,71.5v-9.4"/>
		<g transform="rotate(-90 57430 36900)">
			<g class="st1">
				<rect x="94262.8" y="-20225.7" class="st2" width="0.9" height="0"/>
			</g>
			<g class="st1">
				<rect x="94262.7" y="-20225.7" class="st2" width="0.9" height="0.1"/>
				<text transform="matrix(1 0 0 1 94263.1875 -20226.1094)" class="st5 st3 st10">1</text>
			</g>
		</g>
	</g>
	<g>
		<path class="st11" d="M304.5,66.8L304.5,66.8"/>
		<path class="st11" d="M304.5,66.8L304.5,66.8"/>
	</g>
	<g>
		<path class="st0" d="M300,72.9h-9.4"/>
		<g class="st1">
			<text transform="matrix(1 0 0 1 295.2559 72.4062)" class="st3 st10">2</text>
		</g>
		<g class="st1">
			<text transform="matrix(1 0 0 1 295.2559 72.4062)" class="st5 st3 st10">2</text>
		</g>
	</g>
	<g>
		<path class="st11" d="M295.3,72.4L295.3,72.4"/>
	</g>
	<g>
		<g class="st1">
			<rect x="314.7" y="70.8" class="st2" width="10.9" height="5.6"/>
			<text transform="matrix(1 0 0 1 314.6719 74.8545)"><tspan x="0" y="0" class="st3 st4">BN</tspan><tspan x="7.5" y="0" class="st3 st4">C</tspan></text>
		</g>
		<g class="st1">
			<rect x="314.7" y="70.8" class="st2" width="10.9" height="5.6"/>
			<text transform="matrix(1 0 0 1 314.6699 74.8525)"><tspan x="0" y="0" class="st5 st3 st4">BN</tspan><tspan x="7.5" y="0" class="st5 st3 st4">C</tspan></text>
		</g>
		<path class="st0" d="M316.2,72.8l0.5,0.1l0.1,0.2l0.2,0.3V74l-0.2,0.3l-0.1,0.2l-0.4,0.1H315V71h1.2l0.4,0.2l0.1,0.1l0.1,0.4V72
			l-0.1,0.4l-0.1,0.2L316.2,72.8H315"/>
		<path class="st0" d="M318.6,74.6V71l2.1,3.6V71"/>
		<path class="st0" d="M324.4,74.3l-0.1,0.2l-0.5,0.1h-0.4l-0.5-0.1l-0.4-0.4l-0.1-0.4l-0.2-0.6v-0.5l0.2-0.7l0.1-0.4l0.4-0.3
			l0.5-0.2h0.4l0.5,0.2l0.1,0.1"/>
	</g>
</g>
<g>
	<g>
		<rect x="60.2" y="120.4" class="st12" width="14.4" height="5.8"/>
	</g>
	<g>
		<path class="st0" d="M74.6,123.3h3.6"/>
		<path class="st0" d="M60.2,123.3h-3.6"/>
		<g class="st1">
			<rect x="65.5" y="121.2" class="st2" width="4" height="5.6"/>
			<text transform="matrix(1 0 0 1 65.4683 125.2544)" class="st3 st4">R</text>
		</g>
		<g class="st1">
			<rect x="65.5" y="121.2" class="st2" width="4" height="5.6"/>
			<text transform="matrix(1 0 0 1 65.4663 125.2529)" class="st5 st3 st4">R</text>
		</g>
		<path class="st0" d="M68.3,125l-1.2-1.7"/>
		<path class="st0" d="M66.2,125v-3.6h1.4l0.4,0.2l0.2,0.1l0.1,0.4v0.5l-0.1,0.4l-0.2,0.1l-0.4,0.1h-1.4"/>
	</g>
</g>
<g>
	<g>
		<rect x="60.2" y="107.8" class="st12" width="14.4" height="5.8"/>
	</g>
	<g>
		<path class="st0" d="M74.6,110.7h3.6"/>
		<path class="st0" d="M60.2,110.7h-3.6"/>
		<g class="st1">
			<rect x="65.5" y="108.6" class="st2" width="4" height="5.6"/>
			<text transform="matrix(1 0 0 1 65.4683 112.6543)" class="st3 st4">R</text>
		</g>
		<g class="st1">
			<rect x="65.5" y="108.6" class="st2" width="4" height="5.6"/>
			<text transform="matrix(1 0 0 1 65.4663 112.6528)" class="st5 st3 st4">R</text>
		</g>
		<path class="st0" d="M68.3,112.4l-1.2-1.7"/>
		<path class="st0" d="M66.2,112.4v-3.6h1.4l0.4,0.2l0.2,0.1l0.1,0.4v0.5l-0.1,0.4l-0.2,0.1l-0.4,0.1h-1.4"/>
	</g>
</g>
<g>
	<g>
		<path class="st13" d="M315.8,114.3v7.2"/>
	</g>
	<g>
		<path class="st14" d="M315.8,117.9h-7.2"/>
	</g>
	<g>
		<path class="st15" d="M308.6,114.3v7.2l7.2-3.6L308.6,114.3z"/>
	</g>
	<g>
		<path class="st14" d="M320.8,115.8l4.3-4.3H323h2.2v2.2"/>
		<path class="st14" d="M317.2,115.8l4.3-4.3h-2.2h2.2v2.2"/>
		<path class="st0" d="M315.8,117.9h7.2"/>
		<g class="st1">
			<rect x="319.4" y="117.3" class="st2" width="0.4" height="0.1"/>
			<text transform="matrix(1 0 0 1 319.376 117.4062)" class="st3 st10">1</text>
		</g>
		<g class="st1">
			<rect x="319.4" y="117.3" class="st2" width="0.5" height="0.1"/>
			<text transform="matrix(1 0 0 1 319.3623 117.4048)" class="st5 st3 st10">1</text>
		</g>
	</g>
	<g>
		<path class="st11" d="M319.4,117.4L319.4,117.4"/>
		<path class="st11" d="M319.4,117.4L319.4,117.4"/>
	</g>
	<g>
		<path class="st0" d="M308.6,117.9h-7.2"/>
		<g class="st1">
			<text transform="matrix(1 0 0 1 304.9756 117.4062)" class="st3 st10">2</text>
		</g>
		<g class="st1">
			<text transform="matrix(1 0 0 1 304.9756 117.4062)" class="st5 st3 st10">2</text>
		</g>
	</g>
	<g>
		<path class="st11" d="M305,117.4L305,117.4"/>
	</g>
	<g>
		<g class="st1">
			<rect x="305.8" y="124.4" class="st2" width="9.8" height="5.6"/>
			<text transform="matrix(1 0 0 1 305.7783 128.4941)"><tspan x="0" y="0" class="st3 st4">LE</tspan><tspan x="6.4" y="0" class="st3 st4">D</tspan></text>
		</g>
		<g class="st1">
			<rect x="305.8" y="124.4" class="st2" width="9.8" height="5.6"/>
			<text transform="matrix(1 0 0 1 305.7764 128.4927)"><tspan x="0" y="0" class="st5 st3 st4">LE</tspan><tspan x="6.4" y="0" class="st5 st3 st4">D</tspan></text>
		</g>
		<path class="st0" d="M308,128.3h-1.7v-3.6"/>
		<path class="st0" d="M309.2,126.4h1.2"/>
		<path class="st0" d="M311,128.3h-1.7v-3.6h1.7"/>
		<path class="st0" d="M312.5,128.3v-3.6h0.9l0.5,0.2l0.4,0.3l0.1,0.4l0.2,0.7v0.5l-0.2,0.6l-0.1,0.4l-0.4,0.4l-0.5,0.1H312.5"/>
	</g>
</g>
<g>
	<g>
		<rect x="283.4" y="115" class="st12" width="14.4" height="5.8"/>
	</g>
	<g>
		<path class="st0" d="M297.8,117.9h3.6"/>
		<path class="st0" d="M283.4,117.9h-3.6"/>
		<g class="st1">
			<rect x="288.7" y="115.8" class="st2" width="4" height="5.6"/>
			<text transform="matrix(1 0 0 1 288.668 119.8545)" class="st3 st4">R</text>
		</g>
		<g class="st1">
			<rect x="288.7" y="115.8" class="st2" width="4" height="5.6"/>
			<text transform="matrix(1 0 0 1 288.666 119.8525)" class="st5 st3 st4">R</text>
		</g>
		<path class="st0" d="M291.5,119.6l-1.2-1.7"/>
		<path class="st0" d="M289.4,119.6V116h1.4l0.4,0.2l0.2,0.1l0.1,0.4v0.5l-0.1,0.4l-0.2,0.1l-0.4,0.1h-1.4"/>
	</g>
</g>
<g>
	<g>
		<rect x="8" y="22.5" class="st8" width="72" height="57.6"/>
	</g>
	<g>
		<path class="st0" d="M80,58.5h7.2"/>
		<g class="st1">
			<rect x="68.5" y="56.2" class="st2" width="10.7" height="5.6"/>
			<text transform="matrix(1 0 0 1 68.5269 60.3105)"><tspan x="0" y="0" class="st3 st4">VC</tspan><tspan x="7.3" y="0" class="st3 st4">C</tspan></text>
		</g>
		<g class="st1">
			<rect x="68.5" y="56.2" class="st2" width="10.7" height="5.6"/>
			<text transform="matrix(1 0 0 1 68.5254 60.3086)"><tspan x="0" y="0" class="st5 st3 st4">VC</tspan><tspan x="7.3" y="0" class="st5 st3 st4">C</tspan></text>
		</g>
		<path class="st0" d="M68.3,56.5l1.2,3.6l1.2-3.6"/>
		<path class="st0" d="M74,59.7L73.9,60l-0.6,0.1H73L72.5,60l-0.4-0.4l-0.2-0.4l-0.1-0.6v-0.5l0.1-0.7l0.2-0.4l0.4-0.3l0.5-0.2h0.3
			l0.6,0.2l0.1,0.1"/>
		<path class="st0" d="M77.6,59.7L77.5,60l-0.6,0.1h-0.3L76.1,60l-0.4-0.4l-0.2-0.4l-0.1-0.6v-0.5l0.1-0.7l0.2-0.4l0.4-0.3l0.5-0.2
			h0.3l0.6,0.2l0.1,0.1"/>
		<g class="st1">
			<rect x="83.6" y="57.9" class="st2" width="0.4" height="0.1"/>
			<text transform="matrix(1 0 0 1 83.5762 58.0063)" class="st3 st10">1</text>
		</g>
		<g class="st1">
			<rect x="83.6" y="57.9" class="st2" width="0.5" height="0.1"/>
			<text transform="matrix(1 0 0 1 83.562 58.0049)" class="st5 st3 st10">1</text>
		</g>
	</g>
	<g>
		<path class="st11" d="M83.6,58L83.6,58"/>
		<path class="st11" d="M83.6,58L83.6,58"/>
	</g>
	<g>
		<path class="st0" d="M80,72.9h7.2"/>
		<g class="st1">
			<rect x="68" y="70.6" class="st2" width="10.9" height="5.6"/>
			<text transform="matrix(1 0 0 1 68 74.7104)"><tspan x="0" y="0" class="st3 st4">GN</tspan><tspan x="7.5" y="0" class="st3 st4">D</tspan></text>
		</g>
		<g class="st1">
			<rect x="68" y="70.6" class="st2" width="10.9" height="5.6"/>
			<text transform="matrix(1 0 0 1 67.9985 74.709)"><tspan x="0" y="0" class="st5 st3 st4">GN</tspan><tspan x="7.5" y="0" class="st5 st3 st4">D</tspan></text>
		</g>
		<path class="st0" d="M70.1,71.1l-0.4-0.2h-0.5l-0.5,0.2l-0.4,0.3l-0.1,0.4L68,72.5V73l0.1,0.6l0.1,0.4l0.4,0.4l0.5,0.1h0.4
			l0.5-0.1l0.2-0.2V73h-0.7"/>
		<path class="st0" d="M71.8,74.5v-3.6l2.1,3.6v-3.6"/>
		<path class="st0" d="M75.5,74.5v-3.6h0.9l0.5,0.2l0.4,0.3l0.2,0.4l0.1,0.7V73l-0.1,0.6L77.3,74l-0.4,0.4l-0.5,0.1H75.5"/>
		<g class="st1">
			<rect x="83.6" y="72.3" class="st2" width="0.4" height="0.1"/>
			<text transform="matrix(1 0 0 1 83.5762 72.4062)" class="st3 st10">2</text>
		</g>
		<g class="st1">
			<rect x="83.6" y="72.3" class="st2" width="0.5" height="0.1"/>
			<text transform="matrix(1 0 0 1 83.562 72.4048)" class="st5 st3 st10">2</text>
		</g>
	</g>
	<g>
		<path class="st11" d="M83.6,72.4L83.6,72.4"/>
	</g>
	<g>
		<path class="st0" d="M80,44.1h7.2"/>
		<g class="st1">
			<rect x="68.8" y="41.8" class="st2" width="10.1" height="5.6"/>
			<text transform="matrix(1 0 0 1 68.7891 45.9102)"><tspan x="0" y="0" class="st3 st4">SD</tspan><tspan x="6.9" y="0" class="st3 st4">A</tspan></text>
		</g>
		<g class="st1">
			<rect x="68.8" y="41.8" class="st2" width="10.1" height="5.6"/>
			<text transform="matrix(1 0 0 1 68.7876 45.9087)"><tspan x="0" y="0" class="st5 st3 st4">SD</tspan><tspan x="6.9" y="0" class="st5 st3 st4">A</tspan></text>
		</g>
		<path class="st0" d="M68.9,45.6l0.5,0.1h0.9l0.3-0.1l0.2-0.2l0.1-0.3v-0.4l-0.1-0.4l-0.2-0.1L70.3,44l-0.7-0.1l-0.4-0.1l-0.1-0.2
			l-0.1-0.4v-0.3l0.1-0.4l0.1-0.1l0.4-0.2h0.9l0.5,0.2"/>
		<path class="st0" d="M72.5,45.7v-3.6h0.8l0.6,0.2l0.3,0.3l0.2,0.4l0.1,0.7v0.5l-0.1,0.6l-0.2,0.4l-0.3,0.4l-0.6,0.1H72.5"/>
		<path class="st0" d="M75.9,44.7h1.7"/>
		<path class="st0" d="M75.5,45.7l1.2-3.6l1.2,3.6"/>
		<g class="st1">
			<rect x="83.6" y="43.5" class="st2" width="0.4" height="0.1"/>
			<text transform="matrix(1 0 0 1 83.5762 43.6064)" class="st3 st10">3</text>
		</g>
		<g class="st1">
			<rect x="83.6" y="43.5" class="st2" width="0.5" height="0.1"/>
			<text transform="matrix(1 0 0 1 83.562 43.6045)" class="st5 st3 st10">3</text>
		</g>
	</g>
	<g>
		<path class="st11" d="M83.6,43.6L83.6,43.6"/>
	</g>
	<g>
		<path class="st0" d="M80,29.7h7.2"/>
		<g class="st1">
			<rect x="69.3" y="27.4" class="st2" width="9.9" height="5.6"/>
			<text transform="matrix(1 0 0 1 69.3159 31.5103)"><tspan x="0" y="0" class="st3 st4">SC</tspan><tspan x="7.3" y="0" class="st3 st4">L</tspan></text>
		</g>
		<g class="st1">
			<rect x="69.3" y="27.4" class="st2" width="9.9" height="5.6"/>
			<text transform="matrix(1 0 0 1 69.314 31.5088)"><tspan x="0" y="0" class="st5 st3 st4">SC</tspan><tspan x="7.3" y="0" class="st5 st3 st4">L</tspan></text>
		</g>
		<path class="st0" d="M69.1,31.2l0.5,0.1h0.9l0.4-0.1l0.1-0.2l0.2-0.3v-0.4l-0.2-0.4l-0.1-0.1l-0.4-0.2l-0.7-0.1l-0.3-0.1l-0.2-0.2
			l-0.1-0.4v-0.3l0.1-0.4l0.2-0.1l0.3-0.2h0.9l0.6,0.2"/>
		<path class="st0" d="M74.7,30.9l-0.2,0.2L74,31.3h-0.4l-0.5-0.1l-0.4-0.4l-0.1-0.4l-0.1-0.6v-0.5l0.1-0.7l0.1-0.4l0.4-0.3l0.5-0.2
			H74l0.5,0.2l0.2,0.1"/>
		<path class="st0" d="M78,31.3h-1.7v-3.6"/>
		<g class="st1">
			<rect x="83.6" y="29.1" class="st2" width="0.4" height="0.1"/>
			<text transform="matrix(1 0 0 1 83.5762 29.2061)" class="st3 st10">4</text>
		</g>
		<g class="st1">
			<rect x="83.6" y="29.1" class="st2" width="0.5" height="0.1"/>
			<text transform="matrix(1 0 0 1 83.562 29.2046)" class="st5 st3 st10">4</text>
		</g>
	</g>
	<g>
		<path class="st11" d="M83.6,29.2L83.6,29.2"/>
		<path class="st11" d="M83.6,29.2L83.6,29.2"/>
	</g>
	<g>
		<path class="st0" d="M54.8,22.5v-7.2"/>
		<g transform="rotate(-90 22750 30950)">
			<g class="st1">
				<rect x="53667.1" y="8249.3" class="st2" width="6" height="11.9"/>
				<text transform="matrix(1 0 0 1 53664.168 8256.3291)" class="st3 st4">GPIO</text>
			</g>
			<g class="st1">
				<rect x="53667.1" y="8249.3" class="st2" width="6" height="11.9"/>
				<text transform="matrix(1 0 0 1 53664.1641 8256.3281)" class="st5 st3 st4">GPIO</text>
			</g>
		</g>
		<path class="st0" d="M53,34.1l-0.2,0.3V35l0.2,0.5l0.3,0.3l0.4,0.2l0.7,0.1h0.5l0.6-0.1l0.4-0.2l0.4-0.3l0.1-0.5v-0.4l-0.1-0.5
			L56,33.9h-1.2v0.7"/>
		<path class="st0" d="M56.4,32.4h-3.6V31l0.2-0.4l0.1-0.1l0.4-0.2H54l0.4,0.2l0.1,0.1l0.1,0.4v1.4"/>
		<path class="st0" d="M56.4,28.8h-3.6"/>
		<path class="st0" d="M52.8,26.3v-0.6l0.2-0.4l0.3-0.4l0.7-0.1h1.2l0.7,0.1l0.4,0.4l0.1,0.4v0.6l-0.1,0.4L55.9,27l-0.7,0.1H54
			L53.3,27L53,26.7L52.8,26.3"/>
		<g transform="rotate(-90 22680 30250)">
			<g class="st1">
				<rect x="52910.6" y="7624.1" class="st2" width="0.9" height="0"/>
			</g>
			<g class="st1">
				<rect x="52910.6" y="7624.1" class="st2" width="0.9" height="0.1"/>
				<text transform="matrix(1 0 0 1 52911.0625 7623.6895)" class="st5 st3 st10">5</text>
			</g>
		</g>
	</g>
	<g>
		<path class="st11" d="M54.3,18.9L54.3,18.9"/>
	</g>
	<g>
		<g class="st1">
			<rect x="13.3" y="16.8" class="st2" width="40.6" height="5.6"/>
			<text transform="matrix(1 0 0 1 13.3003 20.8545)"><tspan x="0" y="0" class="st3 st4">Microcontrolle</tspan><tspan x="39" y="0" class="st3 st4">r</tspan></text>
		</g>
		<g class="st1">
			<rect x="13.3" y="16.8" class="st2" width="40.6" height="5.6"/>
			<text transform="matrix(1 0 0 1 13.2983 20.8525)"><tspan x="0" y="0" class="st5 st3 st4">Microcontrolle</tspan><tspan x="39" y="0" class="st5 st3 st4">r</tspan></text>
		</g>
		<path class="st0" d="M9.4,20.6V17l1.2,2.6l1.2-2.6v3.6"/>
		<path class="st0" d="M13.5,20.6v-2.4"/>
		<path class="st0" d="M13.5,17l-0.1,0.2l0.1,0.1l0.2-0.1L13.5,17v0.4"/>
		<path class="st0" d="M16.8,20.5l-0.4,0.1h-0.7l-0.3-0.1l-0.2-0.2L15.1,20v-1.1l0.1-0.3l0.2-0.2l0.3-0.1h0.7l0.4,0.1"/>
		<path class="st0" d="M18.3,20.6v-2.4"/>
		<path class="st0" d="M18.3,18.9l0.1-0.3l0.2-0.2l0.4-0.1h0.3"/>
		<path class="st0" d="M21,20.6l-0.4-0.1l-0.1-0.2L20.4,20v-1.1l0.1-0.3l0.1-0.2l0.4-0.1h0.5l0.4,0.1l0.1,0.2l0.2,0.3V20L22,20.3
			l-0.1,0.2l-0.4,0.1H21"/>
		<path class="st0" d="M25.4,20.5L25,20.6h-0.7L24,20.5l-0.2-0.2L23.6,20v-1.1l0.1-0.3l0.2-0.2l0.3-0.1H25l0.4,0.1"/>
		<path class="st0" d="M27.4,20.6l-0.3-0.1l-0.2-0.2L26.7,20v-1.1l0.1-0.3l0.2-0.2l0.3-0.1h0.5l0.4,0.1l0.2,0.2l0.1,0.3V20l-0.1,0.3
			l-0.2,0.2l-0.4,0.1H27.4"/>
		<path class="st0" d="M30.1,18.3v2.4"/>
		<path class="st0" d="M30.1,18.6l0.2-0.2l0.4-0.1h0.5l0.3,0.1l0.2,0.4v1.9"/>
		<path class="st0" d="M32.8,18.3h1.4"/>
		<path class="st0" d="M33.4,17v3.1l0.1,0.4l0.4,0.1h0.4"/>
		<path class="st0" d="M35.4,20.6v-2.4"/>
		<path class="st0" d="M35.4,18.9l0.2-0.3l0.1-0.2l0.4-0.1h0.3"/>
		<path class="st0" d="M38.2,20.6l-0.3-0.1l-0.2-0.2L37.5,20v-1.1l0.1-0.3l0.2-0.2l0.3-0.1h0.5l0.4,0.1l0.2,0.2l0.1,0.3V20l-0.1,0.3
			L39,20.5l-0.4,0.1H38.2"/>
		<path class="st0" d="M41.5,20.6l-0.4-0.1l-0.2-0.4V17"/>
		<path class="st0" d="M43.4,20.6L43,20.5l-0.1-0.4V17"/>
		<path class="st0" d="M46.1,20.5l-0.4,0.1h-0.6l-0.4-0.1l-0.2-0.4v-1.4l0.2-0.4l0.4-0.1h0.6l0.4,0.1l0.1,0.4v0.4l-1.7,0.3"/>
		<path class="st0" d="M47.8,20.6v-2.4"/>
		<path class="st0" d="M47.8,18.9l0.1-0.3l0.1-0.2l0.4-0.1h0.4"/>
	</g>
</g>
<g>
	<g>
		<path class="st14" d="M81.8,180.9v3.6h3.6l-3.6,3.6l-3.6-3.6h3.6"/>
		<g class="st1">
			<rect x="76.5" y="191.2" class="st2" width="11.4" height="5.6"/>
			<text transform="matrix(1 0 0 1 76.52 195.3105)"><tspan x="0" y="0" class="st3 st4">GN</tspan><tspan x="7.9" y="0" class="st3 st4">D</tspan></text>
		</g>
		<g class="st1">
			<rect x="76.5" y="191.2" class="st2" width="11.4" height="5.6"/>
			<text transform="matrix(1 0 0 1 76.5186 195.3086)"><tspan x="0" y="0" class="st5 st3 st4">GN</tspan><tspan x="7.9" y="0" class="st5 st3 st4">D</tspan></text>
		</g>
		<path class="st0" d="M79,191.7l-0.3-0.2h-0.5l-0.6,0.2l-0.3,0.3l-0.2,0.4l-0.1,0.7v0.5l0.1,0.6l0.2,0.4l0.3,0.4l0.6,0.1h0.3
			L79,195l0.2-0.2v-1.2h-0.7"/>
		<path class="st0" d="M80.7,195.1v-3.6l2.1,3.6v-3.6"/>
		<path class="st0" d="M84.5,195.1v-3.6h0.9l0.5,0.2l0.3,0.3l0.2,0.4l0.1,0.7v0.5l-0.1,0.6l-0.2,0.4l-0.3,0.4l-0.5,0.1H84.5"/>
	</g>
</g>
<g>
	<g>
		<path class="st16" d="M81.8,170.1v-3.6H84l-2.2-3.6l-2.2,3.6h2.2"/>
	</g>
	<g>
		<g class="st1">
			<rect x="74.8" y="155.5" class="st2" width="19.9" height="5.6"/>
			<text transform="matrix(1 0 0 1 74.7998 159.5981)"><tspan x="0" y="0" class="st3 st4 st6">3.3-5</tspan><tspan x="16.8" y="0" class="st3 st4">V</tspan></text>
		</g>
		<g class="st1">
			<rect x="74.8" y="155.5" class="st2" width="19.9" height="5.6"/>
			<text transform="matrix(1 0 0 1 74.7974 159.5967)"><tspan x="0" y="0" class="st5 st3 st4 st6">3.3-5</tspan><tspan x="16.8" y="0" class="st5 st3 st4">V</tspan></text>
		</g>
		<path class="st0" d="M72.5,155.8h2.2l-1.2,1.4H74l0.4,0.2l0.2,0.1l0.1,0.4v0.9l-0.1,0.3l-0.2,0.2l-0.4,0.1h-1l-0.4-0.1l-0.1-0.2"
			/>
		<path class="st0" d="M76.3,159l0.2,0.2l-0.2,0.1l-0.1-0.1L76.3,159v0.4"/>
		<path class="st0" d="M77.6,155.8h2.2l-1.2,1.4h0.5l0.4,0.2l0.1,0.1l0.1,0.4v0.9l-0.1,0.3l-0.1,0.2l-0.4,0.1h-1l-0.4-0.1l-0.2-0.2"
			/>
		<path class="st0" d="M81.4,158h2.7"/>
		<path class="st0" d="M87.6,155.8h-1.7l-0.2,1.7l0.2-0.1l0.3-0.2h0.9l0.4,0.2l0.1,0.1l0.2,0.4v0.9l-0.2,0.3l-0.1,0.2l-0.4,0.1h-0.9
			l-0.3-0.1l-0.2-0.2"/>
		<path class="st0" d="M88.8,155.8l1.2,3.6l1.2-3.6"/>
	</g>
</g>
<g>
	<path class="st0" d="M330.2,87.3V44.1"/>
	<path class="st0" d="M135.8,101.7h10.8"/>
	<path class="st0" d="M135.8,87.3v14.4"/>
	<path class="st0" d="M146.6,87.3h-10.8"/>
	<path class="st0" d="M290.6,87.3h39.6"/>
	<path class="st0" d="M269,72.9h21.6"/>
	<path class="st0" d="M56.6,123.3h-7.2"/>
	<path class="st0" d="M49.4,110.7h7.2"/>
	<path class="st0" d="M119.6,72.9h27"/>
	<path class="st0" d="M81.8,180.9h37.8"/>
	<path class="st0" d="M119.6,72.9v108"/>
	<path class="st0" d="M135.8,101.7v68.4"/>
	<path class="st0" d="M81.8,170.1h21.6"/>
	<path class="st0" d="M87.2,72.9h32.4"/>
	<path class="st0" d="M103.4,123.3v46.8"/>
	<path class="st0" d="M146.6,58.5h-27"/>
	<path class="st0" d="M119.6,58.5V15.3"/>
	<path class="st0" d="M119.6,15.3H54.8"/>
	<path class="st0" d="M87.2,58.5h16.2"/>
	<path class="st0" d="M103.4,58.5v52.2"/>
	<path class="st0" d="M78.2,123.3h25.2"/>
	<path class="st0" d="M290.6,72.9v14.4"/>
	<path class="st0" d="M305,58.5h-36"/>
	<path class="st0" d="M269,101.7v16.2"/>
	<path class="st0" d="M269,117.9h10.8"/>
	<path class="st0" d="M323,117.9h7.2"/>
	<path class="st0" d="M330.2,117.9v-16.2"/>
	<path class="st0" d="M330.2,101.7h-50.4"/>
	<path class="st0" d="M279.8,101.7V87.3"/>
	<path class="st0" d="M279.8,87.3H269"/>
	<path class="st0" d="M87.2,44.1h59.4"/>
	<path class="st0" d="M87.2,29.7h59.4"/>
	<path class="st0" d="M103.4,170.1h32.4"/>
	<path class="st0" d="M305,62.1v-3.6"/>
	<path class="st0" d="M103.4,110.7v12.6"/>
	<path class="st0" d="M269,44.1h61.2"/>
	<path class="st0" d="M78.2,110.7h25.2"/>
	<g class="st1">
		<rect x="37.9" y="121" class="st2" width="10.4" height="5.6"/>
		<text transform="matrix(1 0 0 1 37.9238 125.1104)"><tspan x="0" y="0" class="st3 st4">SC</tspan><tspan x="7.7" y="0" class="st3 st4">L</tspan></text>
	</g>
	<g class="st1">
		<rect x="37.9" y="121" class="st2" width="10.4" height="5.6"/>
		<text transform="matrix(1 0 0 1 37.9219 125.1089)"><tspan x="0" y="0" class="st5 st3 st4">SC</tspan><tspan x="7.7" y="0" class="st5 st3 st4">L</tspan></text>
	</g>
	<path class="st0" d="M37.7,124.8l0.5,0.1H39l0.4-0.1l0.1-0.2l0.2-0.3v-0.4l-0.2-0.4l-0.1-0.1l-0.4-0.2l-0.7-0.1l-0.3-0.1l-0.2-0.2
		l-0.1-0.4V122l0.1-0.4l0.2-0.1l0.3-0.2h0.9l0.6,0.2"/>
	<path class="st0" d="M43.4,124.5l-0.2,0.2l-0.5,0.1h-0.4l-0.5-0.1l-0.4-0.4l-0.1-0.4l-0.1-0.6v-0.5l0.1-0.7l0.1-0.4l0.4-0.3
		l0.5-0.2h0.4l0.5,0.2l0.2,0.1"/>
	<path class="st0" d="M46.6,124.9h-1.7v-3.6"/>
</g>
<g>
	<path class="st17" d="M49.4,123.3l-1.8-3.2H36v3.2v3.2h11.6L49.4,123.3z"/>
</g>
<g>
	<g class="st1">
		<rect x="37.4" y="108.4" class="st2" width="10.5" height="5.6"/>
		<text transform="matrix(1 0 0 1 37.397 112.5103)"><tspan x="0" y="0" class="st3 st4">SD</tspan><tspan x="7.3" y="0" class="st3 st4">A</tspan></text>
	</g>
	<g class="st1">
		<rect x="37.4" y="108.4" class="st2" width="10.5" height="5.6"/>
		<text transform="matrix(1 0 0 1 37.3955 112.5088)"><tspan x="0" y="0" class="st5 st3 st4">SD</tspan><tspan x="7.3" y="0" class="st5 st3 st4">A</tspan></text>
	</g>
	<path class="st0" d="M37.5,112.2l0.5,0.1h0.9l0.3-0.1l0.2-0.2l0.1-0.3v-0.4l-0.1-0.4l-0.2-0.1l-0.3-0.2l-0.7-0.1l-0.4-0.1l-0.1-0.2
		l-0.1-0.4v-0.3l0.1-0.4l0.1-0.1l0.4-0.2H39l0.5,0.2"/>
	<path class="st0" d="M41.1,112.3v-3.6h0.8l0.6,0.2l0.3,0.3l0.2,0.4l0.1,0.7v0.5l-0.1,0.6l-0.2,0.4l-0.3,0.4l-0.6,0.1H41.1"/>
	<path class="st0" d="M44.5,111.3h1.7"/>
	<path class="st0" d="M44.1,112.3l1.2-3.6l1.2,3.6"/>
</g>
<g>
	<path class="st17" d="M49.4,110.7l-1.8-3.2H35.9v3.2v3.2h11.7L49.4,110.7z"/>
</g>
<g>
	<g class="st1">
		<rect x="35" y="98.7" class="st2" width="36.9" height="5.6"/>
		<text transform="matrix(1 0 0 1 35 102.7905)"><tspan x="0" y="0" class="st3 st4">I2C</tspan><tspan x="7.4" y="0" class="st3 st4 st18"> </tspan><tspan x="19" y="0" class="st3 st4">Pull-Ups</tspan></text>
	</g>
	<g class="st1">
		<rect x="35" y="98.7" class="st2" width="36.9" height="5.6"/>
		<text transform="matrix(1 0 0 1 34.998 102.7886)"><tspan x="0" y="0" class="st5 st3 st4">I2C</tspan><tspan x="7.4" y="0" class="st5 st3 st4 st18"> </tspan><tspan x="19" y="0" class="st5 st3 st4">Pull-Ups</tspan></text>
	</g>
	<path class="st0" d="M36,102.6V99"/>
	<path class="st0" d="M37.6,99.3l0.1-0.1l0.4-0.2H39l0.4,0.2l0.1,0.1l0.1,0.4v0.3l-0.1,0.6l-2.1,2h2.2"/>
	<path class="st0" d="M43.2,102.2l-0.1,0.2l-0.5,0.1h-0.4l-0.5-0.1l-0.4-0.4l-0.1-0.4l-0.2-0.6v-0.5l0.2-0.7l0.1-0.4l0.4-0.3
		l0.5-0.2h0.4l0.5,0.2l0.1,0.1"/>
	<path class="st0" d="M47.5,102.6V99h1.4l0.4,0.2l0.1,0.1l0.2,0.4v0.5l-0.2,0.4l-0.1,0.1l-0.4,0.1h-1.4"/>
	<path class="st0" d="M52.6,100.2v2.4"/>
	<path class="st0" d="M51.1,100.2v1.9l0.1,0.4l0.4,0.1h0.5l0.4-0.1l0.1-0.2"/>
	<path class="st0" d="M54.9,102.6l-0.3-0.1l-0.2-0.4V99"/>
	<path class="st0" d="M56.8,102.6l-0.4-0.1l-0.2-0.4V99"/>
	<path class="st0" d="M58.2,101.2h2.7"/>
	<path class="st0" d="M62.6,99v3l0.2,0.3l0.1,0.2l0.4,0.1H64l0.3-0.1l0.2-0.2l0.1-0.3v-3"/>
	<path class="st0" d="M66.4,100.2v3.6"/>
	<path class="st0" d="M66.4,100.3l0.4-0.1h0.6l0.4,0.1l0.1,0.2l0.2,0.3v1.1l-0.2,0.3l-0.1,0.2l-0.4,0.1h-0.6l-0.4-0.1"/>
	<path class="st0" d="M69.5,102.4l0.3,0.1h0.7l0.4-0.1l0.1-0.4v-0.1l-0.1-0.4l-0.4-0.2H70l-0.4-0.1l-0.1-0.4v-0.1l0.1-0.4l0.4-0.1
		h0.5l0.4,0.1"/>
	<g class="st1">
		<rect x="279.8" y="134.3" class="st2" width="39.5" height="5.6"/>
		<text transform="matrix(1 0 0 1 279.7998 138.3584)"><tspan x="0" y="0" class="st3 st4">Indication</tspan><tspan x="20.3" y="0" class="st3 st4 st19"> </tspan><tspan x="30.3" y="0" class="st3 st4">LED</tspan></text>
	</g>
	<g class="st1">
		<rect x="279.8" y="134.3" class="st2" width="39.5" height="5.6"/>
		<text transform="matrix(1 0 0 1 279.7979 138.3569)"><tspan x="0" y="0" class="st5 st3 st4">Indication</tspan><tspan x="20.3" y="0" class="st5 st3 st4 st19"> </tspan><tspan x="30.3" y="0" class="st5 st3 st4">LED</tspan></text>
	</g>
	<path class="st0" d="M280.8,138.1v-3.6"/>
	<path class="st0" d="M282.5,135.8v2.4"/>
	<path class="st0" d="M282.5,136.1l0.2-0.2l0.3-0.1h0.6l0.3,0.1l0.2,0.4v1.9"/>
	<path class="st0" d="M287.4,138.1v-3.6"/>
	<path class="st0" d="M287.4,138l-0.4,0.1h-0.6L286,138l-0.2-0.2l-0.1-0.3v-1.1l0.1-0.3l0.2-0.2l0.4-0.1h0.6l0.4,0.1"/>
	<path class="st0" d="M289.1,138.1v-2.4"/>
	<path class="st0" d="M289.1,134.5l-0.2,0.2l0.2,0.1l0.1-0.1L289.1,134.5v0.4"/>
	<path class="st0" d="M292.3,138l-0.4,0.1h-0.6L291,138l-0.1-0.2l-0.2-0.3v-1.1l0.2-0.3l0.1-0.2l0.4-0.1h0.6l0.4,0.1"/>
	<path class="st0" d="M295.4,138.1v-1.9l-0.2-0.4l-0.3-0.1h-0.7l-0.4,0.1"/>
	<path class="st0" d="M295.4,138l-0.4,0.1h-0.9l-0.4-0.1l-0.1-0.4v-0.4l0.1-0.4l0.4-0.1h0.9l0.4-0.1"/>
	<path class="st0" d="M296.6,135.8h1.4"/>
	<path class="st0" d="M297.2,134.5v3.1l0.1,0.4l0.4,0.1h0.4"/>
	<path class="st0" d="M299.2,138.1v-2.4"/>
	<path class="st0" d="M299.2,134.5l-0.1,0.2l0.1,0.1l0.2-0.1L299.2,134.5v0.4"/>
	<path class="st0" d="M301.4,138.1L301,138l-0.1-0.2l-0.1-0.3v-1.1l0.1-0.3l0.1-0.2l0.4-0.1h0.5l0.4,0.1l0.1,0.2l0.2,0.3v1.1
		l-0.2,0.3l-0.1,0.2l-0.4,0.1H301.4"/>
	<path class="st0" d="M304.1,135.8v2.4"/>
	<path class="st0" d="M304.1,136.1l0.2-0.2l0.3-0.1h0.6l0.3,0.1l0.2,0.4v1.9"/>
	<path class="st0" d="M311.8,138.1h-1.7v-3.6"/>
	<path class="st0" d="M313.1,136.3h1.2"/>
	<path class="st0" d="M314.8,138.1h-1.7v-3.6h1.7"/>
	<path class="st0" d="M316.3,138.1v-3.6h0.9l0.5,0.2l0.4,0.3l0.1,0.4l0.2,0.7v0.5l-0.2,0.6l-0.1,0.4l-0.4,0.4l-0.5,0.1H316.3"/>
	<g class="st1">
		<rect x="279.8" y="140.1" class="st2" width="46.7" height="5.6"/>
		<text transform="matrix(1 0 0 1 279.7998 144.1904)"><tspan x="0" y="0" class="st3 st4">for</tspan><tspan x="5.5" y="0" class="st3 st4 st7"> </tspan><tspan x="13.7" y="0" class="st3 st4">power</tspan><tspan x="26.7" y="0" class="st3 st4 st7"> </tspan><tspan x="34.8" y="0" class="st3 st4">on/off</tspan></text>
	</g>
	<g class="st1">
		<rect x="279.8" y="140.1" class="st2" width="46.7" height="5.6"/>
		<text transform="matrix(1 0 0 1 279.7979 144.189)"><tspan x="0" y="0" class="st5 st3 st4">for</tspan><tspan x="5.5" y="0" class="st5 st3 st4 st7"> </tspan><tspan x="13.7" y="0" class="st5 st3 st4">power</tspan><tspan x="26.7" y="0" class="st5 st3 st4 st7"> </tspan><tspan x="34.8" y="0" class="st5 st3 st4">on/off</tspan></text>
	</g>
	<path class="st0" d="M280.3,141.6h1.4"/>
	<path class="st0" d="M280.8,144v-3.1l0.2-0.3l0.4-0.2h0.3"/>
	<path class="st0" d="M283.4,144l-0.4-0.1l-0.1-0.2l-0.1-0.3v-1.1l0.1-0.3l0.1-0.2l0.4-0.1h0.5l0.4,0.1l0.1,0.2l0.2,0.3v1.1
		l-0.2,0.3l-0.1,0.2l-0.4,0.1H283.4"/>
	<path class="st0" d="M286.1,144v-2.4"/>
	<path class="st0" d="M286.1,142.2l0.2-0.3l0.1-0.2l0.4-0.1h0.4"/>
	<path class="st0" d="M291.1,141.6v3.6"/>
	<path class="st0" d="M291.1,141.7l0.4-0.1h0.7l0.3,0.1l0.2,0.2l0.1,0.3v1.1l-0.1,0.3l-0.2,0.2l-0.3,0.1h-0.7l-0.4-0.1"/>
	<path class="st0" d="M294.9,144l-0.4-0.1l-0.1-0.2l-0.2-0.3v-1.1l0.2-0.3l0.1-0.2l0.4-0.1h0.5l0.4,0.1l0.1,0.2l0.1,0.3v1.1
		l-0.1,0.3l-0.1,0.2l-0.4,0.1H294.9"/>
	<path class="st0" d="M297.3,141.6l0.7,2.4l0.6-1.7l0.7,1.7l0.6-2.4"/>
	<path class="st0" d="M302.8,143.8l-0.4,0.1h-0.6l-0.4-0.1l-0.1-0.4v-1.4l0.1-0.4l0.4-0.1h0.6l0.4,0.1l0.2,0.4v0.4l-1.7,0.3"/>
	<path class="st0" d="M304.5,144v-2.4"/>
	<path class="st0" d="M304.5,142.2l0.1-0.3l0.2-0.2l0.4-0.1h0.3"/>
	<path class="st0" d="M310,144l-0.4-0.1l-0.1-0.2l-0.1-0.3v-1.1l0.1-0.3l0.1-0.2l0.4-0.1h0.5l0.4,0.1l0.1,0.2l0.2,0.3v1.1l-0.2,0.3
		l-0.1,0.2l-0.4,0.1H310"/>
	<path class="st0" d="M312.7,141.6v2.4"/>
	<path class="st0" d="M312.7,142l0.2-0.2l0.3-0.1h0.6l0.3,0.1l0.2,0.4v1.9"/>
	<path class="st0" d="M318.5,140.2l-3.1,4.6"/>
	<path class="st0" d="M320.3,144l-0.4-0.1l-0.1-0.2l-0.1-0.3v-1.1l0.1-0.3l0.1-0.2l0.4-0.1h0.5l0.4,0.1l0.1,0.2l0.2,0.3v1.1
		l-0.2,0.3l-0.1,0.2l-0.4,0.1H320.3"/>
	<path class="st0" d="M322.5,141.6h1.4"/>
	<path class="st0" d="M323,144v-3.1l0.2-0.3l0.3-0.2h0.4"/>
	<path class="st0" d="M324.6,141.6h1.4"/>
	<path class="st0" d="M325.1,144v-3.1l0.1-0.3l0.4-0.2h0.4"/>
</g>
<g>
	<circle class="st20" cx="103.4" cy="110.7" r="1.4"/>
</g>
<g>
	<circle class="st20" cx="103.4" cy="170.1" r="1.4"/>
</g>
<g>
	<circle class="st20" cx="103.4" cy="123.3" r="1.4"/>
</g>
<g>
	<circle class="st20" cx="290.6" cy="72.9" r="1.4"/>
</g>
<g>
	<circle class="st20" cx="119.6" cy="72.9" r="1.4"/>
</g>
<g>
	<circle class="st20" cx="135.8" cy="101.7" r="1.4"/>
</g>
</svg>
