<?xml version="1.0" encoding="utf-8"?>
<!-- Generator: Adobe Illustrator 26.0.1, SVG Export Plug-In . SVG Version: 6.00 Build 0)  -->
<svg version="1.1" id="Layer_1" xmlns:svg="http://www.w3.org/2000/svg"
	 xmlns="http://www.w3.org/2000/svg" xmlns:xlink="http://www.w3.org/1999/xlink" x="0px" y="0px" viewBox="0 0 350.9 211.5"
	 style="enable-background:new 0 0 350.9 211.5;" xml:space="preserve">
<style type="text/css">
	.st0{fill-opacity:0;stroke:#000000;stroke-width:0.432;stroke-linecap:round;stroke-linejoin:round;stroke-miterlimit:10;}
	.st1{opacity:0;enable-background:new    ;}
	.st2{fill:none;}
	.st3{font-family:'ArialMT';}
	.st4{font-size:4.752px;}
	.st5{fill:none;stroke:#000000;stroke-width:0.432;stroke-linecap:round;stroke-linejoin:round;}
	.st6{letter-spacing:1;}
	.st7{letter-spacing:6;}
	.st8{fill-opacity:0;stroke:#000000;stroke-width:0.576;stroke-linecap:round;stroke-linejoin:round;stroke-miterlimit:10;}
	.st9{font-size:8.639999e-02px;}
	.st10{fill-opacity:0;}
	.st11{fill-opacity:0;stroke:#000000;stroke-width:0.72;stroke-linecap:round;stroke-linejoin:round;stroke-miterlimit:10;}
	.st12{fill-opacity:0;stroke:#000000;stroke-width:0.864;stroke-linecap:round;stroke-linejoin:round;stroke-miterlimit:10;}
	.st13{fill:none;stroke:#000000;stroke-width:0.432;stroke-linecap:round;stroke-linejoin:round;stroke-miterlimit:10;}
	
		.st14{fill-rule:evenodd;clip-rule:evenodd;stroke:#000000;stroke-width:0.432;stroke-linecap:round;stroke-linejoin:round;stroke-miterlimit:10;}
	.st15{letter-spacing:10;}
	.st16{stroke:#000000;stroke-width:0.72;stroke-linecap:round;stroke-linejoin:round;stroke-miterlimit:10;}
</style>
<desc>Picture generated by Eeschema-SVG</desc>
<g transform="translate(0 0) scale(1 1)">
</g>
<g>
	<g>
		<rect x="170.6" y="25.3" class="st0" width="93.6" height="86.4"/>
		<path class="st0" d="M170.6,104.5h-14.4"/>
		<g class="st1">
			<rect x="173.4" y="102.2" class="st2" width="8.6" height="5.6"/>
			<text transform="matrix(1 0 0 1 173.4387 106.3049)"><tspan x="0" y="0" class="st3 st4">VI</tspan><tspan x="5.1" y="0" class="st3 st4">N</tspan></text>
		</g>
		<g class="st1">
			<rect x="173.4" y="102.2" class="st2" width="8.6" height="5.6"/>
			<text transform="matrix(1 0 0 1 173.4373 106.3034)"><tspan x="0" y="0" class="st5 st3 st4">VI</tspan><tspan x="5.1" y="0" class="st5 st3 st4">N</tspan></text>
		</g>
		<path class="st0" d="M173.9,102.5l1.2,3.6l1.2-3.6"/>
		<path class="st0" d="M177.5,106.1v-3.6"/>
		<path class="st0" d="M179.3,106.1v-3.6l2.1,3.6v-3.6"/>
		<g class="st1">
			<rect x="162" y="99.7" class="st2" width="3.9" height="5.6"/>
			<text transform="matrix(1 0 0 1 162.0374 103.7849)" class="st3 st4">1</text>
		</g>
		<g class="st1">
			<rect x="162" y="99.7" class="st2" width="3.9" height="5.6"/>
			<text transform="matrix(1 0 0 1 162.0349 103.7834)" class="st5 st3 st4">1</text>
		</g>
		<path class="st0" d="M164.4,103.6h-2.1"/>
		<path class="st0" d="M163.4,103.6V100l-0.4,0.5l-0.4,0.4l-0.4,0.1"/>
		<path class="st0" d="M264.2,61.3h14.4"/>
		<g class="st1">
			<rect x="251.5" y="59" class="st2" width="11.2" height="5.6"/>
			<text transform="matrix(1 0 0 1 251.5081 63.1052)"><tspan x="0" y="0" class="st3 st4">PR</tspan><tspan x="8.1" y="0" class="st3 st4">B</tspan></text>
		</g>
		<g class="st1">
			<rect x="251.5" y="59" class="st2" width="11.2" height="5.6"/>
			<text transform="matrix(1 0 0 1 251.5061 63.1032)"><tspan x="0" y="0" class="st5 st3 st4">PR</tspan><tspan x="8.1" y="0" class="st5 st3 st4">B</tspan></text>
		</g>
		<path class="st0" d="M251.1,62.9v-3.6h1.4l0.4,0.2l0.2,0.1l0.1,0.4v0.5l-0.1,0.4l-0.2,0.1l-0.4,0.1h-1.4"/>
		<path class="st0" d="M256.7,62.9l-1.2-1.7"/>
		<path class="st0" d="M254.7,62.9v-3.6h1.4l0.4,0.2l0.2,0.1l0.1,0.4v0.5l-0.1,0.4l-0.2,0.1l-0.4,0.1h-1.4"/>
		<path class="st0" d="M259.5,61l0.5,0.1l0.2,0.2l0.1,0.3v0.6l-0.1,0.3l-0.2,0.2l-0.4,0.1h-1.4v-3.6h1.2l0.4,0.2l0.1,0.1l0.2,0.4
			v0.3l-0.2,0.4l-0.1,0.2L259.5,61h-1.2"/>
		<g class="st1">
			<rect x="268.7" y="56.5" class="st2" width="7.3" height="5.6"/>
			<text transform="matrix(1 0 0 1 268.7161 60.5851)"><tspan x="0" y="0" class="st3 st4 st6">1</tspan><tspan x="4.6" y="0" class="st3 st4">0</tspan></text>
		</g>
		<g class="st1">
			<rect x="268.7" y="56.5" class="st2" width="7.3" height="5.6"/>
			<text transform="matrix(1 0 0 1 268.7141 60.5832)"><tspan x="0" y="0" class="st5 st3 st4 st6">1</tspan><tspan x="4.6" y="0" class="st5 st3 st4">0</tspan></text>
		</g>
		<path class="st0" d="M270.6,60.4h-2.1"/>
		<path class="st0" d="M269.6,60.4v-3.6l-0.4,0.5l-0.4,0.4l-0.4,0.1"/>
		<path class="st0" d="M272.9,56.8h0.4l0.3,0.2l0.2,0.1l0.1,0.4l0.2,0.6V59l-0.2,0.7l-0.1,0.3l-0.2,0.2l-0.3,0.1h-0.4l-0.4-0.1
			l-0.1-0.2l-0.2-0.3L272,59v-0.9l0.1-0.6l0.2-0.4l0.1-0.1L272.9,56.8"/>
		<path class="st0" d="M264.2,46.9h14.4"/>
		<g class="st1">
			<rect x="238.3" y="44.6" class="st2" width="24.9" height="5.6"/>
			<text transform="matrix(1 0 0 1 238.3049 48.7048)"><tspan x="0" y="0" class="st3 st4">PRB_GN</tspan><tspan x="21.5" y="0" class="st3 st4">D</tspan></text>
		</g>
		<g class="st1">
			<rect x="238.3" y="44.6" class="st2" width="24.9" height="5.6"/>
			<text transform="matrix(1 0 0 1 238.304 48.7033)"><tspan x="0" y="0" class="st5 st3 st4">PRB_GN</tspan><tspan x="21.5" y="0" class="st5 st3 st4">D</tspan></text>
		</g>
		<path class="st0" d="M237.4,48.5v-3.6h1.4l0.4,0.2l0.1,0.1l0.2,0.4v0.5l-0.2,0.4l-0.1,0.1l-0.4,0.1h-1.4"/>
		<path class="st0" d="M243.1,48.5l-1.2-1.7"/>
		<path class="st0" d="M241,48.5v-3.6h1.4l0.4,0.2l0.1,0.1l0.2,0.4v0.5l-0.2,0.4l-0.1,0.1l-0.4,0.1H241"/>
		<path class="st0" d="M245.8,46.6l0.5,0.1l0.1,0.2l0.2,0.3v0.6l-0.2,0.3l-0.1,0.2l-0.4,0.1h-1.4v-3.6h1.2l0.3,0.2l0.2,0.1l0.1,0.4
			v0.3l-0.1,0.4l-0.2,0.2L245.8,46.6h-1.2"/>
		<path class="st0" d="M247.3,48.8h2.7"/>
		<path class="st0" d="M252.8,45.1l-0.4-0.2h-0.5l-0.5,0.2l-0.4,0.3l-0.1,0.4l-0.1,0.7V47l0.1,0.6l0.1,0.4l0.4,0.4l0.5,0.1h0.4
			l0.5-0.1l0.2-0.2V47h-0.7"/>
		<path class="st0" d="M254.5,48.5v-3.6l2.1,3.6v-3.6"/>
		<path class="st0" d="M258.3,48.5v-3.6h0.9l0.5,0.2l0.4,0.3l0.2,0.4l0.1,0.7V47l-0.1,0.6L260,48l-0.4,0.4l-0.5,0.1H258.3"/>
		<g class="st1">
			<rect x="268.9" y="42.1" class="st2" width="7.3" height="5.6"/>
			<text transform="matrix(1 0 0 1 268.8918 46.1847)"><tspan x="0" y="0" class="st3 st4 st6">1</tspan><tspan x="4.6" y="0" class="st3 st4">1</tspan></text>
		</g>
		<g class="st1">
			<rect x="268.9" y="42.1" class="st2" width="7.3" height="5.6"/>
			<text transform="matrix(1 0 0 1 268.8899 46.1833)"><tspan x="0" y="0" class="st5 st3 st4 st6">1</tspan><tspan x="4.6" y="0" class="st5 st3 st4">1</tspan></text>
		</g>
		<path class="st0" d="M270.6,46h-2.1"/>
		<path class="st0" d="M269.6,46v-3.6l-0.4,0.5l-0.4,0.4l-0.4,0.1"/>
		<path class="st0" d="M274.1,46H272"/>
		<path class="st0" d="M273,46v-3.6l-0.3,0.5l-0.4,0.4l-0.4,0.1"/>
		<path class="st0" d="M264.2,32.5h14.4"/>
		<path class="st0" d="M277.5,31.4l2.2,2.2"/>
		<path class="st0" d="M279.6,31.4l-2.2,2.2"/>
		<g class="st1">
			<rect x="251.8" y="30.2" class="st2" width="11.2" height="5.6"/>
			<text transform="matrix(1 0 0 1 251.7747 34.3049)"><tspan x="0" y="0" class="st3 st4">N.C</tspan><tspan x="9.9" y="0" class="st3 st4">.</tspan></text>
		</g>
		<g class="st1">
			<rect x="251.8" y="30.2" class="st2" width="11.2" height="5.6"/>
			<text transform="matrix(1 0 0 1 251.7727 34.3034)"><tspan x="0" y="0" class="st5 st3 st4">N.C</tspan><tspan x="9.9" y="0" class="st5 st3 st4">.</tspan></text>
		</g>
		<path class="st0" d="M251.1,34.1v-3.6l2.1,3.6v-3.6"/>
		<path class="st0" d="M254.9,33.7l0.1,0.2l-0.1,0.1l-0.2-0.1L254.9,33.7v0.4"/>
		<path class="st0" d="M258.6,33.7l-0.1,0.2l-0.5,0.1h-0.4l-0.5-0.1l-0.4-0.4l-0.1-0.4l-0.2-0.6v-0.5l0.2-0.7l0.1-0.4l0.4-0.3
			l0.5-0.2h0.4l0.5,0.2l0.1,0.1"/>
		<path class="st0" d="M260.2,33.7l0.1,0.2l-0.1,0.1l-0.2-0.1L260.2,33.7v0.4"/>
		<g class="st1">
			<rect x="268.7" y="27.7" class="st2" width="7.3" height="5.6"/>
			<text transform="matrix(1 0 0 1 268.7161 31.7848)"><tspan x="0" y="0" class="st3 st4 st6">1</tspan><tspan x="4.6" y="0" class="st3 st4">2</tspan></text>
		</g>
		<g class="st1">
			<rect x="268.7" y="27.7" class="st2" width="7.3" height="5.6"/>
			<text transform="matrix(1 0 0 1 268.7141 31.7834)"><tspan x="0" y="0" class="st5 st3 st4 st6">1</tspan><tspan x="4.6" y="0" class="st5 st3 st4">2</tspan></text>
		</g>
		<path class="st0" d="M270.6,31.6h-2.1"/>
		<path class="st0" d="M269.6,31.6V28l-0.4,0.5l-0.4,0.4l-0.4,0.1"/>
		<path class="st0" d="M272,28.3l0.1-0.1l0.4-0.2h0.9l0.4,0.2l0.1,0.1l0.2,0.4V29l-0.2,0.6l-2,2h2.2"/>
		<path class="st0" d="M170.6,90.1h-14.4"/>
		<g class="st1">
			<rect x="173.4" y="87.8" class="st2" width="12.2" height="5.6"/>
			<text transform="matrix(1 0 0 1 173.4387 91.905)"><tspan x="0" y="0" class="st3 st4">VSI</tspan><tspan x="8.5" y="0" class="st3 st4">G</tspan></text>
		</g>
		<g class="st1">
			<rect x="173.4" y="87.8" class="st2" width="12.2" height="5.6"/>
			<text transform="matrix(1 0 0 1 173.4373 91.9035)"><tspan x="0" y="0" class="st5 st3 st4">VSI</tspan><tspan x="8.5" y="0" class="st5 st3 st4">G</tspan></text>
		</g>
		<path class="st0" d="M173.9,88.1l1.2,3.6l1.2-3.6"/>
		<path class="st0" d="M177.4,91.5l0.5,0.1h0.9l0.4-0.1l0.1-0.2l0.1-0.3v-0.4l-0.1-0.4l-0.1-0.1l-0.4-0.2l-0.7-0.1l-0.3-0.1
			l-0.2-0.2l-0.1-0.4v-0.3l0.1-0.4l0.2-0.1l0.3-0.2h0.9l0.5,0.2"/>
		<path class="st0" d="M181,91.7v-3.6"/>
		<path class="st0" d="M184.6,88.3l-0.4-0.2h-0.5l-0.5,0.2l-0.4,0.3l-0.1,0.4l-0.2,0.7v0.5l0.2,0.6l0.1,0.4l0.4,0.4l0.5,0.1h0.4
			l0.5-0.1l0.1-0.2v-1.2h-0.6"/>
		<g class="st1">
			<rect x="162" y="85.3" class="st2" width="3.9" height="5.6"/>
			<text transform="matrix(1 0 0 1 162.0374 89.3849)" class="st3 st4">2</text>
		</g>
		<g class="st1">
			<rect x="162" y="85.3" class="st2" width="3.9" height="5.6"/>
			<text transform="matrix(1 0 0 1 162.0349 89.3835)" class="st5 st3 st4">2</text>
		</g>
		<path class="st0" d="M162.3,85.9l0.2-0.1l0.3-0.2h0.9l0.4,0.2l0.1,0.1l0.2,0.4v0.3l-0.2,0.6l-2,2h2.2"/>
		<path class="st0" d="M170.6,75.7h-14.4"/>
		<g class="st1">
			<rect x="173.4" y="73.4" class="st2" width="15" height="5.6"/>
			<text transform="matrix(1 0 0 1 173.4387 77.5051)"><tspan x="0" y="0" class="st3 st4">GND</tspan><tspan x="11.8" y="0" class="st3 st4">P</tspan></text>
		</g>
		<g class="st1">
			<rect x="173.4" y="73.4" class="st2" width="15" height="5.6"/>
			<text transform="matrix(1 0 0 1 173.4373 77.5036)"><tspan x="0" y="0" class="st5 st3 st4">GND</tspan><tspan x="11.8" y="0" class="st5 st3 st4">P</tspan></text>
		</g>
		<path class="st0" d="M176.4,73.9l-0.4-0.2h-0.5l-0.5,0.2l-0.4,0.3l-0.2,0.4l-0.1,0.7v0.5l0.1,0.6l0.2,0.4l0.4,0.4l0.5,0.1h0.3
			l0.6-0.1l0.1-0.2v-1.2h-0.7"/>
		<path class="st0" d="M178,77.3v-3.6l2.1,3.6v-3.6"/>
		<path class="st0" d="M181.9,77.3v-3.6h0.9l0.5,0.2l0.4,0.3l0.1,0.4l0.1,0.7v0.5l-0.1,0.6l-0.1,0.4l-0.4,0.4l-0.5,0.1H181.9"/>
		<path class="st0" d="M185.5,77.3v-3.6h1.4l0.4,0.2l0.1,0.1l0.1,0.4v0.5l-0.1,0.4l-0.1,0.1l-0.4,0.1h-1.4"/>
		<g class="st1">
			<rect x="162" y="70.9" class="st2" width="3.9" height="5.6"/>
			<text transform="matrix(1 0 0 1 162.0374 74.985)" class="st3 st4">3</text>
		</g>
		<g class="st1">
			<rect x="162" y="70.9" class="st2" width="3.9" height="5.6"/>
			<text transform="matrix(1 0 0 1 162.0349 74.9836)" class="st5 st3 st4">3</text>
		</g>
		<path class="st0" d="M162.1,71.2h2.2l-1.2,1.4h0.5l0.4,0.2l0.1,0.1l0.2,0.4v0.9l-0.2,0.3l-0.1,0.2l-0.4,0.1h-1l-0.4-0.1l-0.1-0.2"
			/>
		<path class="st0" d="M170.6,61.3h-14.4"/>
		<g class="st1">
			<rect x="173.4" y="59" class="st2" width="20.3" height="5.6"/>
			<text transform="matrix(1 0 0 1 173.4387 63.1052)"><tspan x="0" y="0" class="st3 st4">ENABL</tspan><tspan x="17.1" y="0" class="st3 st4">E</tspan></text>
		</g>
		<g class="st1">
			<rect x="173.4" y="59" class="st2" width="20.3" height="5.6"/>
			<text transform="matrix(1 0 0 1 173.4373 63.1032)"><tspan x="0" y="0" class="st5 st3 st4">ENABL</tspan><tspan x="17.1" y="0" class="st5 st3 st4">E</tspan></text>
		</g>
		<path class="st0" d="M174.4,61h1.2"/>
		<path class="st0" d="M176.2,62.9h-1.7v-3.6h1.7"/>
		<path class="st0" d="M177.8,62.9v-3.6l2,3.6v-3.6"/>
		<path class="st0" d="M181.4,61.9h1.7"/>
		<path class="st0" d="M181,62.9l1.2-3.6l1.2,3.6"/>
		<path class="st0" d="M185.8,61l0.5,0.1l0.1,0.2l0.1,0.3v0.6l-0.1,0.3l-0.1,0.2l-0.4,0.1h-1.4v-3.6h1.2l0.3,0.2l0.2,0.1l0.1,0.4
			v0.3l-0.1,0.4l-0.2,0.2L185.8,61h-1.2"/>
		<path class="st0" d="M189.9,62.9h-1.7v-3.6"/>
		<path class="st0" d="M191.1,61h1.2"/>
		<path class="st0" d="M192.8,62.9h-1.7v-3.6h1.7"/>
		<g class="st1">
			<rect x="162" y="56.5" class="st2" width="3.9" height="5.6"/>
			<text transform="matrix(1 0 0 1 162.0374 60.5851)" class="st3 st4">4</text>
		</g>
		<g class="st1">
			<rect x="162" y="56.5" class="st2" width="3.9" height="5.6"/>
			<text transform="matrix(1 0 0 1 162.0349 60.5832)" class="st5 st3 st4">4</text>
		</g>
		<path class="st0" d="M164,58v2.4"/>
		<path class="st0" d="M163.1,56.6l-0.9,2.5h2.2"/>
		<path class="st0" d="M170.6,46.9h-14.4"/>
		<g class="st1">
			<rect x="173.4" y="44.6" class="st2" width="10.5" height="5.6"/>
			<text transform="matrix(1 0 0 1 173.4387 48.7048)"><tspan x="0" y="0" class="st3 st4">SD</tspan><tspan x="7.3" y="0" class="st3 st4">A</tspan></text>
		</g>
		<g class="st1">
			<rect x="173.4" y="44.6" class="st2" width="10.5" height="5.6"/>
			<text transform="matrix(1 0 0 1 173.4373 48.7033)"><tspan x="0" y="0" class="st5 st3 st4">SD</tspan><tspan x="7.3" y="0" class="st5 st3 st4">A</tspan></text>
		</g>
		<path class="st0" d="M174.3,48.3l0.5,0.1h0.9l0.4-0.1l0.1-0.2l0.2-0.3v-0.4l-0.2-0.4L176,47l-0.4-0.2l-0.6-0.1l-0.4-0.1l-0.2-0.2
			l-0.1-0.4v-0.3l0.1-0.4l0.2-0.1l0.4-0.2h0.8l0.6,0.2"/>
		<path class="st0" d="M177.9,48.5v-3.6h0.9l0.5,0.2l0.4,0.3l0.1,0.4l0.2,0.7V47l-0.2,0.6l-0.1,0.4l-0.4,0.4l-0.5,0.1H177.9"/>
		<path class="st0" d="M181.4,47.5h1.7"/>
		<path class="st0" d="M181,48.5l1.2-3.6l1.2,3.6"/>
		<g class="st1">
			<rect x="162" y="42.1" class="st2" width="3.9" height="5.6"/>
			<text transform="matrix(1 0 0 1 162.0374 46.1847)" class="st3 st4">5</text>
		</g>
		<g class="st1">
			<rect x="162" y="42.1" class="st2" width="3.9" height="5.6"/>
			<text transform="matrix(1 0 0 1 162.0349 46.1833)" class="st5 st3 st4">5</text>
		</g>
		<path class="st0" d="M164.2,42.4h-1.7l-0.2,1.7l0.2-0.1l0.3-0.2h0.9L164,44l0.1,0.1l0.2,0.4v0.9l-0.2,0.3l-0.1,0.2l-0.4,0.1h-0.9
			l-0.3-0.1l-0.2-0.2"/>
		<path class="st0" d="M170.6,32.5h-14.4"/>
		<g class="st1">
			<rect x="173.4" y="30.2" class="st2" width="10.4" height="5.6"/>
			<text transform="matrix(1 0 0 1 173.4387 34.3049)"><tspan x="0" y="0" class="st3 st4">SC</tspan><tspan x="7.7" y="0" class="st3 st4">L</tspan></text>
		</g>
		<g class="st1">
			<rect x="173.4" y="30.2" class="st2" width="10.4" height="5.6"/>
			<text transform="matrix(1 0 0 1 173.4373 34.3034)"><tspan x="0" y="0" class="st5 st3 st4">SC</tspan><tspan x="7.7" y="0" class="st5 st3 st4">L</tspan></text>
		</g>
		<path class="st0" d="M174.3,33.9l0.5,0.1h0.9l0.4-0.1l0.1-0.2l0.2-0.3v-0.4l-0.2-0.4l-0.1-0.1l-0.4-0.2l-0.6-0.1l-0.4-0.1
			l-0.2-0.2l-0.1-0.4v-0.3l0.1-0.4l0.2-0.1l0.4-0.2h0.8l0.6,0.2"/>
		<path class="st0" d="M180,33.7l-0.2,0.2l-0.5,0.1h-0.4l-0.5-0.1l-0.4-0.4l-0.1-0.4l-0.1-0.6v-0.5l0.1-0.7L178,31l0.4-0.3l0.5-0.2
			h0.4l0.5,0.2l0.2,0.1"/>
		<path class="st0" d="M183.2,34.1h-1.7v-3.6"/>
		<g class="st1">
			<rect x="162" y="27.7" class="st2" width="3.9" height="5.6"/>
			<text transform="matrix(1 0 0 1 162.0374 31.7848)" class="st3 st4">6</text>
		</g>
		<g class="st1">
			<rect x="162" y="27.7" class="st2" width="3.9" height="5.6"/>
			<text transform="matrix(1 0 0 1 162.0349 31.7834)" class="st5 st3 st4">6</text>
		</g>
		<path class="st0" d="M164,28h-0.6l-0.4,0.2l-0.2,0.1l-0.3,0.5l-0.2,0.7v1.4l0.2,0.3l0.1,0.2l0.4,0.1h0.6l0.4-0.1l0.1-0.2l0.2-0.3
			v-0.9l-0.2-0.4l-0.1-0.1l-0.4-0.2H163l-0.4,0.2l-0.1,0.1l-0.2,0.4"/>
		<path class="st0" d="M264.2,104.5h14.4"/>
		<g class="st1">
			<rect x="247.3" y="102.2" class="st2" width="15.2" height="5.6"/>
			<text transform="matrix(1 0 0 1 247.2805 106.3049)"><tspan x="0" y="0" class="st3 st4">V_IS</tspan><tspan x="11.5" y="0" class="st3 st4">O</tspan></text>
		</g>
		<g class="st1">
			<rect x="247.3" y="102.2" class="st2" width="15.2" height="5.6"/>
			<text transform="matrix(1 0 0 1 247.2786 106.3034)"><tspan x="0" y="0" class="st5 st3 st4">V_IS</tspan><tspan x="11.5" y="0" class="st5 st3 st4">O</tspan></text>
		</g>
		<path class="st0" d="M246.7,102.5l1.2,3.6l1.2-3.6"/>
		<path class="st0" d="M249.4,106.4h2.7"/>
		<path class="st0" d="M253,106.1v-3.6"/>
		<path class="st0" d="M254.5,105.9l0.5,0.1h0.9l0.4-0.1l0.1-0.2l0.2-0.3v-0.4l-0.2-0.4l-0.1-0.1l-0.4-0.2l-0.6-0.1l-0.4-0.1
			l-0.2-0.2l-0.1-0.4v-0.3l0.1-0.4l0.2-0.1l0.4-0.2h0.8l0.6,0.2"/>
		<path class="st0" d="M258.8,102.5h0.6l0.4,0.2l0.4,0.3l0.1,0.7v1.2l-0.1,0.7l-0.4,0.4l-0.4,0.1h-0.6l-0.4-0.1l-0.4-0.4l-0.1-0.7
			v-1.2l0.1-0.7l0.4-0.3L258.8,102.5"/>
		<g class="st1">
			<rect x="270" y="99.7" class="st2" width="3.9" height="5.6"/>
			<text transform="matrix(1 0 0 1 270.0374 103.7849)" class="st3 st4">7</text>
		</g>
		<g class="st1">
			<rect x="270" y="99.7" class="st2" width="3.9" height="5.6"/>
			<text transform="matrix(1 0 0 1 270.0354 103.7834)" class="st5 st3 st4">7</text>
		</g>
		<path class="st0" d="M270.1,100h2.4l-1.5,3.6"/>
		<path class="st0" d="M264.2,90.1h14.4"/>
		<g class="st1">
			<rect x="239.9" y="87.8" class="st2" width="23" height="5.6"/>
			<text transform="matrix(1 0 0 1 239.8899 91.905)"><tspan x="0" y="0" class="st3 st4">GND_IS</tspan><tspan x="19.3" y="0" class="st3 st4">O</tspan></text>
		</g>
		<g class="st1">
			<rect x="239.9" y="87.8" class="st2" width="23" height="5.6"/>
			<text transform="matrix(1 0 0 1 239.8889 91.9035)"><tspan x="0" y="0" class="st5 st3 st4">GND_IS</tspan><tspan x="19.3" y="0" class="st5 st3 st4">O</tspan></text>
		</g>
		<path class="st0" d="M241.1,88.3l-0.3-0.2h-0.6l-0.5,0.2l-0.3,0.3l-0.2,0.4l-0.1,0.7v0.5l0.1,0.6l0.2,0.4l0.3,0.4l0.5,0.1h0.4
			l0.5-0.1l0.2-0.2v-1.2h-0.7"/>
		<path class="st0" d="M242.8,91.7v-3.6l2.1,3.6v-3.6"/>
		<path class="st0" d="M246.7,91.7v-3.6h0.8l0.6,0.2l0.3,0.3l0.2,0.4l0.1,0.7v0.5l-0.1,0.6l-0.2,0.4l-0.3,0.4l-0.6,0.1H246.7"/>
		<path class="st0" d="M249.4,92h2.7"/>
		<path class="st0" d="M253,91.7v-3.6"/>
		<path class="st0" d="M254.5,91.5l0.5,0.1h0.9l0.4-0.1l0.1-0.2l0.2-0.3v-0.4l-0.2-0.4l-0.1-0.1l-0.4-0.2l-0.6-0.1l-0.4-0.1
			l-0.2-0.2l-0.1-0.4v-0.3l0.1-0.4l0.2-0.1l0.4-0.2h0.8l0.6,0.2"/>
		<path class="st0" d="M258.8,88.1h0.6l0.4,0.2l0.4,0.3l0.1,0.7v1.2l-0.1,0.7l-0.4,0.4l-0.4,0.1h-0.6l-0.4-0.1l-0.4-0.4l-0.1-0.7
			v-1.2l0.1-0.7l0.4-0.3L258.8,88.1"/>
		<g class="st1">
			<rect x="270" y="85.3" class="st2" width="3.9" height="5.6"/>
			<text transform="matrix(1 0 0 1 270.0374 89.3849)" class="st3 st4">8</text>
		</g>
		<g class="st1">
			<rect x="270" y="85.3" class="st2" width="3.9" height="5.6"/>
			<text transform="matrix(1 0 0 1 270.0354 89.3835)" class="st5 st3 st4">8</text>
		</g>
		<path class="st0" d="M271,87.2l-0.4-0.2l-0.1-0.1l-0.2-0.4v-0.1l0.2-0.4l0.1-0.1l0.4-0.2h0.6l0.4,0.2l0.1,0.1l0.2,0.4v0.1
			l-0.2,0.4l-0.1,0.1l-0.4,0.2H271l-0.4,0.1l-0.1,0.1l-0.2,0.4v0.7l0.2,0.3l0.1,0.2l0.4,0.1h0.6L272,89l0.1-0.2l0.2-0.3v-0.7
			l-0.2-0.4l-0.1-0.1l-0.4-0.1"/>
		<path class="st0" d="M264.2,75.7h14.4"/>
		<g class="st1">
			<rect x="238.3" y="73.4" class="st2" width="24.9" height="5.6"/>
			<text transform="matrix(1 0 0 1 238.3049 77.5051)"><tspan x="0" y="0" class="st3 st4">PRB_GN</tspan><tspan x="21.5" y="0" class="st3 st4">D</tspan></text>
		</g>
		<g class="st1">
			<rect x="238.3" y="73.4" class="st2" width="24.9" height="5.6"/>
			<text transform="matrix(1 0 0 1 238.304 77.5036)"><tspan x="0" y="0" class="st5 st3 st4">PRB_GN</tspan><tspan x="21.5" y="0" class="st5 st3 st4">D</tspan></text>
		</g>
		<path class="st0" d="M237.4,77.3v-3.6h1.4l0.4,0.2l0.1,0.1l0.2,0.4v0.5l-0.2,0.4l-0.1,0.1l-0.4,0.1h-1.4"/>
		<path class="st0" d="M243.1,77.3l-1.2-1.7"/>
		<path class="st0" d="M241,77.3v-3.6h1.4l0.4,0.2l0.1,0.1l0.2,0.4v0.5l-0.2,0.4l-0.1,0.1l-0.4,0.1H241"/>
		<path class="st0" d="M245.8,75.4l0.5,0.1l0.1,0.2l0.2,0.3v0.6l-0.2,0.3l-0.1,0.2l-0.4,0.1h-1.4v-3.6h1.2l0.3,0.2l0.2,0.1l0.1,0.4
			v0.3l-0.1,0.4l-0.2,0.2L245.8,75.4h-1.2"/>
		<path class="st0" d="M247.3,77.6h2.7"/>
		<path class="st0" d="M252.8,73.9l-0.4-0.2h-0.5l-0.5,0.2l-0.4,0.3l-0.1,0.4l-0.1,0.7v0.5l0.1,0.6l0.1,0.4l0.4,0.4l0.5,0.1h0.4
			l0.5-0.1l0.2-0.2v-1.2h-0.7"/>
		<path class="st0" d="M254.5,77.3v-3.6l2.1,3.6v-3.6"/>
		<path class="st0" d="M258.3,77.3v-3.6h0.9l0.5,0.2l0.4,0.3l0.2,0.4l0.1,0.7v0.5l-0.1,0.6l-0.2,0.4l-0.4,0.4l-0.5,0.1H258.3"/>
		<g class="st1">
			<rect x="270" y="70.9" class="st2" width="3.9" height="5.6"/>
			<text transform="matrix(1 0 0 1 270.0374 74.985)" class="st3 st4">9</text>
		</g>
		<g class="st1">
			<rect x="270" y="70.9" class="st2" width="3.9" height="5.6"/>
			<text transform="matrix(1 0 0 1 270.0354 74.9836)" class="st5 st3 st4">9</text>
		</g>
		<path class="st0" d="M270.6,74.8h0.7l0.3-0.1l0.2-0.2l0.3-0.5l0.2-0.6v-1.4l-0.2-0.4l-0.1-0.1l-0.4-0.2H271l-0.4,0.2l-0.1,0.1
			l-0.2,0.4v0.9l0.2,0.3l0.1,0.2l0.4,0.1h0.6l0.4-0.1l0.1-0.2l0.2-0.3"/>
		<g class="st1">
			<rect x="173.2" y="19.2" class="st2" width="33" height="5.6"/>
			<text transform="matrix(1 0 0 1 173.1765 23.2888)"><tspan x="0" y="0" class="st3 st4">Whitebox</tspan><tspan x="19.8" y="0" class="st3 st4 st7"> </tspan><tspan x="27.4" y="0" class="st3 st4">T0</tspan></text>
		</g>
		<g class="st1">
			<rect x="173.2" y="19.2" class="st2" width="33" height="5.6"/>
			<text transform="matrix(1 0 0 1 173.1746 23.2873)"><tspan x="0" y="0" class="st5 st3 st4">Whitebox</tspan><tspan x="19.8" y="0" class="st5 st3 st4 st7"> </tspan><tspan x="27.4" y="0" class="st5 st3 st4">T0</tspan></text>
		</g>
		<path class="st0" d="M170.6,19.5l0.9,3.6l0.7-2.6l0.6,2.6l0.9-3.6"/>
		<path class="st0" d="M175.1,23.1v-3.6"/>
		<path class="st0" d="M176.7,23.1v-1.9l-0.2-0.4l-0.3-0.1h-0.5l-0.4,0.1l-0.2,0.2"/>
		<path class="st0" d="M178.4,23.1v-2.4"/>
		<path class="st0" d="M178.4,19.5l-0.2,0.2l0.2,0.1l0.1-0.1L178.4,19.5v0.4"/>
		<path class="st0" d="M179.6,20.7h1.4"/>
		<path class="st0" d="M180.1,19.5v3.1l0.2,0.4l0.4,0.1h0.3"/>
		<path class="st0" d="M183.5,22.9l-0.4,0.1h-0.6l-0.4-0.1l-0.1-0.4v-1.4l0.1-0.4l0.4-0.1h0.6l0.4,0.1l0.1,0.4v0.4l-1.7,0.3"/>
		<path class="st0" d="M185.2,23.1v-3.6"/>
		<path class="st0" d="M185.2,20.8l0.4-0.1h0.6l0.4,0.1l0.1,0.2l0.2,0.3v1.1l-0.2,0.3l-0.1,0.2l-0.4,0.1h-0.6l-0.4-0.1"/>
		<path class="st0" d="M189,23.1l-0.4-0.1l-0.1-0.2l-0.1-0.3v-1.1l0.1-0.3l0.1-0.2l0.4-0.1h0.5l0.4,0.1l0.2,0.2l0.1,0.3v1.1
			l-0.1,0.3l-0.2,0.2l-0.4,0.1H189"/>
		<path class="st0" d="M191.4,23.1l1.9-2.4"/>
		<path class="st0" d="M191.4,20.7l1.9,2.4"/>
		<path class="st0" d="M196.9,19.5h2"/>
		<path class="st0" d="M197.9,23.1v-3.6"/>
		<path class="st0" d="M200.9,19.5h0.3l0.4,0.2l0.1,0.1l0.2,0.4l0.1,0.6v0.9l-0.1,0.7l-0.2,0.3l-0.1,0.2l-0.4,0.1h-0.3l-0.4-0.1
			l-0.2-0.2l-0.1-0.3l-0.1-0.7v-0.9l0.1-0.6l0.1-0.4l0.2-0.1L200.9,19.5"/>
	</g>
</g>
<g>
	<g>
		<rect x="17.6" y="25.3" class="st8" width="72" height="57.6"/>
	</g>
	<g>
		<path class="st0" d="M89.6,61.3h7.2"/>
		<g class="st1">
			<rect x="78.1" y="59" class="st2" width="10.7" height="5.6"/>
			<text transform="matrix(1 0 0 1 78.0857 63.1052)"><tspan x="0" y="0" class="st3 st4">VC</tspan><tspan x="7.3" y="0" class="st3 st4">C</tspan></text>
		</g>
		<g class="st1">
			<rect x="78.1" y="59" class="st2" width="10.7" height="5.6"/>
			<text transform="matrix(1 0 0 1 78.0842 63.1032)"><tspan x="0" y="0" class="st5 st3 st4">VC</tspan><tspan x="7.3" y="0" class="st5 st3 st4">C</tspan></text>
		</g>
		<path class="st0" d="M77.9,59.3l1.2,3.6l1.2-3.6"/>
		<path class="st0" d="M83.6,62.5l-0.1,0.2l-0.6,0.1h-0.3l-0.5-0.1l-0.4-0.4L81.5,62l-0.1-0.6v-0.5l0.1-0.7l0.2-0.4l0.4-0.3l0.5-0.2
			h0.3l0.6,0.2l0.1,0.1"/>
		<path class="st0" d="M87.2,62.5L87,62.7l-0.6,0.1h-0.3l-0.5-0.1l-0.4-0.4L85.1,62L85,61.4v-0.5l0.1-0.7l0.2-0.4l0.4-0.3l0.5-0.2
			h0.3l0.6,0.2l0.1,0.1"/>
		<g class="st1">
			<rect x="93.1" y="60.7" class="st2" width="0.4" height="0.1"/>
			<text transform="matrix(1 0 0 1 93.135 60.801)" class="st3 st9">1</text>
		</g>
		<g class="st1">
			<rect x="93.1" y="60.7" class="st2" width="0.5" height="0.1"/>
			<text transform="matrix(1 0 0 1 93.1209 60.7995)" class="st5 st3 st9">1</text>
		</g>
	</g>
	<g>
		<path class="st10" d="M93.2,60.8L93.2,60.8"/>
		<path class="st10" d="M93.2,60.8L93.2,60.8"/>
	</g>
	<g>
		<path class="st0" d="M89.6,75.7h7.2"/>
		<g class="st1">
			<rect x="77.6" y="73.4" class="st2" width="10.9" height="5.6"/>
			<text transform="matrix(1 0 0 1 77.5588 77.5051)"><tspan x="0" y="0" class="st3 st4">GN</tspan><tspan x="7.5" y="0" class="st3 st4">D</tspan></text>
		</g>
		<g class="st1">
			<rect x="77.6" y="73.4" class="st2" width="10.9" height="5.6"/>
			<text transform="matrix(1 0 0 1 77.5574 77.5036)"><tspan x="0" y="0" class="st5 st3 st4">GN</tspan><tspan x="7.5" y="0" class="st5 st3 st4">D</tspan></text>
		</g>
		<path class="st0" d="M79.6,73.9l-0.4-0.2h-0.5l-0.5,0.2l-0.4,0.3l-0.1,0.4l-0.1,0.7v0.5l0.1,0.6l0.1,0.4l0.4,0.4l0.5,0.1h0.4
			l0.5-0.1l0.2-0.2v-1.2h-0.7"/>
		<path class="st0" d="M81.4,77.3v-3.6l2.1,3.6v-3.6"/>
		<path class="st0" d="M85.1,77.3v-3.6H86l0.5,0.2l0.4,0.3l0.2,0.4l0.1,0.7v0.5L87,76.4l-0.2,0.4l-0.4,0.4L86,77.3H85.1"/>
		<g class="st1">
			<rect x="93.1" y="75.1" class="st2" width="0.4" height="0.1"/>
			<text transform="matrix(1 0 0 1 93.135 75.2009)" class="st3 st9">2</text>
		</g>
		<g class="st1">
			<rect x="93.1" y="75.1" class="st2" width="0.5" height="0.1"/>
			<text transform="matrix(1 0 0 1 93.1209 75.1994)" class="st5 st3 st9">2</text>
		</g>
	</g>
	<g>
		<path class="st10" d="M93.2,75.2L93.2,75.2"/>
	</g>
	<g>
		<path class="st0" d="M89.6,46.9h7.2"/>
		<g class="st1">
			<rect x="78.3" y="44.6" class="st2" width="10.1" height="5.6"/>
			<text transform="matrix(1 0 0 1 78.3479 48.7048)"><tspan x="0" y="0" class="st3 st4">SD</tspan><tspan x="6.9" y="0" class="st3 st4">A</tspan></text>
		</g>
		<g class="st1">
			<rect x="78.3" y="44.6" class="st2" width="10.1" height="5.6"/>
			<text transform="matrix(1 0 0 1 78.3464 48.7033)"><tspan x="0" y="0" class="st5 st3 st4">SD</tspan><tspan x="6.9" y="0" class="st5 st3 st4">A</tspan></text>
		</g>
		<path class="st0" d="M78.5,48.3l0.5,0.1h0.9l0.3-0.1l0.2-0.2l0.1-0.3v-0.4l-0.1-0.4L80.1,47l-0.3-0.2l-0.7-0.1l-0.4-0.1l-0.1-0.2
			l-0.1-0.4v-0.3l0.1-0.4l0.1-0.1l0.4-0.2H80l0.5,0.2"/>
		<path class="st0" d="M82.1,48.5v-3.6h0.8l0.6,0.2l0.3,0.3l0.2,0.4l0.1,0.7V47l-0.1,0.6L83.7,48l-0.3,0.4l-0.6,0.1H82.1"/>
		<path class="st0" d="M85.5,47.5h1.7"/>
		<path class="st0" d="M85.1,48.5l1.2-3.6l1.2,3.6"/>
		<g class="st1">
			<rect x="93.1" y="46.3" class="st2" width="0.4" height="0.1"/>
			<text transform="matrix(1 0 0 1 93.135 46.4011)" class="st3 st9">3</text>
		</g>
		<g class="st1">
			<rect x="93.1" y="46.3" class="st2" width="0.5" height="0.1"/>
			<text transform="matrix(1 0 0 1 93.1209 46.3991)" class="st5 st3 st9">3</text>
		</g>
	</g>
	<g>
		<path class="st10" d="M93.2,46.4L93.2,46.4"/>
	</g>
	<g>
		<path class="st0" d="M89.6,32.5h7.2"/>
		<g class="st1">
			<rect x="78.9" y="30.2" class="st2" width="9.9" height="5.6"/>
			<text transform="matrix(1 0 0 1 78.8748 34.3049)"><tspan x="0" y="0" class="st3 st4">SC</tspan><tspan x="7.3" y="0" class="st3 st4">L</tspan></text>
		</g>
		<g class="st1">
			<rect x="78.9" y="30.2" class="st2" width="9.9" height="5.6"/>
			<text transform="matrix(1 0 0 1 78.8728 34.3034)"><tspan x="0" y="0" class="st5 st3 st4">SC</tspan><tspan x="7.3" y="0" class="st5 st3 st4">L</tspan></text>
		</g>
		<path class="st0" d="M78.6,33.9l0.5,0.1H80l0.4-0.1l0.1-0.2l0.2-0.3v-0.4l-0.2-0.4l-0.1-0.1L80,32.4l-0.7-0.1L79,32.1l-0.2-0.2
			l-0.1-0.4v-0.3l0.1-0.4l0.2-0.1l0.3-0.2h0.9l0.6,0.2"/>
		<path class="st0" d="M84.3,33.7l-0.2,0.2l-0.5,0.1h-0.4l-0.5-0.1l-0.4-0.4l-0.1-0.4l-0.1-0.6v-0.5l0.1-0.7l0.1-0.4l0.4-0.3
			l0.5-0.2h0.4l0.5,0.2l0.2,0.1"/>
		<path class="st0" d="M87.5,34.1h-1.7v-3.6"/>
		<g class="st1">
			<rect x="93.1" y="31.9" class="st2" width="0.4" height="0.1"/>
			<text transform="matrix(1 0 0 1 93.135 32.0007)" class="st3 st9">4</text>
		</g>
		<g class="st1">
			<rect x="93.1" y="31.9" class="st2" width="0.5" height="0.1"/>
			<text transform="matrix(1 0 0 1 93.1209 31.9992)" class="st5 st3 st9">4</text>
		</g>
	</g>
	<g>
		<path class="st10" d="M93.2,32L93.2,32"/>
		<path class="st10" d="M93.2,32L93.2,32"/>
	</g>
	<g>
		<g class="st1">
			<rect x="21.8" y="19.6" class="st2" width="40.6" height="5.6"/>
			<text transform="matrix(1 0 0 1 21.7791 23.6491)"><tspan x="0" y="0" class="st3 st4">Microcontrolle</tspan><tspan x="39" y="0" class="st3 st4">r</tspan></text>
		</g>
		<g class="st1">
			<rect x="21.8" y="19.6" class="st2" width="40.6" height="5.6"/>
			<text transform="matrix(1 0 0 1 21.7771 23.6472)"><tspan x="0" y="0" class="st5 st3 st4">Microcontrolle</tspan><tspan x="39" y="0" class="st5 st3 st4">r</tspan></text>
		</g>
		<path class="st0" d="M17.8,23.4v-3.6l1.2,2.6l1.2-2.6v3.6"/>
		<path class="st0" d="M22,23.4v-2.4"/>
		<path class="st0" d="M22,19.8L21.8,20l0.1,0.1l0.2-0.1L22,19.8v0.4"/>
		<path class="st0" d="M25.3,23.3l-0.4,0.1h-0.7l-0.3-0.1l-0.2-0.2l-0.1-0.3v-1.1l0.1-0.3l0.2-0.2l0.3-0.1h0.7l0.4,0.1"/>
		<path class="st0" d="M26.8,23.4v-2.4"/>
		<path class="st0" d="M26.8,21.7l0.1-0.3l0.2-0.2l0.4-0.1h0.3"/>
		<path class="st0" d="M29.5,23.4l-0.4-0.1L29,23.1l-0.1-0.3v-1.1l0.1-0.3l0.1-0.2l0.4-0.1H30l0.4,0.1l0.1,0.2l0.2,0.3v1.1l-0.2,0.3
			l-0.1,0.2L30,23.4H29.5"/>
		<path class="st0" d="M33.8,23.3l-0.4,0.1h-0.7l-0.3-0.1l-0.2-0.2l-0.1-0.3v-1.1l0.1-0.3l0.2-0.2l0.3-0.1h0.7l0.4,0.1"/>
		<path class="st0" d="M35.8,23.4l-0.3-0.1l-0.2-0.2l-0.1-0.3v-1.1l0.1-0.3l0.2-0.2l0.3-0.1h0.5l0.4,0.1l0.2,0.2l0.1,0.3v1.1
			l-0.1,0.3l-0.2,0.2l-0.4,0.1H35.8"/>
		<path class="st0" d="M38.6,21.1v2.4"/>
		<path class="st0" d="M38.6,21.4l0.2-0.2l0.4-0.1h0.5l0.3,0.1l0.2,0.4v1.9"/>
		<path class="st0" d="M41.3,21.1h1.4"/>
		<path class="st0" d="M41.9,19.8v3.1l0.1,0.4l0.4,0.1h0.4"/>
		<path class="st0" d="M43.9,23.4v-2.4"/>
		<path class="st0" d="M43.9,21.7l0.2-0.3l0.1-0.2l0.4-0.1h0.3"/>
		<path class="st0" d="M46.6,23.4l-0.3-0.1l-0.2-0.2L46,22.8v-1.1l0.1-0.3l0.2-0.2l0.3-0.1h0.5l0.4,0.1l0.2,0.2l0.1,0.3v1.1
			l-0.1,0.3l-0.2,0.2l-0.4,0.1H46.6"/>
		<path class="st0" d="M50,23.4l-0.4-0.1l-0.2-0.4v-3.1"/>
		<path class="st0" d="M51.8,23.4l-0.4-0.1l-0.1-0.4v-3.1"/>
		<path class="st0" d="M54.6,23.3l-0.4,0.1h-0.6l-0.4-0.1L53,22.9v-1.4l0.2-0.4l0.4-0.1h0.6l0.4,0.1l0.1,0.4v0.4L53,22.2"/>
		<path class="st0" d="M56.3,23.4v-2.4"/>
		<path class="st0" d="M56.3,21.7l0.1-0.3l0.1-0.2l0.4-0.1h0.4"/>
	</g>
</g>
<g>
	<g>
		<rect x="110.1" y="118.9" class="st11" width="5.8" height="14.4"/>
	</g>
	<g>
		<path class="st0" d="M113,133.3v3.6"/>
		<path class="st0" d="M113,118.9v-3.6"/>
		<g class="st1">
			<rect x="111.5" y="123.6" class="st2" width="4" height="5.6"/>
			<text transform="matrix(1 0 0 1 111.4587 127.6891)" class="st3 st4">R</text>
		</g>
		<g class="st1">
			<rect x="111.5" y="123.6" class="st2" width="4" height="5.6"/>
			<text transform="matrix(1 0 0 1 111.4573 127.6872)" class="st5 st3 st4">R</text>
		</g>
		<path class="st0" d="M114.3,127.5l-1.2-1.7"/>
		<path class="st0" d="M112.2,127.5v-3.6h1.4l0.4,0.2l0.2,0.1l0.1,0.4v0.5l-0.1,0.4l-0.2,0.1l-0.4,0.1h-1.4"/>
	</g>
</g>
<g>
	<g>
		<rect x="120.9" y="118.9" class="st11" width="5.8" height="14.4"/>
	</g>
	<g>
		<path class="st0" d="M123.8,133.3v3.6"/>
		<path class="st0" d="M123.8,118.9v-3.6"/>
		<g class="st1">
			<rect x="122.3" y="123.6" class="st2" width="4" height="5.6"/>
			<text transform="matrix(1 0 0 1 122.259 127.6891)" class="st3 st4">R</text>
		</g>
		<g class="st1">
			<rect x="122.3" y="123.6" class="st2" width="4" height="5.6"/>
			<text transform="matrix(1 0 0 1 122.2571 127.6872)" class="st5 st3 st4">R</text>
		</g>
		<path class="st0" d="M125.1,127.5l-1.2-1.7"/>
		<path class="st0" d="M123,127.5v-3.6h1.4l0.4,0.2l0.2,0.1l0.1,0.4v0.5l-0.1,0.4l-0.2,0.1l-0.4,0.1H123"/>
	</g>
</g>
<g>
	<g>
		<circle class="st8" cx="314.6" cy="75.7" r="1.4"/>
	</g>
	<g>
		<circle class="st12" cx="314.6" cy="75.7" r="5"/>
	</g>
	<g>
		<path class="st0" d="M314.6,74.3v-9.4"/>
		<g transform="rotate(-90 57430 36900)">
			<g class="st1">
				<rect x="94260" y="-20216.2" class="st2" width="0.9" height="0"/>
			</g>
			<g class="st1">
				<rect x="94259.9" y="-20216.2" class="st2" width="0.9" height="0.1"/>
				<text transform="matrix(1 0 0 1 94260.3906 -20216.5508)" class="st5 st3 st9">1</text>
			</g>
		</g>
	</g>
	<g>
		<path class="st10" d="M314.1,69.6L314.1,69.6"/>
		<path class="st10" d="M314.1,69.6L314.1,69.6"/>
	</g>
	<g>
		<path class="st0" d="M309.5,75.7h-9.4"/>
		<g class="st1">
			<text transform="matrix(1 0 0 1 304.8147 75.2009)" class="st3 st9">2</text>
		</g>
		<g class="st1">
			<text transform="matrix(1 0 0 1 304.8147 75.2009)" class="st5 st3 st9">2</text>
		</g>
	</g>
	<g>
		<path class="st10" d="M304.8,75.2L304.8,75.2"/>
	</g>
	<g>
		<g class="st1">
			<rect x="324.2" y="73.6" class="st2" width="10.9" height="5.6"/>
			<text transform="matrix(1 0 0 1 324.2307 77.6491)"><tspan x="0" y="0" class="st3 st4">BN</tspan><tspan x="7.5" y="0" class="st3 st4">C</tspan></text>
		</g>
		<g class="st1">
			<rect x="324.2" y="73.6" class="st2" width="10.9" height="5.6"/>
			<text transform="matrix(1 0 0 1 324.2288 77.6472)"><tspan x="0" y="0" class="st5 st3 st4">BN</tspan><tspan x="7.5" y="0" class="st5 st3 st4">C</tspan></text>
		</g>
		<path class="st0" d="M325.8,75.6l0.5,0.1l0.1,0.2l0.2,0.3v0.6l-0.2,0.3l-0.1,0.2l-0.4,0.1h-1.4v-3.6h1.2l0.4,0.2l0.1,0.1l0.1,0.4
			v0.3l-0.1,0.4l-0.1,0.2L325.8,75.6h-1.2"/>
		<path class="st0" d="M328.2,77.4v-3.6l2.1,3.6v-3.6"/>
		<path class="st0" d="M334,77.1l-0.1,0.2l-0.5,0.1H333l-0.5-0.1l-0.4-0.4l-0.1-0.4l-0.2-0.6v-0.5l0.2-0.7l0.1-0.4l0.4-0.3l0.5-0.2
			h0.4l0.5,0.2l0.1,0.1"/>
	</g>
</g>
<g>
	<g>
		<path class="st13" d="M91.4,183.7v3.6H95l-3.6,3.6l-3.6-3.6h3.6"/>
		<g class="st1">
			<rect x="86.1" y="194" class="st2" width="11.4" height="5.6"/>
			<text transform="matrix(1 0 0 1 86.0789 198.1052)"><tspan x="0" y="0" class="st3 st4">GN</tspan><tspan x="7.9" y="0" class="st3 st4">D</tspan></text>
		</g>
		<g class="st1">
			<rect x="86.1" y="194" class="st2" width="11.4" height="5.6"/>
			<text transform="matrix(1 0 0 1 86.0774 198.1032)"><tspan x="0" y="0" class="st5 st3 st4">GN</tspan><tspan x="7.9" y="0" class="st5 st3 st4">D</tspan></text>
		</g>
		<path class="st0" d="M88.6,194.5l-0.3-0.2h-0.5l-0.6,0.2l-0.3,0.3l-0.2,0.4l-0.1,0.7v0.5l0.1,0.6l0.2,0.4l0.3,0.4l0.6,0.1H88
			l0.5-0.1l0.2-0.2v-1.2H88"/>
		<path class="st0" d="M90.3,197.9v-3.6l2.1,3.6v-3.6"/>
		<path class="st0" d="M94.1,197.9v-3.6H95l0.5,0.2l0.3,0.3l0.2,0.4l0.1,0.7v0.5L96,197l-0.2,0.4l-0.3,0.4l-0.5,0.1H94.1"/>
	</g>
</g>
<g>
	<g>
		<path class="st14" d="M91.4,172.9v-3.6h2.2l-2.2-3.6l-2.2,3.6h2.2"/>
	</g>
	<g>
		<g class="st1">
			<rect x="84.4" y="158.3" class="st2" width="19.9" height="5.6"/>
			<text transform="matrix(1 0 0 1 84.3587 162.3928)"><tspan x="0" y="0" class="st3 st4 st6">3.3-5</tspan><tspan x="16.8" y="0" class="st3 st4">V</tspan></text>
		</g>
		<g class="st1">
			<rect x="84.4" y="158.3" class="st2" width="19.9" height="5.6"/>
			<text transform="matrix(1 0 0 1 84.3562 162.3913)"><tspan x="0" y="0" class="st5 st3 st4 st6">3.3-5</tspan><tspan x="16.8" y="0" class="st5 st3 st4">V</tspan></text>
		</g>
		<path class="st0" d="M82.1,158.6h2.2l-1.2,1.4h0.5l0.4,0.2l0.2,0.1l0.1,0.4v0.9l-0.1,0.3l-0.2,0.2l-0.4,0.1h-1l-0.4-0.1l-0.1-0.2"
			/>
		<path class="st0" d="M85.8,161.8L86,162l-0.2,0.1l-0.1-0.1L85.8,161.8v0.4"/>
		<path class="st0" d="M87.2,158.6h2.2l-1.2,1.4h0.5l0.4,0.2l0.1,0.1l0.1,0.4v0.9l-0.1,0.3l-0.1,0.2l-0.4,0.1h-1l-0.4-0.1l-0.2-0.2"
			/>
		<path class="st0" d="M91,160.8h2.7"/>
		<path class="st0" d="M97.1,158.6h-1.7l-0.2,1.7l0.2-0.1l0.3-0.2h0.9l0.4,0.2l0.1,0.1l0.2,0.4v0.9l-0.2,0.3L97,162l-0.4,0.1h-0.9
			l-0.3-0.1l-0.2-0.2"/>
		<path class="st0" d="M98.3,158.6l1.2,3.6l1.2-3.6"/>
	</g>
</g>
<g>
	<path class="st0" d="M314.6,61.3h-36"/>
	<path class="st0" d="M300.2,75.7v14.4"/>
	<path class="st0" d="M96.8,61.3h48.6"/>
	<path class="st0" d="M278.6,75.7h21.6"/>
	<path class="st0" d="M300.2,90.1h39.6"/>
	<path class="st0" d="M339.8,90.1V46.9"/>
	<path class="st0" d="M145.4,104.5h10.8"/>
	<path class="st0" d="M145.4,61.3h10.8"/>
	<path class="st0" d="M96.8,46.9h27"/>
	<path class="st0" d="M145.4,90.1v14.4"/>
	<path class="st0" d="M145.4,90.1V61.3"/>
	<path class="st0" d="M96.8,32.5H113"/>
	<path class="st0" d="M156.2,90.1h-10.8"/>
	<path class="st0" d="M314.6,64.9v-3.6"/>
	<path class="st0" d="M278.6,46.9h61.2"/>
	<path class="st0" d="M113,172.9h10.8"/>
	<path class="st0" d="M113,136.9v36"/>
	<path class="st0" d="M134.6,75.7h21.6"/>
	<path class="st0" d="M91.4,183.7h43.2"/>
	<path class="st0" d="M134.6,75.7v108"/>
	<path class="st0" d="M145.4,104.5v68.4"/>
	<path class="st0" d="M96.8,75.7h37.8"/>
	<path class="st0" d="M123.8,172.9h21.6"/>
	<path class="st0" d="M123.8,115.3V46.9"/>
	<path class="st0" d="M91.4,172.9H113"/>
	<path class="st0" d="M123.8,46.9h32.4"/>
	<path class="st0" d="M113,115.3V32.5"/>
	<path class="st0" d="M123.8,136.9v36"/>
	<path class="st0" d="M113,32.5h43.2"/>
	<g class="st1">
		<rect x="68" y="123.1" class="st2" width="36.9" height="5.6"/>
		<text transform="matrix(1 0 0 1 67.9587 127.1848)"><tspan x="0" y="0" class="st3 st4">I2C</tspan><tspan x="7.4" y="0" class="st3 st4 st15"> </tspan><tspan x="19" y="0" class="st3 st4">Pull-Ups</tspan></text>
	</g>
	<g class="st1">
		<rect x="68" y="123.1" class="st2" width="36.9" height="5.6"/>
		<text transform="matrix(1 0 0 1 67.9568 127.1833)"><tspan x="0" y="0" class="st5 st3 st4">I2C</tspan><tspan x="7.4" y="0" class="st5 st3 st4 st15"> </tspan><tspan x="19" y="0" class="st5 st3 st4">Pull-Ups</tspan></text>
	</g>
	<path class="st0" d="M69,127v-3.6"/>
	<path class="st0" d="M70.6,123.7l0.1-0.1l0.4-0.2h0.9l0.4,0.2l0.1,0.1l0.1,0.4v0.3l-0.1,0.6l-2.1,2h2.2"/>
	<path class="st0" d="M76.2,126.6l-0.1,0.2l-0.5,0.1h-0.4l-0.5-0.1l-0.4-0.4l-0.1-0.4l-0.2-0.6V125l0.2-0.7l0.1-0.4l0.4-0.3l0.5-0.2
		h0.4l0.5,0.2l0.1,0.1"/>
	<path class="st0" d="M80.5,127v-3.6h1.4l0.4,0.2l0.1,0.1l0.2,0.4v0.5l-0.2,0.4l-0.1,0.1l-0.4,0.1h-1.4"/>
	<path class="st0" d="M85.6,124.6v2.4"/>
	<path class="st0" d="M84.1,124.6v1.9l0.1,0.4l0.4,0.1h0.5l0.4-0.1l0.1-0.2"/>
	<path class="st0" d="M87.8,127l-0.3-0.1l-0.2-0.4v-3.1"/>
	<path class="st0" d="M89.8,127l-0.4-0.1l-0.2-0.4v-3.1"/>
	<path class="st0" d="M91.1,125.6h2.7"/>
	<path class="st0" d="M95.5,123.4v3l0.2,0.3l0.1,0.2l0.4,0.1H97l0.3-0.1l0.2-0.2l0.1-0.3v-3"/>
	<path class="st0" d="M99.4,124.6v3.6"/>
	<path class="st0" d="M99.4,124.7l0.4-0.1h0.6l0.4,0.1l0.1,0.2l0.2,0.3v1.1l-0.2,0.3l-0.1,0.2l-0.4,0.1h-0.6l-0.4-0.1"/>
	<path class="st0" d="M102.4,126.8l0.3,0.1h0.7l0.4-0.1l0.1-0.4v-0.1l-0.1-0.4l-0.4-0.2H103l-0.4-0.1l-0.1-0.4v-0.1l0.1-0.4l0.4-0.1
		h0.5l0.4,0.1"/>
</g>
<g>
	<circle class="st16" cx="113" cy="32.5" r="1.4"/>
</g>
<g>
	<circle class="st16" cx="123.8" cy="46.9" r="1.4"/>
</g>
<g>
	<circle class="st16" cx="123.8" cy="172.9" r="1.4"/>
</g>
<g>
	<circle class="st16" cx="134.6" cy="75.7" r="1.4"/>
</g>
<g>
	<circle class="st16" cx="113" cy="172.9" r="1.4"/>
</g>
<g>
	<circle class="st16" cx="145.4" cy="104.5" r="1.4"/>
</g>
<g>
	<circle class="st16" cx="145.4" cy="90.1" r="1.4"/>
</g>
<g>
	<circle class="st16" cx="145.4" cy="61.3" r="1.4"/>
</g>
<g>
	<circle class="st16" cx="300.2" cy="75.7" r="1.4"/>
</g>
<g>
	<path class="st0" d="M276.8,102.8l3.5,3.5"/>
	<path class="st0" d="M280.3,102.8l-3.5,3.5"/>
	<path class="st0" d="M276.8,88.4l3.5,3.5"/>
	<path class="st0" d="M280.3,88.4l-3.5,3.5"/>
</g>
</svg>
