<?xml version="1.0" encoding="utf-8"?>
<!-- Generator: Adobe Illustrator 26.0.1, SVG Export Plug-In . SVG Version: 6.00 Build 0)  -->
<svg version="1.1" id="Layer_1" xmlns:svg="http://www.w3.org/2000/svg"
	 xmlns="http://www.w3.org/2000/svg" xmlns:xlink="http://www.w3.org/1999/xlink" x="0px" y="0px" viewBox="0 0 168.2 78.2"
	 style="enable-background:new 0 0 168.2 78.2;" xml:space="preserve">
<style type="text/css">
	.st0{fill-rule:evenodd;clip-rule:evenodd;}
	.st1{fill:none;stroke:#000000;stroke-miterlimit:10;}
	.st2{opacity:0;enable-background:new    ;}
	.st3{fill:none;}
	.st4{font-family:'ArialMT';}
	.st5{font-size:3.7795px;}
	.st6{fill:none;stroke:#000000;stroke-width:0.5669;stroke-linecap:round;stroke-linejoin:round;}
	.st7{fill-opacity:0;stroke:#000000;stroke-width:0.5669;stroke-linecap:round;stroke-linejoin:round;stroke-miterlimit:10;}
	.st8{font-size:3.0236px;}
	.st9{letter-spacing:1;}
	.st10{fill-opacity:0;stroke:#000000;stroke-width:0.4252;stroke-linecap:round;stroke-linejoin:round;stroke-miterlimit:10;}
	.st11{fill-opacity:0;stroke:#000000;stroke-width:0.5;stroke-linecap:round;stroke-linejoin:round;stroke-miterlimit:10;}
</style>
<desc>Picture generated by PCBNEW</desc>
<g transform="translate(0 0) scale(1 1)">
</g>
<g>
	<g>
		<path class="st0" d="M118.5,21.4L118.5,21.4L118.5,21.4L118.5,21.4L118.5,21.4L118.5,21.4L118.5,21.4l1.7,0l0,0l0,0l0,0l0,0v0l0,0
			l0,0v0.3l0,0l0,0l0,0l0,0l0,0l-0.3,0.1l-0.2,0.2l-0.2,0.3l-0.1,0.4l0,0.3l0.1,0.4l0.2,0.4l0.2,0.3l0.4,0.2l0,0l0,0l0,0l0,0l0,0
			v0.3l0,0l0,0l0,0l0,0l0,0v0l0,0h-1.7l0,0v0l0,0l0,0l0,0l0,0l0,0V21.4z"/>
		<path class="st0" d="M118.5,27.1L118.5,27.1L118.5,27.1L118.5,27.1L118.5,27.1L118.5,27.1L118.5,27.1l1.7,0l0,0l0,0l0,0v0l0,0l0,0
			l0,0v0.3l0,0l0,0l0,0l0,0l0,0l-0.3,0.1l-0.2,0.2l-0.2,0.3l-0.1,0.4l0,0.3l0.1,0.4l0.2,0.4l0.2,0.3l0.4,0.2l0,0l0,0l0,0l0,0l0,0
			v0.3l0,0l0,0l0,0l0,0v0l0,0l0,0h-1.7l0,0l0,0v0l0,0l0,0l0,0l0,0V27.1z"/>
		<path class="st0" d="M118.5,32.7L118.5,32.7L118.5,32.7L118.5,32.7L118.5,32.7L118.5,32.7L118.5,32.7l1.7,0l0,0l0,0l0,0v0l0,0l0,0
			l0,0V33l0,0l0,0l0,0l0,0l0,0l-0.3,0.1l-0.2,0.2l-0.2,0.3l-0.1,0.4l0,0.3l0.1,0.4l0.2,0.4l0.2,0.3l0.4,0.2l0,0l0,0l0,0l0,0l0,0v0.3
			l0,0l0,0l0,0v0l0,0l0,0l0,0h-1.7l0,0l0,0l0,0v0l0,0l0,0l0,0V32.7z"/>
		<path class="st0" d="M118.5,38.4L118.5,38.4L118.5,38.4L118.5,38.4L118.5,38.4L118.5,38.4L118.5,38.4l1.7,0l0,0l0,0l0,0v0l0,0l0,0
			l0,0v0.3l0,0l0,0l0,0l0,0l0,0l-0.3,0.1l-0.2,0.2l-0.2,0.3l-0.1,0.4l0,0.3l0.1,0.4l0.2,0.4l0.2,0.3l0.4,0.2l0,0l0,0l0,0l0,0l0,0
			v0.3l0,0l0,0l0,0v0l0,0l0,0l0,0h-1.7l0,0l0,0l0,0v0l0,0l0,0l0,0V38.4z"/>
		<path class="st0" d="M118.5,44.1L118.5,44.1L118.5,44.1L118.5,44.1L118.5,44.1L118.5,44.1L118.5,44.1l1.7,0l0,0l0,0v0l0,0l0,0l0,0
			l0,0v0.3l0,0l0,0l0,0l0,0l0,0l-0.3,0.1l-0.2,0.2l-0.2,0.3l-0.1,0.4l0,0.3l0.1,0.4l0.2,0.4l0.2,0.3l0.4,0.2l0,0l0,0l0,0l0,0l0,0
			v0.3l0,0l0,0l0,0v0l0,0l0,0l0,0h-1.7l0,0l0,0l0,0v0l0,0l0,0l0,0V44.1z"/>
		<path class="st0" d="M118.5,49.7L118.5,49.7L118.5,49.7L118.5,49.7L118.5,49.7L118.5,49.7L118.5,49.7l1.7,0l0,0v0l0,0l0,0l0,0l0,0
			l0,0V50l0,0l0,0l0,0l0,0l0,0l-0.3,0.1l-0.2,0.2l-0.2,0.3l-0.1,0.4l0,0.3l0.1,0.4l0.2,0.4l0.2,0.3l0.4,0.2l0,0l0,0l0,0l0,0l0,0v0.3
			l0,0l0,0v0l0,0l0,0l0,0l0,0h-1.7l0,0l0,0l0,0l0,0v0l0,0l0,0V49.7z"/>
	</g>
	<g>
		<path class="st0" d="M38.4,52.9L38.4,52.9L38.4,52.9L38.4,52.9L38.4,52.9L38.4,52.9L38.4,52.9l-1.7,0l0,0l0,0l0,0l0,0v0l0,0l0,0
			v-0.3l0,0l0,0l0,0l0,0l0,0l0.3-0.1l0.2-0.2l0.2-0.3l0.1-0.4l0-0.3l-0.1-0.4l-0.2-0.4l-0.2-0.3L36.7,50l0,0l0,0l0,0l0,0l0,0v-0.3
			l0,0l0,0l0,0l0,0l0,0v0l0,0h1.7l0,0v0l0,0l0,0l0,0l0,0l0,0V52.9z"/>
		<path class="st0" d="M38.4,47.2L38.4,47.2L38.4,47.2L38.4,47.2L38.4,47.2L38.4,47.2L38.4,47.2l-1.7,0l0,0l0,0l0,0v0l0,0l0,0l0,0
			v-0.3l0,0l0,0l0,0l0,0l0,0l0.3-0.1l0.2-0.2l0.2-0.3l0.1-0.4l0-0.3l-0.1-0.4l-0.2-0.4l-0.2-0.3l-0.4-0.2l0,0l0,0l0,0l0,0l0,0v-0.3
			l0,0l0,0l0,0l0,0v0l0,0l0,0h1.7l0,0l0,0v0l0,0l0,0l0,0l0,0V47.2z"/>
		<path class="st0" d="M38.4,41.5L38.4,41.5L38.4,41.5L38.4,41.5L38.4,41.5L38.4,41.5L38.4,41.5l-1.7,0l0,0l0,0l0,0v0l0,0l0,0l0,0
			v-0.3l0,0l0,0l0,0l0,0l0,0l0.3-0.1l0.2-0.2l0.2-0.3l0.1-0.4l0-0.3l-0.1-0.4l-0.2-0.4l-0.2-0.3l-0.4-0.2l0,0l0,0l0,0l0,0l0,0v-0.3
			l0,0l0,0l0,0v0l0,0l0,0l0,0h1.7l0,0l0,0l0,0v0l0,0l0,0l0,0V41.5z"/>
		<path class="st0" d="M38.4,35.8L38.4,35.8L38.4,35.8L38.4,35.8L38.4,35.8L38.4,35.8L38.4,35.8l-1.7,0l0,0l0,0l0,0v0l0,0l0,0l0,0
			v-0.3l0,0l0,0l0,0l0,0l0,0l0.3-0.1l0.2-0.2l0.2-0.3l0.1-0.4l0-0.3l-0.1-0.4l-0.2-0.4l-0.2-0.3L36.7,33l0,0l0,0l0,0l0,0l0,0v-0.3
			l0,0l0,0l0,0v0l0,0l0,0l0,0h1.7l0,0l0,0l0,0v0l0,0l0,0l0,0V35.8z"/>
		<path class="st0" d="M38.4,30.2L38.4,30.2L38.4,30.2L38.4,30.2L38.4,30.2L38.4,30.2L38.4,30.2l-1.7,0l0,0l0,0v0l0,0l0,0l0,0l0,0
			v-0.3l0,0l0,0l0,0l0,0l0,0l0.3-0.1l0.2-0.2l0.2-0.3l0.1-0.4l0-0.3l-0.1-0.4l-0.2-0.4l-0.2-0.3l-0.4-0.2l0,0l0,0l0,0l0,0l0,0v-0.3
			l0,0l0,0l0,0v0l0,0l0,0l0,0h1.7l0,0l0,0l0,0v0l0,0l0,0l0,0V30.2z"/>
		<path class="st0" d="M38.4,24.5L38.4,24.5L38.4,24.5L38.4,24.5L38.4,24.5L38.4,24.5L38.4,24.5l-1.7,0l0,0v0l0,0l0,0l0,0l0,0l0,0
			v-0.3l0,0l0,0l0,0l0,0l0,0l0.3-0.1l0.2-0.2l0.2-0.3l0.1-0.4l0-0.3l-0.1-0.4l-0.2-0.4l-0.2-0.3l-0.4-0.2l0,0l0,0l0,0l0,0l0,0v-0.3
			l0,0l0,0v0l0,0l0,0l0,0l0,0h1.7l0,0l0,0l0,0l0,0v0l0,0l0,0V24.5z"/>
	</g>
	<g>
		<circle class="st1" cx="58.3" cy="44.3" r="1.8"/>
	</g>
	<g>
		<circle class="st1" cx="58.3" cy="37.1" r="1.8"/>
	</g>
	<g>
		<circle class="st1" cx="58.3" cy="29.9" r="1.8"/>
	</g>
	<g>
		<circle class="st1" cx="108.7" cy="44.3" r="1.8"/>
	</g>
	<g>
		<circle class="st1" cx="108.7" cy="37.1" r="1.8"/>
	</g>
	<g>
		<circle class="st1" cx="108.7" cy="29.9" r="1.8"/>
	</g>
	<g>
		<path class="st0" d="M41,52.1h-2.6v-1.6H41V52.1z"/>
	</g>
</g>
<g>
	<g transform="rotate(-270 51801.2 36205)">
		<g class="st2">
			<rect x="15632.7" y="87930.9" class="st3" width="17" height="4.8"/>
			<text transform="matrix(0 -1 1 0 15642.0303 87941.8359)" class="st4 st5">GND_ISO</text>
		</g>
		<g class="st2">
			<rect x="15632.7" y="87930.9" class="st3" width="17" height="4.8"/>
			<text transform="matrix(0 -1 1 0 15642.0283 87941.8438)" class="st6 st4 st5">GND_ISO</text>
		</g>
	</g>
	<path class="st7" d="M65.3,43.3l-0.3-0.1h-0.4l-0.4,0.1L64,43.5l-0.1,0.3l-0.1,0.5v0.4l0.1,0.5l0.1,0.3l0.3,0.3l0.4,0.1h0.3
		l0.4-0.1l0.1-0.1v-0.9h-0.5"/>
	<path class="st7" d="M66.7,46v-2.8l1.6,2.8v-2.8"/>
	<path class="st7" d="M69.7,46v-2.8h0.7l0.4,0.1l0.3,0.3l0.1,0.3l0.1,0.5v0.4l-0.1,0.5L71,45.6l-0.3,0.3L70.3,46H69.7"/>
	<path class="st7" d="M71.8,46.2H74"/>
	<path class="st7" d="M74.7,46v-2.8"/>
	<path class="st7" d="M75.9,45.8l0.4,0.1H77l0.3-0.1l0.1-0.1l0.1-0.3v-0.3l-0.1-0.3l-0.1-0.1L77,44.6l-0.5-0.1l-0.3-0.1L76,44.2
		l-0.1-0.3v-0.3l0.1-0.3l0.1-0.1l0.3-0.1h0.7l0.4,0.1"/>
	<path class="st7" d="M79.3,43.1h0.5l0.3,0.1l0.3,0.3l0.1,0.5V45l-0.1,0.5l-0.3,0.3L79.8,46h-0.5L79,45.8l-0.3-0.3L78.6,45v-0.9
		l0.1-0.5l0.3-0.3L79.3,43.1"/>
	<g transform="rotate(-270 52844.5 36111.3)">
		<g class="st2">
			<rect x="16762.5" y="88880.9" class="st3" width="16.4" height="4.9"/>
			<text transform="matrix(0 -1 1 0 16771.4805 88891.4766)" class="st4 st5">SDA_ISO</text>
		</g>
		<g class="st2">
			<rect x="16762.5" y="88880.8" class="st3" width="16.4" height="4.9"/>
			<text transform="matrix(0 -1 1 0 16771.4785 88891.4844)" class="st6 st4 st5">SDA_ISO</text>
		</g>
	</g>
	<path class="st7" d="M63.7,38.3l0.4,0.1h0.7l0.3-0.1l0.1-0.1l0.1-0.3v-0.3l-0.1-0.3l-0.1-0.1l-0.3-0.1L64.3,37L64,36.8l-0.1-0.1
		l-0.1-0.3v-0.3l0.1-0.3l0.1-0.1l0.3-0.1h0.7l0.4,0.1"/>
	<path class="st7" d="M66.6,38.4v-2.8h0.7l0.4,0.1l0.3,0.3l0.1,0.3l0.1,0.5v0.4L68,37.8L67.9,38l-0.3,0.3l-0.4,0.1H66.6"/>
	<path class="st7" d="M69.3,37.6h1.4"/>
	<path class="st7" d="M69,38.4l0.9-2.8l0.9,2.8"/>
	<path class="st7" d="M71.2,38.7h2.2"/>
	<path class="st7" d="M74,38.4v-2.8"/>
	<path class="st7" d="M75.2,38.3l0.4,0.1h0.7l0.3-0.1l0.1-0.1l0.1-0.3v-0.3l-0.1-0.3l-0.1-0.1l-0.3-0.1L75.7,37l-0.3-0.1l-0.1-0.1
		l-0.1-0.3v-0.3l0.1-0.3l0.1-0.1l0.3-0.1h0.7l0.4,0.1"/>
	<path class="st7" d="M78.6,35.6h0.5l0.3,0.1l0.3,0.3l0.1,0.5v0.9L79.7,38l-0.3,0.3l-0.3,0.1h-0.5l-0.3-0.1L78,38l-0.1-0.5v-0.9
		L78,36l0.3-0.3L78.6,35.6"/>
	<g transform="rotate(-270 53848.4 36092.5)">
		<g class="st2">
			<rect x="17778.1" y="89865.8" class="st3" width="16" height="5"/>
			<text transform="matrix(0 -1 1 0 17786.8867 89876.2969)" class="st4 st5">SCL_ISO</text>
		</g>
		<g class="st2">
			<rect x="17778.1" y="89865.8" class="st3" width="16" height="5"/>
			<text transform="matrix(0 -1 1 0 17786.8848 89876.2969)" class="st6 st4 st5">SCL_ISO</text>
		</g>
	</g>
	<path class="st7" d="M63.7,31.1l0.4,0.1h0.7l0.3-0.1l0.1-0.1l0.1-0.3v-0.3l-0.1-0.3L65.1,30l-0.3-0.1l-0.5-0.1L64,29.6l-0.1-0.1
		l-0.1-0.3v-0.3l0.1-0.3l0.1-0.1l0.3-0.1h0.7l0.4,0.1"/>
	<path class="st7" d="M68.2,31L68,31.1l-0.4,0.1h-0.3L67,31.1l-0.3-0.3l-0.1-0.3L66.4,30v-0.4l0.1-0.5l0.1-0.3l0.3-0.3l0.4-0.1h0.3
		l0.4,0.1l0.1,0.1"/>
	<path class="st7" d="M70.7,31.2h-1.4v-2.8"/>
	<path class="st7" d="M71,31.5h2.2"/>
	<path class="st7" d="M73.9,31.2v-2.8"/>
	<path class="st7" d="M75.1,31.1l0.4,0.1h0.7l0.3-0.1l0.1-0.1l0.1-0.3v-0.3l-0.1-0.3L76.4,30l-0.3-0.1l-0.5-0.1l-0.3-0.1l-0.1-0.1
		l-0.1-0.3v-0.3l0.1-0.3l0.1-0.1l0.3-0.1h0.7l0.4,0.1"/>
	<path class="st7" d="M78.4,28.4H79l0.3,0.1l0.3,0.3l0.1,0.5v0.9l-0.1,0.5l-0.3,0.3L79,31.2h-0.5l-0.3-0.1l-0.3-0.3l-0.1-0.5v-0.9
		l0.1-0.5l0.3-0.3L78.4,28.4"/>
	<g transform="rotate(-270 51830.7 39448.8)">
		<g class="st2">
			<rect x="12422.1" y="91176.8" class="st3" width="9" height="5"/>
			<text transform="matrix(0 -1 1 0 12427.3613 91183.7969)" class="st4 st5">VISO</text>
		</g>
		<g class="st2">
			<rect x="12422.1" y="91176.8" class="st3" width="9" height="5"/>
			<text transform="matrix(0 -1 1 0 12427.3594 91183.8047)" class="st6 st4 st5">VISO</text>
		</g>
	</g>
	<path class="st7" d="M95.2,42.9l1,2.8l0.9-2.8"/>
	<path class="st7" d="M98,45.7v-2.8"/>
	<path class="st7" d="M99.2,45.6l0.4,0.1h0.7l0.3-0.1l0.1-0.1l0.1-0.3v-0.3l-0.1-0.3l-0.1-0.1l-0.3-0.1l-0.5-0.1l-0.3-0.1L99.4,44
		l-0.1-0.3v-0.3l0.1-0.3l0.1-0.1l0.3-0.1h0.7l0.4,0.1"/>
	<path class="st7" d="M102.6,42.9h0.5l0.3,0.1l0.3,0.3l0.1,0.5v1l-0.1,0.5l-0.3,0.3l-0.3,0.1h-0.5l-0.3-0.1l-0.3-0.3l-0.1-0.5v-1
		l0.1-0.5l0.3-0.3L102.6,42.9"/>
	<g transform="rotate(-270 53848.4 39448.8)">
		<g class="st2">
			<rect x="14420.7" y="93199.2" class="st3" width="18.3" height="4.9"/>
			<text transform="matrix(0 -1 1 0 14430.6348 93210.7422)" class="st4 st5">PRB_GND</text>
		</g>
		<g class="st2">
			<rect x="14420.7" y="93199.2" class="st3" width="18.3" height="4.9"/>
			<text transform="matrix(0 -1 1 0 14430.6328 93210.7422)" class="st6 st4 st5">PRB_GND</text>
		</g>
	</g>
	<path class="st7" d="M85.7,31.2v-2.8h1.1l0.3,0.1l0.1,0.1l0.1,0.3v0.4l-0.1,0.3l-0.1,0.1l-0.3,0.1h-1.1"/>
	<path class="st7" d="M90.2,31.2l-1-1.3"/>
	<path class="st7" d="M88.6,31.2v-2.8h1.1l0.3,0.1l0.1,0.1l0.1,0.3v0.4l-0.1,0.3l-0.1,0.1l-0.3,0.1h-1.1"/>
	<path class="st7" d="M92.3,29.7l0.4,0.1l0.1,0.1l0.1,0.3v0.4L92.9,31l-0.1,0.1l-0.3,0.1h-1.1v-2.8h1l0.3,0.1l0.1,0.1l0.1,0.3v0.3
		l-0.1,0.3l-0.1,0.1L92.3,29.7h-1"/>
	<path class="st7" d="M93.6,31.5h2.2"/>
	<path class="st7" d="M97.9,28.5l-0.3-0.1h-0.4l-0.4,0.1l-0.3,0.3l-0.1,0.3l-0.1,0.5V30l0.1,0.5l0.1,0.3l0.3,0.3l0.4,0.1h0.3
		l0.4-0.1L98,31v-1h-0.5"/>
	<path class="st7" d="M99.2,31.2v-2.8l1.6,2.8v-2.8"/>
	<path class="st7" d="M102.2,31.2v-2.8h0.7l0.4,0.1l0.3,0.3l0.1,0.3l0.1,0.5V30l-0.1,0.5l-0.1,0.3l-0.3,0.3l-0.4,0.1H102.2"/>
	<g transform="rotate(-270 52844.5 39448.8)">
		<g class="st2">
			<rect x="13429.2" y="92189.8" class="st3" width="7.8" height="5.3"/>
			<text transform="matrix(0 -1 1 0 13433.6641 92196.3359)" class="st4 st5">PRB</text>
		</g>
		<g class="st2">
			<rect x="13429.2" y="92189.8" class="st3" width="7.8" height="5.3"/>
			<text transform="matrix(0 -1 1 0 13433.6621 92196.3359)" class="st6 st4 st5">PRB</text>
		</g>
	</g>
	<path class="st7" d="M96.5,38.4v-2.8h1.1l0.3,0.1l0.1,0.1l0.1,0.3v0.4L98,36.8L97.9,37l-0.3,0.1h-1.1"/>
	<path class="st7" d="M101,38.4l-0.9-1.3"/>
	<path class="st7" d="M99.4,38.4v-2.8h1.1l0.3,0.1l0.1,0.1l0.1,0.3v0.4l-0.1,0.3l-0.1,0.1l-0.3,0.1h-1.1"/>
	<path class="st7" d="M103.1,37l0.4,0.1l0.1,0.1l0.1,0.3v0.4l-0.1,0.3l-0.1,0.1l-0.3,0.1h-1.1v-2.8h0.9l0.3,0.1l0.1,0.1l0.1,0.3v0.3
		l-0.1,0.3l-0.1,0.1L103.1,37h-0.9"/>
</g>
<g>
	<g transform="rotate(-270 53993.7 41939)">
		<g class="st2">
			<rect x="12082" y="95807.5" class="st3" width="3.1" height="5.1"/>
			<text transform="matrix(0 -1 1 0 12083.6221 95811.6094)" class="st4 st8">1</text>
		</g>
		<g class="st2">
			<rect x="12082" y="95807.5" class="st3" width="3.1" height="5.1"/>
			<text transform="matrix(0 -1 1 0 12083.6191 95811.6094)" class="st6 st4 st8">1</text>
		</g>
	</g>
	<path class="st7" d="M122.2,29.9h-1.3"/>
	<path class="st7" d="M121.6,29.9v-2.3l-0.2,0.3l-0.2,0.2l-0.2,0.1"/>
	<path class="st7" d="M124.4,29.9h-1.3"/>
	<path class="st7" d="M123.7,29.9v-2.3l-0.2,0.3l-0.2,0.2l-0.2,0.1"/>
	<g transform="rotate(-270 52418.9 41939)">
		<g class="st2">
			<rect x="10519" y="94232.2" class="st3" width="1.7" height="6.2"/>
			<text transform="matrix(0 -1 1 0 10519.3828 94236.0781)" class="st4 st8">9</text>
		</g>
		<g class="st2">
			<rect x="10519" y="94232.2" class="st3" width="1.7" height="6.2"/>
			<text transform="matrix(0 -1 1 0 10519.3789 94236.0781)" class="st6 st4 st8">9</text>
		</g>
	</g>
	<path class="st7" d="M122.2,41.3h0.4l0.2-0.1L123,41l0.2-0.3l0.1-0.4v-0.9l-0.1-0.2l-0.1-0.1l-0.2-0.1h-0.4l-0.2,0.1l-0.1,0.1
		l-0.1,0.2V40l0.1,0.2l0.1,0.1l0.2,0.1h0.4l0.2-0.1l0.1-0.1l0.1-0.2"/>
	<g transform="rotate(-270 54781.1 41939)">
		<g class="st2">
			<rect x="12863.6" y="96594.8" class="st3" width="3.4" height="5.4"/>
			<text transform="matrix(0 -1 1 0 12865.1465 96599.125)" class="st4 st8">12</text>
		</g>
		<g class="st2">
			<rect x="12863.6" y="96594.8" class="st3" width="3.4" height="5.4"/>
			<text transform="matrix(0 -1 1 0 12865.1445 96599.125)" class="st6 st4 st8">12</text>
		</g>
	</g>
	<path class="st7" d="M122.2,24.2h-1.3"/>
	<path class="st7" d="M121.6,24.2V22l-0.2,0.3l-0.2,0.2l-0.2,0.1"/>
	<path class="st7" d="M123.1,22.2l0.1-0.1l0.2-0.1h0.5l0.2,0.1l0.1,0.1l0.1,0.2v0.2l-0.1,0.3l-1.3,1.3h1.4"/>
	<g transform="rotate(-270 51631.5 41939)">
		<g class="st2">
			<rect x="9737.3" y="93444.8" class="st3" width="1.7" height="6.2"/>
			<text transform="matrix(0 -1 1 0 9737.6543 93448.6797)" class="st4 st8">8</text>
		</g>
		<g class="st2">
			<rect x="9737.3" y="93444.8" class="st3" width="1.7" height="6.2"/>
			<text transform="matrix(0 -1 1 0 9737.6504 93448.6797)" class="st6 st4 st8">8</text>
		</g>
	</g>
	<path class="st7" d="M122.4,45.6l-0.2-0.1l-0.1-0.1l-0.1-0.2v-0.1l0.1-0.2l0.1-0.1l0.2-0.1h0.4l0.2,0.1l0.1,0.1l0.1,0.2v0.1
		l-0.1,0.2l-0.1,0.1l-0.2,0.1H122.4l-0.2,0.1l-0.1,0.1l-0.1,0.2v0.4l0.1,0.2l0.1,0.1l0.2,0.1h0.4l0.2-0.1l0.1-0.1l0.1-0.2v-0.4
		l-0.1-0.2l-0.1-0.1l-0.2-0.1"/>
	<g transform="rotate(-270 50844.1 41929.1)">
		<g class="st2">
			<rect x="8965.5" y="92647.5" class="st3" width="1.7" height="6.2"/>
			<text transform="matrix(0 -1 1 0 8965.8232 92651.4531)" class="st4 st8">7</text>
		</g>
		<g class="st2">
			<rect x="8965.5" y="92647.5" class="st3" width="1.7" height="6.2"/>
			<text transform="matrix(0 -1 1 0 8965.8203 92651.4531)" class="st6 st4 st8">7</text>
		</g>
	</g>
	<path class="st7" d="M121.8,50.3h1.5l-1,2.3"/>
	<g transform="rotate(-270 53206.3 41939)">
		<g class="st2">
			<rect x="11300.1" y="95019.9" class="st3" width="3.4" height="5.4"/>
			<text transform="matrix(0 -1 1 0 11301.6846 95024.3203)" class="st4 st8">10</text>
		</g>
		<g class="st2">
			<rect x="11300.1" y="95019.9" class="st3" width="3.4" height="5.4"/>
			<text transform="matrix(0 -1 1 0 11301.6816 95024.3203)" class="st6 st4 st8">10</text>
		</g>
	</g>
	<path class="st7" d="M122.2,35.6h-1.3"/>
	<path class="st7" d="M121.6,35.6v-2.3l-0.2,0.3l-0.2,0.2l-0.2,0.1"/>
	<path class="st7" d="M123.6,33.3h0.2l0.2,0.1l0.1,0.1l0.1,0.2l0.1,0.4v0.5l-0.1,0.4l-0.1,0.2l-0.1,0.1l-0.2,0.1h-0.2l-0.2-0.1
		l-0.1-0.1l-0.1-0.2l-0.1-0.4v-0.5l0.1-0.4l0.1-0.2l0.1-0.1L123.6,33.3"/>
	<g transform="rotate(-270 54781.1 29685)">
		<g class="st2">
			<rect x="25118.2" y="84428.6" class="st3" width="1.7" height="6.2"/>
			<text transform="matrix(0 -1 1 0 25118.5781 84432.5078)" class="st4 st8">6</text>
		</g>
		<g class="st2">
			<rect x="25118.2" y="84428.6" class="st3" width="1.7" height="6.2"/>
			<text transform="matrix(0 -1 1 0 25118.5742 84432.5156)" class="st6 st4 st8">6</text>
		</g>
	</g>
	<path class="st7" d="M34.9,22h-0.4l-0.2,0.1l-0.1,0.1l-0.2,0.3L33.8,23v0.9l0.1,0.2l0.1,0.1l0.2,0.1h0.4l0.2-0.1L35,24l0.1-0.2
		v-0.5L35,23.1L34.9,23l-0.2-0.1h-0.4L34,23l-0.1,0.1l-0.1,0.2"/>
	<g transform="rotate(-270 53993.7 29685)">
		<g class="st2">
			<rect x="24336.5" y="83641.2" class="st3" width="1.7" height="6.2"/>
			<text transform="matrix(0 -1 1 0 24336.8457 83645.1094)" class="st4 st8">5</text>
		</g>
		<g class="st2">
			<rect x="24336.5" y="83641.2" class="st3" width="1.7" height="6.2"/>
			<text transform="matrix(0 -1 1 0 24336.8418 83645.1172)" class="st6 st4 st8">5</text>
		</g>
	</g>
	<path class="st7" d="M35,27.6h-1.1l-0.1,1.1l0.1-0.1l0.2-0.1h0.5l0.2,0.1l0.1,0.1l0.1,0.2v0.5L35,29.7l-0.1,0.1l-0.2,0.1h-0.5
		l-0.2-0.1l-0.1-0.1"/>
	<g transform="rotate(-270 53206.3 29685)">
		<g class="st2">
			<rect x="23554.8" y="82853.8" class="st3" width="1.7" height="6.2"/>
			<text transform="matrix(0 -1 1 0 23555.1152 82857.7031)" class="st4 st8">4</text>
		</g>
		<g class="st2">
			<rect x="23554.8" y="82853.8" class="st3" width="1.7" height="6.2"/>
			<text transform="matrix(0 -1 1 0 23555.1133 82857.7109)" class="st6 st4 st8">4</text>
		</g>
	</g>
	<path class="st7" d="M34.9,34.1v1.5"/>
	<path class="st7" d="M34.3,33.2l-0.5,1.6h1.4"/>
	<g transform="rotate(-270 52418.9 29685)">
		<g class="st2">
			<rect x="22773" y="82066.4" class="st3" width="1.7" height="6.2"/>
			<text transform="matrix(0 -1 1 0 22773.3828 82070.3047)" class="st4 st8">3</text>
		</g>
		<g class="st2">
			<rect x="22773" y="82066.4" class="st3" width="1.7" height="6.2"/>
			<text transform="matrix(0 -1 1 0 22773.3789 82070.3125)" class="st6 st4 st8">3</text>
		</g>
	</g>
	<path class="st7" d="M33.7,39h1.4l-0.8,0.9h0.3l0.2,0.1l0.1,0.1l0.1,0.2v0.5L35,41l-0.1,0.1l-0.2,0.1H34l-0.2-0.1L33.7,41"/>
	<g transform="rotate(-270 51631.5 29685)">
		<g class="st2">
			<rect x="21991.3" y="81279" class="st3" width="1.7" height="6.2"/>
			<text transform="matrix(0 -1 1 0 21991.6543 81282.9062)" class="st4 st8">2</text>
		</g>
		<g class="st2">
			<rect x="21991.3" y="81279" class="st3" width="1.7" height="6.2"/>
			<text transform="matrix(0 -1 1 0 21991.6504 81282.9141)" class="st6 st4 st8">2</text>
		</g>
	</g>
	<path class="st7" d="M33.8,44.9l0.1-0.1l0.2-0.1h0.5l0.2,0.1l0.1,0.1l0.1,0.2v0.2L35,45.6l-1.3,1.3h1.4"/>
	<g transform="rotate(-270 50844.1 29685)">
		<g class="st2">
			<rect x="21209.6" y="80491.6" class="st3" width="1.7" height="6.2"/>
			<text transform="matrix(0 -1 1 0 21209.9238 80495.5078)" class="st4 st8">1</text>
		</g>
		<g class="st2">
			<rect x="21209.6" y="80491.6" class="st3" width="1.7" height="6.2"/>
			<text transform="matrix(0 -1 1 0 21209.9219 80495.5156)" class="st6 st4 st8">1</text>
		</g>
	</g>
	<path class="st7" d="M35.1,52.6h-1.3"/>
	<path class="st7" d="M34.4,52.6v-2.3l-0.2,0.3L34,50.9L33.8,51"/>
	<g transform="rotate(-270 54055.1 45175.7)">
		<g class="st2">
			<rect x="8899" y="99091.5" class="st3" width="18.3" height="4.9"/>
			<text transform="matrix(0 -1 1 0 8908.9502 99103.1016)" class="st4 st5">PRB_GND</text>
		</g>
		<g class="st2">
			<rect x="8899" y="99091.5" class="st3" width="18.3" height="4.9"/>
			<text transform="matrix(0 -1 1 0 8908.9473 99103.1016)" class="st6 st4 st5">PRB_GND</text>
		</g>
	</g>
	<path class="st7" d="M127,29.7v-2.8h1.1l0.3,0.1l0.1,0.1l0.1,0.3v0.4l-0.1,0.3l-0.1,0.1l-0.3,0.1H127"/>
	<path class="st7" d="M131.4,29.7l-0.9-1.3"/>
	<path class="st7" d="M129.8,29.7v-2.8h1.1l0.3,0.1l0.1,0.1l0.1,0.3v0.4l-0.1,0.3l-0.1,0.1l-0.3,0.1h-1.1"/>
	<path class="st7" d="M133.6,28.2l0.4,0.1l0.1,0.1l0.1,0.3v0.4l-0.1,0.3l-0.1,0.1l-0.3,0.1h-1.1v-2.8h0.9l0.3,0.1l0.1,0.1l0.1,0.3
		v0.3L134,28l-0.1,0.1L133.6,28.2h-0.9"/>
	<path class="st7" d="M134.8,30h2.2"/>
	<path class="st7" d="M139.1,27l-0.3-0.1h-0.4L138,27l-0.3,0.3l-0.1,0.3l-0.1,0.5v0.4l0.1,0.5l0.1,0.3l0.3,0.3l0.4,0.1h0.3l0.4-0.1
		l0.1-0.1v-0.9h-0.5"/>
	<path class="st7" d="M140.5,29.7v-2.8l1.6,2.8v-2.8"/>
	<path class="st7" d="M143.4,29.7v-2.8h0.7l0.4,0.1l0.3,0.3l0.1,0.3l0.1,0.5v0.4l-0.1,0.5l-0.1,0.3l-0.3,0.3l-0.4,0.1H143.4"/>
	<g transform="rotate(-270 53267.7 43675.9)">
		<g class="st2">
			<rect x="9622.2" y="96809.7" class="st3" width="7.8" height="5.3"/>
			<text transform="matrix(0 -1 1 0 9626.7188 96816.1953)" class="st4 st5">PRB</text>
		</g>
		<g class="st2">
			<rect x="9622.2" y="96809.7" class="st3" width="7.8" height="5.3"/>
			<text transform="matrix(0 -1 1 0 9626.7158 96816.2031)" class="st6 st4 st5">PRB</text>
		</g>
	</g>
	<path class="st7" d="M127,35.4v-2.8h1.1l0.3,0.1l0.1,0.1l0.1,0.3v0.4l-0.1,0.3l-0.1,0.1L128,34H127"/>
	<path class="st7" d="M131.4,35.4l-0.9-1.4"/>
	<path class="st7" d="M129.8,35.4v-2.8h1.1l0.3,0.1l0.1,0.1l0.1,0.3v0.4l-0.1,0.3l-0.1,0.1l-0.3,0.1h-1.1"/>
	<path class="st7" d="M133.6,33.9L134,34l0.1,0.1l0.1,0.3v0.4l-0.1,0.3l-0.1,0.1l-0.3,0.1h-1.1v-2.8h0.9l0.3,0.1l0.1,0.1l0.1,0.3
		v0.3l-0.1,0.3l-0.1,0.1L133.6,33.9h-0.9"/>
	<g transform="rotate(-270 51692.9 44969.4)">
		<g class="st2">
			<rect x="6760.8" y="96523.9" class="st3" width="17" height="4.9"/>
			<text transform="matrix(0 -1 1 0 6770.0762 96534.8281)" class="st4 st5">GND_ISO</text>
		</g>
		<g class="st2">
			<rect x="6760.8" y="96523.9" class="st3" width="17" height="4.9"/>
			<text transform="matrix(0 -1 1 0 6770.0742 96534.8281)" class="st6 st4 st5">GND_ISO</text>
		</g>
	</g>
	<path class="st7" d="M128.4,44l-0.3-0.1h-0.4l-0.4,0.1l-0.3,0.3l-0.1,0.3l-0.1,0.5v0.4l0.1,0.5l0.1,0.3l0.3,0.3l0.4,0.1h0.3
		l0.4-0.1l0.1-0.1v-0.9H128"/>
	<path class="st7" d="M129.8,46.7v-2.8l1.6,2.8v-2.8"/>
	<path class="st7" d="M132.8,46.7v-2.8h0.7l0.4,0.1l0.3,0.3l0.1,0.3l0.1,0.5v0.4l-0.1,0.5l-0.1,0.3l-0.3,0.3l-0.4,0.1H132.8"/>
	<path class="st7" d="M134.9,47h2.2"/>
	<path class="st7" d="M137.8,46.7v-2.8"/>
	<path class="st7" d="M139,46.6l0.4,0.1h0.7l0.3-0.1l0.1-0.1l0.1-0.3v-0.3l-0.1-0.3l-0.1-0.1l-0.3-0.1l-0.5-0.1l-0.3-0.1l-0.1-0.1
		l-0.1-0.3v-0.3l0.1-0.3l0.1-0.1l0.3-0.1h0.7l0.4,0.1"/>
	<path class="st7" d="M142.4,43.9h0.5l0.3,0.1l0.3,0.3l0.1,0.5v0.9l-0.1,0.5l-0.3,0.3l-0.3,0.1h-0.5l-0.3-0.1l-0.3-0.3l-0.1-0.5
		v-0.9l0.1-0.5l0.3-0.3L142.4,43.9"/>
	<g transform="rotate(-270 52480.3 45475.6)">
		<g class="st2">
			<rect x="7035.1" y="97814.9" class="st3" width="19.3" height="5.1"/>
			<text transform="matrix(0 -1 1 0 7045.417 97827.1016)" class="st4 st5">PRB _GND</text>
		</g>
		<g class="st2">
			<rect x="7035.1" y="97814.9" class="st3" width="19.3" height="5.1"/>
			<text transform="matrix(0 -1 1 0 7045.4141 97827.1094)" class="st6 st4 st5">PRB _GND</text>
		</g>
	</g>
	<path class="st7" d="M127,41.1v-2.8h1.1l0.3,0.1l0.1,0.1l0.1,0.3v0.4l-0.1,0.3l-0.1,0.1l-0.3,0.1H127"/>
	<path class="st7" d="M131.4,41.1l-0.9-1.3"/>
	<path class="st7" d="M129.8,41.1v-2.8h1.1l0.3,0.1l0.1,0.1l0.1,0.3v0.4l-0.1,0.3l-0.1,0.1l-0.3,0.1h-1.1"/>
	<path class="st7" d="M133.6,39.6l0.4,0.1l0.1,0.1l0.1,0.3v0.4l-0.1,0.3l-0.1,0.1l-0.3,0.1h-1.1v-2.8h0.9l0.3,0.1l0.1,0.1l0.1,0.3
		V39l-0.1,0.3l-0.1,0.1L133.6,39.6h-0.9"/>
	<path class="st7" d="M137,41.3h2.2"/>
	<path class="st7" d="M141.3,38.4l-0.3-0.1h-0.4l-0.4,0.1l-0.3,0.3l-0.1,0.3l-0.1,0.5v0.4l0.1,0.5l0.1,0.3l0.3,0.3l0.4,0.1h0.3
		l0.4-0.1l0.1-0.1v-0.9h-0.5"/>
	<path class="st7" d="M142.6,41.1v-2.8l1.6,2.8v-2.8"/>
	<path class="st7" d="M145.6,41.1v-2.8h0.7l0.4,0.1l0.3,0.3l0.1,0.3l0.1,0.5v0.4l-0.1,0.5l-0.1,0.3l-0.3,0.3l-0.4,0.1H145.6"/>
	<g transform="rotate(-270 54842.5 43300.9)">
		<g class="st2">
			<rect x="11561.9" y="98011" class="st3" width="5.5" height="5.4"/>
			<text transform="matrix(0 -1 1 0 11565.1514 98016.3906)" class="st4 st5">NC</text>
		</g>
		<g class="st2">
			<rect x="11561.9" y="98011" class="st3" width="5.5" height="5.4"/>
			<text transform="matrix(0 -1 1 0 11565.1484 98016.3906)" class="st6 st4 st5">NC</text>
		</g>
	</g>
	<path class="st7" d="M127,24.1v-2.8l1.6,2.8v-2.8"/>
	<path class="st7" d="M131.6,23.8l-0.1,0.1l-0.4,0.1h-0.3l-0.4-0.1l-0.3-0.3l-0.1-0.3l-0.1-0.5v-0.4l0.1-0.5l0.1-0.3l0.3-0.3
		l0.4-0.1h0.3l0.4,0.1l0.1,0.1"/>
	<g transform="rotate(-270 50905.5 43807.1)">
		<g class="st2">
			<rect x="7145.3" y="94578.5" class="st3" width="9" height="5"/>
			<text transform="matrix(0 -1 1 0 7150.5225 94585.5234)" class="st4 st5">VISO</text>
		</g>
		<g class="st2">
			<rect x="7145.3" y="94578.5" class="st3" width="9" height="5"/>
			<text transform="matrix(0 -1 1 0 7150.5205 94585.5234)" class="st6 st4 st5">VISO</text>
		</g>
	</g>
	<path class="st7" d="M126.6,49.6l0.9,2.8l0.9-2.8"/>
	<path class="st7" d="M129.4,52.4v-2.8"/>
	<path class="st7" d="M130.6,52.3l0.4,0.1h0.7l0.3-0.1l0.1-0.1l0.1-0.3v-0.3l-0.1-0.3l-0.1-0.1l-0.3-0.1l-0.5-0.1l-0.3-0.1l-0.1-0.1
		l-0.1-0.3v-0.3l0.1-0.3l0.1-0.1l0.3-0.1h0.7l0.4,0.1"/>
	<path class="st7" d="M134,49.6h0.5l0.3,0.1l0.3,0.3l0.1,0.5v0.9l-0.1,0.5l-0.3,0.3l-0.3,0.1H134l-0.3-0.1l-0.3-0.3l-0.1-0.5v-0.9
		l0.1-0.5l0.3-0.3L134,49.6"/>
	<g transform="rotate(-270 54842.5 28224)">
		<g class="st2">
			<rect x="26637.9" y="83036.3" class="st3" width="7.2" height="5.3"/>
			<text transform="matrix(0 -1 1 0 26642.0859 83042.5859)"><tspan x="0" y="0" class="st4 st5 st9">S</tspan><tspan x="4.5" y="0" class="st4 st5">C</tspan></text>
		</g>
		<g class="st2">
			<rect x="26637.9" y="83036.3" class="st3" width="7.2" height="5.3"/>
			<text transform="matrix(0 -1 1 0 26642.084 83042.5859)"><tspan x="0" y="0" class="st6 st4 st5 st9">S</tspan><tspan x="4.5" y="0" class="st6 st4 st5">C</tspan></text>
		</g>
	</g>
	<path class="st7" d="M24.8,23.9l0.4,0.1h0.7l0.3-0.1l0.1-0.1l0.1-0.3v-0.3L26.3,23l-0.1-0.1l-0.3-0.1l-0.5-0.1l-0.3-0.1l-0.1-0.1
		L24.8,22v-0.3l0.1-0.3l0.1-0.1l0.3-0.1H26l0.4,0.1"/>
	<path class="st7" d="M29.3,23.8l-0.1,0.1l-0.4,0.1h-0.3l-0.4-0.1l-0.3-0.3l-0.1-0.3l-0.1-0.5v-0.4l0.1-0.5l0.1-0.3l0.3-0.3l0.4-0.1
		h0.3l0.4,0.1l0.1,0.1"/>
	<path class="st7" d="M31.8,24.1h-1.4v-2.8"/>
	<g transform="rotate(-270 54055.1 28205.3)">
		<g class="st2">
			<rect x="25874.6" y="82230.2" class="st3" width="7.8" height="5"/>
			<text transform="matrix(0 -1 1 0 25879.2773 82236.625)" class="st4 st5">SDA</text>
		</g>
		<g class="st2">
			<rect x="25874.6" y="82230.2" class="st3" width="7.8" height="5"/>
			<text transform="matrix(0 -1 1 0 25879.2754 82236.6328)"><tspan x="0" y="0" class="st6 st4 st5">SD</tspan><tspan x="5.3" y="0" class="st6 st4 st5">A</tspan></text>
		</g>
	</g>
	<path class="st7" d="M24.7,29.6l0.4,0.1h0.7l0.3-0.1l0.1-0.1l0.1-0.3v-0.3l-0.1-0.3L26,28.5l-0.3-0.1l-0.5-0.1l-0.3-0.1L24.8,28
		l-0.1-0.3v-0.3l0.1-0.3l0.1-0.1l0.3-0.1h0.7l0.4,0.1"/>
	<path class="st7" d="M27.5,29.7v-2.8h0.7l0.4,0.1l0.3,0.3l0.1,0.3l0.1,0.5v0.4L29,29.1l-0.1,0.3l-0.3,0.3l-0.4,0.1H27.5"/>
	<path class="st7" d="M30.2,28.9h1.3"/>
	<path class="st7" d="M29.9,29.7l0.9-2.8l1,2.8"/>
	<g transform="rotate(-270 53267.7 27136.7)">
		<g class="st2">
			<rect x="26158" y="80378.4" class="st3" width="14.9" height="4.9"/>
			<text transform="matrix(0 -1 1 0 26166.209 80388.3125)" class="st4 st5">ENABLE</text>
		</g>
		<g class="st2">
			<rect x="26158" y="80378.4" class="st3" width="14.9" height="4.9"/>
			<text transform="matrix(0 -1 1 0 26166.207 80388.3125)" class="st6 st4 st5">ENABLE</text>
		</g>
	</g>
	<path class="st7" d="M17.1,33.9h0.9"/>
	<path class="st7" d="M18.5,35.4h-1.4v-2.8h1.4"/>
	<path class="st7" d="M19.7,35.4v-2.8l1.6,2.8v-2.8"/>
	<path class="st7" d="M22.5,34.6h1.3"/>
	<path class="st7" d="M22.3,35.4l0.9-2.8l0.9,2.8"/>
	<path class="st7" d="M26,33.9l0.4,0.1l0.1,0.1l0.1,0.3v0.4l-0.1,0.3l-0.1,0.1l-0.3,0.1h-1.1v-2.8H26l0.3,0.1l0.1,0.1l0.1,0.3v0.3
		l-0.1,0.3l-0.1,0.1L26,33.9h-0.9"/>
	<path class="st7" d="M29.3,35.4h-1.3v-2.8"/>
	<path class="st7" d="M30.2,33.9h0.9"/>
	<path class="st7" d="M31.6,35.4h-1.3v-2.8h1.3"/>
	<g transform="rotate(-270 52480.3 28111.5)">
		<g class="st2">
			<rect x="24404.7" y="80562" class="st3" width="8.4" height="5"/>
			<text transform="matrix(0 -1 1 0 24409.625 80568.6953)" class="st4 st5">GND</text>
		</g>
		<g class="st2">
			<rect x="24404.7" y="80562" class="st3" width="8.4" height="5"/>
			<text transform="matrix(0 -1 1 0 24409.6211 80568.6953)" class="st6 st4 st5">GND</text>
		</g>
	</g>
	<path class="st7" d="M25.6,38.4l-0.3-0.1h-0.4l-0.4,0.1l-0.3,0.3l-0.1,0.3L24,39.4v0.4l0.1,0.5l0.1,0.3l0.3,0.3l0.4,0.1h0.3
		l0.4-0.1l0.1-0.1v-0.9h-0.5"/>
	<path class="st7" d="M27,41.1v-2.8l1.6,2.8v-2.8"/>
	<path class="st7" d="M29.9,41.1v-2.8h0.7l0.4,0.1l0.3,0.3l0.1,0.3l0.1,0.5v0.4l-0.1,0.5l-0.1,0.3L31,40.9l-0.4,0.1H29.9"/>
	<g transform="rotate(-270 51692.9 28017.8)">
		<g class="st2">
			<rect x="23716.3" y="79681.3" class="st3" width="9" height="5"/>
			<text transform="matrix(0 -1 1 0 23721.6016 79688.2734)" class="st4 st5">VSIG</text>
		</g>
		<g class="st2">
			<rect x="23716.3" y="79681.3" class="st3" width="9" height="5"/>
			<text transform="matrix(0 -1 1 0 23721.5996 79688.2734)" class="st6 st4 st5">VSIG</text>
		</g>
	</g>
	<path class="st7" d="M23.1,43.9l0.9,2.8l0.9-2.8"/>
	<path class="st7" d="M25.8,46.6l0.4,0.1h0.7l0.3-0.1l0.1-0.1l0.1-0.3v-0.3l-0.1-0.3l-0.1-0.1l-0.3-0.1l-0.5-0.1L26,45.1L25.9,45
		l-0.1-0.3v-0.3l0.1-0.3L26,44l0.3-0.1H27l0.4,0.1"/>
	<path class="st7" d="M28.6,46.7v-2.8"/>
	<path class="st7" d="M31.4,44l-0.3-0.1h-0.4L30.3,44l-0.3,0.3l-0.1,0.3l-0.1,0.5v0.4l0.1,0.5l0.1,0.3l0.3,0.3l0.4,0.1H31l0.4-0.1
		l0.1-0.1v-0.9H31"/>
	<g transform="rotate(-270 50905.5 28374)">
		<g class="st2">
			<rect x="22579.7" y="79248.7" class="st3" width="6.3" height="5.3"/>
			<text transform="matrix(0 -1 1 0 22583.4297 79254.5078)" class="st4 st5">VIN</text>
		</g>
		<g class="st2">
			<rect x="22579.7" y="79248.7" class="st3" width="6.3" height="5.3"/>
			<text transform="matrix(0 -1 1 0 22583.4258 79254.5078)" class="st6 st4 st5">VIN</text>
		</g>
	</g>
	<path class="st7" d="M25.6,49.6l0.9,2.8l1-2.8"/>
	<path class="st7" d="M28.5,52.4v-2.8"/>
	<path class="st7" d="M29.8,52.4v-2.8l1.6,2.8v-2.8"/>
</g>
<g>
	<path class="st10" d="M105.2,47.9V26.3"/>
	<path class="st10" d="M112.2,47.9V26.3"/>
	<path class="st10" d="M105.2,47.9h7.1"/>
	<path class="st10" d="M105.2,26.3h7.1"/>
	<path class="st10" d="M54.8,26.3h7.1"/>
	<path class="st10" d="M54.8,47.9h7.1"/>
	<path class="st10" d="M61.8,47.9V26.3"/>
	<path class="st10" d="M54.8,47.9V26.3"/>
</g>
<g>
	<path class="st11" d="M120.2,21.6c-0.7,0.3-1,1.2-0.7,1.9c0.1,0.3,0.4,0.6,0.7,0.7"/>
	<path class="st11" d="M120.2,27.3c-0.7,0.3-1,1.2-0.7,1.9c0.1,0.3,0.4,0.6,0.7,0.7"/>
	<path class="st11" d="M120.2,33c-0.7,0.3-1,1.2-0.7,1.9c0.1,0.3,0.4,0.6,0.7,0.7"/>
	<path class="st11" d="M120.2,38.7c-0.7,0.3-1,1.2-0.7,1.9c0.1,0.3,0.4,0.6,0.7,0.7"/>
	<path class="st11" d="M120.2,44.3c-0.7,0.3-1,1.2-0.7,1.9c0.1,0.3,0.4,0.6,0.7,0.7"/>
	<path class="st11" d="M120.2,50c-0.7,0.3-1,1.2-0.7,1.9c0.1,0.3,0.4,0.6,0.7,0.7"/>
	<path class="st11" d="M36.7,50v-3.1"/>
	<path class="st11" d="M36.7,24.3c0.7-0.3,1-1.2,0.7-1.9c-0.1-0.3-0.4-0.6-0.7-0.7"/>
	<path class="st11" d="M36.7,29.9c0.7-0.3,1-1.2,0.7-1.9c-0.1-0.3-0.4-0.6-0.7-0.7"/>
	<path class="st11" d="M36.7,35.6c0.7-0.3,1-1.2,0.7-1.9c-0.1-0.3-0.4-0.6-0.7-0.7"/>
	<path class="st11" d="M36.7,41.3c0.7-0.3,1-1.2,0.7-1.9c-0.1-0.3-0.4-0.6-0.7-0.7"/>
	<path class="st11" d="M36.7,46.9c0.7-0.3,1-1.2,0.7-1.9c-0.1-0.3-0.4-0.6-0.7-0.7"/>
	<path class="st11" d="M36.7,54.8v-2.2"/>
	<path class="st11" d="M36.7,52.6c0.7-0.3,1-1.2,0.7-1.9c-0.1-0.3-0.4-0.6-0.7-0.7"/>
	<path class="st11" d="M117.4,57.6H39.5"/>
	<path class="st11" d="M120.2,54.8v-2.2"/>
	<path class="st11" d="M120.2,38.7l0-3.1"/>
	<path class="st11" d="M120.2,46.9V50"/>
	<path class="st11" d="M120.2,21.7l0-2.2"/>
	<path class="st11" d="M120.2,24.3v3.1"/>
	<path class="st11" d="M120.2,44.3l0-3.1"/>
	<path class="st11" d="M120.2,29.9l0,3.1"/>
	<path class="st11" d="M36.7,27.3v-3.1"/>
	<path class="st11" d="M36.7,33v-3.1"/>
	<path class="st11" d="M36.7,38.7v-3.1"/>
	<path class="st11" d="M36.7,44.3v-3.1"/>
	<path class="st11" d="M120.2,19.4c0-1.6-1.3-2.8-2.8-2.8"/>
	<path class="st11" d="M117.4,57.6c1.6,0,2.8-1.3,2.8-2.8"/>
	<path class="st11" d="M36.7,54.8c0,1.6,1.3,2.8,2.8,2.8"/>
	<path class="st11" d="M39.5,16.6h77.9"/>
	<path class="st11" d="M36.7,21.7l0-2.2"/>
	<path class="st11" d="M39.5,16.6c-1.6,0-2.8,1.3-2.8,2.8"/>
</g>
</svg>
