<?xml version="1.0" encoding="utf-8"?>
<!-- Generator: Adobe Illustrator 26.0.1, SVG Export Plug-In . SVG Version: 6.00 Build 0)  -->
<svg version="1.1" id="Layer_1" xmlns:svg="http://www.w3.org/2000/svg"
	 xmlns="http://www.w3.org/2000/svg" xmlns:xlink="http://www.w3.org/1999/xlink" x="0px" y="0px" viewBox="0 0 337 204"
	 style="enable-background:new 0 0 337 204;" xml:space="preserve">
<style type="text/css">
	.st0{fill-opacity:0;stroke:#000000;stroke-width:0.432;stroke-linecap:round;stroke-linejoin:round;stroke-miterlimit:10;}
	.st1{opacity:0;enable-background:new    ;}
	.st2{fill:none;}
	.st3{font-family:'ArialMT';}
	.st4{font-size:4.752px;}
	.st5{fill:none;stroke:#000000;stroke-width:0.432;stroke-linecap:round;stroke-linejoin:round;}
	.st6{letter-spacing:1;}
	.st7{letter-spacing:6;}
	.st8{fill-opacity:0;stroke:#000000;stroke-width:0.576;stroke-linecap:round;stroke-linejoin:round;stroke-miterlimit:10;}
	.st9{fill-opacity:0;stroke:#000000;stroke-width:0.864;stroke-linecap:round;stroke-linejoin:round;stroke-miterlimit:10;}
	.st10{font-size:8.639999e-02px;}
	.st11{fill-opacity:0;}
	
		.st12{fill-rule:evenodd;clip-rule:evenodd;stroke:#000000;stroke-width:0.432;stroke-linecap:round;stroke-linejoin:round;stroke-miterlimit:10;}
	.st13{fill-opacity:0;stroke:#000000;stroke-width:0.72;stroke-linecap:round;stroke-linejoin:round;stroke-miterlimit:10;}
	.st14{fill:none;stroke:#000000;stroke-width:0.576;stroke-linecap:round;stroke-linejoin:round;stroke-miterlimit:10;}
	.st15{fill:none;stroke:#000000;stroke-width:0.432;stroke-linecap:round;stroke-linejoin:round;stroke-miterlimit:10;}
	
		.st16{fill-rule:evenodd;clip-rule:evenodd;stroke:#000000;stroke-width:0.576;stroke-linecap:round;stroke-linejoin:round;stroke-miterlimit:10;}
	.st17{fill:none;stroke:#000000;stroke-width:0.72;stroke-linecap:round;stroke-linejoin:round;stroke-miterlimit:10;}
	.st18{letter-spacing:8;}
	.st19{letter-spacing:10;}
	.st20{stroke:#000000;stroke-width:0.72;stroke-linecap:round;stroke-linejoin:round;stroke-miterlimit:10;}
</style>
<desc>Picture generated by Eeschema-SVG</desc>
<g transform="translate(0 0) scale(1 1)">
</g>
<g>
	<g>
		<rect x="158" y="18.5" class="st0" width="93.6" height="86.4"/>
		<path class="st0" d="M158,97.7h-14.4"/>
		<g class="st1">
			<rect x="160.9" y="95.4" class="st2" width="9" height="5.6"/>
			<text transform="matrix(1 0 0 1 160.8799 99.5103)"><tspan x="0" y="0" class="st3 st4">VI</tspan><tspan x="5.6" y="0" class="st3 st4">N</tspan></text>
		</g>
		<g class="st1">
			<rect x="160.9" y="95.4" class="st2" width="9" height="5.6"/>
			<text transform="matrix(1 0 0 1 160.8784 99.5088)"><tspan x="0" y="0" class="st5 st3 st4">VI</tspan><tspan x="5.6" y="0" class="st5 st3 st4">N</tspan></text>
		</g>
		<path class="st0" d="M161.4,95.7l1.2,3.6l1.2-3.6"/>
		<path class="st0" d="M165,99.3v-3.6"/>
		<path class="st0" d="M166.7,99.3v-3.6l2.1,3.6v-3.6"/>
		<g class="st1">
			<rect x="149.5" y="92.9" class="st2" width="3.9" height="5.6"/>
			<text transform="matrix(1 0 0 1 149.4785 96.9902)" class="st3 st4">1</text>
		</g>
		<g class="st1">
			<rect x="149.5" y="92.9" class="st2" width="3.9" height="5.6"/>
			<text transform="matrix(1 0 0 1 149.4761 96.9888)" class="st5 st3 st4">1</text>
		</g>
		<path class="st0" d="M151.8,96.8h-2.1"/>
		<path class="st0" d="M150.8,96.8v-3.6l-0.4,0.5l-0.4,0.4l-0.4,0.1"/>
		<path class="st0" d="M251.6,54.5H266"/>
		<g class="st1">
			<rect x="238.9" y="52.2" class="st2" width="11.2" height="5.6"/>
			<text transform="matrix(1 0 0 1 238.9492 56.3105)"><tspan x="0" y="0" class="st3 st4">PR</tspan><tspan x="8.1" y="0" class="st3 st4">B</tspan></text>
		</g>
		<g class="st1">
			<rect x="238.9" y="52.2" class="st2" width="11.2" height="5.6"/>
			<text transform="matrix(1 0 0 1 238.9473 56.3086)"><tspan x="0" y="0" class="st5 st3 st4">PR</tspan><tspan x="8.1" y="0" class="st5 st3 st4">B</tspan></text>
		</g>
		<path class="st0" d="M238.5,56.1v-3.6h1.4l0.4,0.2l0.2,0.1l0.1,0.4v0.5l-0.1,0.4l-0.2,0.1l-0.4,0.1h-1.4"/>
		<path class="st0" d="M244.2,56.1l-1.2-1.7"/>
		<path class="st0" d="M242.1,56.1v-3.6h1.4l0.4,0.2l0.2,0.1l0.1,0.4v0.5l-0.1,0.4l-0.2,0.1l-0.4,0.1h-1.4"/>
		<path class="st0" d="M246.9,54.2l0.5,0.1l0.2,0.2l0.1,0.3v0.6l-0.1,0.3l-0.2,0.2l-0.4,0.1h-1.4v-3.6h1.2l0.4,0.2l0.1,0.1l0.2,0.4
			v0.3l-0.2,0.4l-0.1,0.2L246.9,54.2h-1.2"/>
		<g class="st1">
			<rect x="256.2" y="49.7" class="st2" width="7.3" height="5.6"/>
			<text transform="matrix(1 0 0 1 256.1572 53.7905)"><tspan x="0" y="0" class="st3 st4 st6">1</tspan><tspan x="4.6" y="0" class="st3 st4">0</tspan></text>
		</g>
		<g class="st1">
			<rect x="256.2" y="49.7" class="st2" width="7.3" height="5.6"/>
			<text transform="matrix(1 0 0 1 256.1553 53.7886)"><tspan x="0" y="0" class="st5 st3 st4 st6">1</tspan><tspan x="4.6" y="0" class="st5 st3 st4">0</tspan></text>
		</g>
		<path class="st0" d="M258.1,53.6H256"/>
		<path class="st0" d="M257.1,53.6V50l-0.4,0.5l-0.4,0.4L256,51"/>
		<path class="st0" d="M260.3,50h0.4l0.3,0.2l0.2,0.1l0.1,0.4l0.2,0.6v0.9l-0.2,0.7l-0.1,0.3l-0.2,0.2l-0.3,0.1h-0.4l-0.4-0.1
			l-0.1-0.2l-0.2-0.3l-0.1-0.7v-0.9l0.1-0.6l0.2-0.4l0.1-0.1L260.3,50"/>
		<path class="st0" d="M251.6,40.1H266"/>
		<g class="st1">
			<rect x="225.7" y="37.8" class="st2" width="24.9" height="5.6"/>
			<text transform="matrix(1 0 0 1 225.7461 41.9102)"><tspan x="0" y="0" class="st3 st4">PRB_GN</tspan><tspan x="21.5" y="0" class="st3 st4">D</tspan></text>
		</g>
		<g class="st1">
			<rect x="225.7" y="37.8" class="st2" width="24.9" height="5.6"/>
			<text transform="matrix(1 0 0 1 225.7451 41.9087)"><tspan x="0" y="0" class="st5 st3 st4">PRB_GN</tspan><tspan x="21.5" y="0" class="st5 st3 st4">D</tspan></text>
		</g>
		<path class="st0" d="M224.8,41.7v-3.6h1.4l0.4,0.2l0.1,0.1l0.2,0.4v0.5l-0.2,0.4l-0.1,0.1l-0.4,0.1h-1.4"/>
		<path class="st0" d="M230.5,41.7l-1.2-1.7"/>
		<path class="st0" d="M228.4,41.7v-3.6h1.4l0.4,0.2l0.1,0.1l0.2,0.4v0.5l-0.2,0.4l-0.1,0.1l-0.4,0.1h-1.4"/>
		<path class="st0" d="M233.2,39.8l0.5,0.1l0.1,0.2l0.2,0.3V41l-0.2,0.3l-0.1,0.2l-0.4,0.1H232v-3.6h1.2l0.3,0.2l0.2,0.1l0.1,0.4
			v0.3l-0.1,0.4l-0.2,0.2L233.2,39.8H232"/>
		<path class="st0" d="M234.8,42.1h2.7"/>
		<path class="st0" d="M240.2,38.3l-0.4-0.2h-0.5l-0.5,0.2l-0.4,0.3l-0.1,0.4l-0.1,0.7v0.5l0.1,0.6l0.1,0.4l0.4,0.4l0.5,0.1h0.4
			l0.5-0.1l0.2-0.2v-1.2h-0.7"/>
		<path class="st0" d="M242,41.7v-3.6l2.1,3.6v-3.6"/>
		<path class="st0" d="M245.7,41.7v-3.6h0.9l0.5,0.2l0.4,0.3l0.2,0.4l0.1,0.7v0.5l-0.1,0.6l-0.2,0.4l-0.4,0.4l-0.5,0.1H245.7"/>
		<g class="st1">
			<rect x="256.3" y="35.3" class="st2" width="7.3" height="5.6"/>
			<text transform="matrix(1 0 0 1 256.333 39.3901)"><tspan x="0" y="0" class="st3 st4 st6">1</tspan><tspan x="4.6" y="0" class="st3 st4">1</tspan></text>
		</g>
		<g class="st1">
			<rect x="256.3" y="35.3" class="st2" width="7.3" height="5.6"/>
			<text transform="matrix(1 0 0 1 256.3311 39.3887)"><tspan x="0" y="0" class="st5 st3 st4 st6">1</tspan><tspan x="4.6" y="0" class="st5 st3 st4">1</tspan></text>
		</g>
		<path class="st0" d="M258.1,39.2H256"/>
		<path class="st0" d="M257.1,39.2v-3.6l-0.4,0.5l-0.4,0.4l-0.4,0.1"/>
		<path class="st0" d="M261.5,39.2h-2.1"/>
		<path class="st0" d="M260.5,39.2v-3.6l-0.3,0.5l-0.4,0.4l-0.4,0.1"/>
		<path class="st0" d="M251.6,25.7H266"/>
		<path class="st0" d="M264.9,24.6l2.2,2.2"/>
		<path class="st0" d="M267.1,24.6l-2.2,2.2"/>
		<g class="st1">
			<rect x="239.2" y="23.4" class="st2" width="11.2" height="5.6"/>
			<text transform="matrix(1 0 0 1 239.2158 27.5103)"><tspan x="0" y="0" class="st3 st4">N.C</tspan><tspan x="9.9" y="0" class="st3 st4">.</tspan></text>
		</g>
		<g class="st1">
			<rect x="239.2" y="23.4" class="st2" width="11.2" height="5.6"/>
			<text transform="matrix(1 0 0 1 239.2139 27.5088)"><tspan x="0" y="0" class="st5 st3 st4">N.C</tspan><tspan x="9.9" y="0" class="st5 st3 st4">.</tspan></text>
		</g>
		<path class="st0" d="M238.5,27.3v-3.6l2.1,3.6v-3.6"/>
		<path class="st0" d="M242.3,26.9l0.1,0.2l-0.1,0.1l-0.2-0.1L242.3,26.9v0.4"/>
		<path class="st0" d="M246.1,26.9l-0.1,0.2l-0.5,0.1H245l-0.5-0.1l-0.4-0.4l-0.1-0.4l-0.2-0.6v-0.5l0.2-0.7l0.1-0.4l0.4-0.3
			l0.5-0.2h0.4l0.5,0.2l0.1,0.1"/>
		<path class="st0" d="M247.6,26.9l0.1,0.2l-0.1,0.1l-0.2-0.1L247.6,26.9v0.4"/>
		<g class="st1">
			<rect x="256.2" y="20.9" class="st2" width="7.3" height="5.6"/>
			<text transform="matrix(1 0 0 1 256.1572 24.9902)"><tspan x="0" y="0" class="st3 st4 st6">1</tspan><tspan x="4.6" y="0" class="st3 st4">2</tspan></text>
		</g>
		<g class="st1">
			<rect x="256.2" y="20.9" class="st2" width="7.3" height="5.6"/>
			<text transform="matrix(1 0 0 1 256.1553 24.9888)"><tspan x="0" y="0" class="st5 st3 st4 st6">1</tspan><tspan x="4.6" y="0" class="st5 st3 st4">2</tspan></text>
		</g>
		<path class="st0" d="M258.1,24.8H256"/>
		<path class="st0" d="M257.1,24.8v-3.6l-0.4,0.5l-0.4,0.4l-0.4,0.1"/>
		<path class="st0" d="M259.4,21.5l0.1-0.1l0.4-0.2h0.9l0.4,0.2l0.1,0.1l0.2,0.4v0.3l-0.2,0.6l-2,2h2.2"/>
		<path class="st0" d="M158,83.3h-14.4"/>
		<g class="st1">
			<rect x="160.9" y="81" class="st2" width="12.2" height="5.6"/>
			<text transform="matrix(1 0 0 1 160.8799 85.1104)"><tspan x="0" y="0" class="st3 st4">VSI</tspan><tspan x="8.5" y="0" class="st3 st4">G</tspan></text>
		</g>
		<g class="st1">
			<rect x="160.9" y="81" class="st2" width="12.2" height="5.6"/>
			<text transform="matrix(1 0 0 1 160.8784 85.1089)"><tspan x="0" y="0" class="st5 st3 st4">VSI</tspan><tspan x="8.5" y="0" class="st5 st3 st4">G</tspan></text>
		</g>
		<path class="st0" d="M161.4,81.3l1.2,3.6l1.2-3.6"/>
		<path class="st0" d="M164.8,84.8l0.5,0.1h0.9l0.4-0.1l0.1-0.2l0.1-0.3v-0.4l-0.1-0.4l-0.1-0.1l-0.4-0.2l-0.7-0.1l-0.3-0.1
			l-0.2-0.2l-0.1-0.4V82l0.1-0.4l0.2-0.1l0.3-0.2h0.9l0.5,0.2"/>
		<path class="st0" d="M168.4,84.9v-3.6"/>
		<path class="st0" d="M172,81.5l-0.4-0.2h-0.5l-0.5,0.2l-0.4,0.3l-0.1,0.4l-0.2,0.7v0.5l0.2,0.6l0.1,0.4l0.4,0.4l0.5,0.1h0.4
			l0.5-0.1l0.1-0.2v-1.2h-0.6"/>
		<g class="st1">
			<rect x="149.5" y="78.5" class="st2" width="3.9" height="5.6"/>
			<text transform="matrix(1 0 0 1 149.4785 82.5903)" class="st3 st4">2</text>
		</g>
		<g class="st1">
			<rect x="149.5" y="78.5" class="st2" width="3.9" height="5.6"/>
			<text transform="matrix(1 0 0 1 149.4761 82.5889)" class="st5 st3 st4">2</text>
		</g>
		<path class="st0" d="M149.7,79.1l0.2-0.1l0.3-0.2h0.9l0.4,0.2l0.1,0.1l0.2,0.4v0.3l-0.2,0.6l-2,2h2.2"/>
		<path class="st0" d="M158,68.9h-14.4"/>
		<g class="st1">
			<rect x="160.9" y="66.6" class="st2" width="15" height="5.6"/>
			<text transform="matrix(1 0 0 1 160.8799 70.7104)"><tspan x="0" y="0" class="st3 st4">GND</tspan><tspan x="11.8" y="0" class="st3 st4">P</tspan></text>
		</g>
		<g class="st1">
			<rect x="160.9" y="66.6" class="st2" width="15" height="5.6"/>
			<text transform="matrix(1 0 0 1 160.8784 70.709)"><tspan x="0" y="0" class="st5 st3 st4">GND</tspan><tspan x="11.8" y="0" class="st5 st3 st4">P</tspan></text>
		</g>
		<path class="st0" d="M163.8,67.1l-0.4-0.2H163l-0.5,0.2l-0.4,0.3l-0.2,0.4l-0.1,0.7V69l0.1,0.6l0.2,0.4l0.4,0.4l0.5,0.1h0.3
			l0.6-0.1l0.1-0.2V69h-0.7"/>
		<path class="st0" d="M165.5,70.5v-3.6l2.1,3.6v-3.6"/>
		<path class="st0" d="M169.3,70.5v-3.6h0.9l0.5,0.2l0.4,0.3l0.1,0.4l0.1,0.7V69l-0.1,0.6L171,70l-0.4,0.4l-0.5,0.1H169.3"/>
		<path class="st0" d="M172.9,70.5v-3.6h1.4l0.4,0.2l0.1,0.1l0.1,0.4v0.5l-0.1,0.4l-0.1,0.1l-0.4,0.1h-1.4"/>
		<g class="st1">
			<rect x="149.5" y="64.1" class="st2" width="3.9" height="5.6"/>
			<text transform="matrix(1 0 0 1 149.4785 68.1904)" class="st3 st4">3</text>
		</g>
		<g class="st1">
			<rect x="149.5" y="64.1" class="st2" width="3.9" height="5.6"/>
			<text transform="matrix(1 0 0 1 149.4761 68.189)" class="st5 st3 st4">3</text>
		</g>
		<path class="st0" d="M149.6,64.4h2.2l-1.2,1.4h0.5l0.4,0.2l0.1,0.1l0.2,0.4v0.9l-0.2,0.3l-0.1,0.2l-0.4,0.1h-1l-0.4-0.1l-0.1-0.2"
			/>
		<path class="st0" d="M158,54.5h-14.4"/>
		<g class="st1">
			<rect x="160.9" y="52.2" class="st2" width="20.3" height="5.6"/>
			<text transform="matrix(1 0 0 1 160.8799 56.3105)"><tspan x="0" y="0" class="st3 st4">ENABL</tspan><tspan x="17.1" y="0" class="st3 st4">E</tspan></text>
		</g>
		<g class="st1">
			<rect x="160.9" y="52.2" class="st2" width="20.3" height="5.6"/>
			<text transform="matrix(1 0 0 1 160.8784 56.3086)"><tspan x="0" y="0" class="st5 st3 st4">ENABL</tspan><tspan x="17.1" y="0" class="st5 st3 st4">E</tspan></text>
		</g>
		<path class="st0" d="M161.9,54.2h1.2"/>
		<path class="st0" d="M163.6,56.1h-1.7v-3.6h1.7"/>
		<path class="st0" d="M165.2,56.1v-3.6l2,3.6v-3.6"/>
		<path class="st0" d="M168.8,55.1h1.7"/>
		<path class="st0" d="M168.4,56.1l1.2-3.6l1.2,3.6"/>
		<path class="st0" d="M173.3,54.2l0.5,0.1l0.1,0.2l0.1,0.3v0.6l-0.1,0.3l-0.1,0.2l-0.4,0.1H172v-3.6h1.2l0.3,0.2l0.2,0.1l0.1,0.4
			v0.3l-0.1,0.4l-0.2,0.2L173.3,54.2H172"/>
		<path class="st0" d="M177.4,56.1h-1.7v-3.6"/>
		<path class="st0" d="M178.5,54.2h1.2"/>
		<path class="st0" d="M180.2,56.1h-1.7v-3.6h1.7"/>
		<g class="st1">
			<rect x="149.5" y="49.7" class="st2" width="3.9" height="5.6"/>
			<text transform="matrix(1 0 0 1 149.4785 53.7905)" class="st3 st4">4</text>
		</g>
		<g class="st1">
			<rect x="149.5" y="49.7" class="st2" width="3.9" height="5.6"/>
			<text transform="matrix(1 0 0 1 149.4761 53.7886)" class="st5 st3 st4">4</text>
		</g>
		<path class="st0" d="M151.4,51.2v2.4"/>
		<path class="st0" d="M150.6,49.8l-0.9,2.5h2.2"/>
		<path class="st0" d="M158,40.1h-14.4"/>
		<g class="st1">
			<rect x="160.9" y="37.8" class="st2" width="10.5" height="5.6"/>
			<text transform="matrix(1 0 0 1 160.8799 41.9102)"><tspan x="0" y="0" class="st3 st4">SD</tspan><tspan x="7.3" y="0" class="st3 st4">A</tspan></text>
		</g>
		<g class="st1">
			<rect x="160.9" y="37.8" class="st2" width="10.5" height="5.6"/>
			<text transform="matrix(1 0 0 1 160.8784 41.9087)"><tspan x="0" y="0" class="st5 st3 st4">SD</tspan><tspan x="7.3" y="0" class="st5 st3 st4">A</tspan></text>
		</g>
		<path class="st0" d="M161.7,41.6l0.5,0.1h0.9l0.4-0.1l0.1-0.2l0.2-0.3v-0.4l-0.2-0.4l-0.1-0.1l-0.4-0.2l-0.6-0.1l-0.4-0.1
			l-0.2-0.2l-0.1-0.4v-0.3l0.1-0.4l0.2-0.1l0.4-0.2h0.8l0.6,0.2"/>
		<path class="st0" d="M165.3,41.7v-3.6h0.9l0.5,0.2l0.4,0.3l0.1,0.4l0.2,0.7v0.5l-0.2,0.6l-0.1,0.4l-0.4,0.4l-0.5,0.1H165.3"/>
		<path class="st0" d="M168.8,40.7h1.7"/>
		<path class="st0" d="M168.4,41.7l1.2-3.6l1.2,3.6"/>
		<g class="st1">
			<rect x="149.5" y="35.3" class="st2" width="3.9" height="5.6"/>
			<text transform="matrix(1 0 0 1 149.4785 39.3901)" class="st3 st4">5</text>
		</g>
		<g class="st1">
			<rect x="149.5" y="35.3" class="st2" width="3.9" height="5.6"/>
			<text transform="matrix(1 0 0 1 149.4761 39.3887)" class="st5 st3 st4">5</text>
		</g>
		<path class="st0" d="M151.6,35.6h-1.7l-0.2,1.7l0.2-0.1l0.3-0.2h0.9l0.4,0.2l0.1,0.1l0.2,0.4v0.9l-0.2,0.3l-0.1,0.2l-0.4,0.1h-0.9
			l-0.3-0.1l-0.2-0.2"/>
		<path class="st0" d="M158,25.7h-14.4"/>
		<g class="st1">
			<rect x="160.9" y="23.4" class="st2" width="10.4" height="5.6"/>
			<text transform="matrix(1 0 0 1 160.8799 27.5103)"><tspan x="0" y="0" class="st3 st4">SC</tspan><tspan x="7.7" y="0" class="st3 st4">L</tspan></text>
		</g>
		<g class="st1">
			<rect x="160.9" y="23.4" class="st2" width="10.4" height="5.6"/>
			<text transform="matrix(1 0 0 1 160.8784 27.5088)"><tspan x="0" y="0" class="st5 st3 st4">SC</tspan><tspan x="7.7" y="0" class="st5 st3 st4">L</tspan></text>
		</g>
		<path class="st0" d="M161.7,27.2l0.5,0.1h0.9l0.4-0.1l0.1-0.2l0.2-0.3v-0.4l-0.2-0.4l-0.1-0.1l-0.4-0.2l-0.6-0.1l-0.4-0.1
			l-0.2-0.2l-0.1-0.4v-0.3l0.1-0.4l0.2-0.1l0.4-0.2h0.8l0.6,0.2"/>
		<path class="st0" d="M167.4,26.9l-0.2,0.2l-0.5,0.1h-0.4l-0.5-0.1l-0.4-0.4l-0.1-0.4l-0.1-0.6v-0.5l0.1-0.7l0.1-0.4l0.4-0.3
			l0.5-0.2h0.4l0.5,0.2l0.2,0.1"/>
		<path class="st0" d="M170.7,27.3h-1.7v-3.6"/>
		<g class="st1">
			<rect x="149.5" y="20.9" class="st2" width="3.9" height="5.6"/>
			<text transform="matrix(1 0 0 1 149.4785 24.9902)" class="st3 st4">6</text>
		</g>
		<g class="st1">
			<rect x="149.5" y="20.9" class="st2" width="3.9" height="5.6"/>
			<text transform="matrix(1 0 0 1 149.4761 24.9888)" class="st5 st3 st4">6</text>
		</g>
		<path class="st0" d="M151.4,21.2h-0.6l-0.4,0.2l-0.2,0.1l-0.3,0.5l-0.2,0.7v1.4l0.2,0.3l0.1,0.2l0.4,0.1h0.6l0.4-0.1l0.1-0.2
			l0.2-0.3v-0.9l-0.2-0.4l-0.1-0.1l-0.4-0.2h-0.6l-0.4,0.2l-0.1,0.1l-0.2,0.4"/>
		<path class="st0" d="M251.6,97.7H266"/>
		<g class="st1">
			<rect x="234.7" y="95.4" class="st2" width="15.2" height="5.6"/>
			<text transform="matrix(1 0 0 1 234.7217 99.5103)"><tspan x="0" y="0" class="st3 st4">V_IS</tspan><tspan x="11.5" y="0" class="st3 st4">O</tspan></text>
		</g>
		<g class="st1">
			<rect x="234.7" y="95.4" class="st2" width="15.2" height="5.6"/>
			<text transform="matrix(1 0 0 1 234.7197 99.5088)"><tspan x="0" y="0" class="st5 st3 st4">V_IS</tspan><tspan x="11.5" y="0" class="st5 st3 st4">O</tspan></text>
		</g>
		<path class="st0" d="M234.1,95.7l1.2,3.6l1.2-3.6"/>
		<path class="st0" d="M236.8,99.7h2.7"/>
		<path class="st0" d="M240.4,99.3v-3.6"/>
		<path class="st0" d="M242,99.2l0.5,0.1h0.9l0.4-0.1l0.1-0.2l0.2-0.3v-0.4l-0.2-0.4l-0.1-0.1l-0.4-0.2l-0.6-0.1l-0.4-0.1l-0.2-0.2
			l-0.1-0.4v-0.3l0.1-0.4l0.2-0.1l0.4-0.2h0.8l0.6,0.2"/>
		<path class="st0" d="M246.3,95.7h0.6l0.4,0.2l0.4,0.3l0.1,0.7v1.2l-0.1,0.7l-0.4,0.4l-0.4,0.1h-0.6l-0.4-0.1l-0.4-0.4l-0.1-0.7
			v-1.2l0.1-0.7l0.4-0.3L246.3,95.7"/>
		<g class="st1">
			<rect x="257.5" y="92.9" class="st2" width="3.9" height="5.6"/>
			<text transform="matrix(1 0 0 1 257.4785 96.9902)" class="st3 st4">7</text>
		</g>
		<g class="st1">
			<rect x="257.5" y="92.9" class="st2" width="3.9" height="5.6"/>
			<text transform="matrix(1 0 0 1 257.4766 96.9888)" class="st5 st3 st4">7</text>
		</g>
		<path class="st0" d="M257.6,93.2h2.4l-1.5,3.6"/>
		<path class="st0" d="M251.6,83.3H266"/>
		<g class="st1">
			<rect x="227.3" y="81" class="st2" width="23" height="5.6"/>
			<text transform="matrix(1 0 0 1 227.3311 85.1104)"><tspan x="0" y="0" class="st3 st4">GND_IS</tspan><tspan x="19.3" y="0" class="st3 st4">O</tspan></text>
		</g>
		<g class="st1">
			<rect x="227.3" y="81" class="st2" width="23" height="5.6"/>
			<text transform="matrix(1 0 0 1 227.3301 85.1089)"><tspan x="0" y="0" class="st5 st3 st4">GND_IS</tspan><tspan x="19.3" y="0" class="st5 st3 st4">O</tspan></text>
		</g>
		<path class="st0" d="M228.6,81.5l-0.3-0.2h-0.6l-0.5,0.2l-0.3,0.3l-0.2,0.4l-0.1,0.7v0.5l0.1,0.6l0.2,0.4l0.3,0.4l0.5,0.1h0.4
			l0.5-0.1l0.2-0.2v-1.2h-0.7"/>
		<path class="st0" d="M230.3,84.9v-3.6l2.1,3.6v-3.6"/>
		<path class="st0" d="M234.1,84.9v-3.6h0.8l0.6,0.2l0.3,0.3l0.2,0.4l0.1,0.7v0.5L236,84l-0.2,0.4l-0.3,0.4l-0.6,0.1H234.1"/>
		<path class="st0" d="M236.8,85.3h2.7"/>
		<path class="st0" d="M240.4,84.9v-3.6"/>
		<path class="st0" d="M242,84.8l0.5,0.1h0.9l0.4-0.1l0.1-0.2l0.2-0.3v-0.4l-0.2-0.4l-0.1-0.1l-0.4-0.2l-0.6-0.1l-0.4-0.1l-0.2-0.2
			l-0.1-0.4V82l0.1-0.4l0.2-0.1l0.4-0.2h0.8l0.6,0.2"/>
		<path class="st0" d="M246.3,81.3h0.6l0.4,0.2l0.4,0.3l0.1,0.7v1.2l-0.1,0.7l-0.4,0.4l-0.4,0.1h-0.6l-0.4-0.1l-0.4-0.4l-0.1-0.7
			v-1.2l0.1-0.7l0.4-0.3L246.3,81.3"/>
		<g class="st1">
			<rect x="257.5" y="78.5" class="st2" width="3.9" height="5.6"/>
			<text transform="matrix(1 0 0 1 257.4785 82.5903)" class="st3 st4">8</text>
		</g>
		<g class="st1">
			<rect x="257.5" y="78.5" class="st2" width="3.9" height="5.6"/>
			<text transform="matrix(1 0 0 1 257.4766 82.5889)" class="st5 st3 st4">8</text>
		</g>
		<path class="st0" d="M258.4,80.4l-0.4-0.2l-0.1-0.1l-0.2-0.4v-0.1l0.2-0.4l0.1-0.1l0.4-0.2h0.6l0.4,0.2l0.1,0.1l0.2,0.4v0.1
			l-0.2,0.4l-0.1,0.1l-0.4,0.2H258.4l-0.4,0.1l-0.1,0.1l-0.2,0.4v0.7l0.2,0.3l0.1,0.2l0.4,0.1h0.6l0.4-0.1l0.1-0.2l0.2-0.3V81
			l-0.2-0.4l-0.1-0.1l-0.4-0.1"/>
		<path class="st0" d="M251.6,68.9H266"/>
		<g class="st1">
			<rect x="225.7" y="66.6" class="st2" width="24.9" height="5.6"/>
			<text transform="matrix(1 0 0 1 225.7461 70.7104)"><tspan x="0" y="0" class="st3 st4">PRB_GN</tspan><tspan x="21.5" y="0" class="st3 st4">D</tspan></text>
		</g>
		<g class="st1">
			<rect x="225.7" y="66.6" class="st2" width="24.9" height="5.6"/>
			<text transform="matrix(1 0 0 1 225.7451 70.709)"><tspan x="0" y="0" class="st5 st3 st4">PRB_GN</tspan><tspan x="21.5" y="0" class="st5 st3 st4">D</tspan></text>
		</g>
		<path class="st0" d="M224.8,70.5v-3.6h1.4l0.4,0.2l0.1,0.1l0.2,0.4v0.5l-0.2,0.4l-0.1,0.1l-0.4,0.1h-1.4"/>
		<path class="st0" d="M230.5,70.5l-1.2-1.7"/>
		<path class="st0" d="M228.4,70.5v-3.6h1.4l0.4,0.2l0.1,0.1l0.2,0.4v0.5l-0.2,0.4l-0.1,0.1l-0.4,0.1h-1.4"/>
		<path class="st0" d="M233.2,68.6l0.5,0.1l0.1,0.2l0.2,0.3v0.6l-0.2,0.3l-0.1,0.2l-0.4,0.1H232v-3.6h1.2l0.3,0.2l0.2,0.1l0.1,0.4
			v0.3l-0.1,0.4l-0.2,0.2L233.2,68.6H232"/>
		<path class="st0" d="M234.8,70.9h2.7"/>
		<path class="st0" d="M240.2,67.1l-0.4-0.2h-0.5l-0.5,0.2l-0.4,0.3l-0.1,0.4l-0.1,0.7V69l0.1,0.6l0.1,0.4l0.4,0.4l0.5,0.1h0.4
			l0.5-0.1l0.2-0.2V69h-0.7"/>
		<path class="st0" d="M242,70.5v-3.6l2.1,3.6v-3.6"/>
		<path class="st0" d="M245.7,70.5v-3.6h0.9l0.5,0.2l0.4,0.3l0.2,0.4l0.1,0.7V69l-0.1,0.6l-0.2,0.4l-0.4,0.4l-0.5,0.1H245.7"/>
		<g class="st1">
			<rect x="257.5" y="64.1" class="st2" width="3.9" height="5.6"/>
			<text transform="matrix(1 0 0 1 257.4785 68.1904)" class="st3 st4">9</text>
		</g>
		<g class="st1">
			<rect x="257.5" y="64.1" class="st2" width="3.9" height="5.6"/>
			<text transform="matrix(1 0 0 1 257.4766 68.189)" class="st5 st3 st4">9</text>
		</g>
		<path class="st0" d="M258.1,68h0.7l0.3-0.1l0.2-0.2l0.3-0.5l0.2-0.6v-1.4l-0.2-0.4l-0.1-0.1l-0.4-0.2h-0.6l-0.4,0.2l-0.1,0.1
			l-0.2,0.4V66l0.2,0.3l0.1,0.2l0.4,0.1h0.6l0.4-0.1l0.1-0.2l0.2-0.3"/>
		<g class="st1">
			<rect x="160.6" y="12.4" class="st2" width="33" height="5.6"/>
			<text transform="matrix(1 0 0 1 160.6177 16.4941)"><tspan x="0" y="0" class="st3 st4">Whitebox</tspan><tspan x="19.8" y="0" class="st3 st4 st7"> </tspan><tspan x="27.4" y="0" class="st3 st4">T0</tspan></text>
		</g>
		<g class="st1">
			<rect x="160.6" y="12.4" class="st2" width="33" height="5.6"/>
			<text transform="matrix(1 0 0 1 160.6157 16.4927)"><tspan x="0" y="0" class="st5 st3 st4">Whitebox</tspan><tspan x="19.8" y="0" class="st5 st3 st4 st7"> </tspan><tspan x="27.4" y="0" class="st5 st3 st4">T0</tspan></text>
		</g>
		<path class="st0" d="M158.1,12.7l0.9,3.6l0.7-2.6l0.6,2.6l0.9-3.6"/>
		<path class="st0" d="M162.5,16.3v-3.6"/>
		<path class="st0" d="M164.1,16.3v-1.9l-0.2-0.4l-0.3-0.1h-0.5l-0.4,0.1l-0.2,0.2"/>
		<path class="st0" d="M165.8,16.3v-2.4"/>
		<path class="st0" d="M165.8,12.7l-0.2,0.2l0.2,0.1l0.1-0.1L165.8,12.7V13"/>
		<path class="st0" d="M167,13.9h1.4"/>
		<path class="st0" d="M167.5,12.7v3.1l0.2,0.4l0.4,0.1h0.3"/>
		<path class="st0" d="M171,16.1l-0.4,0.1H170l-0.4-0.1l-0.1-0.4v-1.4l0.1-0.4l0.4-0.1h0.6L171,14l0.1,0.4v0.4l-1.7,0.3"/>
		<path class="st0" d="M172.7,16.3v-3.6"/>
		<path class="st0" d="M172.7,14l0.4-0.1h0.6l0.4,0.1l0.1,0.2l0.2,0.3v1.1l-0.2,0.3l-0.1,0.2l-0.4,0.1H173l-0.4-0.1"/>
		<path class="st0" d="M176.4,16.3l-0.4-0.1l-0.1-0.2l-0.1-0.3v-1.1l0.1-0.3l0.1-0.2l0.4-0.1h0.5l0.4,0.1l0.2,0.2l0.1,0.3v1.1
			l-0.1,0.3l-0.2,0.2l-0.4,0.1H176.4"/>
		<path class="st0" d="M178.9,16.3l1.9-2.4"/>
		<path class="st0" d="M178.9,13.9l1.9,2.4"/>
		<path class="st0" d="M184.4,12.7h2"/>
		<path class="st0" d="M185.4,16.3v-3.6"/>
		<path class="st0" d="M188.3,12.7h0.3l0.4,0.2l0.1,0.1l0.2,0.4l0.1,0.6v0.9l-0.1,0.7l-0.2,0.3l-0.1,0.2l-0.4,0.1h-0.3l-0.4-0.1
			l-0.2-0.2l-0.1-0.3l-0.1-0.7V14l0.1-0.6l0.1-0.4l0.2-0.1L188.3,12.7"/>
	</g>
</g>
<g>
	<g>
		<circle class="st8" cx="302" cy="68.9" r="1.4"/>
	</g>
	<g>
		<circle class="st9" cx="302" cy="68.9" r="5"/>
	</g>
	<g>
		<path class="st0" d="M302,67.5v-9.4"/>
		<g transform="rotate(-90 57430 36900)">
			<g class="st1">
				<rect x="94266.8" y="-20228.7" class="st2" width="0.9" height="0"/>
			</g>
			<g class="st1">
				<rect x="94266.7" y="-20228.7" class="st2" width="0.9" height="0.1"/>
				<text transform="matrix(1 0 0 1 94267.1875 -20229.1094)" class="st5 st3 st10">1</text>
			</g>
		</g>
	</g>
	<g>
		<path class="st11" d="M301.5,62.8L301.5,62.8"/>
		<path class="st11" d="M301.5,62.8L301.5,62.8"/>
	</g>
	<g>
		<path class="st0" d="M297,68.9h-9.4"/>
		<g class="st1">
			<text transform="matrix(1 0 0 1 292.2559 68.4062)" class="st3 st10">2</text>
		</g>
		<g class="st1">
			<text transform="matrix(1 0 0 1 292.2559 68.4062)" class="st5 st3 st10">2</text>
		</g>
	</g>
	<g>
		<path class="st11" d="M292.3,68.4L292.3,68.4"/>
	</g>
	<g>
		<g class="st1">
			<rect x="311.7" y="66.8" class="st2" width="10.9" height="5.6"/>
			<text transform="matrix(1 0 0 1 311.6719 70.8545)"><tspan x="0" y="0" class="st3 st4">BN</tspan><tspan x="7.5" y="0" class="st3 st4">C</tspan></text>
		</g>
		<g class="st1">
			<rect x="311.7" y="66.8" class="st2" width="10.9" height="5.6"/>
			<text transform="matrix(1 0 0 1 311.6699 70.8525)"><tspan x="0" y="0" class="st5 st3 st4">BN</tspan><tspan x="7.5" y="0" class="st5 st3 st4">C</tspan></text>
		</g>
		<path class="st0" d="M313.2,68.8l0.5,0.1l0.1,0.2l0.2,0.3V70l-0.2,0.3l-0.1,0.2l-0.4,0.1H312V67h1.2l0.4,0.2l0.1,0.1l0.1,0.4V68
			l-0.1,0.4l-0.1,0.2L313.2,68.8H312"/>
		<path class="st0" d="M315.6,70.6V67l2.1,3.6V67"/>
		<path class="st0" d="M321.4,70.3l-0.1,0.2l-0.5,0.1h-0.4l-0.5-0.1l-0.4-0.4l-0.1-0.4l-0.2-0.6v-0.5l0.2-0.7l0.1-0.4l0.4-0.3
			l0.5-0.2h0.4l0.5,0.2l0.1,0.1"/>
	</g>
</g>
<g>
	<g>
		<rect x="5" y="18.5" class="st8" width="72" height="57.6"/>
	</g>
	<g>
		<path class="st0" d="M77,54.5h7.2"/>
		<g class="st1">
			<rect x="65.5" y="52.2" class="st2" width="10.7" height="5.6"/>
			<text transform="matrix(1 0 0 1 65.5269 56.3105)"><tspan x="0" y="0" class="st3 st4">VC</tspan><tspan x="7.3" y="0" class="st3 st4">C</tspan></text>
		</g>
		<g class="st1">
			<rect x="65.5" y="52.2" class="st2" width="10.7" height="5.6"/>
			<text transform="matrix(1 0 0 1 65.5254 56.3086)"><tspan x="0" y="0" class="st5 st3 st4">VC</tspan><tspan x="7.3" y="0" class="st5 st3 st4">C</tspan></text>
		</g>
		<path class="st0" d="M65.3,52.5l1.2,3.6l1.2-3.6"/>
		<path class="st0" d="M71,55.7L70.9,56l-0.6,0.1H70L69.5,56l-0.4-0.4l-0.2-0.4l-0.1-0.6v-0.5l0.1-0.7l0.2-0.4l0.4-0.3l0.5-0.2h0.3
			l0.6,0.2l0.1,0.1"/>
		<path class="st0" d="M74.6,55.7L74.5,56l-0.6,0.1h-0.3L73.1,56l-0.4-0.4l-0.2-0.4l-0.1-0.6v-0.5l0.1-0.7l0.2-0.4l0.4-0.3l0.5-0.2
			h0.3l0.6,0.2l0.1,0.1"/>
		<g class="st1">
			<rect x="80.6" y="53.9" class="st2" width="0.4" height="0.1"/>
			<text transform="matrix(1 0 0 1 80.5762 54.0063)" class="st3 st10">1</text>
		</g>
		<g class="st1">
			<rect x="80.6" y="53.9" class="st2" width="0.5" height="0.1"/>
			<text transform="matrix(1 0 0 1 80.562 54.0049)" class="st5 st3 st10">1</text>
		</g>
	</g>
	<g>
		<path class="st11" d="M80.6,54L80.6,54"/>
		<path class="st11" d="M80.6,54L80.6,54"/>
	</g>
	<g>
		<path class="st0" d="M77,68.9h7.2"/>
		<g class="st1">
			<rect x="65" y="66.6" class="st2" width="10.9" height="5.6"/>
			<text transform="matrix(1 0 0 1 65 70.7104)"><tspan x="0" y="0" class="st3 st4">GN</tspan><tspan x="7.5" y="0" class="st3 st4">D</tspan></text>
		</g>
		<g class="st1">
			<rect x="65" y="66.6" class="st2" width="10.9" height="5.6"/>
			<text transform="matrix(1 0 0 1 64.9985 70.709)"><tspan x="0" y="0" class="st5 st3 st4">GN</tspan><tspan x="7.5" y="0" class="st5 st3 st4">D</tspan></text>
		</g>
		<path class="st0" d="M67.1,67.1l-0.4-0.2h-0.5l-0.5,0.2l-0.4,0.3l-0.1,0.4L65,68.5V69l0.1,0.6l0.1,0.4l0.4,0.4l0.5,0.1h0.4
			l0.5-0.1l0.2-0.2V69h-0.7"/>
		<path class="st0" d="M68.8,70.5v-3.6l2.1,3.6v-3.6"/>
		<path class="st0" d="M72.5,70.5v-3.6h0.9l0.5,0.2l0.4,0.3l0.2,0.4l0.1,0.7V69l-0.1,0.6L74.3,70l-0.4,0.4l-0.5,0.1H72.5"/>
		<g class="st1">
			<rect x="80.6" y="68.3" class="st2" width="0.4" height="0.1"/>
			<text transform="matrix(1 0 0 1 80.5762 68.4062)" class="st3 st10">2</text>
		</g>
		<g class="st1">
			<rect x="80.6" y="68.3" class="st2" width="0.5" height="0.1"/>
			<text transform="matrix(1 0 0 1 80.562 68.4048)" class="st5 st3 st10">2</text>
		</g>
	</g>
	<g>
		<path class="st11" d="M80.6,68.4L80.6,68.4"/>
	</g>
	<g>
		<path class="st0" d="M77,40.1h7.2"/>
		<g class="st1">
			<rect x="65.8" y="37.8" class="st2" width="10.1" height="5.6"/>
			<text transform="matrix(1 0 0 1 65.7891 41.9102)"><tspan x="0" y="0" class="st3 st4">SD</tspan><tspan x="6.9" y="0" class="st3 st4">A</tspan></text>
		</g>
		<g class="st1">
			<rect x="65.8" y="37.8" class="st2" width="10.1" height="5.6"/>
			<text transform="matrix(1 0 0 1 65.7876 41.9087)"><tspan x="0" y="0" class="st5 st3 st4">SD</tspan><tspan x="6.9" y="0" class="st5 st3 st4">A</tspan></text>
		</g>
		<path class="st0" d="M65.9,41.6l0.5,0.1h0.9l0.3-0.1l0.2-0.2l0.1-0.3v-0.4l-0.1-0.4l-0.2-0.1L67.3,40l-0.7-0.1l-0.4-0.1l-0.1-0.2
			l-0.1-0.4v-0.3l0.1-0.4l0.1-0.1l0.4-0.2h0.9l0.5,0.2"/>
		<path class="st0" d="M69.5,41.7v-3.6h0.8l0.6,0.2l0.3,0.3l0.2,0.4l0.1,0.7v0.5l-0.1,0.6l-0.2,0.4l-0.3,0.4l-0.6,0.1H69.5"/>
		<path class="st0" d="M72.9,40.7h1.7"/>
		<path class="st0" d="M72.5,41.7l1.2-3.6l1.2,3.6"/>
		<g class="st1">
			<rect x="80.6" y="39.5" class="st2" width="0.4" height="0.1"/>
			<text transform="matrix(1 0 0 1 80.5762 39.6064)" class="st3 st10">3</text>
		</g>
		<g class="st1">
			<rect x="80.6" y="39.5" class="st2" width="0.5" height="0.1"/>
			<text transform="matrix(1 0 0 1 80.562 39.6045)" class="st5 st3 st10">3</text>
		</g>
	</g>
	<g>
		<path class="st11" d="M80.6,39.6L80.6,39.6"/>
	</g>
	<g>
		<path class="st0" d="M77,25.7h7.2"/>
		<g class="st1">
			<rect x="66.3" y="23.4" class="st2" width="9.9" height="5.6"/>
			<text transform="matrix(1 0 0 1 66.3159 27.5103)"><tspan x="0" y="0" class="st3 st4">SC</tspan><tspan x="7.3" y="0" class="st3 st4">L</tspan></text>
		</g>
		<g class="st1">
			<rect x="66.3" y="23.4" class="st2" width="9.9" height="5.6"/>
			<text transform="matrix(1 0 0 1 66.314 27.5088)"><tspan x="0" y="0" class="st5 st3 st4">SC</tspan><tspan x="7.3" y="0" class="st5 st3 st4">L</tspan></text>
		</g>
		<path class="st0" d="M66.1,27.2l0.5,0.1h0.9l0.4-0.1l0.1-0.2l0.2-0.3v-0.4l-0.2-0.4l-0.1-0.1l-0.4-0.2l-0.7-0.1l-0.3-0.1l-0.2-0.2
			l-0.1-0.4v-0.3l0.1-0.4l0.2-0.1l0.3-0.2h0.9l0.6,0.2"/>
		<path class="st0" d="M71.7,26.9l-0.2,0.2L71,27.3h-0.4l-0.5-0.1l-0.4-0.4l-0.1-0.4l-0.1-0.6v-0.5l0.1-0.7l0.1-0.4l0.4-0.3l0.5-0.2
			H71l0.5,0.2l0.2,0.1"/>
		<path class="st0" d="M75,27.3h-1.7v-3.6"/>
		<g class="st1">
			<rect x="80.6" y="25.1" class="st2" width="0.4" height="0.1"/>
			<text transform="matrix(1 0 0 1 80.5762 25.2061)" class="st3 st10">4</text>
		</g>
		<g class="st1">
			<rect x="80.6" y="25.1" class="st2" width="0.5" height="0.1"/>
			<text transform="matrix(1 0 0 1 80.562 25.2046)" class="st5 st3 st10">4</text>
		</g>
	</g>
	<g>
		<path class="st11" d="M80.6,25.2L80.6,25.2"/>
		<path class="st11" d="M80.6,25.2L80.6,25.2"/>
	</g>
	<g>
		<path class="st0" d="M51.8,18.5v-7.2"/>
		<g transform="rotate(-90 22750 30950)">
			<g class="st1">
				<rect x="53671.1" y="8246.3" class="st2" width="6" height="11.9"/>
				<text transform="matrix(1 0 0 1 53668.168 8253.3291)" class="st3 st4">GPIO</text>
			</g>
			<g class="st1">
				<rect x="53671.1" y="8246.3" class="st2" width="6" height="11.9"/>
				<text transform="matrix(1 0 0 1 53668.1641 8253.3281)" class="st5 st3 st4">GPIO</text>
			</g>
		</g>
		<path class="st0" d="M50,30.1l-0.2,0.3V31l0.2,0.5l0.3,0.3l0.4,0.2l0.7,0.1h0.5l0.6-0.1l0.4-0.2l0.4-0.3l0.1-0.5v-0.4l-0.1-0.5
			L53,29.9h-1.2v0.7"/>
		<path class="st0" d="M53.4,28.4h-3.6V27l0.2-0.4l0.1-0.1l0.4-0.2H51l0.4,0.2l0.1,0.1l0.1,0.4v1.4"/>
		<path class="st0" d="M53.4,24.8h-3.6"/>
		<path class="st0" d="M49.8,22.3v-0.6l0.2-0.4l0.3-0.4l0.7-0.1h1.2l0.7,0.1l0.4,0.4l0.1,0.4v0.6l-0.1,0.4L52.9,23l-0.7,0.1H51
			L50.3,23L50,22.7L49.8,22.3"/>
		<g transform="rotate(-90 22680 30250)">
			<g class="st1">
				<rect x="52914.6" y="7621.1" class="st2" width="0.9" height="0"/>
			</g>
			<g class="st1">
				<rect x="52914.6" y="7621.1" class="st2" width="0.9" height="0.1"/>
				<text transform="matrix(1 0 0 1 52915.0625 7620.6895)" class="st5 st3 st10">5</text>
			</g>
		</g>
	</g>
	<g>
		<path class="st11" d="M51.3,14.9L51.3,14.9"/>
	</g>
	<g>
		<g class="st1">
			<rect x="8.5" y="12.8" class="st2" width="40.6" height="5.6"/>
			<text transform="matrix(1 0 0 1 8.5005 16.8545)"><tspan x="0" y="0" class="st3 st4">Microcontrolle</tspan><tspan x="39" y="0" class="st3 st4">r</tspan></text>
		</g>
		<g class="st1">
			<rect x="8.5" y="12.8" class="st2" width="40.6" height="5.6"/>
			<text transform="matrix(1 0 0 1 8.498 16.8525)"><tspan x="0" y="0" class="st5 st3 st4">Microcontrolle</tspan><tspan x="39" y="0" class="st5 st3 st4">r</tspan></text>
		</g>
		<path class="st0" d="M4.6,16.6V13l1.2,2.6L7,13v3.6"/>
		<path class="st0" d="M8.7,16.6v-2.4"/>
		<path class="st0" d="M8.7,13l-0.1,0.2l0.1,0.1l0.2-0.1L8.7,13v0.4"/>
		<path class="st0" d="M12,16.5l-0.4,0.1h-0.7l-0.3-0.1l-0.2-0.2L10.3,16v-1.1l0.1-0.3l0.2-0.2l0.3-0.1h0.7l0.4,0.1"/>
		<path class="st0" d="M13.5,16.6v-2.4"/>
		<path class="st0" d="M13.5,14.9l0.1-0.3l0.2-0.2l0.4-0.1h0.3"/>
		<path class="st0" d="M16.2,16.6l-0.4-0.1l-0.1-0.2L15.6,16v-1.1l0.1-0.3l0.1-0.2l0.4-0.1h0.5l0.4,0.1l0.1,0.2l0.2,0.3V16l-0.2,0.3
			l-0.1,0.2l-0.4,0.1H16.2"/>
		<path class="st0" d="M20.6,16.5l-0.4,0.1h-0.7l-0.3-0.1L19,16.3L18.8,16v-1.1l0.1-0.3l0.2-0.2l0.3-0.1h0.7l0.4,0.1"/>
		<path class="st0" d="M22.6,16.6l-0.3-0.1l-0.2-0.2L21.9,16v-1.1l0.1-0.3l0.2-0.2l0.3-0.1h0.5l0.4,0.1l0.2,0.2l0.1,0.3V16l-0.1,0.3
			l-0.2,0.2l-0.4,0.1H22.6"/>
		<path class="st0" d="M25.3,14.3v2.4"/>
		<path class="st0" d="M25.3,14.6l0.2-0.2l0.4-0.1h0.5l0.3,0.1l0.2,0.4v1.9"/>
		<path class="st0" d="M28,14.3h1.4"/>
		<path class="st0" d="M28.6,13v3.1l0.1,0.4l0.4,0.1h0.4"/>
		<path class="st0" d="M30.6,16.6v-2.4"/>
		<path class="st0" d="M30.6,14.9l0.2-0.3l0.1-0.2l0.4-0.1h0.3"/>
		<path class="st0" d="M33.4,16.6l-0.3-0.1l-0.2-0.2L32.7,16v-1.1l0.1-0.3l0.2-0.2l0.3-0.1h0.5l0.4,0.1l0.2,0.2l0.1,0.3V16l-0.1,0.3
			l-0.2,0.2l-0.4,0.1H33.4"/>
		<path class="st0" d="M36.7,16.6l-0.4-0.1l-0.2-0.4V13"/>
		<path class="st0" d="M38.6,16.6l-0.4-0.1L38,16.1V13"/>
		<path class="st0" d="M41.3,16.5l-0.4,0.1h-0.6l-0.4-0.1l-0.2-0.4v-1.4l0.2-0.4l0.4-0.1h0.6l0.4,0.1l0.1,0.4v0.4l-1.7,0.3"/>
		<path class="st0" d="M43,16.6v-2.4"/>
		<path class="st0" d="M43,14.9l0.1-0.3l0.1-0.2l0.4-0.1H44"/>
	</g>
</g>
<g>
	<g>
		<path class="st12" d="M78.8,151.7v-3.6H81l-2.2-3.6l-2.2,3.6h2.2"/>
	</g>
	<g>
		<g class="st1">
			<rect x="65.6" y="147.8" class="st2" width="10.4" height="5.6"/>
			<text transform="matrix(1 0 0 1 65.5723 151.8545)"><tspan x="0" y="0" class="st3 st4">3V</tspan><tspan x="7.7" y="0" class="st3 st4">3</tspan></text>
		</g>
		<g class="st1">
			<rect x="65.6" y="147.8" class="st2" width="10.4" height="5.6"/>
			<text transform="matrix(1 0 0 1 65.5703 151.8525)"><tspan x="0" y="0" class="st5 st3 st4">3V</tspan><tspan x="7.7" y="0" class="st5 st3 st4">3</tspan></text>
		</g>
		<path class="st0" d="M65.3,148h2.2l-1.2,1.4h0.5l0.4,0.2l0.1,0.1l0.2,0.4v0.9l-0.2,0.3l-0.1,0.2l-0.4,0.1h-1l-0.4-0.1l-0.1-0.2"/>
		<path class="st0" d="M68.6,148l1.2,3.6L71,148"/>
		<path class="st0" d="M71.8,148H74l-1.2,1.4h0.6l0.3,0.2l0.2,0.1l0.1,0.4v0.9l-0.1,0.3l-0.2,0.2l-0.3,0.1h-1.1l-0.4-0.1l-0.1-0.2"
			/>
	</g>
</g>
<g>
	<g>
		<path class="st12" d="M78.8,166.1v-3.6H81l-2.2-3.6l-2.2,3.6h2.2"/>
	</g>
	<g>
		<g class="st1">
			<rect x="66.9" y="162.2" class="st2" width="6.9" height="5.6"/>
			<text transform="matrix(1 0 0 1 66.894 166.2544)"><tspan x="0" y="0" class="st3 st4 st6">5</tspan><tspan x="3.7" y="0" class="st3 st4">V</tspan></text>
		</g>
		<g class="st1">
			<rect x="66.9" y="162.2" class="st2" width="6.9" height="5.6"/>
			<text transform="matrix(1 0 0 1 66.8921 166.2529)"><tspan x="0" y="0" class="st5 st3 st4 st6">5</tspan><tspan x="3.7" y="0" class="st5 st3 st4">V</tspan></text>
		</g>
		<path class="st0" d="M69.1,162.4h-1.7l-0.1,1.7l0.1-0.1l0.4-0.2h0.9l0.4,0.2l0.1,0.1l0.1,0.4v0.9l-0.1,0.3l-0.1,0.2l-0.4,0.1h-0.9
			l-0.4-0.1l-0.1-0.2"/>
		<path class="st0" d="M70.3,162.4l1.2,3.6l1.2-3.6"/>
	</g>
</g>
<g>
	<g>
		<rect x="55.4" y="114.6" class="st13" width="14.4" height="5.8"/>
	</g>
	<g>
		<path class="st0" d="M69.8,117.5h3.6"/>
		<path class="st0" d="M55.4,117.5h-3.6"/>
		<g class="st1">
			<rect x="60.7" y="115.4" class="st2" width="4" height="5.6"/>
			<text transform="matrix(1 0 0 1 60.668 119.4541)" class="st3 st4">R</text>
		</g>
		<g class="st1">
			<rect x="60.7" y="115.4" class="st2" width="4" height="5.6"/>
			<text transform="matrix(1 0 0 1 60.6665 119.4526)" class="st5 st3 st4">R</text>
		</g>
		<path class="st0" d="M63.5,119.2l-1.2-1.7"/>
		<path class="st0" d="M61.4,119.2v-3.6h1.4l0.4,0.2l0.2,0.1l0.1,0.4v0.5l-0.1,0.4l-0.2,0.1l-0.4,0.1h-1.4"/>
	</g>
</g>
<g>
	<g>
		<rect x="55.4" y="102" class="st13" width="14.4" height="5.8"/>
	</g>
	<g>
		<path class="st0" d="M69.8,104.9h3.6"/>
		<path class="st0" d="M55.4,104.9h-3.6"/>
		<g class="st1">
			<rect x="60.7" y="102.8" class="st2" width="4" height="5.6"/>
			<text transform="matrix(1 0 0 1 60.668 106.8545)" class="st3 st4">R</text>
		</g>
		<g class="st1">
			<rect x="60.7" y="102.8" class="st2" width="4" height="5.6"/>
			<text transform="matrix(1 0 0 1 60.6665 106.8525)" class="st5 st3 st4">R</text>
		</g>
		<path class="st0" d="M63.5,106.6l-1.2-1.7"/>
		<path class="st0" d="M61.4,106.6V103h1.4l0.4,0.2l0.2,0.1l0.1,0.4v0.5l-0.1,0.4l-0.2,0.1l-0.4,0.1h-1.4"/>
	</g>
</g>
<g>
	<g>
		<path class="st14" d="M312.8,110.3v7.2"/>
	</g>
	<g>
		<path class="st15" d="M312.8,113.9h-7.2"/>
	</g>
	<g>
		<path class="st16" d="M305.6,110.3v7.2l7.2-3.6L305.6,110.3z"/>
	</g>
	<g>
		<path class="st15" d="M317.8,111.8l4.3-4.3H320h2.2v2.2"/>
		<path class="st15" d="M314.2,111.8l4.3-4.3h-2.2h2.2v2.2"/>
		<path class="st0" d="M312.8,113.9h7.2"/>
		<g class="st1">
			<rect x="316.4" y="113.3" class="st2" width="0.4" height="0.1"/>
			<text transform="matrix(1 0 0 1 316.376 113.4062)" class="st3 st10">1</text>
		</g>
		<g class="st1">
			<rect x="316.4" y="113.3" class="st2" width="0.5" height="0.1"/>
			<text transform="matrix(1 0 0 1 316.3623 113.4048)" class="st5 st3 st10">1</text>
		</g>
	</g>
	<g>
		<path class="st11" d="M316.4,113.4L316.4,113.4"/>
		<path class="st11" d="M316.4,113.4L316.4,113.4"/>
	</g>
	<g>
		<path class="st0" d="M305.6,113.9h-7.2"/>
		<g class="st1">
			<text transform="matrix(1 0 0 1 301.9756 113.4062)" class="st3 st10">2</text>
		</g>
		<g class="st1">
			<text transform="matrix(1 0 0 1 301.9756 113.4062)" class="st5 st3 st10">2</text>
		</g>
	</g>
	<g>
		<path class="st11" d="M302,113.4L302,113.4"/>
	</g>
	<g>
		<g class="st1">
			<rect x="302.8" y="120.4" class="st2" width="9.8" height="5.6"/>
			<text transform="matrix(1 0 0 1 302.7783 124.4941)"><tspan x="0" y="0" class="st3 st4">LE</tspan><tspan x="6.4" y="0" class="st3 st4">D</tspan></text>
		</g>
		<g class="st1">
			<rect x="302.8" y="120.4" class="st2" width="9.8" height="5.6"/>
			<text transform="matrix(1 0 0 1 302.7764 124.4927)"><tspan x="0" y="0" class="st5 st3 st4">LE</tspan><tspan x="6.4" y="0" class="st5 st3 st4">D</tspan></text>
		</g>
		<path class="st0" d="M305,124.3h-1.7v-3.6"/>
		<path class="st0" d="M306.2,122.4h1.2"/>
		<path class="st0" d="M308,124.3h-1.7v-3.6h1.7"/>
		<path class="st0" d="M309.5,124.3v-3.6h0.9l0.5,0.2l0.4,0.3l0.1,0.4l0.2,0.7v0.5l-0.2,0.6l-0.1,0.4l-0.4,0.4l-0.5,0.1H309.5"/>
	</g>
</g>
<g>
	<g>
		<rect x="280.4" y="111" class="st13" width="14.4" height="5.8"/>
	</g>
	<g>
		<path class="st0" d="M294.8,113.9h3.6"/>
		<path class="st0" d="M280.4,113.9h-3.6"/>
		<g class="st1">
			<rect x="285.7" y="111.8" class="st2" width="4" height="5.6"/>
			<text transform="matrix(1 0 0 1 285.668 115.8545)" class="st3 st4">R</text>
		</g>
		<g class="st1">
			<rect x="285.7" y="111.8" class="st2" width="4" height="5.6"/>
			<text transform="matrix(1 0 0 1 285.666 115.8525)" class="st5 st3 st4">R</text>
		</g>
		<path class="st0" d="M288.5,115.6l-1.2-1.7"/>
		<path class="st0" d="M286.4,115.6V112h1.4l0.4,0.2l0.2,0.1l0.1,0.4v0.5l-0.1,0.4l-0.2,0.1l-0.4,0.1h-1.4"/>
	</g>
</g>
<g>
	<g>
		<path class="st15" d="M78.8,176.9v3.6h3.6l-3.6,3.6l-3.6-3.6h3.6"/>
		<g class="st1">
			<rect x="73.5" y="187.2" class="st2" width="11.4" height="5.6"/>
			<text transform="matrix(1 0 0 1 73.52 191.3105)"><tspan x="0" y="0" class="st3 st4">GN</tspan><tspan x="7.9" y="0" class="st3 st4">D</tspan></text>
		</g>
		<g class="st1">
			<rect x="73.5" y="187.2" class="st2" width="11.4" height="5.6"/>
			<text transform="matrix(1 0 0 1 73.5186 191.3086)"><tspan x="0" y="0" class="st5 st3 st4">GN</tspan><tspan x="7.9" y="0" class="st5 st3 st4">D</tspan></text>
		</g>
		<path class="st0" d="M76,187.7l-0.3-0.2h-0.5l-0.6,0.2l-0.3,0.3l-0.2,0.4l-0.1,0.7v0.5l0.1,0.6l0.2,0.4l0.3,0.4l0.6,0.1h0.3
			L76,191l0.2-0.2v-1.2h-0.7"/>
		<path class="st0" d="M77.7,191.1v-3.6l2.1,3.6v-3.6"/>
		<path class="st0" d="M81.5,191.1v-3.6h0.9l0.5,0.2l0.3,0.3l0.2,0.4l0.1,0.7v0.5l-0.1,0.6l-0.2,0.4l-0.3,0.4l-0.5,0.1H81.5"/>
	</g>
</g>
<g>
	<path class="st0" d="M132.8,97.7h10.8"/>
	<path class="st0" d="M327.2,83.3V40.1"/>
	<path class="st0" d="M100.4,117.5v34.2"/>
	<path class="st0" d="M116.6,68.9h27"/>
	<path class="st0" d="M78.8,176.9h37.8"/>
	<path class="st0" d="M132.8,97.7v68.4"/>
	<path class="st0" d="M84.2,68.9h32.4"/>
	<path class="st0" d="M143.6,54.5h-27"/>
	<path class="st0" d="M116.6,54.5V11.3"/>
	<path class="st0" d="M116.6,11.3H51.8"/>
	<path class="st0" d="M287.6,83.3h39.6"/>
	<path class="st0" d="M266,68.9h21.6"/>
	<path class="st0" d="M266,97.7v16.2"/>
	<path class="st0" d="M266,113.9h10.8"/>
	<path class="st0" d="M320,113.9h7.2"/>
	<path class="st0" d="M327.2,113.9V97.7"/>
	<path class="st0" d="M327.2,97.7h-50.4"/>
	<path class="st0" d="M276.8,97.7V83.3"/>
	<path class="st0" d="M276.8,83.3H266"/>
	<path class="st0" d="M84.2,40.1h59.4"/>
	<path class="st0" d="M84.2,25.7h59.4"/>
	<path class="st0" d="M100.4,83.3v21.6"/>
	<path class="st0" d="M100.4,83.3h43.2"/>
	<path class="st0" d="M287.6,68.9v14.4"/>
	<path class="st0" d="M73.4,117.5h27"/>
	<path class="st0" d="M44.6,104.9h7.2"/>
	<path class="st0" d="M51.8,117.5h-7.2"/>
	<path class="st0" d="M100.4,104.9v12.6"/>
	<path class="st0" d="M100.4,54.5v28.8"/>
	<path class="st0" d="M302,54.5h-36"/>
	<path class="st0" d="M84.2,54.5h16.2"/>
	<path class="st0" d="M116.6,68.9v108"/>
	<path class="st0" d="M302,58.1v-3.6"/>
	<path class="st0" d="M266,40.1h61.2"/>
	<path class="st0" d="M78.8,166.1h54"/>
	<path class="st0" d="M78.8,151.7h21.6"/>
	<path class="st0" d="M73.4,104.9h27"/>
	<g class="st1">
		<rect x="33.1" y="115.2" class="st2" width="10.4" height="5.6"/>
		<text transform="matrix(1 0 0 1 33.124 119.3105)"><tspan x="0" y="0" class="st3 st4">SC</tspan><tspan x="7.7" y="0" class="st3 st4">L</tspan></text>
	</g>
	<g class="st1">
		<rect x="33.1" y="115.2" class="st2" width="10.4" height="5.6"/>
		<text transform="matrix(1 0 0 1 33.1221 119.3086)"><tspan x="0" y="0" class="st5 st3 st4">SC</tspan><tspan x="7.7" y="0" class="st5 st3 st4">L</tspan></text>
	</g>
	<path class="st0" d="M32.9,119l0.5,0.1h0.9l0.4-0.1l0.1-0.2l0.2-0.3v-0.4l-0.2-0.4l-0.1-0.1l-0.4-0.2l-0.7-0.1l-0.3-0.1l-0.2-0.2
		l-0.1-0.4v-0.3l0.1-0.4l0.2-0.1l0.3-0.2h0.9l0.6,0.2"/>
	<path class="st0" d="M38.6,118.7l-0.2,0.2l-0.5,0.1h-0.4L37,119l-0.4-0.4l-0.1-0.4l-0.1-0.6v-0.5l0.1-0.7l0.1-0.4l0.4-0.3l0.5-0.2
		h0.4l0.5,0.2l0.2,0.1"/>
	<path class="st0" d="M41.8,119.1h-1.7v-3.6"/>
</g>
<g>
	<path class="st17" d="M44.6,117.5l-1.8-3.2H31.2v3.2v3.2h11.6L44.6,117.5z"/>
</g>
<g>
	<g class="st1">
		<rect x="32.6" y="102.6" class="st2" width="10.5" height="5.6"/>
		<text transform="matrix(1 0 0 1 32.5972 106.7104)"><tspan x="0" y="0" class="st3 st4">SD</tspan><tspan x="7.3" y="0" class="st3 st4">A</tspan></text>
	</g>
	<g class="st1">
		<rect x="32.6" y="102.6" class="st2" width="10.5" height="5.6"/>
		<text transform="matrix(1 0 0 1 32.5957 106.709)"><tspan x="0" y="0" class="st5 st3 st4">SD</tspan><tspan x="7.3" y="0" class="st5 st3 st4">A</tspan></text>
	</g>
	<path class="st0" d="M32.7,106.4l0.5,0.1h0.9l0.3-0.1l0.2-0.2l0.1-0.3v-0.4l-0.1-0.4l-0.2-0.1l-0.3-0.2l-0.7-0.1l-0.4-0.1l-0.1-0.2
		l-0.1-0.4v-0.3l0.1-0.4l0.1-0.1l0.4-0.2h0.9l0.5,0.2"/>
	<path class="st0" d="M36.3,106.5v-3.6h0.8l0.6,0.2l0.3,0.3l0.2,0.4l0.1,0.7v0.5l-0.1,0.6L38,106l-0.3,0.4l-0.6,0.1H36.3"/>
	<path class="st0" d="M39.7,105.5h1.7"/>
	<path class="st0" d="M39.3,106.5l1.2-3.6l1.2,3.6"/>
</g>
<g>
	<path class="st17" d="M44.6,104.9l-1.8-3.2H31.1v3.2v3.2h11.7L44.6,104.9z"/>
</g>
<g>
	<g class="st1">
		<rect x="251.6" y="123.1" class="st2" width="36.8" height="5.6"/>
		<text transform="matrix(1 0 0 1 251.5996 127.1582)"><tspan x="0" y="0" class="st3 st4">Indicator</tspan><tspan x="18.2" y="0" class="st3 st4 st18"> </tspan><tspan x="27.5" y="0" class="st3 st4">LED</tspan></text>
	</g>
	<g class="st1">
		<rect x="251.6" y="123.1" class="st2" width="36.8" height="5.6"/>
		<text transform="matrix(1 0 0 1 251.5977 127.1567)"><tspan x="0" y="0" class="st5 st3 st4">Indicator</tspan><tspan x="18.2" y="0" class="st5 st3 st4 st18"> </tspan><tspan x="27.6" y="0" class="st5 st3 st4">LED</tspan></text>
	</g>
	<path class="st0" d="M252.6,126.9v-3.6"/>
	<path class="st0" d="M254.3,124.6v2.4"/>
	<path class="st0" d="M254.3,124.9l0.2-0.2l0.3-0.1h0.6l0.3,0.1l0.2,0.4v1.9"/>
	<path class="st0" d="M259.2,126.9v-3.6"/>
	<path class="st0" d="M259.2,126.8l-0.4,0.1h-0.6l-0.4-0.1l-0.2-0.2l-0.1-0.3v-1.1l0.1-0.3l0.2-0.2l0.4-0.1h0.6l0.4,0.1"/>
	<path class="st0" d="M260.9,126.9v-2.4"/>
	<path class="st0" d="M260.9,123.3l-0.2,0.2l0.2,0.1l0.1-0.1L260.9,123.3v0.4"/>
	<path class="st0" d="M264.1,126.8l-0.4,0.1h-0.6l-0.4-0.1l-0.1-0.2l-0.2-0.3v-1.1l0.2-0.3l0.1-0.2l0.4-0.1h0.6l0.4,0.1"/>
	<path class="st0" d="M267.2,126.9v-1.9l-0.2-0.4l-0.3-0.1H266l-0.4,0.1"/>
	<path class="st0" d="M267.2,126.8l-0.4,0.1H266l-0.4-0.1l-0.1-0.4v-0.4l0.1-0.4l0.4-0.1h0.9l0.4-0.1"/>
	<path class="st0" d="M268.4,124.6h1.4"/>
	<path class="st0" d="M269,123.3v3.1l0.1,0.4l0.4,0.1h0.4"/>
	<path class="st0" d="M271.5,126.9l-0.3-0.1l-0.2-0.2l-0.1-0.3v-1.1l0.1-0.3l0.2-0.2l0.3-0.1h0.5l0.4,0.1l0.2,0.2l0.1,0.3v1.1
		l-0.1,0.3l-0.2,0.2l-0.4,0.1H271.5"/>
	<path class="st0" d="M274.2,126.9v-2.4"/>
	<path class="st0" d="M274.2,125.2l0.2-0.3l0.1-0.2l0.4-0.1h0.4"/>
	<path class="st0" d="M280.9,126.9h-1.7v-3.6"/>
	<path class="st0" d="M282.1,125.1h1.2"/>
	<path class="st0" d="M283.9,126.9h-1.7v-3.6h1.7"/>
	<path class="st0" d="M285.4,126.9v-3.6h0.9l0.5,0.2l0.4,0.3l0.1,0.4l0.2,0.7v0.5l-0.2,0.6l-0.1,0.4l-0.4,0.4l-0.5,0.1H285.4"/>
	<g class="st1">
		<rect x="251.6" y="128.9" class="st2" width="36.4" height="5.6"/>
		<text transform="matrix(1 0 0 1 251.5996 132.9902)"><tspan x="0" y="0" class="st3 st4">power</tspan><tspan x="12.9" y="0" class="st3 st4 st19"> </tspan><tspan x="24.5" y="0" class="st3 st4">on/off</tspan></text>
	</g>
	<g class="st1">
		<rect x="251.6" y="128.9" class="st2" width="36.4" height="5.6"/>
		<text transform="matrix(1 0 0 1 251.5977 132.9888)"><tspan x="0" y="0" class="st5 st3 st4">power</tspan><tspan x="12.9" y="0" class="st5 st3 st4 st19"> </tspan><tspan x="24.5" y="0" class="st5 st3 st4">on/off</tspan></text>
	</g>
	<path class="st0" d="M252.6,130.4v3.6"/>
	<path class="st0" d="M252.6,130.5l0.4-0.1h0.7l0.3,0.1l0.2,0.2l0.1,0.3v1.1l-0.1,0.3l-0.2,0.2l-0.3,0.1H253l-0.4-0.1"/>
	<path class="st0" d="M256.4,132.8l-0.4-0.1l-0.1-0.2l-0.2-0.3V131l0.2-0.3l0.1-0.2l0.4-0.1h0.5l0.4,0.1l0.1,0.2l0.1,0.3v1.1
		l-0.1,0.3l-0.1,0.2l-0.4,0.1H256.4"/>
	<path class="st0" d="M258.8,130.4l0.7,2.4l0.6-1.7l0.7,1.7l0.6-2.4"/>
	<path class="st0" d="M264.3,132.6l-0.3,0.1h-0.7l-0.4-0.1l-0.1-0.4v-1.4l0.1-0.4l0.4-0.1h0.7l0.3,0.1l0.2,0.4v0.4l-1.7,0.3"/>
	<path class="st0" d="M266,132.8v-2.4"/>
	<path class="st0" d="M266,131l0.2-0.3l0.1-0.2l0.4-0.1h0.3"/>
	<path class="st0" d="M271.5,132.8l-0.3-0.1l-0.2-0.2l-0.1-0.3V131l0.1-0.3l0.2-0.2l0.3-0.1h0.5l0.4,0.1l0.2,0.2l0.1,0.3v1.1
		l-0.1,0.3l-0.2,0.2l-0.4,0.1H271.5"/>
	<path class="st0" d="M274.2,130.4v2.4"/>
	<path class="st0" d="M274.2,130.8l0.2-0.2l0.4-0.1h0.5l0.3,0.1l0.2,0.4v1.9"/>
	<path class="st0" d="M280,129l-3,4.6"/>
	<path class="st0" d="M281.8,132.8l-0.4-0.1l-0.1-0.2l-0.1-0.3V131l0.1-0.3l0.1-0.2l0.4-0.1h0.5l0.4,0.1l0.1,0.2l0.2,0.3v1.1
		l-0.2,0.3l-0.1,0.2l-0.4,0.1H281.8"/>
	<path class="st0" d="M284,130.4h1.4"/>
	<path class="st0" d="M284.5,132.8v-3.1l0.2-0.3l0.3-0.2h0.4"/>
	<path class="st0" d="M286.1,130.4h1.4"/>
	<path class="st0" d="M286.6,132.8v-3.1l0.1-0.3l0.4-0.2h0.4"/>
	<g class="st1">
		<rect x="30.2" y="92.9" class="st2" width="36.9" height="5.6"/>
		<text transform="matrix(1 0 0 1 30.2002 96.9902)"><tspan x="0" y="0" class="st3 st4">I2C</tspan><tspan x="7.4" y="0" class="st3 st4 st19"> </tspan><tspan x="19" y="0" class="st3 st4">Pull-Ups</tspan></text>
	</g>
	<g class="st1">
		<rect x="30.2" y="92.9" class="st2" width="36.9" height="5.6"/>
		<text transform="matrix(1 0 0 1 30.1978 96.9888)"><tspan x="0" y="0" class="st5 st3 st4">I2C</tspan><tspan x="7.4" y="0" class="st5 st3 st4 st19"> </tspan><tspan x="19" y="0" class="st5 st3 st4">Pull-Ups</tspan></text>
	</g>
	<path class="st0" d="M31.2,96.8v-3.6"/>
	<path class="st0" d="M32.8,93.5l0.1-0.1l0.4-0.2h0.9l0.4,0.2l0.1,0.1l0.1,0.4v0.3l-0.1,0.6l-2.1,2h2.2"/>
	<path class="st0" d="M38.4,96.4l-0.1,0.2l-0.5,0.1h-0.4l-0.5-0.1l-0.4-0.4l-0.1-0.4l-0.2-0.6v-0.5l0.2-0.7l0.1-0.4l0.4-0.3l0.5-0.2
		h0.4l0.5,0.2l0.1,0.1"/>
	<path class="st0" d="M42.7,96.8v-3.6h1.4l0.4,0.2l0.1,0.1l0.2,0.4v0.5l-0.2,0.4l-0.1,0.1L44.1,95h-1.4"/>
	<path class="st0" d="M47.8,94.4v2.4"/>
	<path class="st0" d="M46.3,94.4v1.9l0.1,0.4l0.4,0.1h0.5l0.4-0.1l0.1-0.2"/>
	<path class="st0" d="M50.1,96.8l-0.3-0.1l-0.2-0.4v-3.1"/>
	<path class="st0" d="M52,96.8l-0.4-0.1l-0.2-0.4v-3.1"/>
	<path class="st0" d="M53.4,95.4h2.7"/>
	<path class="st0" d="M57.8,93.2v3l0.2,0.3l0.1,0.2l0.4,0.1h0.7l0.3-0.1l0.2-0.2l0.1-0.3v-3"/>
	<path class="st0" d="M61.6,94.4V98"/>
	<path class="st0" d="M61.6,94.5l0.4-0.1h0.6l0.4,0.1l0.1,0.2l0.2,0.3v1.1l-0.2,0.3L63,96.6l-0.4,0.1H62l-0.4-0.1"/>
	<path class="st0" d="M64.7,96.6l0.3,0.1h0.7l0.4-0.1l0.1-0.4v-0.1l-0.1-0.4l-0.4-0.2h-0.5l-0.4-0.1L64.7,95v-0.1l0.1-0.4l0.4-0.1
		h0.5l0.4,0.1"/>
</g>
<g>
	<circle class="st20" cx="100.4" cy="104.9" r="1.4"/>
</g>
<g>
	<circle class="st20" cx="100.4" cy="117.5" r="1.4"/>
</g>
<g>
	<circle class="st20" cx="100.4" cy="83.3" r="1.4"/>
</g>
<g>
	<circle class="st20" cx="287.6" cy="68.9" r="1.4"/>
</g>
<g>
	<circle class="st20" cx="116.6" cy="68.9" r="1.4"/>
</g>
</svg>
